<?xml version="1.0" encoding="UTF-8"?>
<svg width="190px" height="128px" viewBox="0 0 190 128" version="1.1" xmlns="http://www.w3.org/2000/svg" xmlns:xlink="http://www.w3.org/1999/xlink">
    <!-- Generator: Sketch 55.1 (78136) - https://sketchapp.com -->
    <title>white</title>
    <desc>Created with Sketch.</desc>
    <g id="white" stroke="none" stroke-width="1" fill="none" fill-rule="evenodd">
        <path d="M125.902486,104.243166 L113.235067,108.996898 L113.235067,78.7942841 L125.902486,83.33088 L125.902486,104.243166 Z M139.571265,20 L169,20 L169,109 L139.573836,109 L139.573836,75.8660471 L110.006238,75.8660471 L110.006238,109 L79.4537383,109 L64.5619342,109 C35.7246538,109 21,95.8038048 21,64.789515 L21,20 L50.4338783,20 L50.4338783,69.4165844 C50.4338783,77.5953819 57.027314,84.2232065 65.1611037,84.2232065 C73.2974649,84.2232065 80.2560596,77.5953819 80.2560596,69.4165844 L80.220058,20 L109.985665,20 L109.985665,49.7941911 L139.571265,49.7941911 L139.571265,20 Z" id="Combined-Shape" fill="#FFFFFF"></path>
    </g>
</svg>