<?xml version="1.0" encoding="UTF-8"?>
<svg width="1132px" height="1048px" viewBox="0 0 1132 1048" version="1.1" xmlns="http://www.w3.org/2000/svg" xmlns:xlink="http://www.w3.org/1999/xlink">
    <!-- Generator: Sketch 52.5 (67469) - http://www.bohemiancoding.com/sketch -->
    <title>circles</title>
    <desc>Created with Sketch.</desc>
    <defs>
        <linearGradient x1="50%" y1="0%" x2="50%" y2="100%" id="linearGradient-1">
            <stop stop-color="#4FC4EE" offset="0%"></stop>
            <stop stop-color="#2791D9" offset="100%"></stop>
        </linearGradient>
    </defs>
    <g id="Page-1" stroke="none" stroke-width="1" fill="none" fill-rule="evenodd">
        <g id="Pricing-Page" transform="translate(-176.000000, -219.000000)" fill-rule="nonzero">
            <g id="circles" transform="translate(177.000000, 219.000000)">
                <path d="M1009,1011 C1029.98682,1011 1047,993.98682 1047,973 C1047,952.01318 1029.98682,935 1009,935 C988.01318,935 971,952.01318 971,973 C971,993.98682 988.01318,1011 1009,1011 Z" id="circle-9" stroke="#FF5252" stroke-width="2" stroke-dasharray="12,12"></path>
                <circle id="circle-8" fill="#17CCD5" cx="1120" cy="912" r="11"></circle>
                <circle id="circle-7" fill="#2791D9" cx="36" cy="1040" r="8"></circle>
                <path d="M98.5,1016 C116.449254,1016 131,1001.44925 131,983.5 C131,965.550746 116.449254,951 98.5,951 C80.5507456,951 66,965.550746 66,983.5 C66,1001.44925 80.5507456,1016 98.5,1016 Z" id="circle-6" stroke="url(#linearGradient-1)" stroke-width="2" stroke-dasharray="12,12"></path>
                <path d="M1033,229 C1045.15026,229 1055,219.150264 1055,207 C1055,194.849736 1045.15026,185 1033,185 C1020.84974,185 1011,194.849736 1011,207 C1011,219.150264 1020.84974,229 1033,229 Z" id="circle-5" stroke="#FF5252" stroke-width="2" stroke-dasharray="12,12"></path>
                <circle id="circle-4" fill="#2791D9" cx="982" cy="142" r="8">
                    <animateTransform
                       attributeName="transform"
                       begin="0s"
                       dur="5s"
                       type="rotate"
                       from="0 974 134"
                       to="360 974 134"
                       repeatCount="indefinite" 
                            />
                </circle>
                <path d="M45,179 C69.8528137,179 90,158.852814 90,134 C90,109.147186 69.8528137,89 45,89 C20.1471863,89 0,109.147186 0,134 C0,158.852814 20.1471863,179 45,179 Z" id="circle-3" stroke="url(#linearGradient-1)" stroke-width="2" stroke-dasharray="12,12">
                    
                </path>
                <circle id="circle-2" fill="#17CCD5" cx="55" cy="50" r="11">
                    <animateTransform
                       attributeName="transform"
                       begin="0s"
                       dur="20s"
                       type="rotate"
                       from="0 55 50"
                       to="360 100 60"
                       repeatCount="indefinite" 
                            />
                </circle>
                <circle id="circle-1" fill="#2791D9" cx="98" cy="8" r="8">
                    <animateTransform
                       attributeName="transform"
                       begin="01s"
                       dur="20s"
                       type="rotate"
                       from="0 90 100"
                       to="360 100 0"
                       repeatCount="indefinite" 
                            />
                </circle>
            </g>
        </g>
    </g>
</svg>