<?xml version="1.0" encoding="UTF-8"?>
<svg width="565px" height="437px" viewBox="0 0 565 437" version="1.1" xmlns="http://www.w3.org/2000/svg" xmlns:xlink="http://www.w3.org/1999/xlink">
    <!-- Generator: Sketch 52.5 (67469) - http://www.bohemiancoding.com/sketch -->
    <title>Group 4</title>
    <desc>Created with Sketch.</desc>
    <defs>
        <path d="M2.55508261,0.771405182 C2.55508261,0.771405182 19.6393159,22.7368479 22.0799206,27.0079063 C24.5205254,31.2789646 33.062642,38.6007788 35.5032468,41.6515348 C37.9438515,44.7022907 48.9265729,47.1428955 45.875817,48.973349 C42.825061,50.8038026 35.5032468,47.1428955 31.2321884,44.7022907 C26.9611301,42.261686 23.300223,39.21093 19.6393159,36.1601741 C15.9784087,33.1094181 4.99568737,20.9063944 2.55508261,17.2454873 C0.114477862,13.5845801 -1.10582451,-2.27935076 2.55508261,0.771405182" id="path-1"></path>
        <path d="M10.222169,0.323446218 C10.222169,0.323446218 12.199669,9.39883499 7.92861069,10.0089862 C3.65755238,10.6191374 1.78011717,10.7137108 0.958853672,11.7564592 C0.138200324,12.7992076 7.67417765,16.4601147 11.0721096,21.5560974 C14.4688213,26.65147 19.564804,30.0494019 22.1121852,24.1040888 C24.6601766,18.1587756 23.8108461,15.6113944 26.3588375,14.7614538 C28.9068288,13.9121233 30.0197446,9.64899697 30.0197446,9.64899697 C30.0197446,9.64899697 22.2012673,8.41771188 21.3519368,7.56838142 C20.5032165,6.71905097 19.564804,1.17338682 19.564804,1.17338682 L10.222169,0.323446218 Z" id="path-3"></path>
        <path d="M55.1479552,19.0932194 C53.9276528,17.2627659 49.4186355,6.04208553 47.8261409,4.44959093 C45.2781496,1.90159957 39.1522316,0.788683799 37.4535707,0.788683799 C35.7549098,0.788683799 34.8811733,3.73205313 33.1825124,6.28004449 C31.4838515,8.82803585 25.8606982,9.94095162 21.5896398,9.33080043 C17.3185815,8.72064924 12.4471344,2.49039546 12.4471344,2.49039546 C12.4471344,2.49039546 4.6127932,5.19153477 2.06480184,6.89019568 C-0.483189525,8.58885659 2.38696166,22.8981222 1.53763121,27.1447745 C0.688300756,31.3914268 4.08562257,62.8154333 3.23629212,69.6100769 C2.38696166,76.4041104 4.50540659,81.3286406 13.0475232,81.9387918 C21.5896398,82.548943 27.1054066,79.3663944 31.3520589,77.6677335 C35.5987111,75.9690726 61.838263,70.4594073 61.838263,70.4594073 C61.838263,70.4594073 55.8929498,61.9661028 54.1942889,57.7200607 C52.495628,53.4734084 45.3855362,32.5165456 45.3855362,32.5165456 C45.3855362,32.5165456 50.0123126,29.0142778 55.1479552,26.4150337 C57.0168483,25.4686892 56.3682576,20.923673 55.1479552,19.0932194 Z" id="path-5"></path>
        <path d="M24.6602376,2.24485227 C24.6602376,2.24485227 24.6602376,8.08827019 25.5101782,11.0102842 C26.3588985,13.9322983 28.2890423,21.2743844 27.4397118,24.6717063 C26.5903814,28.0690281 21.2635259,34.3857864 17.0168737,33.4113749 C12.7702214,32.4375736 9.37289957,32.4375736 5.97557775,29.5155596 C2.57886609,26.5935456 1.72953564,25.6203544 0.879595032,20.7501276 C0.03087473,15.880511 0.03087473,10.0364829 2.57886609,9.06268164 C5.1262473,8.08827019 4.277527,1.27044082 6.82551836,1.27044082 C9.37289957,1.27044082 17.0168737,0.297249674 17.0168737,0.297249674 L24.6602376,2.24485227 Z" id="path-7"></path>
        <linearGradient x1="30.0427157%" y1="8.79811768%" x2="89.0432182%" y2="106.999483%" id="linearGradient-9">
            <stop stop-color="#AFFAFD" offset="0%"></stop>
            <stop stop-color="#86D2E7" offset="100%"></stop>
        </linearGradient>
        <polygon id="path-10" points="0.506486501 43.9308855 88.3682576 0 140.231109 14.6436285 53.5896398 64.0658747"></polygon>
        <path d="M7.38714471,0.295871164 C7.38714471,0.295871164 23.5781166,26.5885062 25.2218639,29.1718863 C31.1677873,38.5139111 39.6604816,41.0619025 46.4545151,42.7605634 C53.2491587,44.4592243 57.495811,45.3079446 60.0438024,47.0072157 C62.5917937,48.7058766 62.5917937,50.4039273 58.3451415,50.4039273 C54.0984892,50.4039273 48.153176,48.7058766 44.7558542,48.7058766 C41.3591425,48.7058766 33.7151685,49.5545969 30.3178467,47.0072157 C26.921135,44.4592243 16.7297797,35.9659198 12.4831274,30.869937 C8.23647516,25.7745645 2.29116199,14.7338787 0.59250108,11.3365569 C-1.10615983,7.9392351 7.38714471,0.295871164 7.38714471,0.295871164" id="path-12"></path>
        <path d="M0.742987581,14.4830682 C-0.441926026,24.7470315 0.742987581,30.9571503 1.35313877,33.3977551 C1.96328996,35.8383598 0.501367711,46.3848231 8.67495302,42.5500229 C16.8485383,38.7152227 23.9287327,36.448511 23.9287327,36.448511 C23.9287327,36.448511 23.8121938,23.7738404 20.6699152,19.3349905 C17.5282468,14.8967508 18.4672694,11.6312216 18.4672694,11.6312216 C18.4672694,11.6312216 15.3866161,-0.160560261 11.725709,1.05974211 C8.06480184,2.28004449 1.92790119,4.21910497 0.742987581,14.4830682 Z" id="path-14"></path>
        <linearGradient x1="50%" y1="0%" x2="50%" y2="100%" id="linearGradient-16">
            <stop stop-color="#0069B1" offset="0%"></stop>
            <stop stop-color="#031D41" offset="100%"></stop>
        </linearGradient>
        <polygon id="path-17" points="0.211771088 0.14887689 34.1461422 0.14887689 34.1461422 36.3070464 0.211771088 36.3070464"></polygon>
        <linearGradient x1="30.0427157%" y1="8.79811768%" x2="89.0432182%" y2="106.999483%" id="linearGradient-19">
            <stop stop-color="#17CCD5" offset="0%"></stop>
            <stop stop-color="#00C8FF" offset="100%"></stop>
        </linearGradient>
        <linearGradient x1="50%" y1="-2.46789709%" x2="50%" y2="100%" id="linearGradient-20">
            <stop stop-color="#3FF4FD" offset="0%"></stop>
            <stop stop-color="#2791D9" offset="100%"></stop>
        </linearGradient>
        <linearGradient x1="21.6394223%" y1="-22.5662727%" x2="64.2849265%" y2="89.8368519%" id="linearGradient-21">
            <stop stop-color="#33E8EC" offset="0%"></stop>
            <stop stop-color="#33BEEF" offset="100%"></stop>
        </linearGradient>
        <linearGradient x1="71.3698766%" y1="-5.14252459%" x2="88.6735075%" y2="88.5851192%" id="linearGradient-22">
            <stop stop-color="#8CFCFF" offset="0%"></stop>
            <stop stop-color="#32E7EC" offset="43.3636154%"></stop>
            <stop stop-color="#17CCD5" offset="100%"></stop>
        </linearGradient>
        <path d="M0.836517279,2.00617711 C-0.251382289,3.1575324 -0.251382289,4.27288877 1.12450864,6.05514039 C1.13610151,8.68672246 1.12450864,11.5196544 1.12450864,12.0840443 C1.12450864,12.2829536 2.14834233,12.5636231 4.19600972,12.9260529 C6.24367711,12.5044384 7.26690065,12.2237689 7.26690065,12.0840443 L7.26690065,9.97231102 L9.23463823,9.97231102 C10.7697786,9.97231102 10.3750108,7.99053996 10.3384017,7.38099892 C10.2779968,6.37058855 10.0540713,4.00320194 9.66662527,0.278228942 C4.50474622,0.662014039 1.56137689,1.23860691 0.836517279,2.00617711" id="path-23"></path>
        <path d="M0.154368251,12.2390227 C0.154368251,19.4979914 4.48034017,25.9265443 9.84784017,26.6007613 C15.2507289,27.2804698 19.6566307,21.8788013 19.6566307,14.532581 C19.6566307,7.18697084 15.2507289,0.748655508 9.84784017,0.156808855 C9.5799838,0.127521598 9.31456803,0.11287797 9.05220302,0.11287797 C4.05933585,0.11287797 0.154368251,5.3412635 0.154368251,12.2390227" id="path-25"></path>
        <path d="M2.18739201,0.00976241901 C1.5924946,0.260534557 1.03908747,0.502154428 0.528390929,0.734011879 C2.30393089,3.88300216 4.99591793,6.0862581 8.01738661,6.46577214 C10.9516037,6.83491361 13.5911177,5.41082073 15.3910637,2.85611771 C14.4300756,2.10807235 12.5880292,1.15928726 9.86553456,0.00915226782 L2.18739201,0.00976241901 Z" id="path-27"></path>
        <linearGradient x1="36.9909011%" y1="0.00315642825%" x2="36.9909011%" y2="149.719593%" id="linearGradient-29">
            <stop stop-color="#120126" offset="0%"></stop>
            <stop stop-color="#120117" offset="100%"></stop>
        </linearGradient>
        <path d="M0.473477322,0.615032397 L0.208061555,5.49014039 C0.82187365,5.8299946 1.4637527,6.09296976 2.12393629,6.26808315 L1.81703024,0.615032397 C1.51866631,0.294703024 1.29413067,0.134843413 1.14525378,0.134843413 C0.995766739,0.134843413 0.771841253,0.294703024 0.473477322,0.615032397" id="path-30"></path>
        <path d="M0.154368251,12.2390227 C0.154368251,19.4979914 4.48034017,25.9265443 9.84784017,26.6007613 C15.2507289,27.2804698 19.6566307,21.8788013 19.6566307,14.532581 C19.6566307,7.18697084 15.2507289,0.748655508 9.84784017,0.156808855 C9.5799838,0.127521598 9.31456803,0.11287797 9.05220302,0.11287797 C4.05933585,0.11287797 0.154368251,5.3412635 0.154368251,12.2390227 Z" id="path-32"></path>
        <path d="M0.154368251,12.2390227 C0.154368251,19.4979914 4.48034017,25.9265443 9.84784017,26.6007613 C15.2507289,27.2804698 19.6566307,21.8788013 19.6566307,14.532581 C19.6566307,7.18697084 15.2507289,0.748655508 9.84784017,0.156808855 C9.5799838,0.127521598 9.31456803,0.11287797 9.05220302,0.11287797 C4.05933585,0.11287797 0.154368251,5.3412635 0.154368251,12.2390227 Z" id="path-34"></path>
        <path d="M5.70308315,1.29779158 C4.39491901,0.0866414687 1.01468143,1.17698164 1.18430346,3.28688445 C0.12325054,3.28688445 -0.260534557,5.58959503 1.28558855,6.1649676 C1.41921166,8.43656048 2.9549622,10.932689 2.9549622,11.9406587 C4.2362797,11.3085421 4.45654428,10.3524352 3.97696544,10.3689093 C2.58643089,10.4177214 1.76150648,7.92830454 3.00438445,7.28337473 C3.52850432,7.010027 3.89947624,7.18697084 4.20455184,7.4487257 C4.96968143,8.53418467 4.95259719,10.8149298 5.25828294,12.22804 C5.64206803,14.0035799 8.0899946,14.7241685 10.537311,14.7241685 C11.9766577,14.7241685 12.8888337,13.572203 12.1688553,11.6520572 C12.1212635,11.8442549 11.7081911,12.1633639 10.920486,12.2762419 C9.9137365,12.4202376 6.69823974,12.22804 6.12164687,10.8362851 C5.67135529,9.74655508 4.84215983,6.3711987 6.28394708,6.3711987 C9.28955184,6.3711987 11.3713877,6.15581533 12.2615983,5.58959503 C14.4245842,4.2137041 12.9065281,0.668725702 10.5958855,1.90184125 C10.4720248,1.05617171 9.16813175,0.422224622 7.86850972,0.422224622 C7.04358531,0.422224622 6.22049136,0.67787797 5.70308315,1.29779158" id="path-36"></path>
        <polygon id="path-38" points="114.412527 15.5525343 60.7192225 89.2680827 0.924406048 69.7366126 63.7699784 0.43139614"></polygon>
        <filter x="-163.9%" y="-109.3%" width="427.8%" height="318.5%" filterUnits="objectBoundingBox" id="filter-40">
            <feGaussianBlur stdDeviation="2" in="SourceGraphic"></feGaussianBlur>
        </filter>
        <path d="M5.9727365,6.24891991 C5.9727365,6.24891991 6.92518251,15.0973059 5.9727365,18.0471879 C5.0202905,20.9964399 3.11661879,23.946322 1.21233693,24.9291959 C-0.691944924,25.9127 2.16478294,32.794708 5.9727365,31.8112039 C9.78130022,30.8283299 12.6380281,24.9291959 18.3502635,25.9127 C24.0631091,26.896204 17.3984276,20.9964399 17.3984276,14.1144319 C17.3984276,7.23242394 16.8755281,0.893516821 16.8755281,0.893516821 L8.82946436,3.29903788 L5.9727365,6.24891991 Z" id="path-41"></path>
        <path d="M44.4707473,9.51929698 C41.6146296,13.3284708 37.8060659,16.1845886 36.8536199,28.5621156 C35.901784,40.9396425 29.2371026,54.2696156 20.6675292,59.0300151 C12.0985659,63.7910248 2.57715659,75.2161058 0.67287473,75.2161058 C-1.23140713,75.2161058 12.0985659,86.641797 21.619365,85.689351 C31.1413844,84.7375151 34.949338,85.689351 39.7103477,87.5936328 C44.4707473,89.4979147 47.326865,87.5936328 47.326865,87.5936328 C47.326865,87.5936328 72.081919,17.1370346 76.8429287,16.1845886 C81.6033283,15.2327527 78.7472106,5.71073326 73.034365,1.9027797 C67.3221296,-1.90578402 66.3696836,0.950333693 60.656838,4.75889741 C54.9446026,8.56746112 53.9921566,1.9027797 53.9921566,1.9027797 C53.9921566,1.9027797 47.326865,5.71073326 44.4707473,9.51929698 Z" id="path-43"></path>
        <path d="M14.9080459,46.1130757 C9.64732235,48.6628776 0.51274892,39.7243948 1.0142932,33.8951961 C1.51522732,28.0666274 1.44383963,12.1415487 1.44383963,12.1415487 C1.44383963,12.1415487 -1.81436771,-2.40813639 3.83319168,1.37718853 C9.48014093,5.16314349 15.6615826,6.82016821 15.6615826,6.82016821 L36.0503947,25.4607512 C36.0503947,25.4607512 25.1323494,40.4936827 22.6655081,41.7544076 C22.6655081,41.7544076 20.1687694,43.5626437 14.9080459,46.1130757 Z" id="path-45"></path>
        <path d="M18.2952867,27.2909954 C24.9599681,27.2909954 33.5295416,32.2072555 43.0509509,31.2237514 C52.57175,30.2408775 68.7578407,24.3411134 73.5188504,21.3924915 C78.27925,18.4426094 89.704331,9.59359338 90.656777,9.59359338 C91.609223,9.59359338 88.7524951,-1.22117062 85.8963774,0.745207384 C83.0402597,2.71158539 74.4706863,8.61134945 66.8535589,12.5434754 C59.2370416,16.4762314 53.0476679,18.9340464 40.6701409,19.9175504 C28.2926139,20.9004244 13.0583591,21.8832984 8.29856965,22.8668024 C3.53755994,23.8496764 -2.17467549,25.8160544 2.109196,27.2909954 L18.2952867,27.2909954 Z" id="path-47"></path>
        <linearGradient x1="59.3136058%" y1="0%" x2="30.0427157%" y2="77.8630865%" id="linearGradient-49">
            <stop stop-color="#AFFAFD" offset="0%"></stop>
            <stop stop-color="#86D2E7" offset="100%"></stop>
        </linearGradient>
    </defs>
    <g id="Page-1" stroke="none" stroke-width="1" fill="none" fill-rule="evenodd">
        <g id="Main-Illustration-Copy-3" transform="translate(-438.000000, -293.000000)">
            <g id="Group-4" transform="translate(438.000000, 294.000000)">
                <polygon id="Fill-1" fill="#1C1919" points="100.571281 314.141816 138.400655 293.396675 138.400655 292.786524 100.571281 313.531664"></polygon>
                <g id="Path-149" transform="translate(72.759308, 231.000000)">
                    <mask id="mask-2" fill="white">
                        <use xlink:href="#path-1"></use>
                    </mask>
                    <use id="Mask" fill="#FFD5C2" xlink:href="#path-1"></use>
                    <path d="M11,18.2400756 C14.3606662,21.1003248 16.9295106,25.3423717 18.7065333,30.9662162 L31.1594221,41.4186047 L31.1594221,47.3919129 L18.4749438,37.5675284 L9.887155,27.9342266 L4.68198791,19.029983 C5.53332981,15.6431288 7.63933384,15.3798264 11,18.2400756 Z" fill-opacity="0.440245697" fill="#FCB9A5" fill-rule="nonzero" mask="url(#mask-2)"></path>
                </g>
                <g id="Path-147" transform="translate(42.000000, 212.000000)">
                    <mask id="mask-4" fill="white">
                        <use xlink:href="#path-3"></use>
                    </mask>
                    <use id="Mask" fill="#FFD5C2" xlink:href="#path-3"></use>
                    <path d="M19.7124424,4.83445866 C13.9078141,8.32226127 10.1418333,10.0661626 8.4145,10.0661626 C6.68716667,10.0661626 7.21407619,7.74681108 9.99522857,3.10810811 L19.7124424,4.83445866 Z" fill-opacity="0.440245697" fill="#FCB9A5" fill-rule="nonzero" mask="url(#mask-4)"></path>
                </g>
                <g id="Path-144" transform="translate(32.000000, 220.000000)">
                    <mask id="mask-6" fill="white">
                        <use xlink:href="#path-5"></use>
                    </mask>
                    <use id="Mask" fill="#2791D9" xlink:href="#path-5"></use>
                    <path d="M5.98781196,4.7855821 C0.4145,52.0538766 -1.44327065,76.4866416 0.4145,78.0838768 C3.20115598,80.4797297 15.8463719,83.7961712 18,83.7961712 C20.1536281,83.7961712 30.0279425,79.2983731 27.2212213,76.637028 C24.4145,73.9756829 10,69.8393491 14,67.4969549 C18,65.1545608 20.1765,61.34463 18,57.5736434 C15.8235,53.8026568 9.0924253,43.1566812 11.4055,38.362972 C12.9475498,35.1671658 11.1416538,23.9747025 5.98781196,4.7855821 Z" fill-opacity="0.573426178" fill="#2476AD" fill-rule="nonzero" mask="url(#mask-6)"></path>
                    <path d="M42.5,15.6612705 C44.4549233,29.2806136 46.2364874,36.8478474 47.8446925,38.362972 C49.4528975,39.8780966 50.9049546,38.6938912 52.2008639,34.8103558 C50.388568,33.5963902 49.48242,31.4958818 49.48242,28.5088307 C49.48242,24.028254 47.3550282,34.4229705 46.7953525,23.9932432 C46.4222354,17.0400918 44.9904513,14.2627675 42.5,15.6612705 Z" id="Path" fill-opacity="0.573426178" fill="#2476AD" fill-rule="nonzero" mask="url(#mask-6)"></path>
                </g>
                <g id="Path-146" transform="translate(42.000000, 184.000000)">
                    <mask id="mask-8" fill="white">
                        <use xlink:href="#path-7"></use>
                    </mask>
                    <use id="Mask" fill="#FFD5C2" xlink:href="#path-7"></use>
                    <path d="M10.3846638,4.46511628 C10.2458879,5.91453149 9.451,8.04283438 8,10.850025 C5.8235,15.0608108 8,21.0253747 9.1923319,25.5028641 C10.3846638,29.9803535 11.6329643,32.3918919 8.72823215,31.75 C5.8235,31.1081081 1.4055,26.9954249 1.4055,23.2589792 C1.4055,19.5225335 1.13941004,10.7815315 2.56970502,8.10698198 C3.52323501,6.32394895 6.12822127,5.10999371 10.3846638,4.46511628 Z" fill-opacity="0.440245697" fill="#FCB9A5" fill-rule="nonzero" mask="url(#mask-8)"></path>
                </g>
                <g id="Path-150" transform="translate(31.117711, 270.210930)">
                    <mask id="mask-11" fill="white">
                        <use xlink:href="#path-10"></use>
                    </mask>
                    <use id="Mask" fill="url(#linearGradient-9)" xlink:href="#path-10"></use>
                    <path d="M2.56978942,41.2787168 C31.4718294,25.5428387 46.0330794,19.0651273 46.2535394,21.8455828 C46.5842294,26.0162659 57.9464552,31.5873285 59.1518442,31.2490101 C60.3572332,30.9106916 74.1634471,37.0637743 69.8822894,43.6832099 C67.0281843,48.0961669 62.0105165,54.8397015 54.829286,63.9138135 L-0.117710583,44.8391472 L2.56978942,41.2787168 Z" fill-opacity="0.222231658" fill="#17CCD5" fill-rule="nonzero" mask="url(#mask-11)"></path>
                </g>
                <g id="Path-148" transform="translate(27.000000, 246.000000)">
                    <mask id="mask-13" fill="white">
                        <use xlink:href="#path-12"></use>
                    </mask>
                    <use id="Mask" fill="#FFD5C2" xlink:href="#path-12"></use>
                    <path d="M9,19.8175676 C18.6442447,30.5809318 23.8350908,36.521775 24.5725382,37.6400971 C25.6787093,39.3175803 37.6409528,47.2299653 39.5277264,47.2095006 C40.7855755,47.1958575 44.7230894,47.4512516 51.3402683,47.9756829 L49.7678735,50.5465536 L32.3262375,49.4945189 L19,39.3175803 L5.4145,24.2841261 L4.88212196,17.9199144 L9,19.8175676 Z" fill-opacity="0.440245697" fill="#FCB9A5" fill-rule="nonzero" mask="url(#mask-13)"></path>
                    <path d="M54.893675,2.85271318 C57.414328,5.90644498 59.062212,8.36122534 59.8373272,10.2170543 C60.6124424,12.0728832 66.3012887,17.718878 76.9038661,27.1550388 L74.9145,29.6647069 L61.3725583,20.5271318 L50.4892009,6.07917174 L54.893675,2.85271318 Z" id="Path-2" fill-opacity="0.440245697" fill="#FCB9A5" fill-rule="nonzero" mask="url(#mask-13)"></path>
                </g>
                <g id="Path-145" transform="translate(26.000000, 224.000000)">
                    <mask id="mask-15" fill="white">
                        <use xlink:href="#path-14"></use>
                    </mask>
                    <use id="Mask" fill="#2791D9" xlink:href="#path-14"></use>
                    <path d="M13.8415912,-1.18918919 C4.77153111,0.95045045 -0.0374659467,6.08558559 -0.5854,14.2162162 C-1.40730108,26.4121622 0.575905342,43.4324716 1.74522767,44 C2.91455,44.5675284 10.8208424,44.8539899 10.8208424,42.5271318 C10.8208424,40.2002737 16,42.5271318 16,38.1085271 C16,33.6899225 17.793686,33.945902 16.896843,28.5455592 C16,23.1452165 7.80009357,20.137922 10.8208424,15.2541011 C12.8346749,11.9982205 13.8415912,6.5171237 13.8415912,-1.18918919 Z" fill-opacity="0.573426178" fill="#2476AD" fill-rule="nonzero" mask="url(#mask-15)"></path>
                </g>
                <polygon id="Fill-17" fill="url(#linearGradient-16)" points="117.152628 278.574883 138.400533 292.786524 100.571159 313.531664 69.4534487 302.548943"></polygon>
                <path d="M138.400655,292.786524 L136.727368,261.472634 C136.668429,260.369638 135.726494,259.523263 134.623498,259.582203 C134.371252,259.595682 134.123842,259.656824 133.894355,259.762396 L102.899557,274.021054 C101.480513,274.673862 100.571281,276.092968 100.571281,277.654969 L100.571281,313.648813 L138.400655,292.786524 Z" id="Fill-19" fill="url(#linearGradient-16)"></path>
                <polygon id="Fill-21" fill="#1C1919" points="69.4535707 302.548943 69.4535707 303.159094 100.571281 314.141816 100.571281 313.531664"></polygon>
                <g id="Group-25" transform="translate(36.609071, 176.247647)">
                    <mask id="mask-18" fill="white">
                        <use xlink:href="#path-17"></use>
                    </mask>
                    <g id="Clip-24"></g>
                    <path d="M10.2689055,31.7278618 L10.2689055,36.3070464 C10.2689055,36.3070464 7.21814957,34.7786177 5.387696,31.7278618 C3.55724244,28.6771058 -1.93411825,20.7451404 1.11663769,17.0842333 C4.16739363,13.4233261 -1.32396706,7.93196544 7.82830076,2.44060475 C16.9805686,-3.05075594 24.3023828,3.05075594 30.4038947,3.05075594 C36.5054066,3.05075594 33.4546506,13.4233261 32.8444995,14.6436285 C32.2343483,15.8639309 24.3023828,15.2537797 20.0313245,14.6436285 C15.7602662,14.0334773 10.2689055,14.0334773 10.2689055,16.4740821 L10.2689055,31.7278618 Z" id="Fill-23" fill="#000000" mask="url(#mask-18)"></path>
                </g>
                <polygon id="Fill-32" fill="#FFFFFF" points="181.825054 270.907127 183.655508 271.334843 183.655508 284.330454 181.825054 283.880772"></polygon>
                <path d="M117.759179,39.8072734 L117.759179,9.10485993 C117.759179,5.23886669 114.625173,2.10485993 110.759179,2.10485993 C110.669477,2.10485993 110.579783,2.10658418 110.490147,2.11003171 L76.8983548,3.40202374 C73.1398163,3.54658291 70.1673866,6.63553459 70.1673866,10.396852 L70.1673866,38.9386927 C70.1673866,42.7347252 73.1930042,45.8389932 76.987787,45.9363883 L79.1061015,45.9907559 L79.3196544,57.9643629 L88.3761285,46.2586123 L110.586982,46.8051551 C114.451806,46.9002569 117.661959,43.8442937 117.757061,39.9794704 C117.758473,39.9220823 117.759179,39.8646789 117.759179,39.8072734 Z" id="Fill-36" fill="#2791D9"></path>
                <path d="M115.318575,41.051549 L115.318575,4.15680364 C115.318575,1.94766464 113.527714,0.15680364 111.318575,0.15680364 C111.267316,0.15680364 111.216063,0.157788923 111.164842,0.159758942 L71.5730494,1.6825202 C69.4253131,1.76512544 67.7267819,3.53024069 67.7267819,5.6795649 L67.7267819,40.0322304 C67.7267819,42.2013919 69.4557062,43.9752593 71.6241535,44.0309136 L76.6654968,44.1603024 L76.7776326,50.4476004 C76.7973298,51.5519943 77.7085857,52.4313147 78.8129795,52.4116175 C79.4193457,52.4008027 79.9880519,52.1154354 80.3591572,51.6357713 L85.9355238,44.4281587 L111.220176,45.0503386 C113.428647,45.1046824 115.26302,43.3584178 115.317364,41.1499473 C115.318171,41.1171541 115.318575,41.0843522 115.318575,41.051549 Z" id="Stroke-38" stroke="#173155" stroke-width="2"></path>
                <path d="M232.829574,338.961744 L210.717163,357.03663 C209.861949,357.735689 208.601962,357.609101 207.902903,356.753888 C207.610914,356.396674 207.451404,355.949496 207.451404,355.488129 L207.451404,330.014709 C207.451404,328.746831 208.052497,327.554029 209.07156,326.799691 L231.108134,310.487617 C231.995937,309.830441 233.248389,310.017401 233.905565,310.905204 C234.160471,311.249566 234.298056,311.666684 234.298056,312.095126 L234.298056,335.864742 C234.298056,337.065124 233.758969,338.202048 232.829574,338.961744 Z" id="Fill-44" fill="#173155"></path>
                <polygon id="Stroke-56" stroke="#FFFFFF" stroke-width="0.5" points="212.942765 339.812721 209.281857 342.868969 209.281857 337.982268 212.942765 334.973002"></polygon>
                <polygon id="Stroke-58" stroke="#FFFFFF" stroke-width="0.5" points="217.823974 336.151814 214.163067 339.208062 214.163067 334.321361 217.823974 331.312095"></polygon>
                <polygon id="Stroke-60" stroke="#FFFFFF" stroke-width="0.5" points="222.705184 332.490907 219.044276 335.547154 219.044276 330.660454 222.705184 327.651188"></polygon>
                <polygon id="Stroke-62" stroke="#FFFFFF" stroke-width="0.5" points="227.586393 328.83 223.925486 331.886247 223.925486 326.999546 227.586393 323.990281"></polygon>
                <polygon id="Stroke-64" stroke="#FFFFFF" stroke-width="0.5" points="232.467603 325.169093 228.806695 328.22534 228.806695 323.338639 232.467603 320.329374"></polygon>
                <polygon id="Stroke-66" stroke="#FFFFFF" stroke-width="0.5" points="212.942765 345.914233 209.281857 348.970481 209.281857 344.08378 212.942765 341.074514"></polygon>
                <polygon id="Stroke-68" stroke="#FFFFFF" stroke-width="0.5" points="217.823974 342.253326 214.163067 345.309573 214.163067 340.422873 217.823974 337.413607"></polygon>
                <polygon id="Fill-70" fill="#0069B1" points="222.705184 338.592419 219.044276 341.648666 219.044276 336.761965 222.705184 333.7527"></polygon>
                <polygon id="Stroke-72" stroke="#FFFFFF" stroke-width="0.5" points="227.586393 334.931512 223.925486 337.987759 223.925486 333.101058 227.586393 330.091793"></polygon>
                <polygon id="Stroke-74" stroke="#FFFFFF" stroke-width="0.5" points="232.467603 331.270605 228.806695 334.326852 228.806695 329.440151 232.467603 326.430886"></polygon>
                <polygon id="Stroke-76" stroke="#FFFFFF" stroke-width="0.5" points="213.552916 352.015745 209.892009 355.071992 209.892009 350.185292 213.552916 347.176026"></polygon>
                <polygon id="Stroke-78" stroke="#FFFFFF" stroke-width="0.5" points="218.434125 348.354838 214.773218 351.411085 214.773218 346.524384 218.434125 343.515119"></polygon>
                <polygon id="Stroke-80" stroke="#FFFFFF" stroke-width="0.5" points="223.315335 344.693931 219.654428 347.750178 219.654428 342.863477 223.315335 339.854212"></polygon>
                <polygon id="Stroke-82" stroke="#FFFFFF" stroke-width="0.5" points="228.196544 341.033024 224.535637 344.089271 224.535637 339.20257 228.196544 336.193305"></polygon>
                <polygon id="Fill-84" fill="#0069B1" points="233.077754 337.372117 229.416847 340.428364 229.416847 335.541663 233.077754 332.532397"></polygon>
                <polygon id="Fill-86" fill="#86D2E7" points="224.535637 339.20257 220.87473 342.258817 220.87473 337.372117 224.535637 334.362851"></polygon>
                <polygon id="Fill-88" fill="#86D2E7" points="234.908207 337.982268 231.2473 341.038515 231.2473 336.151814 234.908207 333.142549"></polygon>
                <polygon id="Fill-90" fill="#FFFFFF" points="109.827214 14.2873002 76.8790497 15.0579212 76.8790497 12.4568467 109.827214 11.5928726"></polygon>
                <polygon id="Fill-92" fill="#FFFFFF" points="103.115551 21.1582127 77.4892009 21.5718952 77.4892009 19.3893844 103.115551 18.9146868"></polygon>
                <polygon id="Fill-94" fill="#FFFFFF" points="90.3023758 29.4233207 77.4892009 29.5239957 77.4892009 26.982716 90.3023758 26.8466523"></polygon>
                <path d="M110.380258,311.260711 C94.4158019,328.862475 68.6782974,350.572395 78.5654348,352.810772 C100.124517,357.691982 170.448102,300.947921 182.253918,324.743817 C194.060343,348.539714 173.784409,393.385826 190.210289,397.656884 C206.636169,401.927943 260.732784,324.750529 274.863275,348.543375 C274.863275,348.543375 282.973405,389.36371 306.829706,363.609838" id="Stroke-116" stroke="#004DB7" stroke-width="2" stroke-linecap="round" stroke-dasharray="11.89,11.89"></path>
                <path d="M309.346652,361.039271 C310.086156,360.141739 310.839692,359.182581 311.607262,358.158747" id="Stroke-118" stroke="#000000" stroke-width="2"></path>
                <path d="M164.626112,395.5421 L164.215481,401.802862 L158.065157,392.972754 L136.774751,384.635706 C135.241854,384.035443 134.233261,382.557327 134.233261,380.911092 L134.233261,358.964604 C134.233261,356.755465 136.024122,354.964604 138.233261,354.964604 C138.69421,354.964604 139.15169,355.044277 139.5855,355.200105 L167.05908,365.068838 C168.647481,365.639404 169.706841,367.145567 169.706841,368.833337 L169.706841,392.075365 C169.706841,394.131573 168.039955,395.798459 165.983747,395.798459 C165.519171,395.798459 165.058699,395.711509 164.626112,395.5421 Z" id="Fill-40" fill="#173155"></path>
                <path d="M156.282166,353.249374 L132.646868,345.688477 L127.942603,350.037635 L127.48682,344.038018 L127.252271,343.962999 C125.595281,343.433017 124.470842,341.892814 124.470842,340.153132 L124.470842,325.6899 C124.470842,323.480761 126.261703,321.6899 128.470842,321.6899 C128.856409,321.6899 129.239951,321.745647 129.609564,321.855411 L158.63964,330.47642 C160.336931,330.980461 161.500918,332.540357 161.500918,334.31091 L161.500918,349.439565 C161.500918,351.648704 159.710057,353.439565 157.500918,353.439565 C157.087277,353.439565 156.676139,353.375405 156.282166,353.249374 Z" id="Fill-42" fill="#17CCD5"></path>
                <polygon id="Fill-46" fill="#FFFFFF" points="158.639309 373.412527 137.284017 366.179795 137.284017 364.260259 158.639309 371.451501"></polygon>
                <polygon id="Fill-48" fill="#FFFFFF" points="158.639309 385.0054 137.284017 377.772667 137.284017 375.853132 158.639309 383.044374"></polygon>
                <polygon id="Fill-50" fill="#FFFFFF" points="150.097192 376.463283 137.284017 372.281307 137.284017 370.361771 150.097192 374.502257"></polygon>
                <polygon id="Fill-52" fill="#FFFFFF" points="156.198704 339.24406 129.352052 331.025324 129.352052 329.481641 156.198704 337.658278"></polygon>
                <polygon id="Fill-54" fill="#FFFFFF" points="147.046436 341.684665 129.352052 336.17683 129.352052 334.362851 147.046436 339.838958"></polygon>
                <polygon id="Fill-146" fill="#173155" points="98.8536447 86.3363931 26.8466523 80.5399568 26.8558045 140.639849 98.6217873 151.610977"></polygon>
                <polygon id="Fill-148" fill="url(#linearGradient-19)" points="97.6333423 87.5566955 25.6263499 81.7602592 25.6355022 141.860151 97.4014849 152.83128"></polygon>
                <path d="M29.287257,86.6414687 L92.7429806,92.1328294" id="Stroke-150" stroke="#000000"></path>
                <path d="M92.7429806,148.87689 L29.287257,139.724622" id="Stroke-152" stroke="#000000"></path>
                <path d="M10.9827214,99.317963 C10.9827214,103.004496 8.5238121,105.744685 5.50417387,105.44022 C2.50039957,105.137585 0.0762688985,101.931241 0.0762688985,98.2782654 C0.0762688985,94.6246801 2.50039957,91.8814403 5.50417387,92.1511272 C8.5238121,92.4220343 10.9827214,95.6314295 10.9827214,99.317963 Z" id="Stroke-154" fill="#FF5252"></path>
                <path d="M32.6430886,137.894168 L32.6430886,89.0820734" id="Stroke-158" stroke="#588B8B" stroke-width="0.5"></path>
                <path d="M47.2867171,140.334773 L47.2867171,91.5226782" id="Stroke-160" stroke="#588B8B" stroke-width="0.5"></path>
                <path d="M66.2014039,142.775378 L66.2014039,93.9632829" id="Stroke-162" stroke="#588B8B" stroke-width="0.5"></path>
                <path d="M85.7262419,145.215983 L85.7262419,96.4038877" id="Stroke-164" stroke="#588B8B" stroke-width="0.5"></path>
                <path d="M84.2008639,131.182505 L103.903866,133.997133" id="Stroke-166" stroke="#2791D9" stroke-linecap="round" stroke-linejoin="round"></path>
                <polyline id="Stroke-168" stroke="#FFFFFF" stroke-linecap="round" stroke-linejoin="round" points="26.2365011 117.759179 34.1684665 125.691145 46.9816415 103.725702 56.7440605 127.521598 75.6587473 112.87797 86.6414687 120.199784 95.7937365 120.809935"></polyline>
                <polyline id="Stroke-170" stroke="#000000" stroke-linecap="round" stroke-linejoin="round" points="86.8373272 106.536058 76.2817117 129.757802 67.8378294 110.758305 57.282824 121.31331 50.9500648 120.609195 45.3201998 131.164201 35.4693089 94.5734341 16.469811 116.387559 7.32181425 102.313812"></polyline>
                <path d="M30.2024838,93.9632829 L20.7451404,93.3531317" id="Stroke-172" stroke="#17CCD5" stroke-linecap="round" stroke-linejoin="round"></path>
                <path d="M107.905238,134.279141 C107.905238,136.80706 106.206448,138.687735 104.12115,138.478092 C102.04508,138.270485 100.36987,136.072295 100.36987,133.566764 C100.36987,131.061234 102.04508,129.178524 104.12115,129.36476 C106.206448,129.550995 107.905238,131.752239 107.905238,134.279141" id="Fill-174" fill="#86D2E7"></path>
                <polygon id="Fill-176" fill="#2791D9" points="510.696544 163.520518 519.238661 164.385713 519.238661 226.976242 510.696544 225.719941"></polygon>
                <polygon id="Fill-178" fill="#2791D9" points="494.832613 173.282937 503.37473 174.22013 503.37473 224.535637 494.832613 223.279946"></polygon>
                <polygon id="Fill-180" fill="#2791D9" points="526.560475 187.316415 533.272138 188.10473 533.272138 228.806695 526.560475 227.820691"></polygon>
                <polygon id="Fill-182" fill="#17CCD5" points="491.781857 172.672786 500.323974 173.654607 500.323974 226.366091 491.781857 225.050605"></polygon>
                <polygon id="Fill-184" fill="#17CCD5" points="523.509719 186.706263 530.221382 187.54095 530.221382 230.637149 523.509719 229.593144"></polygon>
                <polygon id="Fill-186" fill="#2791D9" points="482.019438 184.265659 489.341253 185.137565 489.341253 222.095032 482.019438 221.020556"></polygon>
                <polygon id="Fill-188" fill="#2791D9" points="538.763499 173.282937 545.445265 173.993153 545.445265 231.692711 538.763499 230.706096"></polygon>
                <polyline id="Stroke-190" stroke="#86D2E7" points="467.985961 225.450864 557.068035 241.314795 557.068035 154.978402"></polyline>
                <path d="M552.796976,163.520518 L559.508639,164.13067" id="Stroke-192" stroke="#86D2E7"></path>
                <path d="M552.796976,230.637149 L560.11879,231.857451" id="Stroke-194" stroke="#86D2E7"></path>
                <path d="M552.796976,213.552916 L560.11879,214.773218" id="Stroke-196" stroke="#86D2E7"></path>
                <path d="M552.796976,197.078834 L559.508639,197.688985" id="Stroke-198" stroke="#86D2E7"></path>
                <path d="M552.796976,179.9946 L559.508639,180.604752" id="Stroke-200" stroke="#86D2E7"></path>
                <path d="M456.634012,279.869613 L453.097216,279.184261 C452.530974,279.074536 452.12203,278.57874 452.12203,278.001965 L452.12203,278.001965 C452.12203,277.548776 452.489413,277.181394 452.942602,277.181394 C452.994585,277.181394 453.04645,277.186333 453.097498,277.196146 L456.633729,277.875888 C457.202371,277.985194 457.613391,278.482746 457.613391,279.061798 L457.613391,279.061798 C457.613391,279.516241 457.244992,279.88464 456.790549,279.88464 C456.73801,279.88464 456.685592,279.879608 456.634012,279.869613 Z" id="Fill-220" fill="#173155"></path>
                <path d="M116.636257,20.7582586 C118.048147,20.4379293 119.51434,20.2695275 121.018363,20.2701377 C133.375755,20.271358 143.638498,31.575629 143.638498,45.5194141 C143.638498,59.4631992 133.375755,70.2177241 121.018363,69.5569303 C108.983131,68.9132208 99.4550097,57.6278645 99.4550097,44.3357208" id="Stroke-1" stroke="#173155" stroke-width="2" stroke-linecap="round" stroke-linejoin="round" stroke-dasharray="6" transform="translate(121.546754, 44.927979) rotate(-2.000000) translate(-121.546754, -44.927979) "></path>
                <polygon id="Fill-3" fill="#C0DDFF" points="226.924074 263.009147 157.366839 246.535065 157.311315 82.2927381 226.924074 85.8041582"></polygon>
                <path d="M453.823844,261.688377 L453.823844,37.4578157 C453.823844,33.1867574 452.603541,29.678388 446.044416,29.678388 C439.485291,29.678388 142.951813,25.8649431 137.460453,25.8649431 C131.969092,25.8649431 130.138638,26.4750943 130.138638,33.1867574 L130.138638,230.875742 C130.138638,239.417859 129.528487,244.299068 139.901057,247.349824 C150.273628,250.40058 423.584141,317.050445 435.214232,319.957816 C442.536047,321.788269 453.518768,321.788269 453.823844,309.890321 C453.995906,303.181099 453.823844,261.688377 453.823844,261.688377 Z" id="Fill-5" fill="#173155" opacity="0.140113467"></path>
                <path d="M459.391677,305.719731 C459.563739,299.010508 459.391677,257.517787 459.391677,257.517787 L459.391677,33.2872252 C459.391677,29.0161668 458.171374,25.5077975 451.612249,25.5077975 C445.053124,25.5077975 148.519646,21.6943526 143.028286,21.6943526 C137.536925,21.6943526 135.706471,22.3045038 135.706471,29.0161668 L135.706471,226.705152 C135.706471,235.247268 135.09632,240.128478 145.46889,243.179234 C155.841461,246.22999 429.151974,312.879855 440.782065,315.787225 C448.10388,317.617679 459.086601,317.617679 459.391677,305.719731 Z" id="Stroke-7" stroke="#588B8B" fill="#FFFFFF"></path>
                <path d="M135.652839,33.1448159 L459.391738,40.6142867" id="Stroke-9" stroke="#6CAFFF"></path>
                <path d="M147.909495,27.741683 C147.909495,29.0352036 146.949117,30.0669692 145.766034,30.0437835 C144.587222,30.021818 143.632945,28.9595448 143.632945,27.6715157 C143.632945,26.3828763 144.587222,25.352331 145.766034,25.3681949 C146.949117,25.3852792 147.909495,26.4475524 147.909495,27.741683" id="Fill-11" fill="#FD3F3F"></path>
                <path d="M158.892217,27.741683 C158.892217,29.0352036 157.931839,30.0669692 156.748755,30.0437835 C155.569943,30.021818 154.615667,28.9595448 154.615667,27.6715157 C154.615667,26.3828763 155.569943,25.352331 156.748755,25.3681949 C157.931839,25.3852792 158.892217,26.4475524 158.892217,27.741683" id="Fill-13" fill="#07BC4C"></path>
                <path d="M169.874938,27.741683 C169.874938,29.0352036 168.91456,30.0669692 167.731477,30.0437835 C166.552665,30.021818 165.598388,28.9595448 165.598388,27.6715157 C165.598388,26.3828763 166.552665,25.352331 167.731477,25.3681949 C168.91456,25.3852792 169.874938,26.4475524 169.874938,27.741683" id="Fill-15" fill="#FFCE4B"></path>
                <polyline id="Stroke-17" stroke="#FFFFFF" points="221.737789 208.705692 221.737789 221.213791 190.315003 214.79439 190.315003 199.553424 206.812881 202.228327"></polyline>
                <polygon id="Fill-19" fill="#173155" points="459.391677 66.5404649 135.401396 55.604115 135.401396 32.9821496 459.391677 36.1030729"></polygon>
                <polygon id="Fill-21" fill="url(#linearGradient-20)" opacity="0.753045945" points="221.432713 247.145217 162.858199 234.160589 162.858199 90.3363612 221.432713 94.3700707"></polygon>
                <polygon id="Fill-23" fill="url(#linearGradient-21)" points="398.428726 151.961631 233.687905 134.115929 233.687905 94.6074195 398.733801 107.115519"></polygon>
                <path d="M201.644595,296.080163 C201.644595,305.818176 195.191636,311.771421 187.370108,309.418068 C179.699287,307.110476 173.588013,297.650082 173.588013,288.247042 C173.588013,278.844612 179.699287,272.796184 187.370108,274.771853 C195.191636,276.785962 201.644595,286.34215 201.644595,296.080163 Z M186.210028,279.288558 C186.154414,279.275563 186.097492,279.269001 186.04038,279.269001 C185.628608,279.269001 185.294801,279.602809 185.294801,280.014581 L185.294801,291.105905 C185.294801,291.659289 185.672623,292.141164 186.210028,292.273186 C186.26772,292.287359 186.32691,292.294523 186.386318,292.294523 C186.794421,292.294523 187.125254,291.96369 187.125254,291.555586 L187.125254,280.442297 C187.125254,279.891798 186.746087,279.413818 186.210028,279.288558 Z M196.255718,301.98895 C196.255718,301.37284 195.94124,300.799349 195.421751,300.468104 L187.553771,295.451195 C187.468288,295.396688 187.369016,295.367731 187.267634,295.367731 C186.973702,295.367731 186.735423,295.60601 186.735423,295.899942 C186.735423,296.504758 187.043261,297.067985 187.552327,297.394565 L195.423223,302.443961 C195.510326,302.49984 195.611638,302.529544 195.715124,302.529544 C196.013686,302.529544 196.255718,302.287512 196.255718,301.98895 Z" id="Combined-Shape" fill="#173155"></path>
                <polyline id="Stroke-29" stroke="#949494" points="399.291785 77.8282619 399.291785 92.4718904 162.553124 78.4384131 162.858199 66.5404649"></polyline>
                <path d="M197.360357,80.5018834 L197.33168,68.0657819" id="Stroke-31" stroke="#949494"></path>
                <path d="M234.550964,82.7064816 L234.550964,69.2862063" id="Stroke-33" stroke="#949494"></path>
                <path d="M274.994896,85.1036436 L274.821003,71.726689" id="Stroke-35" stroke="#949494"></path>
                <path d="M318.516431,87.6836679 L318.75195,74.1675988" id="Stroke-37" stroke="#949494"></path>
                <path d="M233.840053,85.3950619 L198.413312,83.2543864 C198.00248,83.2295616 197.677696,82.8967551 197.662901,82.4854389 L197.662901,82.4854389 C197.649792,82.1209923 197.934608,81.8149232 198.299054,81.8018144 C198.31978,81.8010689 198.34053,81.8013003 198.361235,81.8025078 L233.78779,83.8686122 C234.220212,83.8938314 234.562268,84.2442416 234.577048,84.6771461 L234.577048,84.6771461 C234.590153,85.0610105 234.289593,85.382818 233.905729,85.3959232 C233.883836,85.3966706 233.861919,85.3963832 233.840053,85.3950619 Z" id="Fill-39" fill="#17CCD5"></path>
                <g id="Group" transform="translate(165.656048, 40.709897)" fill="#FFFFFF">
                    <g id="logo" transform="translate(0.000000, 0.347481)">
                        <polygon id="Fill-17" points="11.7122824 9.79609918 10.2751097 10.3324413 10.2751097 6.92506364 11.7122824 7.43685488"></polygon>
                        <path d="M6.6597161,10.3326301 L9.85052509,10.3326301 L9.85052509,6.59476 L13.2055144,6.59476 L13.2055144,10.3326301 L16.3963234,10.3326301 L16.3963234,0.0367445815 L13.2802522,0.0367445815 L13.2802522,3.65331433 L9.82432705,3.65331433 L9.82432705,0.0367445815 L6.70527619,0.0367445815 L6.70384853,5.34502623 C6.70384853,6.93422301 6.09579236,7.61078836 4.96984843,7.61078836 C3.86389167,7.61078836 3.25851426,6.93422301 3.25851426,5.34502623 L3.25851426,0.0367445815 L0.129622005,0.0367445815 L0.129622005,5.34502623 C0.129622005,8.84399751 1.69813899,10.3326301 4.96984843,10.3326301 L6.6597161,10.3326301 Z" id="Fill-18"></path>
                    </g>
                </g>
                <polygon id="Fill-41" fill="#E2E2E2" points="192.450532 75.9978083 166.824182 74.5602921 166.824182 70.5064476 192.450532 71.8377975"></polygon>
                <polygon id="Fill-43" fill="#E2E2E2" points="226.924074 78.4384131 201.297724 77.0008969 201.297724 72.9470524 226.924074 74.2784023"></polygon>
                <polygon id="Fill-45" fill="#E2E2E2" points="267.804204 80.2688666 242.177854 78.8313504 242.177854 74.7775059 267.804204 76.1088558"></polygon>
                <polygon id="Fill-47" fill="#E2E2E2" points="309.294484 82.0993202 283.668134 80.661804 283.668134 76.6079595 309.294484 77.9393094"></polygon>
                <path d="M185.485961,117.789458 C185.485961,122.1557 182.867192,125.366926 179.655356,124.963006 C176.464876,124.562747 173.893089,120.74076 173.893089,116.42577 C173.893089,112.109561 176.464876,108.893454 179.655356,109.243071 C182.867192,109.595128 185.485961,113.422606 185.485961,117.789458" id="Fill-53" fill="#EDFBFF"></path>
                <path d="M185.485961,142.195506 C185.485961,146.561748 182.867192,149.772973 179.655356,149.369053 C176.464876,148.968794 173.893089,145.146807 173.893089,140.831818 C173.893089,136.515608 176.464876,133.299501 179.655356,133.649118 C182.867192,134.001175 185.485961,137.828654 185.485961,142.195506" id="Fill-53-Copy" fill="#EDFBFF"></path>
                <path d="M266.86634,117.259893 C266.86634,124.606113 262.460438,130.007781 257.05755,129.328073 C251.69005,128.653856 247.364078,122.225303 247.364078,114.965724 C247.364078,107.706145 251.69005,102.295325 257.05755,102.88351 C262.460438,103.475967 266.86634,109.914282 266.86634,117.259893" id="Fill-57" fill="#FFFFFF"></path>
                <path d="M208.076376,118.252286 L190.93912,116.588365 C190.268557,116.523258 189.757019,115.959648 189.757019,115.285931 L189.757019,115.285931 C189.757019,114.689179 190.240782,114.205416 190.837534,114.205416 C190.871543,114.205416 190.905533,114.207022 190.93939,114.210228 L208.076101,115.83286 C208.759657,115.897584 209.281857,116.471566 209.281857,117.15818 L209.281857,117.15818 C209.281857,117.76528 208.789706,118.257431 208.182607,118.257431 C208.147134,118.257431 208.111683,118.255714 208.076376,118.252286 Z" id="Fill-59" fill="#FFFFFF"></path>
                <path d="M208.076376,142.658333 L190.93912,140.994413 C190.268557,140.929305 189.757019,140.365695 189.757019,139.691979 L189.757019,139.691979 C189.757019,139.095227 190.240782,138.611464 190.837534,138.611464 C190.871543,138.611464 190.905533,138.61307 190.93939,138.616275 L208.076101,140.238908 C208.759657,140.303632 209.281857,140.877614 209.281857,141.564228 L209.281857,141.564228 C209.281857,142.171327 208.789706,142.663478 208.182607,142.663478 C208.147134,142.663478 208.111683,142.661761 208.076376,142.658333 Z" id="Fill-59-Copy" fill="#FFFFFF"></path>
                <path d="M203.955022,123.751988 L190.796712,122.397209 C190.206041,122.336393 189.757019,121.838766 189.757019,121.244973 L189.757019,121.244973 C189.757019,120.723013 190.180152,120.29988 190.702112,120.29988 C190.73378,120.29988 190.765427,120.301472 190.796935,120.304649 L203.954797,121.631488 C204.554407,121.691953 205.010799,122.196682 205.010799,122.799333 L205.010799,122.799333 C205.010799,123.328251 204.582026,123.757024 204.053108,123.757024 C204.020348,123.757024 203.98761,123.755344 203.955022,123.751988 Z" id="Fill-61" fill="#FFFFFF"></path>
                <path d="M203.955022,148.158036 L190.796712,146.803256 C190.206041,146.742441 189.757019,146.244814 189.757019,145.651021 L189.757019,145.651021 C189.757019,145.12906 190.180152,144.705928 190.702112,144.705928 C190.73378,144.705928 190.765427,144.707519 190.796935,144.710697 L203.954797,146.037535 C204.554407,146.098 205.010799,146.602729 205.010799,147.205381 L205.010799,147.205381 C205.010799,147.734299 204.582026,148.163072 204.053108,148.163072 C204.020348,148.163072 203.98761,148.161391 203.955022,148.158036 Z" id="Fill-61-Copy" fill="#FFFFFF"></path>
                <path d="M185.485961,166.601553 C185.485961,170.967795 182.867192,174.179021 179.655356,173.775101 C176.464876,173.374842 173.893089,169.552855 173.893089,165.237865 C173.893089,160.921656 176.464876,157.705549 179.655356,158.055166 C182.867192,158.407223 185.485961,162.234701 185.485961,166.601553" id="Fill-53-Copy-2" fill="#EDFBFF"></path>
                <path d="M208.076376,167.064381 L190.93912,165.40046 C190.268557,165.335353 189.757019,164.771743 189.757019,164.098026 L189.757019,164.098026 C189.757019,163.501274 190.240782,163.017511 190.837534,163.017511 C190.871543,163.017511 190.905533,163.019117 190.93939,163.022323 L208.076101,164.644955 C208.759657,164.709679 209.281857,165.283661 209.281857,165.970275 L209.281857,165.970275 C209.281857,166.577375 208.789706,167.069526 208.182607,167.069526 C208.147134,167.069526 208.111683,167.067809 208.076376,167.064381 Z" id="Fill-59-Copy-2" fill="#FFFFFF"></path>
                <path d="M203.955022,172.564083 L190.796712,171.209304 C190.206041,171.148488 189.757019,170.650861 189.757019,170.057068 L189.757019,170.057068 C189.757019,169.535108 190.180152,169.111975 190.702112,169.111975 C190.73378,169.111975 190.765427,169.113567 190.796935,169.116744 L203.954797,170.443583 C204.554407,170.504048 205.010799,171.008777 205.010799,171.611428 L205.010799,171.611428 C205.010799,172.140347 204.582026,172.56912 204.053108,172.56912 C204.020348,172.56912 203.98761,172.567439 203.955022,172.564083 Z" id="Fill-61-Copy-2" fill="#FFFFFF"></path>
                <path d="M391.413018,118.132339 L372.933369,116.616106 C371.106074,116.466179 369.699452,114.939419 369.699452,113.105983 L369.699452,113.105983 C369.699452,111.445854 371.045252,110.100054 372.705381,110.100054 C372.781929,110.100054 372.858449,110.102978 372.934774,110.10882 L391.411583,111.522972 C393.275795,111.665652 394.715651,113.219921 394.715651,115.089585 L394.715651,115.089585 C394.715651,116.775698 393.348785,118.142564 391.662672,118.142564 C391.579349,118.142564 391.496061,118.139152 391.413018,118.132339 Z" id="Fill-79" fill="#173155"></path>
                <path d="M355.189368,121.252735 L276.046531,114.345933 C274.835222,114.240222 273.905715,113.226065 273.905715,112.010152 L273.905715,112.010152 C273.905715,110.918046 274.791042,110.03272 275.883148,110.03272 C275.937921,110.03272 275.99267,110.034995 276.047255,110.039541 L355.188588,116.630223 C356.493034,116.738854 357.496428,117.829281 357.496428,119.138243 L357.496428,119.138243 C357.496428,120.310483 356.54614,121.260771 355.3739,121.260771 C355.312302,121.260771 355.250733,121.25809 355.189368,121.252735 Z" id="Fill-81" fill="#FFFFFF"></path>
                <path d="M345.625676,132.184243 L275.368611,125.076762 C274.221037,124.960669 273.347732,123.99456 273.347732,122.841129 L273.347732,122.841129 C273.347732,121.823279 274.172862,120.998149 275.190711,120.998149 C275.250366,120.998149 275.309986,121.001046 275.36936,121.006829 L345.624875,127.849255 C346.850999,127.968671 347.786177,128.999355 347.786177,130.23128 L347.786177,130.23128 C347.786177,131.315377 346.907343,132.194211 345.823246,132.194211 C345.757264,132.194211 345.691323,132.190884 345.625676,132.184243 Z" id="Fill-85" fill="#FFFFFF"></path>
                <polygon id="Fill-87" fill="#E2E2E2" points="259.009179 149.92696 234.603132 146.945761 234.603132 140.164541 259.009179 142.9871"></polygon>
                <polygon id="Fill-87-Copy-2" fill="#E2E2E2" points="313.312635 156.028472 288.906587 153.047273 288.906587 146.266053 313.312635 149.088612"></polygon>
                <polygon id="Fill-87-Copy-4" fill="#E2E2E2" points="367.00594 162.129984 342.599892 159.148785 342.599892 152.367565 367.00594 155.190124"></polygon>
                <polygon id="Fill-87-Copy" fill="#E2E2E2" points="285.855832 152.977716 261.449784 149.996517 261.449784 143.215297 285.855832 146.037856"></polygon>
                <polygon id="Fill-87-Copy-3" fill="#E2E2E2" points="340.159287 159.079228 315.75324 156.098029 315.75324 149.316809 340.159287 152.139368"></polygon>
                <polygon id="Fill-87-Copy-5" fill="#E2E2E2" points="393.852592 165.18074 369.446544 162.199541 369.446544 155.418321 393.852592 158.24088"></polygon>
                <polygon id="Fill-93" fill="#17CCD5" opacity="0.32875279" points="399.59686 283.754288 234.634555 247.912915 234.634555 152.492463 399.59686 173.156032"></polygon>
                <polygon id="Fill-97" fill="url(#linearGradient-22)" points="394.767819 277.008639 237.958963 244.529681 237.958963 157.419006 394.767819 177.640027"></polygon>
                <path d="M370.473279,202.254556 L249.024617,183.304478 C247.542012,183.073141 246.448912,181.796255 246.448912,180.29571 L246.448912,180.29571 C246.448912,179.057136 247.452974,178.053074 248.691548,178.053074 C248.803683,178.053074 248.91566,178.061484 249.026536,178.078234 L370.471127,196.424541 C372.132235,196.67548 373.360359,198.103069 373.360359,199.783024 L373.360359,199.783024 C373.360359,201.16453 372.240427,202.284462 370.858921,202.284462 C370.729794,202.284462 370.600862,202.274463 370.473279,202.254556 Z" id="Fill-99" fill="#FFFFFF"></path>
                <path d="M329.926356,213.683019 L248.909403,198.759237 C247.514033,198.502202 246.50108,197.285615 246.50108,195.866768 L246.50108,195.866768 C246.50108,194.735497 247.418157,193.81842 248.549429,193.81842 C248.670798,193.81842 248.791927,193.829207 248.911386,193.850653 L329.924211,208.395041 C331.433768,208.666055 332.532397,209.979488 332.532397,211.51318 L332.532397,211.51318 C332.532397,212.731711 331.544583,213.719525 330.326052,213.719525 C330.191988,213.719525 330.058202,213.707306 329.926356,213.683019 Z" id="Fill-105" fill="#FFFFFF"></path>
                <path d="M351.889056,234.181111 L248.911938,215.829484 C247.517013,215.580894 246.50108,214.367904 246.50108,212.951002 L246.50108,212.951002 C246.50108,211.814097 247.422723,210.892453 248.559628,210.892453 C248.678239,210.892453 248.796628,210.902704 248.913473,210.923092 L351.887394,228.89076 C353.396506,229.154082 354.49784,230.464224 354.49784,231.996137 L354.49784,231.996137 C354.49784,233.221877 353.504182,234.215536 352.278442,234.215536 C352.147887,234.215536 352.017586,234.204016 351.889056,234.181111 Z" id="Fill-105-Copy" fill="#FFFFFF"></path>
                <path d="M306.696526,243.541726 L249.512085,232.05127 C248.1158,231.770705 247.111231,230.544201 247.111231,229.120008 L247.111231,229.120008 C247.111231,228.005227 248.01494,227.101518 249.129722,227.101518 C249.259054,227.101518 249.388086,227.113948 249.51504,227.138636 L306.693328,238.25813 C308.203924,238.551896 309.294484,239.874969 309.294484,241.413865 L309.294484,241.413865 C309.294484,242.61254 308.322766,243.584258 307.124091,243.584258 C306.980514,243.584258 306.83729,243.570011 306.696526,243.541726 Z" id="Fill-105-Copy-2" fill="#FFFFFF"></path>
                <path d="M208.583594,217.096322 L174.566983,211.372148 C174.177963,211.306685 173.893089,210.969868 173.893089,210.575378 L173.893089,210.575378 C173.893089,210.255727 174.152217,209.996599 174.471868,209.996599 C174.503787,209.996599 174.535652,209.999239 174.567137,210.004493 L208.583435,215.68111 C208.986484,215.74837 209.281857,216.097121 209.281857,216.505742 L209.281857,216.505742 C209.281857,216.836496 209.013728,217.104625 208.682975,217.104625 C208.649675,217.104625 208.616433,217.101848 208.583594,217.096322 Z" id="Fill-109" fill="#C0DDFF"></path>
                <path d="M196.409167,224.49756 L183.044498,222.121154 C181.279985,221.807402 179.9946,220.273297 179.9946,218.481107 L179.9946,218.481107 C179.9946,217.038749 181.163863,215.869486 182.606221,215.869486 C182.754196,215.869486 182.901903,215.882063 183.047747,215.907079 L196.405854,218.198412 C198.204601,218.506954 199.519438,220.066529 199.519438,221.891547 L199.519438,221.891547 C199.519438,223.353384 198.334386,224.538437 196.872549,224.538437 C196.717188,224.538437 196.562129,224.524758 196.409167,224.49756 Z" id="Fill-111" fill="#2791D9"></path>
                <g id="Group-2" transform="translate(247.111231, 102.505400)">
                    <g id="Group-3" transform="translate(3.965983, 7.648855)">
                        <mask id="mask-24" fill="white">
                            <use xlink:href="#path-23"></use>
                        </mask>
                        <g id="Clip-2"></g>
                        <path d="M0.836517279,2.00617711 C-0.251382289,3.1575324 -0.251382289,4.27288877 1.12450864,6.05514039 C1.13610151,8.68672246 1.12450864,11.5196544 1.12450864,12.0840443 C1.12450864,12.2829536 2.14834233,12.5636231 4.19600972,12.9260529 C6.24367711,12.5044384 7.26690065,12.2237689 7.26690065,12.0840443 L7.26690065,9.97231102 L9.23463823,9.97231102 C10.7697786,9.97231102 10.3750108,7.99053996 10.3384017,7.38099892 C10.2779968,6.37058855 10.0540713,4.00320194 9.66662527,0.278228942 C4.50474622,0.662014039 1.56137689,1.23860691 0.836517279,2.00617711" id="Fill-1" fill="#FFD5C2" mask="url(#mask-24)"></path>
                    </g>
                    <g id="Group-6" transform="translate(0.305076, 0.327041)">
                        <mask id="mask-26" fill="white">
                            <use xlink:href="#path-25"></use>
                        </mask>
                        <g id="Clip-5"></g>
                        <path d="M10.9280518,17.1144968 L10.9280518,18.2701231 C8.87123218,17.9034222 7.68692873,17.1303607 7.37697192,15.9509384 C8.27206371,16.558649 9.42402916,16.9430443 10.8322581,17.1022937 C10.8645961,17.1059546 10.896324,17.1102257 10.9280518,17.1144968" id="Fill-4" fill="#828F99" mask="url(#mask-26)"></path>
                    </g>
                    <g id="Group-9" transform="translate(2.135529, 20.462030)">
                        <mask id="mask-28" fill="white">
                            <use xlink:href="#path-27"></use>
                        </mask>
                        <g id="Clip-8"></g>
                        <path d="M2.18739201,0.00976241901 C1.5924946,0.260534557 1.03908747,0.502154428 0.528390929,0.734011879 C2.30393089,3.88300216 4.99591793,6.0862581 8.01738661,6.46577214 C10.9516037,6.83491361 13.5911177,5.41082073 15.3910637,2.85611771 C14.4300756,2.10807235 12.5880292,1.15928726 9.86553456,0.00915226782 L2.18739201,0.00976241901 Z" id="Fill-7" fill="url(#linearGradient-29)" mask="url(#mask-28)"></path>
                    </g>
                    <g id="Group-12" transform="translate(7.016739, 20.462030)">
                        <mask id="mask-31" fill="white">
                            <use xlink:href="#path-30"></use>
                        </mask>
                        <g id="Clip-11"></g>
                        <path d="M0.473477322,0.615032397 L0.208061555,5.49014039 C0.82187365,5.8299946 1.4637527,6.09296976 2.12393629,6.26808315 L1.81703024,0.615032397 C1.51866631,0.294703024 1.29413067,0.134843413 1.14525378,0.134843413 C0.995766739,0.134843413 0.771841253,0.294703024 0.473477322,0.615032397" id="Fill-10" fill="#17CCD5" mask="url(#mask-31)"></path>
                    </g>
                    <g id="Group-15" transform="translate(0.305076, 0.327041)">
                        <mask id="mask-33" fill="white">
                            <use xlink:href="#path-32"></use>
                        </mask>
                        <g id="Clip-14"></g>
                        <path d="M8.62570734,22.5367273 L7.13449784,21.6751938 L7.18514039,20.7495945 C7.48350432,20.4298753 7.70742981,20.2700157 7.8563067,20.2700157 C8.00579374,20.2700157 8.23032937,20.4298753 8.5286933,20.7495945 L8.62570734,22.5367273 Z" id="Fill-13" fill="#2791D9" mask="url(#mask-33)"></path>
                    </g>
                    <g id="Group-18" transform="translate(0.305076, 0.327041)">
                        <mask id="mask-35" fill="white">
                            <use xlink:href="#path-34"></use>
                        </mask>
                        <g id="Clip-17"></g>
                        <polygon id="Fill-16" fill="#FFFFFF" mask="url(#mask-35)" points="7.85648974 20.2689174 6.89733207 21.9974757 3.92162473 20.174344 4.78559881 18.9259746 7.85648974 20.0608558 10.9279908 18.9259746 11.7919649 20.174344 8.81625756 21.9974757"></polygon>
                    </g>
                    <g id="Group-22" transform="translate(1.830454, 3.050756)">
                        <mask id="mask-37" fill="white">
                            <use xlink:href="#path-36"></use>
                        </mask>
                        <g id="Clip-21"></g>
                        <path d="M5.70308315,1.29779158 C4.39491901,0.0866414687 1.01468143,1.17698164 1.18430346,3.28688445 C0.12325054,3.28688445 -0.260534557,5.58959503 1.28558855,6.1649676 C1.41921166,8.43656048 2.9549622,10.932689 2.9549622,11.9406587 C4.2362797,11.3085421 4.45654428,10.3524352 3.97696544,10.3689093 C2.58643089,10.4177214 1.76150648,7.92830454 3.00438445,7.28337473 C3.52850432,7.010027 3.89947624,7.18697084 4.20455184,7.4487257 C4.96968143,8.53418467 4.95259719,10.8149298 5.25828294,12.22804 C5.64206803,14.0035799 8.0899946,14.7241685 10.537311,14.7241685 C11.9766577,14.7241685 12.8888337,13.572203 12.1688553,11.6520572 C12.1212635,11.8442549 11.7081911,12.1633639 10.920486,12.2762419 C9.9137365,12.4202376 6.69823974,12.22804 6.12164687,10.8362851 C5.67135529,9.74655508 4.84215983,6.3711987 6.28394708,6.3711987 C9.28955184,6.3711987 11.3713877,6.15581533 12.2615983,5.58959503 C14.4245842,4.2137041 12.9065281,0.668725702 10.5958855,1.90184125 C10.4720248,1.05617171 9.16813175,0.422224622 7.86850972,0.422224622 C7.04358531,0.422224622 6.22049136,0.67787797 5.70308315,1.29779158" id="Fill-20" fill="#173155" mask="url(#mask-37)"></path>
                    </g>
                </g>
                <path d="M506.633967,153.98782 C500.866202,157.711989 493.871876,159.585448 486.366508,158.940972 C482.403792,158.600787 478.605489,157.582865 475.072314,156.005214 C461.472704,149.932649 451.801148,135.567298 451.801148,119.638847 C451.801148,104.10227 461.002676,91.3477325 474.075794,86.8702389 C477.887592,85.5647126 482.028537,84.9628684 486.366508,85.2009198" id="Stroke-1" stroke="#86D2E7" stroke-width="2" stroke-linecap="round" stroke-dasharray="6" transform="translate(479.217558, 122.108023) rotate(-167.000000) translate(-479.217558, -122.108023) "></path>
                <polygon id="Fill-1" fill="#FFFFFF" points="553.407127 106.007057 505.205184 104.177824 505.205184 9.60316955 553.407127 7.93196544"></polygon>
                <path d="M549.255439,105.849503 L509.053495,104.323865 C506.904925,104.242328 505.205184,102.476859 505.205184,100.326742 L505.205184,13.4668894 C505.205184,11.3116958 506.912684,9.543969 509.066583,9.4692914 L549.268527,8.07545438 C551.47634,7.99890757 553.328179,9.72663972 553.404725,11.9344521 C553.406327,11.9806349 553.407127,12.0268419 553.407127,12.0730524 L553.407127,101.85238 C553.407127,104.061519 551.616266,105.85238 549.407127,105.85238 C549.356551,105.85238 549.305979,105.851421 549.255439,105.849503 Z" id="Stroke-2" stroke="#2791D9"></path>
                <polygon id="Fill-4" fill="#17CCD5" opacity="0.159807478" points="549.74622 104.077149 500.934125 102.297338 500.934125 13.164622 549.74622 11.5928726"></polygon>
                <path d="M479.578834,41.731526 L479.578834,112.561174 C479.578834,114.696149 481.255521,116.454802 483.388066,116.556623 L516.268196,118.126526 C518.474821,118.231884 520.349054,116.528471 520.454412,114.321846 C520.457446,114.258302 520.458963,114.194694 520.458963,114.131078 L520.458963,41.2751302 C520.458963,39.0659912 518.668102,37.2751302 516.458963,37.2751302 C516.440457,37.2751302 516.421951,37.2752586 516.403446,37.2755155 L483.523317,37.7319113 C481.336039,37.762272 479.578834,39.5440374 479.578834,41.731526 Z" id="Fill-7" fill="#173155"></path>
                <polygon id="Phone-Screen" fill="#FFFFFF" points="519.238661 108.84243 480.188985 107.480953 480.188985 45.3889843 519.238661 45.1511879"></polygon>
                <path d="M514.357451,64.482608 L481.409287,64.1281102 L481.409287,48.8755508 L514.357451,48.812095 L514.357451,64.482608 Z M495.45901,108.034355 L481.409287,107.544818 L481.409287,65.2861771 L495.45901,65.5961794 L495.45901,67.9923231 L495.45901,108.034355 Z M514.357451,69.5572354 L497.273218,69.2094492 L497.273218,67.7267819 L514.357451,68.0495518 L514.357451,69.5572354 Z M514.357451,74.4384449 L497.273218,74.0906587 L497.273218,72.6079914 L514.357451,72.9307613 L514.357451,74.4384449 Z M514.357451,79.3196544 L497.273218,78.9718683 L497.273218,77.4892009 L514.357451,77.8119708 L514.357451,79.3196544 Z M514.357451,84.2008639 L497.273218,83.8530778 L497.273218,82.3704104 L514.357451,82.6931803 L514.357451,84.2008639 Z" id="Combined-Shape" fill-opacity="0.636831975" fill="#86D2E7"></path>
                <path d="M494.222462,41.7953564 L505.815335,41.7953564" id="Stroke-16" stroke="#5681BD" stroke-width="3" stroke-linecap="round" stroke-linejoin="round"></path>
                <path d="" id="Stroke-17" stroke="#FFFFFF" stroke-width="2" stroke-linecap="round" stroke-linejoin="round"></path>
                <path d="M499.713823,112.319136 C499.713823,113.311852 499.029843,114.078812 498.186614,114.031221 C497.344606,113.984239 496.663067,113.14284 496.663067,112.151955 C496.663067,111.161069 497.344606,110.394109 498.186614,110.439261 C499.029843,110.483802 499.713823,111.32581 499.713823,112.319136" id="Fill-18" fill="#5681BD"></path>
                <g id="Path-155" transform="translate(259.000000, 336.000000)">
                    <mask id="mask-39" fill="white">
                        <use xlink:href="#path-38"></use>
                    </mask>
                    <use id="Mask" fill="url(#linearGradient-9)" xlink:href="#path-38"></use>
                    <polyline fill-opacity="0.222231658" fill="#17CCD5" fill-rule="nonzero" mask="url(#mask-39)" points="33.8748808 51.1440989 23.5 78.7765404 61 90.3150209 73.5897075 71.8726953 91.0086396 51.1440989 73.5897075 48.0548204 35.4030099 51.1440989"></polyline>
                </g>
                <polygon id="Laptop" fill="url(#linearGradient-16)" points="354.49784 359.743151 323.38013 350.292439 291.042117 386.83519 324.600432 398.176044"></polygon>
                <ellipse id="Oval" fill="#FFFFFF" fill-rule="nonzero" transform="translate(120.904643, 284.697738) rotate(2.000000) translate(-120.904643, -284.697738) " cx="120.904643" cy="284.697738" rx="1.83045356" ry="2.74568035"></ellipse>
                <ellipse id="Oval-Copy-6" fill="#FFFFFF" fill-rule="nonzero" filter="url(#filter-40)" transform="translate(120.904643, 284.697738) rotate(2.000000) translate(-120.904643, -284.697738) " cx="120.904643" cy="284.697738" rx="1.83045356" ry="2.74568035"></ellipse>
                <path d="M379.662428,365.611097 C379.662428,365.611097 366.332455,366.593971 360.619609,366.593971 C354.907374,366.593971 346.3378,366.593971 344.434129,363.644719 C342.529847,360.694837 341.577401,359.711963 350.146364,359.711963 L375.853864,359.711963 C379.662428,359.711963 384.422827,361.678341 386.327109,361.678341 C388.231391,361.678341 379.662428,365.611097 379.662428,365.611097" id="Tangan-Kanan" fill="#FFD5C2"></path>
                <g id="Path-153" transform="translate(392.000000, 315.000000)">
                    <mask id="mask-42" fill="white">
                        <use xlink:href="#path-41"></use>
                    </mask>
                    <use id="Mask" fill="#FFD5C2" xlink:href="#path-41"></use>
                    <path d="M6,6.02027027 C9.943,9.44369369 11.9145,12.4391892 11.9145,15.0067568 C11.9145,17.5743243 13.3179922,18.9469866 16.1249767,19.1247436 L18.6079246,8.58783784 L14.0015,2.2080261 L6,6.02027027 Z" fill-opacity="0.440245697" fill="#FCB9A5" fill-rule="nonzero" mask="url(#mask-42)"></path>
                </g>
                <g id="Path-151" transform="translate(339.000000, 338.000000)">
                    <mask id="mask-44" fill="white">
                        <use xlink:href="#path-43"></use>
                    </mask>
                    <use id="Mask" fill="#FF5252" xlink:href="#path-43"></use>
                    <path d="M88.9145,2.91891892 C81.0032016,-1.25940932 72.3365349,-0.46489647 62.9145,5.30245747 C48.7814476,13.9534884 68.9985,9.40661756 68,18.2970968 C67.0015,27.1875761 61,37.5721174 52.5,43.3581081 C44,49.1440989 32,55.6600292 32,64.0525681 C32,72.445107 25.9145,79.7773607 23.9145,85.6556636 C22.5811667,89.5745321 32.1096667,94.8325554 52.5,101.429733 L88.9145,2.91891892 Z" fill-opacity="0.687726449" fill="#E03C3C" fill-rule="nonzero" mask="url(#mask-44)"></path>
                </g>
                <path d="M381.344492,434.483658 C381.344492,434.483658 381.388423,434.334781 381.473234,434.04862 C383.384228,427.592 406.086733,351.348118 413.682505,347.842189 C421.614471,344.181282 427.715983,339.300072 430.766739,338.689921 C433.817495,338.07977 438.698704,342.350828 431.987041,355.774154 C425.275378,369.197481 413.072354,391.162923 414.292657,399.70504 C415.512959,408.247157 420.394168,418.619727 414.292657,426.551692 C408.191145,434.483658 393.547516,436.314111 381.344492,434.483658" id="Kursi" fill="#173155"></path>
                <g id="Path-152" transform="translate(382.000000, 277.000000)">
                    <mask id="mask-46" fill="white">
                        <use xlink:href="#path-45"></use>
                    </mask>
                    <use id="Mask" fill="#FFD5C2" xlink:href="#path-45"></use>
                    <path d="M1,4.2002361 C0.442769853,11.0622409 1.35374894,15.990991 3.73293727,18.9864865 C7.30171976,23.4797297 18.2738373,31.5760742 18.2738373,35.0337838 C18.2738373,37.3389235 17.5158915,40.548383 16,44.6621622 L27.2863556,40.9142663 L18.2738373,11.1634291 L1,4.2002361 Z" fill-opacity="0.440245697" fill="#FCB9A5" fill-rule="nonzero" mask="url(#mask-46)"></path>
                </g>
                <path d="M375.854047,278.108473 C375.854047,272.209339 378.710165,266.310205 385.374846,263.360323 C392.040138,260.411701 396.800537,252.545559 404.417665,252.545559 C412.034182,252.545559 427.268437,254.512567 434.885564,266.310205 C442.502692,278.108473 434.558843,300.937572 445.318948,321.02027 C456.079052,341.102969 467.243605,364.062331 456.079052,380.074324 C444.9145,396.086318 434.885564,394.173069 421.922336,384.05482 C408.959109,373.936572 411.242206,360.373135 406.971147,351.552471 C402.700089,342.731807 406.797864,333.657864 406.797864,327.7581 C406.797864,321.859596 405.846029,307.112076 400.132573,303.17932 C394.420337,299.246564 387.755046,289.414674 385.374846,284.007607 C385.374846,284.007607 375.854047,284.007607 375.854047,278.108473 Z" id="Rambut" fill="#000000"></path>
                <g id="Path-154" transform="translate(309.000000, 357.000000)">
                    <mask id="mask-48" fill="white">
                        <use xlink:href="#path-47"></use>
                    </mask>
                    <use id="Mask" fill="#FFD5C2" xlink:href="#path-47"></use>
                    <path d="M89,5.35096919 L62,23.0743243 L26,30.1440989 C32.525054,31.9834383 38.3229842,32.903108 43.3937905,32.903108 C51,32.903108 65.5,24.6683329 74,21.8976857 C79.6666667,20.0505876 86.6381667,14.5350154 94.9145,5.35096919 L89,5.35096919 Z" fill-opacity="0.440245697" fill="#FCB9A5" fill-rule="nonzero" mask="url(#mask-48)"></path>
                </g>
                <path d="M291.042117,386.83519 L283.023953,353.716688 C282.698188,352.371135 283.091357,350.952798 284.063383,349.966999 L314.025356,319.580488 C314.800891,318.793964 316.067189,318.785056 316.853713,319.560591 C317.137822,319.84073 317.331647,320.199443 317.410269,320.590613 L323.38013,350.292439 L291.042117,386.83519 Z" id="Layar-Laptop2" fill="#000000"></path>
                <path d="M322.262882,351.554991 L316.133918,322.189357 C316.021081,321.648722 315.491337,321.301923 314.950702,321.41476 C314.758182,321.454941 314.581784,321.550999 314.443575,321.690916 L286.211543,350.271938 C285.232519,351.263064 284.839694,352.692176 285.174576,354.04446 L292.802342,384.846067 L322.262882,351.554991 Z" id="Layar-Laptop" fill="url(#linearGradient-49)"></path>
                <path d="M562.95327,60.9642281 L530.993523,60.1695679 C529.885205,60.1420103 529.00108,59.2356282 529.00108,58.1269681 C529.00108,57.0500177 529.874121,56.176977 530.951071,56.176977 C530.96527,56.176977 530.979468,56.177132 530.993663,56.1774422 L562.953126,56.8756752 C564.090744,56.9005292 565,57.829867 565,58.9677565 C565,60.0707181 564.105873,60.9648451 563.002911,60.9648451 C562.986362,60.9648451 562.969814,60.9646394 562.95327,60.9642281 Z M562.95327,69.5063447 L530.993523,68.7116845 C529.885205,68.6841269 529.00108,67.7777448 529.00108,66.6690848 C529.00108,65.5921344 529.874121,64.7190936 530.951071,64.7190936 C530.96527,64.7190936 530.979468,64.7192487 530.993663,64.7195588 L562.953126,65.4177918 C564.090744,65.4426459 565,66.3719837 565,67.5098731 C565,68.6128347 564.105873,69.5069618 563.002911,69.5069618 C562.986362,69.5069618 562.969814,69.5067561 562.95327,69.5063447 Z M562.95327,78.0484613 L530.993523,77.2538012 C529.885205,77.2262435 529.00108,76.3198614 529.00108,75.2112014 C529.00108,74.134251 529.874121,73.2612102 530.951071,73.2612102 C530.96527,73.2612102 530.979468,73.2613653 530.993663,73.2616754 L562.953126,73.9599084 C564.090744,73.9847625 565,74.9141003 565,76.0519897 C565,77.1549513 564.105873,78.0490784 563.002911,78.0490784 C562.986362,78.0490784 562.969814,78.0488727 562.95327,78.0484613 Z M562.95327,86.590578 L530.993523,85.7959178 C529.885205,85.7683601 529.00108,84.8619781 529.00108,83.753318 C529.00108,82.6763676 529.874121,81.8033269 530.951071,81.8033269 C530.96527,81.8033269 530.979468,81.8034819 530.993663,81.8037921 L562.953126,82.5020251 C564.090744,82.5268791 565,83.4562169 565,84.5941064 C565,85.697068 564.105873,86.591195 563.002911,86.591195 C562.986362,86.591195 562.969814,86.5909893 562.95327,86.590578 Z" id="Combined-Shape" fill="#86D2E7"></path>
                <circle id="Oval" fill="#5681BD" fill-rule="nonzero" cx="491.476782" cy="41.7953564" r="1"></circle>
                <circle id="Oval" fill="#FF5252" fill-rule="nonzero" cx="519.238661" cy="37.8293737" r="6.10151188"></circle>
                <polygon id="1" fill="#FFFFFF" points="520.195 34.943 520.195 41 519.061 41 519.061 36.104 517.711 36.923 517.207 36.149 519.178 34.943"></polygon>
                <circle id="Oval" fill="#FF5252" fill-rule="nonzero" cx="222.705184" cy="280.669546" r="3.05075594"></circle>
                <circle id="Oval" fill="#86D2E7" fill-rule="nonzero" cx="108.301836" cy="371.276998" r="4.57613391"></circle>
                <circle id="Oval" fill="#FF5252" fill-rule="nonzero" cx="172.367711" cy="332.227322" r="2.74568035"></circle>
                <circle id="Oval-Copy-4" fill="#17CCD5" fill-rule="nonzero" cx="267.856371" cy="322.769978" r="4.8812095"></circle>
                <circle id="Oval" fill="#86D2E7" fill-rule="nonzero" cx="205.315875" cy="365.175486" r="3.96598272"></circle>
                <path d="M503.37473,302.634989 C512.136137,302.634989 519.238661,295.532465 519.238661,286.771058 C519.238661,282.423786 517.490028,278.484929 514.657757,275.619482 C511.781925,272.709963 507.788865,270.907127 503.37473,270.907127 C494.613323,270.907127 487.510799,278.009651 487.510799,286.771058 C487.510799,295.532465 494.613323,302.634989 503.37473,302.634989 Z" id="Oval-Copy-2" stroke="#FF0000" stroke-width="2" opacity="0.600000024" stroke-dasharray="6,6" fill-rule="nonzero"></path>
            </g>
        </g>
    </g>
</svg>