<?xml version="1.0" encoding="UTF-8"?>
<svg width="370px" height="230px" viewBox="0 0 370 230" version="1.1" xmlns="http://www.w3.org/2000/svg" xmlns:xlink="http://www.w3.org/1999/xlink">
    <!-- Generator: Sketch 52.5 (67469) - http://www.bohemiancoding.com/sketch -->
    <title>Group 32</title>
    <desc>Created with Sketch.</desc>
    <defs>
        <path d="M13.7785437,144.520167 C-6.65551532,121.634088 6.4257363,102.927111 1.85120126,84.6623772 C-2.72333379,66.3976433 0.164202663,48.7159489 22.1333065,28.5371422 C44.1024103,8.35833542 70.9029994,-11.8204713 94.5200128,8.35833542 C118.137026,28.5371422 123.111559,63.2315556 155.067917,66.3976433 C187.024274,69.563731 242.521019,84.7512094 243.887976,110.453268 C245.254934,136.155327 238.479333,152.782757 223.605565,165.028791 C208.731797,177.274825 119.346496,195.624069 92.7327819,186.449447 C66.1190675,177.274825 34.2126028,167.406245 13.7785437,144.520167 Z" id="path-1"></path>
        <path d="M0.0847670607,5.52913857 C7.2172201,6.43837503 12.3250657,4.77170836 15.408304,0.529138571 C18.4915422,-3.71343122 24.6288931,19.5573437 33.8203568,70.3414634 L3.96228143,70 L0.0847670607,5.52913857 Z" id="path-3"></path>
        <linearGradient x1="50%" y1="0%" x2="50%" y2="100%" id="linearGradient-5">
            <stop stop-color="#EE8A1D" offset="0%"></stop>
            <stop stop-color="#D8510D" offset="100%"></stop>
        </linearGradient>
        <path d="M0.0975609756,1 C0.334817151,10.6638669 0.7685051,22.4083501 1.39862482,36.2334496 C2.02874455,50.0585491 2.88559601,61.9745244 3.9691792,71.9813756 L30.0227729,71.8021778 C34.0330044,47.1726055 34.9658077,31.96701 32.8211828,26.1853913 C29.6042455,17.5129632 21.4964495,3.30081612 14.4405271,1.52714705 C9.73657879,0.344701 4.95559009,0.168985318 0.0975609756,1 Z" id="path-6"></path>
        <linearGradient x1="50%" y1="0%" x2="50%" y2="100%" id="linearGradient-8">
            <stop stop-color="#CCCCCC" offset="0%"></stop>
            <stop stop-color="#EDEDED" offset="100%"></stop>
        </linearGradient>
        <path d="M17,0.581647289 C10.9836751,0.972620446 6.54576268,1.89080937 3.6862628,3.33621405 C-0.602987014,5.50432107 -0.310244322,22.1413307 4,36.0706653 C5.96848204,42.4321713 3.47620828,52.2666326 3.6862628,60.2087214 C3.75064484,62.6429839 4.8552239,65.5672019 7,68.9813756 L23,68.3414634 C19.8946199,30.1115374 18.3419299,9.55116967 18.3419299,6.6603603 C18.3419299,3.76955093 17.8946199,1.74331326 17,0.581647289 Z" id="path-9"></path>
        <path d="M32.5003938,-7.88702437e-13 C31.6024954,0.0712521428 30.1535462,0.681911207 28.1535462,1.83197719 C26.8012963,2.60956549 16.6094115,34.4489621 13.7396747,41.3106354 C13.6006507,41.6430482 9.02075913,47.9288324 -1.70530257e-12,60.167988 L1.99093891,65 C13.4936913,55.8928113 19.6798008,50.366162 20.5492676,48.4200522 C21.0733196,47.2470772 28.3170349,37.935667 31.1037774,26.4499354 C32.3283149,21.4029283 32.7938537,12.5862832 32.5003938,-7.88702437e-13 Z" id="path-11"></path>
        <linearGradient x1="50%" y1="0%" x2="100%" y2="76.3152497%" id="linearGradient-13">
            <stop stop-color="#4A719B" offset="0%"></stop>
            <stop stop-color="#243E62" offset="100%"></stop>
        </linearGradient>
        <path d="M51.1034943,-4.26325641e-14 C43.9348248,1.63217501 38.5040106,4.95573752 34.8110517,9.97068753 C31.1180927,14.9856375 26.8407843,30.3287417 21.9791265,56 C17.2843231,46.8480584 14.325779,39.514725 13.1034943,34 C10.2221717,21 10.2746131,16.6149788 6.46853716,16.6037647 C5.68006796,16.6014415 0.553920799,20.2224597 0.0921486401,21 C-0.652521094,22.2538884 3.34253029,39.3044393 3.95148228,42 C7.5525603,57.9403768 12.4997928,73.1876582 20.0633499,75.7783017 C27.04078,76.1537428 36.0410187,76.1537428 47.0640659,75.7783017 C45.1729339,65.1880053 44.227368,56.875 44.227368,50.8392857 C44.227368,44.8035714 46.5194101,27.8571429 51.1034943,-4.26325641e-14 Z" id="path-14"></path>
        <path d="M10.5615786,0.222536409 C3.65866274,-2.48387507 1.10432998,20.0551324 0.710535852,37.3905799 C0.577128422,43.2633883 2.14778107,56.9775391 5.42249378,78.5330324 L49.9908725,77.3414634 C43.9024599,64.3743676 40.3986572,56.1240901 39.4794643,52.5906309 C35.5253282,37.3905799 17.4644944,2.92894789 10.5615786,0.222536409 Z" id="path-16"></path>
        <linearGradient x1="23.5821759%" y1="-56.7511123%" x2="64.3699363%" y2="133.236852%" id="linearGradient-18">
            <stop stop-color="#335F8E" offset="0%"></stop>
            <stop stop-color="#173155" offset="100%"></stop>
        </linearGradient>
        <linearGradient x1="50%" y1="0%" x2="50%" y2="100%" id="linearGradient-19">
            <stop stop-color="#335F8E" offset="0%"></stop>
            <stop stop-color="#173155" offset="100%"></stop>
        </linearGradient>
        <path d="M33.5744784,0 C48.3383898,0.823424905 58.0300781,3.16485471 62.6495433,7.02428943 C67.2690084,10.8837241 75.7537472,31.54488 88.1037598,69.0077569 C89.9181514,73.5125453 88.9776871,76.5118863 85.2823667,78.0057798 C81.5870464,79.4996733 53.1595908,79.3100481 0,77.4369042 L4.94049246e-15,69.0077569 C29.8439808,67.4984257 46.63122,66.184521 50.3617176,65.0660427 C54.0922152,63.9475645 61.0868982,64.3248973 71.3457666,66.1980412 C63.9757592,60.5786096 59.7789494,53.0860342 58.7553372,43.720315 C57.7317251,34.3545957 49.3381055,19.7811574 33.5744784,0 Z" id="path-20"></path>
    </defs>
    <g id="Page-1" stroke="none" stroke-width="1" fill="none" fill-rule="evenodd">
        <g id="Modals-Design-Alt" transform="translate(-226.000000, -361.000000)">
            <g id="Group-32" transform="translate(226.000000, 361.000000)">
                <g id="Group-29" transform="translate(3.000000, 0.000000)">
                    <g id="Group-27-Copy" transform="translate(58.000000, 0.000000)">
                        <g id="Path-193">
                            <mask id="mask-2" fill="white">
                                <use xlink:href="#path-1"></use>
                            </mask>
                            <use id="Mask" fill="#C0DDFF" fill-rule="nonzero" opacity="0.4" xlink:href="#path-1"></use>
                            <path d="M-21.4223331,69.3415025 C14.4252704,53.8913382 49.6865362,94.594806 65.7502173,108 C81.4287531,121.083789 134.742932,171.747051 160.790912,147 C185,124 239.083134,114.27173 262,125 C284.916866,135.72827 274.744186,172 251.372093,182 C228,192 139.446245,203 122.223123,198 C105,193 46.2928266,192.014135 26.2236367,169 C6.15444674,145.985865 -32.1887947,112 -28.920303,80.5 C-25.6518114,49 -57.2699365,84.7916667 -21.4223331,69.3415025 Z" fill-opacity="0.289826766" fill="#9CE8F3" fill-rule="nonzero" mask="url(#mask-2)"></path>
                        </g>
                        <path d="M13.8209501,72 C10.9313268,59.2540313 20.8664146,45 35.0473804,34 C49.2283463,23 79,1.9233785 85,13 C91,24.0766215 63.0918652,18.8323938 53.9152803,32 C44.7386954,45.1676062 40.2246012,49.0706691 42.4914008,65 C44.7582003,80.9293309 16.7105733,84.7459687 13.8209501,72 Z" id="Path-194" fill-opacity="0.50317029" fill="#FFFFFF" fill-rule="nonzero"></path>
                    </g>
                    <path d="" id="Path-163-Copy" stroke="#979797" fill-rule="nonzero"></path>
                    <ellipse id="Oval-Copy-19" fill="#86D2E7" fill-rule="nonzero" cx="259.536946" cy="34.5132493" rx="7.53694581" ry="7.51324927"></ellipse>
                    <ellipse id="Oval-Copy-20" fill="#86D2E7" fill-rule="nonzero" cx="144.536946" cy="132.513249" rx="7.53694581" ry="7.51324927"></ellipse>
                    <ellipse id="Oval-Copy-21" fill="#2791D9" fill-rule="nonzero" cx="86.7684729" cy="3.75662463" rx="3.76847291" ry="3.75662463"></ellipse>
                    <ellipse id="Oval-Copy-22" fill="#2791D9" fill-rule="nonzero" cx="255.768473" cy="147.756625" rx="3.76847291" ry="3.75662463"></ellipse>
                    <circle id="Oval-Copy-23" fill="#2791D9" fill-rule="nonzero" cx="6.5" cy="98.5" r="6.5"></circle>
                    <circle id="Oval-Copy-24" fill="#2791D9" fill-rule="nonzero" cx="360.5" cy="78.5" r="6.5"></circle>
                </g>
                <g id="Group-28" transform="translate(198.000000, 75.000000)">
                    <path d="M88,42 C88.0576787,45.5894747 87.391012,48.917118 86,51.9829297 C83.913482,56.5816473 80.5226481,62.9399332 83.261324,65 C85.087108,66.3733779 89.9930314,66.7067112 97.9790941,66 C98.694684,59.2132806 99.0524789,55.5466139 99.0524789,55 C99.0524789,54.4533861 98.0224131,49.151235 95.9622814,39.0935468 L88,42 Z" id="Path-201" fill="#D8510D" fill-rule="nonzero"></path>
                    <path d="M103.861444,22.1272293 C103.708252,23.8391546 106.243666,48.2359252 107.124418,49.788141 C107.711586,50.8229515 108.750755,51.1840061 110.241926,50.8713047 L101.948742,61.830201 L96,63.8888112 L95.0601143,55 L96.4088591,41.7380747 C101.479377,27.5228942 103.963572,20.9859457 103.861444,22.1272293 Z" id="Path-197-Copy" fill="#FFD5C2" fill-rule="nonzero"></path>
                    <path d="M78,16.5777975 C79.3913476,29.5662214 80.9454187,37.4846376 82.6622133,40.3330461 C85.2374052,44.6056589 90.6210942,46.4204625 96.9836864,44.3029927 C103.346279,42.1855229 108.055012,38.1378183 107.10888,30.3363251 C106.478126,25.1353296 104.871601,18.6898879 102.289305,11 L78,16.5777975 Z" id="Path-212" fill="#FFD5C2" fill-rule="nonzero"></path>
                    <g id="Path-211" transform="translate(92.000000, 54.000000)">
                        <mask id="mask-4" fill="white">
                            <use xlink:href="#path-3"></use>
                        </mask>
                        <use id="Mask" fill="#FFFFFF" fill-rule="nonzero" xlink:href="#path-3"></use>
                        <path d="M20.6585246,-1.5476509e-13 C17.3834721,-1.33333333 15.2863893,-1 14.3672763,1 C12.9886068,4 14.8109426,9.16386618 14.8109426,14.4958003 C14.8109426,18.0506133 16.5401652,48.3876182 15.8465745,54.9647036 C14.8760363,64.167988 14.5949201,67.8092295 15.8465745,72 C16.6810108,74.793847 19.3988193,74.1271803 24,70 L23.4754661,49.4370238 C21.5975051,39.1456746 20.6585246,33 20.6585246,31 C20.6585246,29 20.6585246,18.6666667 20.6585246,-1.5476509e-13 Z" fill-opacity="0.2" fill="#2791D9" fill-rule="nonzero" mask="url(#mask-4)"></path>
                    </g>
                    <path d="M95.1636931,21.6810702 C82.2959437,28.8812768 74.7897565,28.8812768 72.6451316,21.6810702 C69.4281942,10.8807604 78.7345969,2.99816632e-14 89.6299261,2.84217094e-14 C100.525255,2.84217094e-14 113.069237,4.64031421 114.968122,17.3448562 C116.867008,30.0493982 131.183613,30.7748527 143,43.67825 C154.816387,56.5816473 158.539346,77.9701417 152,86.4300179 C147.640436,92.0699354 142.307103,94.1173565 136,92.5722812 C121.209873,69.6101195 111.789765,56.3870196 107.739675,52.9029814 C101.66454,47.6769243 103.650565,36.6408307 103.160223,31.514161 C102.833328,28.0963811 100.167818,24.8186842 95.1636931,21.6810702 Z" id="Path-213" fill="url(#linearGradient-5)" fill-rule="nonzero"></path>
                    <g id="Path-221" transform="translate(108.000000, 53.000000)">
                        <mask id="mask-7" fill="white">
                            <use xlink:href="#path-6"></use>
                        </mask>
                        <use id="Mask" fill="#17CCD5" fill-rule="nonzero" xlink:href="#path-6"></use>
                        <polygon fill-opacity="0.40477808" fill="#FFFFFF" fill-rule="nonzero" mask="url(#mask-7)" points="0.363636364 -0.595065433 12.1386982 1 8.92248062 28 15.1138529 26.7024673 2.13997519 54 -3 15"></polygon>
                        <path d="M24,33.5 L22.1007752,71 L14,71.8021778 C17.2684886,67.881218 17.9351553,64.0796622 16,60.3975101 C13.097267,54.874282 13.6014302,50.6212708 15.1138529,46.3106354 C16.1221348,43.4368785 19.0841838,39.1666667 24,33.5 Z" id="Path-75" fill-opacity="0.404127038" fill="#169096" fill-rule="nonzero" mask="url(#mask-7)"></path>
                    </g>
                    <polygon id="Path-216" fill="url(#linearGradient-8)" fill-rule="nonzero" points="-1.45661261e-13 122.012796 16.053951 130.100975 63.7936256 127.012796 45.053951 120"></polygon>
                    <g id="Path-217" transform="translate(78.000000, 56.000000)">
                        <mask id="mask-10" fill="white">
                            <use xlink:href="#path-9"></use>
                        </mask>
                        <use id="Mask" fill="#17CCD5" fill-rule="nonzero" xlink:href="#path-9"></use>
                        <polygon fill-opacity="0.335880888" fill="#FFFFFF" fill-rule="nonzero" mask="url(#mask-10)" points="17.9622814 0.581647289 6.26132404 2 15 29 10.7057323 29 22.0524789 50"></polygon>
                        <path d="M5.26132404,29.1255465 C8.90127758,36.3205565 10.4343786,40.7258622 9.86062718,42.3414634 C9,44.7648653 8,59.1907705 10,61 C11.3333333,62.206153 12.6666667,64.8728197 14,69 L1.78369016,68 L0.308134795,58 L5.26132404,29.1255465 Z" id="Path-123" fill-opacity="0.404127038" fill="#169096" fill-rule="nonzero" mask="url(#mask-10)"></path>
                    </g>
                    <g id="Group-27" transform="translate(62.155122, 93.282281) rotate(-2.000000) translate(-62.155122, -93.282281) translate(39.155122, 59.782281)">
                        <g id="Path-122" transform="translate(13.000000, 0.000000)">
                            <mask id="mask-12" fill="white">
                                <use xlink:href="#path-11"></use>
                            </mask>
                            <use id="Mask" fill="#17CCD5" fill-rule="nonzero" xlink:href="#path-11"></use>
                            <path d="M32.4864813,22.9960871 C26.174759,36.2240883 22.3464382,43.2404306 21.0015189,44.045114 C18.9841399,45.2521391 14.1666599,49.5462885 14.0929499,51.6570668 C14.0438099,53.0642523 12.9358288,55.3211401 10.7690067,58.4277301 L22.2897444,49.621149 L32.4864813,22.9960871 Z" fill-opacity="0.404127038" fill="#169096" fill-rule="nonzero" mask="url(#mask-12)"></path>
                        </g>
                        <path d="M14.6019431,59 C10.9993883,60.7457543 8.24742735,61.8488595 6.34606016,62.3093157 C4.44469298,62.7697719 2.32933959,64 -9.09494702e-13,66 C8.56302177,66.6666667 13.1374344,66.6666667 13.7232379,66 C14.3090413,65.3333333 15.4347803,64.4482291 17.1004547,63.3446873 L14.6019431,59 Z" id="Path-219" fill="#FFD5C2" fill-rule="nonzero"></path>
                    </g>
                </g>
                <path d="M71,99.8859989 C71,113.912971 76.2855165,116.718365 79.0958425,116.718365 C83.5746289,116.718365 96.1722594,118.902195 97.0936849,111.107576 C97.7079687,105.911164 98.0099897,96.2046452 97.9997481,81.9880205 L71.8093977,81 C71.2697992,90.1190393 71,96.4143722 71,99.8859989 Z" id="Path-196" fill="#FFD5C2" fill-rule="nonzero" transform="translate(84.500000, 99.000000) scale(-1, 1) translate(-84.500000, -99.000000) "></path>
                <path d="M66.5560726,96.0922831 C66.5560726,97.4374889 73.641797,115.358708 75.1729785,116.308428 C76.1937662,116.941575 77.8027734,116.941575 80,116.308428 L69.0189999,126.856014 L60.3625825,130 L60.3625825,122.921193 L58,113.010864 C63.7040484,100.835006 66.5560726,95.1954793 66.5560726,96.0922831 Z" id="Path-197" fill="#FFD5C2" fill-rule="nonzero" transform="translate(69.000000, 113.000000) scale(-1, 1) translate(-69.000000, -113.000000) "></path>
                <polygon id="Path-205" fill="#FFFFFF" fill-rule="nonzero" transform="translate(57.000000, 176.500000) scale(-1, 1) translate(-57.000000, -176.500000) " points="27.5337532 132.783745 34.5346459 128.590711 46.685357 128.590711 59.7378596 123 63.3348697 143.965167 89 230 32.4343781 230 25 145.362845"></polygon>
                <path d="M72.879939,89.946309 C65.6495844,90.5 62,86.0776418 62,80.95143 C62,75.8252181 67.435678,71 71.5189777,71 C75.6022774,71 85.634932,72.3071268 89.8865964,71.6535634 C94.1382607,71 101.909192,69.8808096 104.058811,76.7999473 C106.20843,83.7190851 104.058811,90.4804002 103.658052,96.2424971 C103.257293,102.004594 101.728821,112.138535 99.3507625,109.599266 C96.9727036,107.059996 95.5554822,96.8654467 92.7210393,93.4058779 C89.8865964,89.946309 80.1102935,89.392618 72.879939,89.946309 Z" id="Path-198" fill="url(#linearGradient-13)" fill-rule="nonzero" transform="translate(83.500000, 90.500000) scale(-1, 1) translate(-83.500000, -90.500000) "></path>
                <polygon id="Path-199" fill="#173155" fill-rule="nonzero" transform="translate(73.500000, 130.500000) scale(-1, 1) translate(-73.500000, -130.500000) " points="68 127 79 127 76.265047 134 70.75 134"></polygon>
                <g id="Path-200" transform="translate(79.000000, 123.000000)">
                    <mask id="mask-15" fill="white">
                        <use xlink:href="#path-14"></use>
                    </mask>
                    <use id="Mask" fill="#2791D9" fill-rule="nonzero" transform="translate(25.551747, 38.029941) scale(-1, 1) translate(-25.551747, -38.029941) " xlink:href="#path-14"></use>
                    <polygon fill="#217FBF" fill-rule="nonzero" mask="url(#mask-15)" points="12.8209501 18 19 43 19.5805386 64.7652347 27.2236367 68.3497825 22.5964988 56.6753078 16.9491293 26"></polygon>
                </g>
                <path d="M122.246041,140 C123.025386,134.177216 124.245362,131.265824 125.905971,131.265824 C128.396884,131.265824 136.657035,124.992417 140.451618,122 C144.2462,119.007583 146.88022,120 144.945418,122 C143.010615,124 140.89849,126.939052 137.612538,130.673228 C135.829602,132.699368 132.714048,136 130.520378,136 C128.999414,136 128.040605,138.035975 127.643951,142.107924 L122.246041,140 Z" id="Path-124" fill="#FFD5C2" fill-rule="nonzero"></path>
                <polygon id="Path-202" fill="#173155" fill-rule="nonzero" transform="translate(78.981419, 127.500000) scale(-1, 1) translate(-78.981419, -127.500000) " points="80.1847259 122 77 123.316431 78.1227712 133 80.9628375 127.5"></polygon>
                <path d="M16.3032887,199.802178 C48.6798963,209.267393 63.1505669,216.333333 59.7153005,221 C54.562401,228 119.918919,230.294063 132.959459,225.647031 C139.865267,223.186128 207.877349,215.410936 213.903592,215.009015 C218.998872,214.669185 282.856886,224.284889 311.060114,222 C353.76196,218.540504 364.105321,202.507957 356,199.802178 C347.02758,196.806936 233.795343,196.806936 16.3032887,199.802178 Z" id="Path-214" fill="#C0DDFF" fill-rule="nonzero" opacity="0.3"></path>
                <polygon id="Path-203" fill="#173155" fill-rule="nonzero" transform="translate(61.322739, 125.000000) scale(-1, 1) translate(-61.322739, -125.000000) " points="53 127.205154 58.5812504 134 69.6454784 120.187017 66.6490371 116 64.2533913 116"></polygon>
                <g id="Path-215" transform="translate(12.000000, 122.000000)">
                    <mask id="mask-17" fill="white">
                        <use xlink:href="#path-16"></use>
                    </mask>
                    <use id="Mask" fill="#2791D9" fill-rule="nonzero" transform="translate(25.346788, 39.266516) scale(-1, 1) translate(-25.346788, -39.266516) " xlink:href="#path-16"></use>
                    <path d="M19,19 C21.6116594,31 22.3968807,39.3333333 21.3556638,44 C19.7938385,51 25.4048344,54.4664702 28.4054054,59.2612737 C31.4059764,64.0560772 42.0453346,59.7308645 44.9460017,65.4494262 C46.8797798,69.2618007 49.2135679,70.7786586 51.947366,70 L2.90037374,69 L10,39.5 L19,19 Z" fill="#217FBF" fill-rule="nonzero" mask="url(#mask-17)"></path>
                </g>
                <polygon id="Path-206" fill="#173155" fill-rule="nonzero" transform="translate(73.500000, 157.000000) scale(-1, 1) translate(-73.500000, -157.000000) " points="71 133.14077 71.4198336 176.587261 74.6455285 182 76 176.587261 76 132"></polygon>
                <path d="M119.788968,193.580844 L168.204472,193.031707 C169.730987,193.014393 170.982508,194.237843 170.999822,195.764358 C170.999941,195.774807 171,195.785257 171,195.795708 L171,195.795708 C171,197.344728 169.75339,198.605251 168.204465,198.622443 L119.788975,199.159815 C118.265668,199.176723 117.017077,197.955544 117.00017,196.432237 C117.000057,196.422033 117,196.411828 117,196.401623 L117,196.401623 C117,194.85613 118.243573,193.598372 119.788968,193.580844 Z" id="Path-208" fill="url(#linearGradient-18)" fill-rule="nonzero" transform="translate(144.000000, 196.095385) scale(-1, 1) translate(-144.000000, -196.095385) "></path>
                <path d="M158.780216,157.429829 L170.085716,195.716854 C170.577316,197.3817 172.086618,198.539437 173.821985,198.582826 L217.295269,199.669786 C219.503718,199.725004 221.338782,197.979466 221.394,195.771017 C221.403252,195.400983 221.361097,195.031456 221.268742,194.673013 L210.713154,153.705045 C210.244437,151.885876 208.572941,150.637996 206.695578,150.705664 L162.472383,152.299646 C160.264678,152.379221 158.539487,154.233427 158.619062,156.441133 C158.631137,156.776149 158.68528,157.108319 158.780216,157.429829 Z" id="Path-207" fill="url(#linearGradient-19)" fill-rule="nonzero" transform="translate(189.955246, 175.195982) scale(-1, 1) translate(-189.955246, -175.195982) "></path>
                <path d="M97,173.973215 L105.771999,199.341463 C107.179148,199.341463 107.552472,197.94454 106.89197,195.150693 C106.231469,192.356846 103.893262,185.087103 99.8773507,173.341463 L97,173.973215 Z" id="Path-210" fill="url(#linearGradient-19)" fill-rule="nonzero"></path>
                <path d="M87.3006827,192 C92.2574329,192.413237 95.4340215,192.079904 96.8304487,191 C98.9250894,189.380144 107.444982,191.02666 109.555705,193.167988 C110.962853,194.59554 111.666428,196.653365 111.666428,199.341463 L88.4936231,199 L83,193.167988 L87.3006827,192 Z" id="Path-209" fill="#FFD5C2" fill-rule="nonzero"></path>
                <g id="Path-204" transform="translate(0.000000, 123.000000)">
                    <mask id="mask-21" fill="white">
                        <use xlink:href="#path-20"></use>
                    </mask>
                    <use id="Mask" fill="#2791D9" fill-rule="nonzero" transform="translate(44.500000, 39.500000) scale(-1, 1) translate(-44.500000, -39.500000) " xlink:href="#path-20"></use>
                    <path d="M37.7027027,-1 C30.2752411,8.33333333 26.3743402,15 26,19 C25.4384896,25 17.1515392,46.2351347 14.9003737,50 C12.6492083,53.7648653 3.42214415,72 6.21107207,74 C9,76 28.6443362,73.3093157 31,73.3093157 C33.3556638,73.3093157 52.5471352,72.2739441 54.562401,73.3093157 C56.5776669,74.3446873 72.1017843,75.48997 72.5508922,76 C72.8502974,76.34002 74.6045473,78.34002 77.8136419,82 L-0.135135135,79.8956176 L-3.10417054,67.2568254 L26,1.63614531 L37.7027027,-1 Z" fill="#217FBF" fill-rule="nonzero" mask="url(#mask-21)"></path>
                </g>
                <path d="M121,40 L193,40 C195.209139,40 197,41.790861 197,44 L197,81 C197,83.209139 195.209139,85 193,85 L141.121356,85 C133.649447,93.6666667 129.063839,98 127.364532,98 C125.665225,98 125.700346,93.6666667 127.469896,85 L121,85 C118.790861,85 117,83.209139 117,81 L117,44 C117,41.790861 118.790861,40 121,40 Z" id="Rectangle" fill-opacity="0.3" fill="#217FBF" fill-rule="nonzero"></path>
                <path d="M228,74 L262,74 C264.209139,74 266,75.790861 266,78 L266,101.034483 C266,103.243622 264.209139,105.034483 262,105.034483 L236.663712,105.034483 C232.74096,111.011494 230.333515,114 229.441379,114 C228.549243,114 228.567682,111.011494 229.496695,105.034483 L228,105.034483 C225.790861,105.034483 224,103.243622 224,101.034483 L224,78 C224,75.790861 225.790861,74 228,74 Z" id="Rectangle-Copy-16" fill-opacity="0.2" fill="#217FBF" fill-rule="nonzero" transform="translate(245.000000, 94.000000) scale(-1, 1) translate(-245.000000, -94.000000) "></path>
            </g>
        </g>
    </g>
</svg>