<?xml version="1.0" encoding="UTF-8"?>
<svg width="81px" height="83px" viewBox="0 0 81 83" version="1.1" xmlns="http://www.w3.org/2000/svg" xmlns:xlink="http://www.w3.org/1999/xlink">
    <!-- Generator: Sketch 52.5 (67469) - http://www.bohemiancoding.com/sketch -->
    <title>Group 22</title>
    <desc>Created with Sketch.</desc>
    <defs>
        <linearGradient x1="15.8033288%" y1="13.3166044%" x2="86.3705842%" y2="100%" id="linearGradient-1">
            <stop stop-color="#4FC4EE" offset="0%"></stop>
            <stop stop-color="#2791D9" offset="100%"></stop>
        </linearGradient>
    </defs>
    <g id="Page-1" stroke="none" stroke-width="1" fill="none" fill-rule="evenodd">
        <g id="Pricing-Page" transform="translate(-276.000000, -685.000000)" fill-rule="nonzero">
            <g id="Group-22" transform="translate(276.000000, 685.000000)">
                <path d="M65.3339391,61.9677419 C73.4137069,61.9677419 79.9636529,55.5141148 79.9636529,47.5531622 C79.9636529,39.5922097 73.4137069,33.1385826 65.3339391,33.1385826 C57.2541713,33.1385826 50.7042254,39.5922097 50.7042254,47.5531622 C50.7042254,55.5141148 57.2541713,61.9677419 65.3339391,61.9677419 Z" id="Oval" stroke="#17CCD5" stroke-dasharray="3,6"></path>
                <path d="M16.9014085,71.5474034 L23.0919072,71.5474034 L23.0919072,66 L18.9014085,66 C17.796839,66 16.9014085,66.8954305 16.9014085,68 L16.9014085,71.5474034 Z M16.9014085,72.5474034 L16.9014085,76 C16.9014085,77.1045695 17.796839,78 18.9014085,78 L23.0919072,78 L23.0919072,72.5474034 L16.9014085,72.5474034 Z M30.4225352,71.5474034 L30.4225352,68 C30.4225352,66.8954305 29.5271047,66 28.4225352,66 L24.2186677,66 L24.2186677,71.5474034 L30.4225352,71.5474034 Z M30.4225352,72.5474034 L24.2186677,72.5474034 L24.2186677,78 L28.4225352,78 C29.5271047,78 30.4225352,77.1045695 30.4225352,76 L30.4225352,72.5474034 Z M49.9772831,82.366667 L49.9772831,69.5418345 C49.9772831,67.3326955 48.1864221,65.5418345 45.9772831,65.5418345 L41.2557928,65.5418345 C39.0466538,65.5418345 37.2557928,67.3326955 37.2557928,69.5418345 L37.2557928,82.3881465 L9.74318264,82.4346 L9.74318264,56 L6.83325761,56 L6.83325761,52.7873931 C6.83325761,51.5477293 7.4080309,50.3781218 8.38942731,49.6207397 L11.9460917,46.8759227 C11.9301366,46.7741675 11.9218537,46.6698672 11.9218537,46.5636323 L11.9218537,39.2733097 C11.9218537,38.1687402 12.8172842,37.2733097 13.9218537,37.2733097 L17.5547478,37.2733097 C18.6593173,37.2733097 19.5547478,38.1687402 19.5547478,39.2733097 L19.5547478,41.004025 L33.6488548,30.1270511 C35.0886275,29.0159222 37.0967428,29.0159222 38.5365154,30.1270511 L63.795943,49.6207397 C64.7773394,50.3781218 65.3521127,51.5477293 65.3521127,52.7873931 L65.3521127,56 L61.9270802,56 L61.9270802,82.3464905 L49.9772831,82.366667 Z" id="Combined-Shape" fill="url(#linearGradient-1)"></path>
                <ellipse id="Oval" fill="#17CCD5" cx="3.18037256" cy="29.6110395" rx="3.18037256" ry="3.13360428"></ellipse>
                <ellipse id="Oval" fill="#17CCD5" cx="13.757383" cy="7.83696629" rx="6.99681963" ry="6.89392942"></ellipse>
            </g>
        </g>
    </g>
</svg>