<?xml version="1.0" encoding="UTF-8"?>
<svg width="565px" height="402px" viewBox="0 0 565 402" version="1.1" xmlns="http://www.w3.org/2000/svg" xmlns:xlink="http://www.w3.org/1999/xlink">
    <!-- Generator: Sketch 52.5 (67469) - http://www.bohemiancoding.com/sketch -->
    <title>Group</title>
    <desc>Created with Sketch.</desc>
    <defs>
        <polygon id="path-1" points="0.415515846 0.300570203 78.2279942 0.300570203 78.2279942 60.1565762 0.415515846 60.1565762"></polygon>
        <path d="M7.58715971,0.468690501 C7.58715971,0.468690501 9.11053653,7.45982829 5.82020772,7.92987526 C2.52987891,8.39992223 1.083762,8.47305376 0.450938413,9.27632098 C-0.181295407,10.0795882 5.62440397,12.89987 8.2418048,16.8253815 C10.8586159,20.7514828 14.7847171,23.3688836 16.7468831,18.7881373 C18.7096388,14.2085705 18.0555835,12.2464045 20.0183392,11.5911696 C21.981095,10.9371143 22.8386211,7.65268319 22.8386211,7.65268319 C22.8386211,7.65268319 16.8152965,6.70374269 16.1612411,6.04968737 C15.5077756,5.39563205 14.7847171,1.12333559 14.7847171,1.12333559 L7.58715971,0.468690501 Z" id="path-3"></path>
        <path d="M1.78623747,0.706544885 C1.78623747,0.706544885 14.9469629,17.6282359 16.8277406,20.9185647 C18.7073387,24.2088935 25.2885861,29.8494572 27.168774,32.1991023 C29.0489619,34.5499269 37.5098074,36.4301148 35.1595725,37.8402557 C32.8093377,39.2503967 27.168774,36.4301148 23.8784452,34.5499269 C20.5881164,32.669739 17.7678346,30.3195042 14.9469629,27.9692693 C12.1272709,25.6190344 3.66642537,16.218095 1.78623747,13.3978132 C-0.0939504175,10.5775313 -1.03404436,-1.64368998 1.78623747,0.706544885" id="path-5"></path>
        <path d="M42.1601467,14.6035986 C41.2200527,13.1934577 37.7468951,4.54919363 36.5201728,3.32247129 C34.5568272,1.35971555 29.8374849,0.502779228 28.5293742,0.502779228 C27.220084,0.502779228 26.5471561,2.77044624 25.2390454,4.73320198 C23.930345,6.69595772 19.597892,7.55348382 16.3075632,7.08284708 C13.0172343,6.6128001 9.26452557,1.81324896 9.26452557,1.81324896 C9.26452557,1.81324896 3.22881576,3.89454854 1.26606002,5.20324896 C-0.69669572,6.5113596 1.51435334,17.5353471 0.860298017,20.8068032 C0.205652923,24.0776696 2.82305376,48.2865632 2.16840866,53.5207751 C1.51435334,58.7543972 3.14683768,62.5483899 9.72690553,63.0190266 C16.3075632,63.4890736 20.5568586,61.0368085 23.8283147,59.7286978 C27.1003606,58.4199974 47.3141498,54.1754201 47.3141498,54.1754201 C47.3141498,54.1754201 42.734583,47.6319181 41.4258826,44.3610517 C40.1171822,41.0895955 34.6393951,24.944632 34.6393951,24.944632 C34.6393951,24.944632 38.2039671,22.2470224 42.1601467,20.2441623 C43.5997761,19.5152062 43.1008304,16.0143293 42.1601467,14.6035986" id="path-7"></path>
        <polygon id="path-9" points="63.3248225 163.427135 0.508971816 149.124024 1.09874217 0.501894572 63.3248225 5.74849165"></polygon>
        <linearGradient x1="50.0001937%" y1="-2.46789663%" x2="50.0001937%" y2="99.9999546%" id="linearGradient-11">
            <stop stop-color="#4BF2FB" offset="0%"></stop>
            <stop stop-color="#2F90D4" offset="100%"></stop>
        </linearGradient>
        <polygon id="path-12" points="0.483611691 40.8722651 170.510866 59.2907933 170.826394 13.0050261 0.483611691 0.0955427975"></polygon>
        <linearGradient x1="23.9072578%" y1="-23.4262141%" x2="66.5528364%" y2="88.9764614%" id="linearGradient-14">
            <stop stop-color="#41E6E9" offset="0%"></stop>
            <stop stop-color="#3DBDEB" offset="100%"></stop>
        </linearGradient>
        <path d="M36.3351618,4.22334551 L1.20313152,1.86662317 C0.796189979,1.84008351 0.475354906,1.49506785 0.462969729,1.07043319 C0.451174322,0.694159708 0.734853862,0.379222338 1.09638309,0.366837161 C1.11702505,0.366837161 1.13766701,0.366837161 1.15771921,0.368016701 L36.2897495,2.64806889 C36.7185125,2.6757881 37.0558612,3.03849687 37.0688361,3.4855428 C37.0800418,3.88127871 36.7810282,4.21272965 36.4000365,4.22452505" id="path-15"></path>
        <linearGradient x1="-0.00138463446%" y1="49.9994216%" x2="100.000618%" y2="49.9994216%" id="linearGradient-17">
            <stop stop-color="#4BF2FB" offset="0%"></stop>
            <stop stop-color="#2F90D4" offset="100%"></stop>
        </linearGradient>
        <path d="M2.28536013,0.477124217 L10.2101044,0.476534447 C13.0203601,1.66374217 14.92119,2.64335073 15.9131837,3.41477035 C14.0548173,6.05163361 11.3306681,7.52134134 8.30278706,7.14093946 C5.18408142,6.74874217 2.40567328,4.47458768 0.573256785,1.22495303 C1.10051148,0.985506263 1.67140919,0.736033403 2.28536013,0.477124217 Z" id="path-18"></path>
        <linearGradient x1="49.9989047%" y1="0.00306646237%" x2="49.9989047%" y2="149.710708%" id="linearGradient-20">
            <stop stop-color="#110224" offset="0%"></stop>
            <stop stop-color="#110217" offset="100%"></stop>
        </linearGradient>
        <polygon id="path-21" points="0.429942589 62.4301409 74.4992015 73.753142 74.7380585 6.38308455 0.419916493 0.401043841"></polygon>
        <linearGradient x1="28.1300214%" y1="9.94749184%" x2="87.1304727%" y2="108.148818%" id="linearGradient-23">
            <stop stop-color="#2ACAD3" offset="0%"></stop>
            <stop stop-color="#21C8FB" offset="100%"></stop>
        </linearGradient>
        <polygon id="path-24" points="0.508382046 39.426738 40.0235856 54.1709969 98.4108507 11.117761 61.76488 0.575615866"></polygon>
        <linearGradient x1="23.0283795%" y1="8.47951879%" x2="96.6016301%" y2="111.045145%" id="linearGradient-26">
            <stop stop-color="#AFF9FB" offset="0%"></stop>
            <stop stop-color="#87D1E4" offset="100%"></stop>
        </linearGradient>
        <polygon id="path-27" points="0.508382046 51.2221451 42.382667 65.3766336 88.1429489 10.7255637 51.1649374 0.160417537"></polygon>
        <linearGradient x1="29.674453%" y1="11.6623395%" x2="83.0757374%" y2="105.154529%" id="linearGradient-29">
            <stop stop-color="#AFF9FB" offset="0%"></stop>
            <stop stop-color="#87D1E4" offset="100%"></stop>
        </linearGradient>
        <polygon id="path-30" points="0.508971816 20.5540866 23.0128392 28.6410177 53.5883038 8.16890919 32.9463413 0.501894572"></polygon>
        <linearGradient x1="49.9996343%" y1="-3.6259222e-05%" x2="49.9996343%" y2="99.9998317%" id="linearGradient-32">
            <stop stop-color="#0E6BAE" offset="0%"></stop>
            <stop stop-color="#041D3F" offset="100%"></stop>
        </linearGradient>
        <path d="M19.2996451,1.60966023 C19.2996451,1.60966023 19.2996451,6.11137735 19.9542902,8.36253079 C20.6083455,10.6136842 22.0951566,16.2695819 21.4411013,18.8869828 C20.7864562,21.5037938 16.682834,26.3705788 13.4119676,25.6198011 C10.1399217,24.8696133 7.52252088,24.8696133 4.90570981,22.6184598 C2.28889875,20.3678961 1.63484342,19.6177082 0.98019833,15.866179 C0.325553236,12.1146498 0.325553236,7.6123429 2.28889875,6.86215501 C4.25106472,6.11137735 3.59759916,0.859472338 5.56035491,0.859472338 C7.52252088,0.859472338 13.4119676,0.109284447 13.4119676,0.109284447 L19.2996451,1.60966023 Z" id="path-33"></path>
        <path d="M5.64274582,0.1006738 C5.64274582,0.1006738 18.1157991,20.3557469 19.3826258,22.3462218 C23.9627824,29.5425997 30.5056947,31.5059452 35.7393168,32.8146456 C40.9741185,34.123346 44.2455746,34.7768116 46.2083304,36.0861018 C48.1710861,37.3942124 48.1710861,38.7023231 44.89963,38.7023231 C41.6287636,38.7023231 37.0480172,37.3942124 34.4312062,37.3942124 C31.8143951,37.3942124 25.9255381,38.0482677 23.3081373,36.0861018 C20.691916,34.123346 12.8403032,27.5798439 9.56884708,23.6543325 C6.29680115,19.7282312 1.71723434,11.2231529 0.408533925,8.60575209 C-0.900166493,5.98835125 5.64274582,0.1006738 5.64274582,0.1006738" id="path-35"></path>
        <path d="M0.93384238,10.5949885 C0.0208778706,18.5020397 0.93384238,23.2868466 1.40388935,25.1664447 C1.87393633,27.0472223 0.747474948,35.1718987 7.04386326,32.2171493 C13.3408413,29.2629896 18.7950376,27.5166795 18.7950376,27.5166795 C18.7950376,27.5166795 18.7059823,17.7524415 16.2849749,14.332953 C13.8645574,10.9140543 14.5876159,8.39809395 14.5876159,8.39809395 C14.5876159,8.39809395 12.2149697,-0.686138831 9.39468789,0.254544885 C6.57381628,1.19463883 1.84680689,2.68793737 0.93384238,10.5949885" id="path-37"></path>
        <path d="M8.18837161,24.5828079 L8.18837161,28.1102244 C8.18837161,28.1102244 5.83813674,26.9330428 4.42799582,24.5828079 C3.01785491,22.2325731 -1.21256785,16.1219624 1.13766701,13.3016806 C3.48790188,10.4813987 -0.742520877,6.25097599 6.30818372,2.02055324 C13.3588883,-2.20986952 18.999452,2.49060021 23.6999217,2.49060021 C28.4003914,2.49060021 26.0501566,10.4813987 25.5801096,11.4214927 C25.1100626,12.3615866 18.999452,11.8915397 15.7091232,11.4214927 C12.4187944,10.9514457 8.18837161,10.9514457 8.18837161,12.8316336 L8.18837161,24.5828079 Z" id="path-39"></path>
        <linearGradient x1="84.472281%" y1="2.58986585%" x2="17.2839068%" y2="59.9778702%" id="linearGradient-41">
            <stop stop-color="#34608A" offset="0%"></stop>
            <stop stop-color="#000000" offset="100%"></stop>
        </linearGradient>
        <path d="M29.4295407,0.504253653 C29.2160438,0.51545929 29.0054958,0.567948852 28.8108716,0.657593946 L2.48588205,16.8963309 C1.28098121,17.4501253 0.508971816,18.6556159 0.508971816,19.9820094 L2.86746347,48.2732933 L32.6378914,28.7053027 L31.2171347,2.11019833 C31.1687735,1.20372129 30.4185856,0.501304802 29.5215449,0.501304802 C29.4908768,0.501304802 29.4607985,0.502484342 29.4295407,0.504253653" id="path-42"></path>
        <linearGradient x1="50.0000028%" y1="0.0012131949%" x2="50.0000028%" y2="99.9999786%" id="linearGradient-44">
            <stop stop-color="#0E6BAE" offset="0%"></stop>
            <stop stop-color="#041D3F" offset="100%"></stop>
        </linearGradient>
        <polygon id="path-45" points="0.523126305 28.6209656 24.6889666 36.4778862 49.4074217 7.74958246 25.4362056 0.469457203"></polygon>
        <linearGradient x1="50.0008165%" y1="-0.00144099582%" x2="50.0008165%" y2="99.9999653%" id="linearGradient-47">
            <stop stop-color="#0E6BAE" offset="0%"></stop>
            <stop stop-color="#041D3F" offset="100%"></stop>
        </linearGradient>
        <path d="M4.42870355,2.97928392 C4.42870355,2.97928392 4.60740397,8.5343309 3.87608873,10.326643 C3.14477349,12.1183653 1.82073904,13.8664447 0.588708768,14.389571 C-0.643321503,14.9121075 0.813411273,19.3324363 3.23146973,18.8983653 C5.64893841,18.4648841 7.7042881,14.9250825 11.2157808,15.8050198 C14.7272735,16.6849572 10.8536618,12.6986994 11.1756764,8.4128382 C11.4982808,4.12697704 11.469382,0.154873695 11.469382,0.154873695 L6.34604697,1.27602714 L4.42870355,2.97928392 Z" id="path-48"></path>
        <path d="M8.65440814,29.3870183 C5.25851044,30.7281561 -0.0104979123,24.7337302 0.57455428,21.1272844 C1.15960647,17.5208387 1.86143319,7.60031159 1.86143319,7.60031159 C1.86143319,7.60031159 0.514397704,-1.6130809 3.85367745,1.00844833 C7.1929572,3.6311571 10.9651284,4.95224269 10.9651284,4.95224269 L22.7888445,17.5167103 C22.7888445,17.5167103 15.2846065,26.3668043 13.6898674,27.0361936 C13.6898674,27.0361936 12.0503058,28.0452907 8.65440814,29.3870183" id="path-50"></path>
        <linearGradient x1="38.4588368%" y1="6.03222993%" x2="71.0972324%" y2="122.311655%" id="linearGradient-52">
            <stop stop-color="#34608A" offset="0%"></stop>
            <stop stop-color="#000000" offset="100%"></stop>
        </linearGradient>
        <path d="M11.3866962,13.503559 C15.5369102,13.8155475 20.643142,17.278679 26.6186952,17.1123638 C32.5942484,16.9466383 42.9512056,14.0314034 46.0533977,12.4177918 C49.1567693,10.8041801 56.6863674,5.82828758 57.2790866,5.87311013 C57.8723956,5.91793267 56.600261,-0.951122651 54.7295094,0.139952505 C52.8587578,1.23043789 47.2459134,4.50307359 42.3172025,6.59498904 C37.390261,8.68690449 33.4205167,9.92778132 25.6662161,9.96021868 C17.9119154,9.99206628 8.37827766,9.89003601 5.36867954,10.2792844 C2.35731211,10.6685329 -1.29218685,11.6251404 1.30634134,12.7451143 L11.3866962,13.503559 Z" id="path-53"></path>
        <path d="M23.070047,0.0442327766 C22.9220146,0.0743110647 22.7857777,0.148622129 22.6802088,0.256550104 L0.93006785,22.2744468 C0.175751566,23.0381994 -0.126800626,24.1393006 0.131518789,25.1802453 L6.00799061,48.9096555 L28.7029436,23.2634916 L23.9812422,0.641080376 C23.9057516,0.277192067 23.586096,0.0277192067 23.2286952,0.0277192067 C23.1762056,0.0277192067 23.1231263,0.0330271399 23.070047,0.0442327766" id="path-55"></path>
        <linearGradient x1="67.0947204%" y1="2.92391504%" x2="37.823438%" y2="80.7878221%" id="linearGradient-57">
            <stop stop-color="#AFF9FB" offset="0%"></stop>
            <stop stop-color="#87D1E4" offset="100%"></stop>
        </linearGradient>
    </defs>
    <g id="Page-1" stroke="none" stroke-width="1" fill="none" fill-rule="evenodd">
        <g id="Main-Illustration-Copy-4" transform="translate(-398.000000, -310.000000)">
            <g id="Group" transform="translate(398.000000, 311.000000)">
                <g id="Group-3" transform="translate(294.885177, 340.552865)">
                    <mask id="mask-2" fill="white">
                        <use xlink:href="#path-1"></use>
                    </mask>
                    <g id="Clip-2"></g>
                    <path d="M64.5679995,4.7554953 C69.6653847,3.02923747 73.6758231,0.518585073 75.602013,0.311575678 C77.5287928,0.105156054 80.3838711,2.78094415 75.6256039,10.1577918 C70.8673366,17.5346394 67.9408961,29.7570402 68.3325037,34.7087521 C68.7241112,39.6598742 70.1018147,46.5041592 65.9734222,52.4018627 C61.8450297,58.2995663 45.9212302,60.6586477 34.7155934,60.0688773 C23.5099567,59.479107 2.2782239,55.9404849 0.508912839,44.1450778 C-1.26039823,32.3496707 22.5616059,9.72018215 33.5360527,12.2974786 C35.014607,12.6448533 55.2814755,20.8444306 56.5370966,21.1440339 C60.5369191,22.0976926 60.0898732,6.27179489 64.5679995,4.7554953 Z" id="Fill-1" fill="#183254" mask="url(#mask-2)"></path>
                </g>
                <path d="M126.12988,252.551166 C126.12988,252.551166 109.02654,246.854575 100.769755,261.666067 C92.5129703,276.47815 101.359526,288.441641 108.43677,300.405723 C115.514014,312.369215 105.487918,323.19327 116.103784,327.751015 C126.719651,332.308171 136.155977,335.156761 136.155977,335.156761 L172.439828,311.780624 C172.439828,311.780624 158.56725,310.090932 154.438858,301.544569 C150.310465,292.999387 146.182073,263.375812 126.12988,252.551166" id="Fill-4" fill="#183254"></path>
                <g id="Fill-230" transform="translate(128.569937, 251.242171)">
                    <mask id="mask-4" fill="white">
                        <use xlink:href="#path-3"></use>
                    </mask>
                    <use id="Mask" fill="#FDD4C2" xlink:href="#path-3"></use>
                    <path d="M14.8982479,3.94397129 C10.4266091,6.63096503 7.52552871,7.97387213 6.19441701,7.97387213 C4.86389509,7.97387213 5.27024687,6.18745772 7.41288257,2.61344937 L14.8982479,3.94397129 Z" fill="#FAB8A6" mask="url(#mask-4)"></path>
                </g>
                <g id="Fill-12" transform="translate(152.160752, 265.986430)">
                    <mask id="mask-6" fill="white">
                        <use xlink:href="#path-5"></use>
                    </mask>
                    <use id="Mask" fill="#FDD4C2" xlink:href="#path-5"></use>
                    <path d="M8.29211221,14.1641608 C10.8812041,16.3675428 12.8598836,19.6354603 14.2287406,23.9679134 L23.822535,32.020048 L23.822535,36.6220261 L14.05063,29.0535031 L7.43458612,21.631833 L3.42473747,14.772214 C4.08056211,12.1630699 5.70302035,11.9607787 8.29211221,14.1641608" fill="#FAB8A6" mask="url(#mask-6)"></path>
                </g>
                <path d="M159.015299,279.852226 C160.957412,282.20423 162.226598,284.095624 162.824035,285.525227 C163.421473,286.95483 167.803467,291.304387 175.971786,298.573896 L174.438973,300.507163 L164.006525,293.468254 L155.62235,282.337518 L159.015299,279.852226 Z" id="Fill-10" fill="#FAB8A6"></path>
                <g id="Combined-Shape" transform="translate(120.902923, 257.729645)">
                    <mask id="mask-8" fill="white">
                        <use xlink:href="#path-7"></use>
                    </mask>
                    <use id="Mask" fill="#2F91D5" xlink:href="#path-7"></use>
                    <path d="M4.28875104,3.58167537 C8.2584953,18.3642693 9.65035334,26.9873017 8.46196608,29.4484134 C6.68026983,33.1415553 11.8661206,41.3429019 13.5422479,44.2481106 C15.218965,47.1533194 13.5422479,50.0880167 10.4606978,51.892714 C7.3791477,53.698001 18.4839337,56.8839405 20.6460318,58.9339823 C22.80813,60.9846138 15.2012719,64.4495146 13.5422479,64.4495146 C11.8832239,64.4495146 2.14139718,61.8946294 -0.00477713987,60.0486482 C-1.43614979,58.8183873 -0.00477713987,39.9958664 4.28875104,3.58167537 Z M32.4168455,11.960012 C34.3353685,10.8825016 35.438239,13.0221884 35.7254572,18.3790725 C36.1571691,26.4135141 37.7955511,18.4056122 37.7955511,21.8575381 C37.7955511,24.158822 38.4938392,25.7771519 39.8898257,26.7119379 C38.8919342,29.7038429 37.7731399,30.6162176 36.5340324,29.4484723 C35.2949248,28.2819066 33.9225292,22.4520266 32.4168455,11.960012 Z" fill-opacity="0.573426178" fill="#2476AD" mask="url(#mask-8)"></path>
                </g>
                <path d="M141.504191,34.2071524 C141.504191,53.3723299 126.931555,68.0711764 109.560459,67.0721054 C92.8233664,66.1096002 79.6968476,50.8298299 79.6968476,32.9120167 C79.6968476,14.9947933 92.8233664,0.265278706 109.560459,0.00342066806 C126.931555,-0.267873695 141.504191,15.0419749 141.504191,34.2071524 Z" id="Stroke-18" stroke="#183254" stroke-width="2" stroke-linecap="round" stroke-linejoin="round" stroke-dasharray="6"></path>
                <polygon id="Fill-20" fill="#C0DDFD" points="215.845806 265.572234 144.056009 248.569745 143.998802 79.0555903 215.845806 82.6803189"></polygon>
                <path d="M450.027808,264.208921 L450.027808,32.7818544 C450.027808,28.373321 448.768058,24.752131 441.998674,24.752131 C435.22929,24.752131 129.17858,20.8171832 123.510297,20.8171832 C117.843194,20.8171832 115.95416,21.4464682 115.95416,28.373321 L115.95416,232.407324 C115.95416,241.223801 115.323695,246.26162 126.029796,249.410403 C136.735308,252.559187 418.817751,321.348232 430.821347,324.348984 C438.377484,326.238018 449.712871,326.238018 450.027808,313.95841 C450.205329,307.033326 450.027808,264.208921 450.027808,264.208921" id="Fill-22" fill="#183254" opacity="0.2"></path>
                <path d="M455.774648,309.653499 C455.952169,302.729005 455.774648,259.9046 455.774648,259.9046 L455.774648,28.4769436 C455.774648,24.0695898 454.514899,20.4483998 447.745515,20.4483998 C440.975541,20.4483998 134.924831,16.5122724 129.257138,16.5122724 C123.589445,16.5122724 121.70041,17.1415574 121.70041,24.0695898 L121.70041,228.103003 C121.70041,236.91948 121.070535,241.957299 131.776637,245.106082 C142.481558,248.254866 424.564001,317.043322 436.567597,320.044073 C444.124325,321.933108 455.459711,321.933108 455.774648,309.653499" id="Fill-24" fill="#FFFFFF"></path>
                <path d="M455.774648,309.653499 C455.952169,302.729005 455.774648,259.9046 455.774648,259.9046 L455.774648,28.4769436 C455.774648,24.0695898 454.514899,20.4483998 447.745515,20.4483998 C440.975541,20.4483998 134.924831,16.5122724 129.257138,16.5122724 C123.589445,16.5122724 121.70041,17.1415574 121.70041,24.0695898 L121.70041,228.103003 C121.70041,236.91948 121.070535,241.957299 131.776637,245.106082 C142.481558,248.254866 424.564001,317.043322 436.567597,320.044073 C444.124325,321.933108 455.459711,321.933108 455.774648,309.653499 Z" id="Stroke-26" stroke="#5A8A8A"></path>
                <path d="M134.295074,22.7538711 C134.295074,24.0891112 133.30367,25.1536467 132.082846,25.1294661 C130.866739,25.1070548 129.881823,24.0106717 129.881823,22.6813293 C129.881823,21.3513972 130.866739,20.2874515 132.082846,20.3045548 C133.30367,20.3216581 134.295074,21.4180412 134.295074,22.7538711" id="Fill-28" fill="#F94145"></path>
                <path d="M145.630283,22.7538711 C145.630283,24.0891112 144.638879,25.1536467 143.418055,25.1294661 C142.201948,25.1070548 141.216442,24.0106717 141.216442,22.6813293 C141.216442,21.3513972 142.201948,20.2874515 143.418055,20.3045548 C144.638879,20.3216581 145.630283,21.4180412 145.630283,22.7538711" id="Fill-30" fill="#1FB952"></path>
                <path d="M156.965552,22.7538711 C156.965552,24.0891112 155.974148,25.1536467 154.753323,25.1294661 C153.537217,25.1070548 152.55171,24.0106717 152.55171,22.6813293 C152.55171,21.3513972 153.537217,20.2874515 154.753323,20.3045548 C155.974148,20.3216581 156.965552,21.4180412 156.965552,22.7538711" id="Fill-32" fill="#FDCC57"></path>
                <polygon id="Fill-36" fill="#183254" points="455.811509 65.0422338 121.385768 49.7412317 121.385768 26.3934029 455.811509 34.9639457"></polygon>
                <g id="Group-40" transform="translate(146.852818, 85.772072)">
                    <mask id="mask-10" fill="white">
                        <use xlink:href="#path-9"></use>
                    </mask>
                    <g id="Clip-39"></g>
                    <path d="M58.4367571,162.314127 L3.6335914,149.835497 C1.80740424,149.419676 0.514256167,147.792368 0.521688371,145.919452 L1.08154325,4.83602211 C1.09030961,2.62690051 2.88826304,0.843160141 5.09738465,0.851926497 C5.20426197,0.852350613 5.31107936,0.857058128 5.41757964,0.866037708 L59.6608904,5.43956691 C61.7323973,5.61422618 63.3248225,7.34656716 63.3248225,9.42542421 L63.3248225,158.413955 C63.3248225,160.623094 61.5339615,162.413955 59.3248225,162.413955 C59.0260012,162.413955 58.7281208,162.38047 58.4367571,162.314127 Z" id="Fill-38" fill="url(#linearGradient-11)" mask="url(#mask-10)"></path>
                </g>
                <g id="Group-44" transform="translate(222.343424, 91.669776)">
                    <mask id="mask-13" fill="white">
                        <use xlink:href="#path-12"></use>
                    </mask>
                    <g id="Clip-43"></g>
                    <path d="M4.05282424,41.2589069 L166.110345,58.8140984 C168.306635,59.0520157 170.27995,57.4644409 170.517867,55.2681507 C170.532386,55.1341204 170.54012,54.9994417 170.541039,54.8646304 L170.800941,16.7387004 C170.815273,14.6363696 169.199677,12.8817448 167.103309,12.7228709 L4.78588619,0.421592074 C2.583064,0.254650476 0.661990877,1.90505779 0.495049278,4.10787998 C0.487426947,4.2084579 0.483611691,4.30928815 0.483611691,4.41015449 L0.483611691,37.2821718 C0.483611691,39.3245736 2.02230151,41.0389467 4.05282424,41.2589069 Z" id="Fill-42" fill="url(#linearGradient-14)" mask="url(#mask-13)"></path>
                </g>
                <polyline id="Stroke-45" stroke="#939393" points="393.745669 72.7092484 393.745669 89.5613466 149.408529 75.0777662 149.425633 59.7343006"></polyline>
                <path d="M185.33327,77.2074269 L185.303192,62.093382" id="Stroke-47" stroke="#939393"></path>
                <path d="M223.717294,79.4824071 L223.717294,63.862929" id="Stroke-49" stroke="#939393"></path>
                <path d="M265.459647,81.9566707 L265.610628,66.2215976" id="Stroke-51" stroke="#939393"></path>
                <path d="M310.377796,84.6198377 L310.433234,68.5804431" id="Stroke-53" stroke="#939393"></path>
                <g id="Group-57" transform="translate(185.187891, 78.105057)">
                    <mask id="mask-16" fill="white">
                        <use xlink:href="#path-15"></use>
                    </mask>
                    <g id="Clip-56"></g>
                    <path d="M36.3351618,4.22334551 L1.20313152,1.86662317 C0.796189979,1.84008351 0.475354906,1.49506785 0.462969729,1.07043319 C0.451174322,0.694159708 0.734853862,0.379222338 1.09638309,0.366837161 C1.11702505,0.366837161 1.13766701,0.366837161 1.15771921,0.368016701 L36.2897495,2.64806889 C36.7185125,2.6757881 37.0558612,3.03849687 37.0688361,3.4855428 C37.0800418,3.88127871 36.7810282,4.21272965 36.4000365,4.22452505 C36.378215,4.22511482 36.3563935,4.22511482 36.3351618,4.22334551" id="Fill-55" fill="url(#linearGradient-17)" mask="url(#mask-16)"></path>
                </g>
                <polygon id="Fill-58" fill="#FFFFFF" points="164.699328 44.837999 163.216056 45.3912035 163.216056 41.8749927 164.699328 42.4028372"></polygon>
                <path d="M159.484697,45.3920882 L162.777974,45.3920882 L162.777974,41.5338105 L166.240516,41.5338105 L166.240516,45.3920882 L169.533794,45.3920882 L169.533794,34.7650162 L166.317776,34.7650162 L166.317776,38.4982625 L162.750845,38.4982625 L162.750845,34.7650162 L159.531878,34.7650162 L159.530109,40.2439828 C159.530109,41.8847239 158.902593,42.5824222 157.740746,42.5824222 C156.59895,42.5824222 155.974384,41.8847239 155.974384,40.2439828 L155.974384,34.7650162 L152.744801,34.7650162 L152.744801,40.2439828 C152.744801,43.8557364 154.363721,45.3920882 157.740746,45.3920882 L159.484697,45.3920882 Z" id="Fill-60" fill="#FFFFFF"></path>
                <polygon id="Fill-62" fill="#E1E1E1" points="180.265491 73.7384567 153.81665 72.2545945 153.81665 68.0707636 180.265491 69.4449285"></polygon>
                <polygon id="Fill-64" fill="#E1E1E1" points="219.313597 76.2478706 189.396906 74.1836743 189.396906 69.9998434 219.313597 71.5297077"></polygon>
                <polygon id="Fill-66" fill="#E1E1E1" points="258.82821 78.606952 228.911519 76.5427557 228.911519 72.3589248 258.82821 73.8887891"></polygon>
                <polygon id="Fill-68" fill="#E1E1E1" points="302.471217 80.9660334 272.554526 78.9018372 272.554526 74.7180063 302.471217 76.2478706"></polygon>
                <polygon id="Fill-70" fill="#E1E1E1" points="382.679985 85.6841962 321.505465 81.8506889 321.505465 77.666858 382.679985 80.9660334"></polygon>
                <path d="M173.077665,115.691653 C173.077665,120.198088 170.374747,123.512598 167.059648,123.09563 C163.76696,122.682791 161.112994,118.737817 161.112994,114.283871 C161.112994,109.829925 163.76696,106.510108 167.059648,106.871047 C170.374747,107.234346 173.077665,111.184628 173.077665,115.691653" id="Fill-72" fill="#ECFAFF"></path>
                <path d="M173.077665,140.881276 C173.077665,145.387711 170.374747,148.70163 167.059648,148.284663 C163.76696,147.871824 161.112994,143.92685 161.112994,139.473494 C161.112994,135.018958 163.76696,131.699731 167.059648,132.06008 C170.374747,132.423379 173.077665,136.373661 173.077665,140.881276" id="Fill-74" fill="#ECFAFF"></path>
                <path d="M257.06981,115.145054 C257.06981,122.726552 252.522681,128.302241 246.946402,127.600414 C241.406099,126.904485 236.941538,120.269568 236.941538,112.777126 C236.941538,105.284683 241.406099,99.7007375 246.946402,100.307611 C252.522681,100.918613 257.06981,107.564146 257.06981,115.145054" id="Fill-76" fill="#FFFFFF"></path>
                <path d="M173.077665,166.070367 C173.077665,170.576803 170.374747,173.891312 167.059648,173.474344 C163.76696,173.061505 161.112994,169.116531 161.112994,164.662586 C161.112994,160.20864 163.76696,156.888823 167.059648,157.249762 C170.374747,157.613061 173.077665,161.563342 173.077665,166.070367" id="Fill-78" fill="#ECFAFF"></path>
                <path d="M385.613856,116.045279 L366.541273,114.480618 C364.655187,114.326099 363.203763,112.750232 363.203763,110.857659 C363.203763,109.144376 364.592082,107.755467 366.305955,107.755467 C366.384984,107.755467 366.464013,107.758416 366.542453,107.764314 L385.612677,109.224585 C387.536508,109.371438 389.022729,110.975023 389.022729,112.905342 C389.022729,114.645164 387.611998,116.056485 385.871586,116.056485 C385.78548,116.056485 385.699963,116.052946 385.613856,116.045279" id="Fill-80" fill="#183254"></path>
                <path d="M348.22796,119.265956 L266.544766,112.137402 C265.294453,112.028884 264.335486,110.981452 264.335486,109.72701 C264.335486,108.59937 265.24904,107.685815 266.376091,107.685815 C266.432709,107.685815 266.489327,107.688174 266.545355,107.692892 L348.22678,114.495304 C349.573226,114.60736 350.608863,115.732642 350.608863,117.083806 C350.608863,118.294015 349.628075,119.274803 348.417866,119.274803 C348.35476,119.274803 348.291065,119.271854 348.22796,119.265956" id="Fill-82" fill="#FFFFFF"></path>
                <path d="M338.357327,130.548204 L265.845062,123.21264 C264.660803,123.092917 263.759634,122.096205 263.759634,120.905459 C263.759634,119.855078 264.610673,119.003449 265.661054,119.003449 C265.72298,119.003449 265.784316,119.006398 265.846242,119.012296 L338.356148,126.074206 C339.621795,126.197468 340.586659,127.261414 340.586659,128.532959 C340.586659,129.651163 339.679592,130.55882 338.561388,130.55882 C338.492385,130.55882 338.424561,130.555281 338.357327,130.548204" id="Fill-84" fill="#FFFFFF"></path>
                <polygon id="Fill-86" fill="#E1E1E1" points="248.960468 148.860456 223.771376 145.783624 223.771376 138.784819 248.960468 141.697695"></polygon>
                <polygon id="Fill-88" fill="#E1E1E1" points="305.007111 155.157847 279.81743 152.081015 279.81743 145.08221 305.007111 147.995086"></polygon>
                <polygon id="Fill-90" fill="#E1E1E1" points="360.423644 161.455296 335.233962 158.378465 335.233962 151.37966 360.423644 154.292535"></polygon>
                <polygon id="Fill-92" fill="#E1E1E1" points="276.668764 152.009181 251.479672 148.932349 251.479672 141.933544 276.668764 144.84642"></polygon>
                <polygon id="Fill-94" fill="#E1E1E1" points="332.715348 158.306572 307.525666 155.22974 307.525666 148.230935 332.715348 151.143811"></polygon>
                <polygon id="Fill-96" fill="#E1E1E1" points="388.131881 164.603962 362.942199 161.52713 362.942199 154.528326 388.131881 157.441201"></polygon>
                <path d="M388.415358,288.600064 L226.890141,250.715797 C225.081936,250.291699 223.803518,248.678749 223.803518,246.821475 L223.803518,156.04077 C223.803518,153.831631 225.594379,152.04077 227.803518,152.04077 C227.969722,152.04077 228.135764,152.051129 228.300679,152.071787 L390.53478,172.393479 C392.545941,172.6454 394.050795,174.361799 394.037533,176.388634 L393.32865,284.731913 C393.314196,286.941005 391.511656,288.72011 389.302564,288.705657 C389.003813,288.703702 388.706222,288.668283 388.415358,288.600064 Z" id="Fill-98" fill="#2BCBD3"></path>
                <path d="M183.633611,227.786002 L169.914962,224.945078 C168.103778,224.569394 166.822207,222.949295 166.874696,221.100365 C166.91657,219.612374 168.156857,218.439911 169.644848,218.482374 C169.797598,218.486503 169.949759,218.504196 170.099561,218.533684 L183.81408,221.286732 C185.661241,221.657698 186.971711,223.304926 186.918042,225.188063 C186.875578,226.696106 185.618778,227.884493 184.110735,227.84203 C183.950317,227.837312 183.791079,227.819029 183.633611,227.786002" id="Fill-104" fill="#2F91D5"></path>
                <path d="M241.637289,109.882061 C240.514956,111.070448 240.514956,112.22168 241.934533,114.061174 C241.946329,116.776477 241.934533,119.700558 241.934533,120.283251 C241.934533,120.488491 242.991402,120.778658 245.104549,121.151983 C247.218286,120.717322 248.273975,120.427745 248.273975,120.283251 L248.273975,118.10346 L250.305144,118.10346 C251.889857,118.10346 251.481736,116.058726 251.44458,115.428851 C251.381475,114.386727 251.150875,111.942719 250.75101,108.098596 C245.423615,108.494331 242.385708,109.08941 241.637289,109.882061" id="Fill-106" fill="#FDD4C2"></path>
                <path d="M248.274506,117.918272 L248.274506,119.110788 C246.151332,118.732745 244.929328,117.934785 244.609083,116.717499 C245.533253,117.344425 246.72223,117.741341 248.175424,117.905887 C248.209041,117.909425 248.241479,117.914144 248.274506,117.918272" id="Fill-108" fill="#818E98"></path>
                <g id="Group-112" transform="translate(238.856994, 120.568523)">
                    <mask id="mask-19" fill="white">
                        <use xlink:href="#path-18"></use>
                    </mask>
                    <g id="Clip-111"></g>
                    <path d="M2.28536013,0.477124217 C1.67140919,0.736033403 1.10051148,0.985506263 0.573256785,1.22495303 C2.40567328,4.47458768 5.18408142,6.74874217 8.30278706,7.14093946 C11.3306681,7.52134134 14.0548173,6.05163361 15.9131837,3.41477035 C14.92119,2.64335073 13.0203601,1.66374217 10.2101044,0.476534447 L2.28536013,0.477124217 Z" id="Fill-110" fill="url(#linearGradient-20)" mask="url(#mask-19)"></path>
                </g>
                <path d="M244.411628,121.670568 L244.137385,126.701899 C244.770798,127.052812 245.43311,127.324106 246.114885,127.505166 L245.798178,121.670568 C245.490318,121.339707 245.258538,121.175161 245.104608,121.175161 C244.950088,121.175161 244.718898,121.339707 244.411628,121.670568" id="Fill-113" fill="#2BCBD3"></path>
                <path d="M245.898144,123.514721 L244.359433,122.625347 L244.411333,121.669919 C244.719193,121.339648 244.950383,121.175102 245.103723,121.175102 C245.258243,121.175102 245.490613,121.339648 245.797883,121.669919 L245.898144,123.514721 Z" id="Fill-115" fill="#2F91D5"></path>
                <polygon id="Fill-117" fill="#FFFFFF" points="245.10449 121.174099 244.114266 122.957565 241.042742 121.076197 241.935064 119.787549 245.10449 120.959423 248.274506 119.787549 249.166239 121.076197 246.095304 122.957565"></polygon>
                <path d="M244.455979,104.405336 C243.105994,103.155022 239.617503,104.280304 239.792664,106.457736 C238.696871,106.457736 238.300545,108.835101 239.897054,109.428999 C240.03506,111.772747 241.619773,114.348864 241.619773,115.389808 C242.942628,114.737522 243.1691,113.750837 242.674282,113.76735 C241.239371,113.81807 240.388332,111.248441 241.670493,110.58318 C242.211313,110.30068 242.594663,110.483509 242.909601,110.753624 C243.699303,111.873598 243.68161,114.227371 243.997137,115.686463 C244.393463,117.51829 246.920039,118.26258 249.445436,118.26258 C250.931067,118.26258 251.872341,117.073013 251.12923,115.091385 C251.080279,115.290137 250.653875,115.619819 249.841172,115.736004 C248.801996,115.884626 245.482769,115.686463 244.887691,114.249782 C244.422951,113.12509 243.567195,109.641317 245.055775,109.641317 C248.157377,109.641317 250.306501,109.418973 251.225363,108.835101 C253.457644,107.414934 251.890624,103.755409 249.506182,105.028723 C249.378202,104.155863 248.032346,103.501807 246.691208,103.501807 C245.83958,103.501807 244.989721,103.765435 244.455979,104.405336" id="Fill-119" fill="#183254"></path>
                <path d="M102.442875,67.2613627 L102.442875,35.5735913 C102.442875,31.5837949 99.2085741,28.3489045 95.2181879,28.3489045 C95.1255939,28.3489045 95.033,28.3506738 94.9404061,28.3542124 L60.270166,29.6876832 C56.3912463,29.8374849 53.323261,33.0251936 53.323261,36.9070621 L53.323261,66.3649118 C53.323261,70.2827563 56.446095,73.4869786 60.3627599,73.5878293 L62.5490386,73.6432677 L62.769023,86.0013158 L72.1162933,73.91987 L95.0400772,74.4842803 C99.0292839,74.5821822 102.342024,71.4280903 102.440516,67.4394734 C102.441695,67.3799066 102.442875,67.3209295 102.442875,67.2613627" id="Fill-121" fill="#2F91D5"></path>
                <path d="M99.9236707,68.5457056 L99.9236707,30.4671827 C99.9236707,28.1865407 98.0753304,26.3387902 95.7952782,26.3387902 C95.7421989,26.3387902 95.6891195,26.3399697 95.63663,26.3411493 L54.7738011,27.9128873 C52.5574442,27.998404 50.8046467,29.8202046 50.8046467,32.0389207 L50.8046467,67.4941451 C50.8046467,69.7329134 52.588702,71.5629708 54.8268805,71.6207683 L60.0298346,71.7540564 L60.1460193,78.2432996 C60.1660715,79.3833257 61.1067552,80.2909823 62.2461915,80.2703403 C62.8725277,80.2591347 63.4593492,79.9648392 63.8421101,79.4694322 L69.597679,72.0306587 L95.6938377,72.6729186 C97.9727103,72.7289468 99.8664629,70.9266086 99.9224911,68.6477359 C99.9230809,68.6135292 99.9236707,68.5799123 99.9236707,68.5457056 Z" id="Stroke-123" stroke="#183254" stroke-width="2"></path>
                <polygon id="Fill-125" fill="#FFFFFF" points="94.2563314 40.9226905 60.2507625 41.7182907 60.2507625 39.0336561 94.2563314 38.1413335"></polygon>
                <polygon id="Fill-127" fill="#FFFFFF" points="87.3288299 48.0137944 60.8799885 48.4413779 60.8799885 46.1884551 87.3288299 45.6983559"></polygon>
                <polygon id="Fill-129" fill="#FFFFFF" points="74.1045271 56.5441148 60.8801065 56.6485042 60.8801065 54.0252056 74.1045271 53.8848403"></polygon>
                <path d="M98.2553819,124.8054 L31.951007,119.46788 C29.7489913,119.290617 27.820205,120.932003 27.6429421,123.134019 C27.6343307,123.240993 27.6300279,123.34827 27.6300442,123.45559 L27.6382985,177.714623 C27.638599,179.690123 29.0810286,181.369554 31.0338435,181.66808 L97.1206952,191.770726 C99.3044653,192.104557 101.345384,190.604886 101.679216,188.421115 C101.709079,188.225762 101.724424,188.028464 101.725125,187.830842 L101.934394,128.806684 C101.941804,126.716567 100.338773,124.973113 98.2553819,124.8054 Z" id="Fill-131" fill="#183254"></path>
                <g id="Group-136" transform="translate(25.949896, 119.978753)">
                    <mask id="mask-22" fill="white">
                        <use xlink:href="#path-21"></use>
                    </mask>
                    <g id="Clip-135"></g>
                    <path d="M3.82492774,62.9491338 L69.9112222,73.0517755 C72.0949919,73.3856094 74.1359129,71.8859401 74.4697467,69.7021704 C74.4996107,69.5068153 74.5149561,69.3095157 74.5156568,69.1118924 L74.7249258,10.087179 C74.7323362,7.99704971 73.1292864,6.25359073 71.0458823,6.08589267 L4.74154858,0.748902095 C2.53953152,0.571656602 0.610758125,2.21305827 0.433512632,4.41507534 C0.424901865,4.52205157 0.420599933,4.62933101 0.420617281,4.73665323 L0.429387464,58.9957156 C0.429706772,60.9712001 1.87212922,62.6506086 3.82492774,62.9491338 Z" id="Fill-134" fill="url(#linearGradient-23)" mask="url(#mask-22)"></path>
                </g>
                <path d="M30.1487657,125.417674 L95.6409943,131.084777" id="Stroke-137" stroke="#000000"></path>
                <path d="M95.6409353,189.650802 L30.1487067,180.20445" id="Stroke-139" stroke="#000000"></path>
                <path d="M11.2565339,138.500903 C11.2565339,142.305512 8.71875209,145.134051 5.60181576,144.819703 C2.50198278,144.507715 0.000176931106,141.197923 0.000176931106,137.428111 C0.000176931106,133.65712 2.50198278,130.825632 5.60181576,131.104004 C8.71875209,131.384145 11.2565339,134.696295 11.2565339,138.500903" id="Fill-141" fill="#FB5457"></path>
                <path d="M33.6119562,178.315592 L33.6119562,127.936819" id="Stroke-143" stroke="#5A8A8A" stroke-width="0.5"></path>
                <path d="M48.7259421,180.834207 L48.7259421,130.455433" id="Stroke-145" stroke="#5A8A8A" stroke-width="0.5"></path>
                <path d="M68.2476947,183.353411 L68.2476947,132.974637" id="Stroke-147" stroke="#5A8A8A" stroke-width="0.5"></path>
                <path d="M88.3989682,185.872025 L88.3989682,135.493252" id="Stroke-149" stroke="#5A8A8A" stroke-width="0.5"></path>
                <path d="M86.8248711,171.388091 L107.159563,174.2933" id="Stroke-151" stroke="#2F91D5" stroke-linecap="round" stroke-linejoin="round"></path>
                <polyline id="Stroke-153" stroke="#FFFFFF" stroke-linecap="round" stroke-linejoin="round" points="27.0000407 157.534208 35.186643 165.720811 48.4110637 143.050038 58.4867004 167.609845 78.0080992 152.49639 89.3434854 160.053117 98.7898372 160.682992"></polyline>
                <polyline id="Stroke-155" stroke="#000000" stroke-linecap="round" stroke-linejoin="round" points="89.5456587 145.950765 78.6508309 169.917852 69.9363841 150.308578 59.0427359 161.202226 52.5063111 160.475629 46.6964833 171.369277 36.5288424 133.603922 16.9195678 156.118406 7.47852401 141.592951"></polyline>
                <path d="M31.0933419,132.974696 L21.3320527,132.344822" id="Stroke-157" stroke="#2BCBD3" stroke-linecap="round" stroke-linejoin="round"></path>
                <path d="M111.29002,174.583997 C111.29002,177.193141 109.536043,179.134665 107.384561,178.91822 C105.241335,178.703543 103.512128,176.435287 103.512128,173.849144 C103.512128,171.263001 105.241335,169.319707 107.384561,169.511972 C109.536043,169.704827 111.29002,171.976033 111.29002,174.583997" id="Fill-159" fill="#88D1E5"></path>
                <path d="M513.129194,163.336525 L513.945081,163.419161 C515.987689,163.626046 517.542005,165.345742 517.542005,167.398801 L517.542005,228.38279 L508.726118,227.086475 L508.726118,167.316164 C508.726118,165.107025 510.516979,163.316164 512.726118,163.316164 C512.860733,163.316164 512.995263,163.32296 513.129194,163.336525 Z" id="Fill-161" fill="#2F91D5"></path>
                <path d="M496.761034,173.450046 L497.605477,173.542749 C499.633499,173.765387 501.168978,175.478656 501.168978,177.518862 L501.168978,225.863822 L492.35309,224.567507 L492.35309,177.400565 C492.35309,175.205646 494.132424,173.426312 496.327344,173.426312 C496.472232,173.426312 496.617011,173.434235 496.761034,173.450046 Z" id="Fill-163" fill="#2F91D5"></path>
                <path d="M528.562572,187.857015 L528.562572,187.857015 C530.537484,188.089061 532.025998,189.762711 532.025998,191.751208 L532.025998,230.27153 L525.099146,229.254176 L525.099146,190.937325 C525.099146,189.224414 526.487734,187.835825 528.200645,187.835825 C528.321598,187.835825 528.442446,187.842901 528.562572,187.857015 Z" id="Fill-165" fill="#2F91D5"></path>
                <path d="M494.79185,172.84329 L495.656514,172.942668 C497.675656,173.174731 499.199793,174.884073 499.199793,176.916508 L499.199793,225.478314 L490.383906,224.120072 L490.383906,176.773639 C490.383906,174.588678 492.155167,172.817417 494.340128,172.817417 C494.491072,172.817417 494.641893,172.826055 494.79185,172.84329 Z" id="Fill-167" fill="#2BCBD3"></path>
                <path d="M526.593388,187.251144 L526.593388,187.251144 C528.571663,187.49706 530.056814,189.178258 530.056814,191.17176 L530.056814,229.940381 L523.129961,228.862871 L523.129961,190.310695 C523.129961,188.607946 524.510312,187.227596 526.21306,187.227596 C526.340201,187.227596 526.467219,187.23546 526.593388,187.251144 Z" id="Fill-169" fill="#2BCBD3"></path>
                <path d="M482.907092,184.751108 L483.158199,184.780994 C485.170276,185.020471 486.685456,186.726681 486.685456,188.75296 L486.685456,223.344795 L479.128729,222.236027 L479.128729,188.106439 C479.128729,186.240261 480.641564,184.727426 482.507742,184.727426 C482.641209,184.727426 482.77456,184.735334 482.907092,184.751108 Z" id="Fill-171" fill="#2F91D5"></path>
                <path d="M541.141784,173.332682 L541.141784,173.332682 C543.102228,173.5411 544.589581,175.194959 544.589581,177.166451 L544.589581,233.250696 L537.693986,232.232162 L537.693986,176.433366 C537.693986,174.711255 539.090033,173.315209 540.812144,173.315209 C540.922255,173.315209 541.03229,173.321041 541.141784,173.332682 Z" id="Fill-173" fill="#2F91D5"></path>
                <polyline id="Stroke-175" stroke="#88D1E5" points="464.644794 226.808634 556.585864 243.181839 556.585864 154.074026"></polyline>
                <path d="M552.177921,162.890562 L559.104773,163.519847" id="Stroke-177" stroke="#88D1E5"></path>
                <path d="M552.177921,232.161508 L559.734648,233.420668" id="Stroke-179" stroke="#88D1E5"></path>
                <path d="M552.177921,214.528849 L559.734648,215.788008" id="Stroke-181" stroke="#88D1E5"></path>
                <path d="M552.177921,197.52571 L559.104773,198.155585" id="Stroke-183" stroke="#88D1E5"></path>
                <path d="M552.177921,179.89311 L559.104773,180.522985" id="Stroke-185" stroke="#88D1E5"></path>
                <path d="M456.067233,81.7240063 C462.732228,79.3177432 470.20108,79.0576545 477.599159,81.4479937 C481.505208,82.7106921 485.088653,84.6156503 488.275182,87.0225031 C500.541816,96.2866159 506.932567,112.978886 503.234707,128.997049 C499.627082,144.621245 487.412348,155.311423 473.226602,156.779361 C469.089953,157.206945 464.785808,156.851313 460.478126,155.604539" id="Stroke-187" stroke="#88D1E5" stroke-width="2" stroke-linecap="round" stroke-dasharray="6"></path>
                <polygon id="Fill-189" fill="#FFFFFF" points="552.807383 103.53106 503.057894 101.643205 503.057894 4.03267276 552.807383 2.30818424"></polygon>
                <path d="M548.522347,103.368637 L507.029644,101.79395 C504.812697,101.709613 503.05813,99.8878126 503.05813,97.6685068 L503.05813,8.02105376 C503.05813,5.79643998 504.820364,3.9716905 507.043798,3.89502035 L548.535912,2.45657046 C550.814784,2.37754123 552.72564,4.16041701 552.805259,6.43928967 C552.806439,6.48706106 552.807618,6.53483246 552.807618,6.58201409 L552.807618,99.2431936 C552.807618,101.523246 550.959278,103.371586 548.679226,103.371586 C548.626736,103.371586 548.574837,103.370407 548.522347,103.368637 Z" id="Stroke-191" stroke="#2F91D5"></path>
                <polygon id="Fill-193" fill-opacity="0.5" fill="#2BCBD3" points="549.029196 101.539465 498.650422 99.7023299 498.650422 7.70877035 549.029196 6.08631211"></polygon>
                <path d="M476.609525,37.1928648 L476.609525,110.29549 C476.609525,112.498872 478.340501,114.314185 480.540934,114.419164 L514.47632,116.039264 C516.753423,116.148371 518.68846,114.390266 518.796978,112.112573 C518.799926,112.047108 518.801696,111.981644 518.801696,111.915589 L518.801696,36.7216383 C518.801696,34.4415861 516.953355,32.5932458 514.673303,32.5932458 L514.615506,32.5932458 L480.68012,33.0644723 C478.423068,33.0963199 476.609525,34.9352239 476.609525,37.1928648" id="Fill-195" fill="#183254"></path>
                <polygon id="Fill-197" fill="#FFFFFF" points="517.542123 106.457442 477.238986 105.052019 477.238986 40.967572 517.542123 40.7222276"></polygon>
                <path d="M512.504305,81.0247745 L494.871941,80.6661942 L494.871941,79.1357401 L512.504305,79.4689603 L512.504305,81.0247745 Z M512.504305,75.9869562 L494.871941,75.6283758 L494.871941,74.0979217 L512.504305,74.431142 L512.504305,75.9869562 Z M512.504305,70.9491378 L494.871941,70.5905574 L494.871941,69.0601033 L512.504305,69.3927338 L512.504305,70.9491378 Z M512.504305,65.9113194 L494.871941,65.552739 L494.871941,64.022285 L512.504305,64.3549154 L512.504305,65.9113194 Z M492.99942,105.623506 L478.498736,105.118663 L478.498736,61.502786 L492.99942,61.8230313 L492.99942,64.2965282 L492.99942,105.623506 Z M512.504305,60.6735689 L478.498736,60.3079113 L478.498736,44.5663507 L512.504305,44.5002965 L512.504305,60.6735689 Z" id="Fill-199" fill="#88D1E5"></path>
                <path d="M491.72298,37.2585063 L503.688241,37.2585063" id="Stroke-201" stroke="#5881BA" stroke-width="3" stroke-linecap="round" stroke-linejoin="round"></path>
                <path d="M497.39085,110.045604 C497.39085,111.070035 496.684895,111.862097 495.814394,111.812556 C494.945662,111.764195 494.242066,110.895463 494.242066,109.873391 C494.242066,108.85073 494.945662,108.059258 495.814394,108.10585 C496.684895,108.151262 497.39085,109.020584 497.39085,110.045604" id="Fill-203" fill="#5881BA"></path>
                <path d="M562.660145,83.491548 L529.674289,82.6711775 C528.530724,82.6428685 527.61776,81.7074927 527.61776,80.5627484 C527.61776,79.4516211 528.518929,78.550452 529.630646,78.550452 C529.64539,78.550452 529.660135,78.550452 529.674289,78.5510418 L562.659555,79.2717411 C563.833788,79.297691 564.772113,80.2566576 564.772113,81.4308904 C564.772113,82.569737 563.849712,83.4921378 562.711455,83.4921378 C562.694352,83.4921378 562.676659,83.4921378 562.660145,83.491548 M562.660145,74.675071 L529.674289,73.8547004 C528.530724,73.8263914 527.61776,72.8910157 527.61776,71.7468612 C527.61776,70.6351441 528.518929,69.7345647 529.630646,69.7345647 L529.674289,69.7345647 L562.659555,70.4552641 C563.833788,70.4806242 564.772113,71.4401806 564.772113,72.6150031 C564.772113,73.7526701 563.849712,74.6756608 562.711455,74.6756608 C562.694352,74.6756608 562.676659,74.6756608 562.660145,74.675071 M562.660145,65.8591837 L529.674289,65.0388132 C528.530724,65.0105042 527.61776,64.0745386 527.61776,62.9309739 C527.61776,61.8192568 528.518929,60.9180877 529.630646,60.9180877 C529.64539,60.9180877 529.660135,60.9180877 529.674289,60.9186775 L562.659555,61.6387871 C563.833788,61.664737 564.772113,62.6237035 564.772113,63.7979363 C564.772113,64.9367829 563.849712,65.8597735 562.711455,65.8597735 C562.694352,65.8597735 562.676659,65.8597735 562.660145,65.8591837 M562.660145,57.0421169 L529.674289,56.2223361 C528.530724,56.1940271 527.61776,55.2586514 527.61776,54.1139071 C527.61776,53.0027797 528.518929,52.1016106 529.630646,52.1016106 C529.64539,52.1016106 529.660135,52.1016106 529.674289,52.1022004 L562.659555,52.8228998 C563.833788,52.8482599 564.772113,53.8078163 564.772113,54.9820491 C564.772113,56.1203058 563.849712,57.0432965 562.711455,57.0432965 C562.694352,57.0432965 562.676659,57.0427067 562.660145,57.0421169" id="Fill-205" fill="#88D1E5"></path>
                <path d="M488.88931,36.2264081 C489.459618,36.2264081 489.921408,36.6881983 489.921408,37.2585063 C489.921408,37.8288142 489.459618,38.2906044 488.88931,38.2906044 C488.319002,38.2906044 487.857212,37.8288142 487.857212,37.2585063 C487.857212,36.6881983 488.319002,36.2264081 488.88931,36.2264081" id="Fill-207" fill="#5881BA"></path>
                <path d="M517.542123,26.8678732 C521.019999,26.8678732 523.839691,29.6869755 523.839691,33.165441 C523.839691,36.6433168 521.019999,39.4624191 517.542123,39.4624191 C514.064837,39.4624191 511.244555,36.6433168 511.244555,33.165441 C511.244555,29.6869755 514.064837,26.8678732 517.542123,26.8678732" id="Fill-209" fill="#FB5457"></path>
                <polygon id="Fill-211" fill="#FFFFFF" points="518.529281 30.186452 518.529281 36.4380177 517.359176 36.4380177 517.359176 31.3842756 515.965549 32.2300063 515.445372 31.4308674 517.47949 30.186452"></polygon>
                <g id="Group-216" transform="translate(126.210856, 295.730318)">
                    <mask id="mask-25" fill="white">
                        <use xlink:href="#path-24"></use>
                    </mask>
                    <g id="Clip-215"></g>
                    <path d="M8.05024465,42.2408238 L37.9944628,53.4138728 C39.2603864,53.8862253 40.6792149,53.687553 41.7667118,52.8856614 L91.8758312,15.9365127 C93.6538599,14.6254411 94.0324034,12.1212304 92.7213317,10.3432017 C92.1980915,9.633602 91.4550686,9.11675339 90.6077784,8.87300885 L63.4938411,1.07299548 C62.3942508,0.756670391 61.2118375,0.926375706 60.2456026,1.53919739 L7.30620251,35.1153104 C5.44064196,36.2985175 4.88748516,38.770032 6.07069222,40.6355925 C6.53787107,41.3721926 7.23302144,41.9358943 8.05024465,42.2408238 Z" id="Fill-214" fill="url(#linearGradient-26)" mask="url(#mask-25)"></path>
                </g>
                <g id="Group-219" transform="translate(253.011482, 328.757458)">
                    <mask id="mask-28" fill="white">
                        <use xlink:href="#path-27"></use>
                    </mask>
                    <g id="Clip-218"></g>
                    <path d="M6.58387779,53.2758049 L39.7911189,64.5006297 C41.3535905,65.0287817 43.0800414,64.543766 44.1388817,63.2792031 L84.1890724,15.4476407 C85.6073072,13.7538564 85.3839301,11.2310665 83.6901458,9.81283177 C83.2604551,9.45304433 82.7599554,9.18756555 82.2210891,9.03360376 L53.4383172,0.809954617 C52.0360546,0.409308171 50.5268727,0.803585688 49.4997616,1.83891204 L5.02510178,46.6692988 C3.46923923,48.2376057 3.47932744,50.7702456 5.04763443,52.3261081 C5.48061586,52.7556539 6.00609047,53.0804992 6.58387779,53.2758049 Z" id="Fill-217" fill="url(#linearGradient-29)" mask="url(#mask-28)"></path>
                </g>
                <g id="Group-224" transform="translate(173.392484, 308.705266)">
                    <path d="M21.1507573,7.57913883 C29.4075423,10.5279906 6.20715605,24.2389718 11.9273387,27.2880846 C17.6487009,30.3371973 54.6267124,3.92433194 62.1103085,8.32696764 C69.5939045,12.7284238 38.7789932,45.3049791 50.2246665,50.1469937 C61.66975,54.9895981 92.9252197,24.1746868 99.9688471,27.6956159 C107.012474,31.2177244 96.887297,46.6254749 105.691979,45.7449478 C114.495481,44.8644207 122.419635,38.7019102 122.419635,38.7019102" id="Stroke-220" stroke="#0B50B3" stroke-width="2" stroke-linecap="round" stroke-dasharray="11.89,11.89"></path>
                    <polygon id="Fill-222" fill="#1C1919" points="0.0117364301 21.4439322 30.5872009 1.09154697 30.5872009 0.501776618 0.0117364301 20.9738852"></polygon>
                </g>
                <g id="Group-227" transform="translate(150.391441, 301.038252)">
                    <mask id="mask-31" fill="white">
                        <use xlink:href="#path-30"></use>
                    </mask>
                    <g id="Clip-226"></g>
                    <polygon id="Fill-225" fill="url(#linearGradient-32)" mask="url(#mask-31)" points="0.508971816 20.5540866 23.0128392 28.6410177 53.5883038 8.16890919 32.9463413 0.501894572"></polygon>
                </g>
                <polygon id="Fill-228" fill="#1C1919" points="150.900235 321.592338 150.900235 322.182109 173.404103 330.149316 173.404103 329.679269"></polygon>
                <g id="Fill-236" transform="translate(127.980167, 230.010438)">
                    <mask id="mask-34" fill="white">
                        <use xlink:href="#path-33"></use>
                    </mask>
                    <use id="Mask" fill="#FDD4C2" xlink:href="#path-33"></use>
                    <path d="M8.3019024,3.32023017 C8.19515397,4.43725522 7.58297234,6.07681681 6.46535752,8.2395047 C4.7886404,11.4832416 6.46535752,16.0781425 7.38362996,19.5271195 C8.3019024,22.9766863 9.26381785,24.8344629 7.02622912,24.3402354 C4.7886404,23.8454181 1.38448591,20.6771717 1.38448591,17.7990924 C1.38448591,14.9204233 1.17983559,8.18642537 2.28152662,6.12576775 C3.01638048,4.75278236 5.02277923,3.81740658 8.3019024,3.32023017" fill="#FAB8A6" mask="url(#mask-34)"></path>
                </g>
                <g id="Fill-240" transform="translate(116.774530, 277.781837)">
                    <mask id="mask-36" fill="white">
                        <use xlink:href="#path-35"></use>
                    </mask>
                    <use id="Mask" fill="#FDD4C2" xlink:href="#path-35"></use>
                    <path d="M6.88568685,15.1392281 C14.3156138,23.4313993 18.3142568,28.0080172 18.8822056,28.8696717 C19.7344238,30.1618586 28.9495856,36.2577249 30.4033695,36.2412114 C31.3723622,36.2311853 34.4055511,36.4281686 39.5035261,36.8315715 L38.2921378,38.8126101 L24.8553998,38.0022657 L14.5892672,30.1618586 L4.12320251,18.5805381 L3.71331211,13.6771874 L6.88568685,15.1392281 Z" fill="#FAB8A6" mask="url(#mask-36)"></path>
                </g>
                <g id="Fill-244" transform="translate(115.594990, 261.268267)">
                    <mask id="mask-38" fill="white">
                        <use xlink:href="#path-37"></use>
                    </mask>
                    <use id="Mask" fill="#2F91D5" xlink:href="#path-37"></use>
                    <path d="M11.0244003,-1.47855428 C4.03680115,0.169853862 0.332453549,4.1260334 -0.0898220251,10.3893946 C-0.723235386,19.7850261 0.804859603,32.8973904 1.70543894,33.3344102 C2.60660804,33.7720198 8.69775626,33.9925939 8.69775626,32.1996921 C8.69775626,30.4067902 12.6869629,32.1996921 12.6869629,28.7955376 C12.6869629,25.3919729 14.0687949,25.5889562 13.3781738,21.4287161 C12.6869629,17.268476 6.36993267,14.9512683 8.69775626,11.1891232 C10.2488523,8.68141962 11.0244003,4.45807411 11.0244003,-1.47855428" fill-opacity="0.573426178" fill="#2476AD" mask="url(#mask-38)"></path>
                </g>
                <g id="Group-248" transform="translate(123.851775, 223.778335)">
                    <mask id="mask-40" fill="white">
                        <use xlink:href="#path-39"></use>
                    </mask>
                    <g id="Clip-247"></g>
                    <path d="M8.18837161,24.5828079 L8.18837161,28.1102244 C8.18837161,28.1102244 5.83813674,26.9330428 4.42799582,24.5828079 C3.01785491,22.2325731 -1.21256785,16.1219624 1.13766701,13.3016806 C3.48790188,10.4813987 -0.742520877,6.25097599 6.30818372,2.02055324 C13.3588883,-2.20986952 18.999452,2.49060021 23.6999217,2.49060021 C28.4003914,2.49060021 26.0501566,10.4813987 25.5801096,11.4214927 C25.1100626,12.3615866 18.999452,11.8915397 15.7091232,11.4214927 C12.4187944,10.9514457 8.18837161,10.9514457 8.18837161,12.8316336 L8.18837161,24.5828079 Z" id="Fill-246" fill="url(#linearGradient-41)" mask="url(#mask-40)"></path>
                </g>
                <g id="Group-252" transform="translate(171.033403, 281.575830)">
                    <mask id="mask-43" fill="white">
                        <use xlink:href="#path-42"></use>
                    </mask>
                    <g id="Clip-251"></g>
                    <path d="M29.4295407,0.504253653 C29.2160438,0.51545929 29.0054958,0.567948852 28.8108716,0.657593946 L2.48588205,16.8963309 C1.28098121,17.4501253 0.508971816,18.6556159 0.508971816,19.9820094 L2.86746347,48.2732933 L32.6378914,28.7053027 L31.2171347,2.11019833 C31.1687735,1.20372129 30.4185856,0.501304802 29.5215449,0.501304802 C29.4908768,0.501304802 29.4607985,0.502484342 29.4295407,0.504253653" id="Fill-250" fill="url(#linearGradient-44)" mask="url(#mask-43)"></path>
                </g>
                <g id="Group-307" transform="translate(186.957203, 289.242844)">
                    <path d="M1.93598017,11.8376936 C2.79409603,11.8683617 3.45286952,12.9352563 3.40804697,14.2227249 C3.36322443,15.5101936 2.63131942,16.528727 1.77320355,16.4986487 C0.915087683,16.4691602 0.255724426,15.4016759 0.301136743,14.1142072 C0.34595929,12.8273283 1.0778643,11.8076153 1.93598017,11.8376936" id="Fill-253" fill="#FFFFFF"></path>
                    <path d="M78.6804374,39.6438325 L61.6455104,53.5683105 C60.986737,54.1067709 60.0159749,54.0094588 59.4769248,53.3506853 C59.2528121,53.0752625 59.1295501,52.7308366 59.1295501,52.3757949 L59.1295501,32.7511863 C59.1295501,31.7745266 59.5925198,30.8562542 60.3780939,30.2747406 L77.3540438,17.7085037 C78.0381775,17.2018909 79.0030418,17.3457949 79.5090647,18.0299285 C79.7054582,18.2953252 79.8116169,18.61675 79.8116169,18.9464316 L79.8116169,37.2582114 C79.8116169,38.1829713 79.3964186,39.0587803 78.6804374,39.6438325" id="Fill-255" fill="#183254"></path>
                    <polygon id="Stroke-257" stroke="#FFFFFF" stroke-width="0.5" points="63.3602088 40.299893 60.5399269 42.6542563 60.5399269 38.8891623 63.3602088 36.5713648"></polygon>
                    <polygon id="Stroke-259" stroke="#FFFFFF" stroke-width="0.5" points="67.1205846 37.4794342 64.3003027 39.8337975 64.3003027 36.0687035 67.1205846 33.7509061"></polygon>
                    <polygon id="Stroke-261" stroke="#FFFFFF" stroke-width="0.5" points="70.8809603 34.6590344 68.0606785 37.0133977 68.0606785 33.2488935 70.8809603 30.931096"></polygon>
                    <polygon id="Stroke-263" stroke="#FFFFFF" stroke-width="0.5" points="74.6412771 31.8386347 71.8209953 34.1929979 71.8209953 30.4284937 74.6412771 28.1106962"></polygon>
                    <polygon id="Stroke-265" stroke="#FFFFFF" stroke-width="0.5" points="78.4016529 29.0187657 75.5813711 31.3731289 75.5813711 27.608035 78.4016529 25.2902375"></polygon>
                    <polygon id="Stroke-267" stroke="#FFFFFF" stroke-width="0.5" points="63.3602088 45.0001858 60.5399269 47.3545491 60.5399269 43.5900449 63.3602088 41.2716576"></polygon>
                    <polygon id="Stroke-269" stroke="#FFFFFF" stroke-width="0.5" points="67.1205846 42.179786 64.3003027 44.5341493 64.3003027 40.7696451 67.1205846 38.4518476"></polygon>
                    <polygon id="Fill-271" fill="#0F6BAE" points="70.8809603 39.3593272 68.0606785 41.7136905 68.0606785 37.9491863 70.8809603 35.6313888"></polygon>
                    <polygon id="Stroke-273" stroke="#FFFFFF" stroke-width="0.5" points="74.6412771 36.5395172 71.8209953 38.8938805 71.8209953 35.1287865 74.6412771 32.810989"></polygon>
                    <polygon id="Stroke-275" stroke="#FFFFFF" stroke-width="0.5" points="78.4016529 33.7190585 75.5813711 36.0734217 75.5813711 32.3083278 78.4016529 29.9905303"></polygon>
                    <polygon id="Stroke-277" stroke="#FFFFFF" stroke-width="0.5" points="63.8301968 49.7004786 61.0099149 52.0548419 61.0099149 48.2903377 63.8301968 45.9725402"></polygon>
                    <polygon id="Stroke-279" stroke="#FFFFFF" stroke-width="0.5" points="67.5905725 46.8800788 64.7702907 49.2344421 64.7702907 45.4699379 67.5905725 43.1521404"></polygon>
                    <polygon id="Stroke-281" stroke="#FFFFFF" stroke-width="0.5" points="71.3508894 44.0602098 68.5306075 46.4145731 68.5306075 42.6494791 71.3508894 40.3316816"></polygon>
                    <polygon id="Stroke-283" stroke="#FFFFFF" stroke-width="0.5" points="75.1112651 41.23981 72.2909833 43.5941733 72.2909833 39.8296691 75.1112651 37.5112818"></polygon>
                    <polygon id="Fill-285" fill="#0F6BAE" points="78.8716409 38.4194102 76.0513591 40.7737735 76.0513591 37.0092693 78.8716409 34.6914718"></polygon>
                    <polygon id="Fill-287" fill="#88D1E5" points="72.2908653 39.829905 69.4705835 42.1836785 69.4705835 38.4191743 72.2908653 36.1013768"></polygon>
                    <polygon id="Fill-289" fill="#88D1E5" points="80.2815459 38.8893392 77.4612641 41.2437025 77.4612641 37.4791983 80.2815459 35.1614008"></polygon>
                    <path d="M31.8535558,79.1533152 L31.6182375,82.7479656 L28.0866926,77.6782996 L15.8654713,72.8929029 C14.9849442,72.5478873 14.4057897,71.6992077 14.4057897,70.7543956 L14.4057897,58.1551315 C14.4057897,56.8871253 15.4337594,55.8591555 16.7023554,55.8591555 C16.9671623,55.8591555 17.2296101,55.9051576 17.4784932,55.9942129 L33.250132,61.6601367 C34.161917,61.9874593 34.7699703,62.8520626 34.7699703,63.8210553 L34.7699703,77.1634301 C34.7699703,78.3435605 33.8133627,79.3007578 32.6326425,79.3007578 C32.3660663,79.3007578 32.1018492,79.2506273 31.8535558,79.1533152" id="Fill-291" fill="#183254"></path>
                    <polygon id="Fill-293" fill="#FFFFFF" points="28.416905 66.4496028 16.1573486 62.2976195 16.1573486 61.1959285 28.416905 65.3237312"></polygon>
                    <polygon id="Fill-295" fill="#FFFFFF" points="28.416905 73.1046895 16.1573486 68.9527062 16.1573486 67.8510151 28.416905 71.9788178"></polygon>
                    <polygon id="Fill-297" fill="#FFFFFF" points="23.5127286 68.2010438 16.1571127 65.8000887 16.1571127 64.6983977 23.5127286 67.0751722"></polygon>
                    <path d="M27.063441,54.8747698 L13.4951842,50.5346498 L10.7946258,53.0311477 L10.5333575,49.5868888 L10.3983001,49.5438356 C9.44759029,49.2389243 8.80179175,48.3548586 8.80179175,47.3563773 L8.80179175,39.0535903 C8.80179175,37.7849943 9.82976148,36.7570245 11.0983575,36.7570245 C11.3195214,36.7570245 11.5395057,36.7894619 11.7518231,36.8519776 L28.416964,41.8013304 C29.3912646,42.0909076 30.0594744,42.986179 30.0594744,44.0023533 L30.0594744,52.6873116 C30.0594744,53.9553178 29.0315047,54.9838773 27.7634984,54.9838773 C27.525821,54.9838773 27.2899128,54.9467218 27.063441,54.8747698" id="Fill-299" fill="#2BCBD3"></path>
                    <polygon id="Fill-301" fill="#FFFFFF" points="27.0156106 46.8345485 11.6037317 42.1163857 11.6037317 41.2305506 27.0156106 45.9245329"></polygon>
                    <polygon id="Fill-303" fill="#FFFFFF" points="21.7618184 48.2358429 11.6036138 45.074084 11.6036138 44.0325496 21.7618184 47.1760256"></polygon>
                    <path d="M59.9753398,21.2849301 C59.9753398,20.8101649 59.7329442,20.3678372 59.3324901,20.1130564 L53.2714201,16.2482912 C53.2053659,16.2064175 53.1292855,16.1840063 53.050846,16.1840063 C52.8243742,16.1840063 52.6403659,16.3674248 52.6403659,16.5938967 C52.6403659,17.0598152 52.8780433,17.4932965 53.2702406,17.7451284 L59.3336696,21.6352537 C59.4009034,21.6783069 59.4787531,21.7013079 59.5583721,21.7013079 C59.7889723,21.7013079 59.9753398,21.5149405 59.9753398,21.2849301 M52.2363732,3.7970595 C52.1933199,3.7870334 52.1490872,3.78172547 52.1054442,3.78172547 C51.7881477,3.78172547 51.5310078,4.03886534 51.5310078,4.3561618 L51.5310078,12.9007547 C51.5310078,13.3271587 51.8223544,13.6981242 52.2363732,13.8001545 C52.2806059,13.8107704 52.3260183,13.8166681 52.3714306,13.8166681 C52.686368,13.8166681 52.9411487,13.5612975 52.9411487,13.2469499 L52.9411487,4.68525365 C52.9411487,4.26179854 52.6492124,3.89378184 52.2363732,3.7970595 M64.1267333,16.7324927 C64.1267333,24.2349614 59.1549692,28.8210157 53.1298753,27.0080616 C47.2203763,25.229904 42.5128293,17.9421117 42.5128293,10.6985522 C42.5128293,3.45499269 47.2203763,-1.20478288 53.1298753,0.317414405 C59.1549692,1.86910021 64.1267333,9.23120355 64.1267333,16.7324927" id="Fill-305" fill="#183254"></path>
                </g>
                <g id="Group-310" transform="translate(277.781837, 341.732406)">
                    <mask id="mask-46" fill="white">
                        <use xlink:href="#path-45"></use>
                    </mask>
                    <g id="Clip-309"></g>
                    <polygon id="Fill-308" fill="url(#linearGradient-47)" mask="url(#mask-46)" points="0.523126305 28.6209656 24.6889666 36.4778862 49.4074217 7.74958246 25.4362056 0.469457203"></polygon>
                </g>
                <path d="M338.579671,357.00734 C338.579671,357.00734 330.232651,356.994955 326.673977,356.72661 C323.117072,356.458854 317.78024,356.05781 316.733397,354.13162 C315.685965,352.20484 315.138658,351.548426 320.4749,351.950059 L336.484217,353.15496 C338.856273,353.333661 341.728455,354.781547 342.914483,354.870602 C344.099921,354.959658 338.579671,357.00734 338.579671,357.00734" id="Fill-311" fill="#FDD4C2"></path>
                <g id="Fill-315" transform="translate(347.374739, 327.322547)">
                    <mask id="mask-49" fill="white">
                        <use xlink:href="#path-48"></use>
                    </mask>
                    <use id="Mask" fill="#FDD4C2" xlink:href="#path-48"></use>
                    <path d="M4.71816284,1.9993215 C7.71323285,4.31593946 9.1318692,6.27397704 8.97561137,7.87284447 C8.8185838,9.4717119 9.87467119,10.3923434 12.145413,10.634739 L14.8079541,4.18913883 L11.4549536,-3.7658765e-13 L4.71816284,1.9993215 Z" fill="#FAB8A6" mask="url(#mask-49)"></path>
                </g>
                <path d="M343.935375,385.675723 C349.611325,373.122461 359.526544,351.847675 361.646179,351.586407 C364.655777,351.217211 363.323486,345.153192 359.944102,342.51397 C356.565307,339.874747 355.83871,341.608672 352.102515,343.712973 C348.36632,345.816684 348.085589,341.622237 348.085589,341.622237 C348.085589,341.622237 343.756085,343.681125 341.799227,345.918714 C339.842369,348.157482 337.336435,349.757529 336.162792,357.421005 C334.990328,365.084481 330.214958,373.07351 324.655193,375.636652 C319.096017,378.199794 327.165255,381.306115 333.139039,381.159262 C339.113413,381.012999 338.78727,383.471752 341.66299,384.880123" id="Fill-317" fill="#FB5457"></path>
                <g id="Fill-321" transform="translate(342.656576, 303.141962)">
                    <mask id="mask-51" fill="white">
                        <use xlink:href="#path-50"></use>
                    </mask>
                    <use id="Mask" fill="#FDD4C2" xlink:href="#path-50"></use>
                    <path d="M2.00980574,2.6336785 C1.23570305,6.88120459 1.62548492,9.99342276 3.17778607,11.970333 C5.5062378,14.9351086 12.9755778,20.4919248 12.7885371,22.6451764 C12.6629332,24.0806775 11.9434409,26.0434332 10.6273298,28.5346232 L18.9656581,26.7293361 L14.0834867,7.78001461 L2.00980574,2.6336785 Z" fill="#FAB8A6" mask="url(#mask-51)"></path>
                </g>
                <g id="Group-326" transform="translate(341.477035, 290.167015)" fill="url(#linearGradient-52)">
                    <path d="M0.0112056367,14.8628027 C-0.26539666,18.5358925 5.66356472,18.9823486 5.66356472,18.9823486 C6.89264614,22.4608142 10.5828392,28.8969781 13.9563257,31.6134603 C17.3292223,34.3299426 17.2313205,43.5586691 16.9547182,47.2317589 C16.6787056,50.906618 13.7009551,56.3655324 15.9473904,62.0585856 C18.1938257,67.7522286 16.1367067,76.0915814 23.7353079,83.0001514 C31.3339092,89.9081315 37.4899322,91.5701044 45.1929228,82.1213935 C52.8965031,72.6732724 47.0194415,57.8529332 41.2597443,44.8414196 C35.500047,31.8304958 41.5168841,17.9856367 37.3265658,10.2814666 C33.1356576,2.57729645 23.7400261,0.638721294 18.9976827,0.28191023 C18.8237004,0.268935282 18.652667,0.262447808 18.4828132,0.262447808 C14.0088152,0.263037578 10.763309,4.65623695 6.6307881,6.12417537 C2.34256785,7.64873173 0.287807933,11.1885334 0.0112056367,14.8628027 Z" id="Fill-324"></path>
                </g>
                <g id="Fill-329" transform="translate(293.705637, 352.682672)">
                    <mask id="mask-54" fill="white">
                        <use xlink:href="#path-53"></use>
                    </mask>
                    <use id="Mask" fill="#FDD4C2" xlink:href="#path-53"></use>
                    <path d="M56.4465668,3.15379697 L38.8018173,12.9251122 L16.0514259,15.6415945 C20.0282474,17.0924295 23.596358,17.9363909 26.7539885,18.1746581 C31.491024,18.5308794 40.906118,14.0822416 46.3302359,12.7552584 C49.9455282,11.870013 54.5451472,8.76251305 60.1296827,3.43098904 L56.4465668,3.15379697 Z" fill="#FAB8A6" mask="url(#mask-54)"></path>
                </g>
                <path d="M278.305022,370.353195 L272.127768,344.839139 C271.877115,343.802323 272.179668,342.710068 272.929266,341.950444 L296.010518,318.541279 C296.607956,317.935585 297.583436,317.928508 298.18972,318.525945 C298.408525,318.741801 298.558326,319.018403 298.618483,319.319776 L303.217512,342.201686 L278.305022,370.353195 Z" id="Fill-331" fill="#000000"></path>
                <g id="Group-336" transform="translate(273.653445, 319.910903)">
                    <mask id="mask-56" fill="white">
                        <use xlink:href="#path-55"></use>
                    </mask>
                    <g id="Clip-335"></g>
                    <path d="M23.070047,0.0442327766 C22.9220146,0.0743110647 22.7857777,0.148622129 22.6802088,0.256550104 L0.93006785,22.2744468 C0.175751566,23.0381994 -0.126800626,24.1393006 0.131518789,25.1802453 L6.00799061,48.9096555 L28.7029436,23.2634916 L23.9812422,0.641080376 C23.9057516,0.277192067 23.586096,0.0277192067 23.2286952,0.0277192067 C23.1762056,0.0277192067 23.1231263,0.0330271399 23.070047,0.0442327766" id="Fill-334" fill="url(#linearGradient-57)" mask="url(#mask-56)"></path>
                </g>
                <path d="M260.038832,298.35804 C261.336916,298.35804 262.389067,299.410191 262.389067,300.708275 C262.389067,302.00636 261.336916,303.05851 260.038832,303.05851 C258.741337,303.05851 257.689187,302.00636 257.689187,300.708275 C257.689187,299.410191 258.741337,298.35804 260.038832,298.35804" id="Fill-337" fill="#FB5457"></path>
                <path d="M195.01376,348.055393 C196.960592,348.055393 198.539408,349.634208 198.539408,351.58104 C198.539408,353.527872 196.960592,355.106098 195.01376,355.106098 C193.066339,355.106098 191.488113,353.527872 191.488113,351.58104 C191.488113,349.634208 193.066339,348.055393 195.01376,348.055393" id="Fill-339" fill="#88D1E5"></path>
                <path d="M223.926898,323.908779 C225.094644,323.908779 226.041815,324.85595 226.041815,326.024285 C226.041815,327.192031 225.094644,328.139202 223.926898,328.139202 C222.758563,328.139202 221.811392,327.192031 221.811392,326.024285 C221.811392,324.85595 222.758563,323.908779 223.926898,323.908779" id="Fill-341" fill="#FB5457"></path>
                <path d="M281.616111,318.815699 C283.692693,318.815699 285.376487,320.498904 285.376487,322.576075 C285.376487,324.652657 283.692693,326.336451 281.616111,326.336451 C279.53953,326.336451 277.855735,324.652657 277.855735,322.576075 C277.855735,320.498904 279.53953,318.815699 281.616111,318.815699" id="Fill-343" fill="#2BCBD3"></path>
                <path d="M236.517729,342.944443 C238.205062,342.944443 239.573329,344.312121 239.573329,346.000043 C239.573329,347.687376 238.205062,349.055054 236.517729,349.055054 C234.830396,349.055054 233.462128,347.687376 233.462128,346.000043 C233.462128,344.312121 234.830396,342.944443 236.517729,342.944443" id="Fill-345" fill="#88D1E5"></path>
                <path d="M487.014607,290.545883 C496.056966,290.545883 503.387812,283.215627 503.387812,274.172678 C503.387812,269.686295 501.583114,265.621008 498.659623,262.6639 C495.691898,259.660789 491.570583,257.800064 487.014607,257.800064 C477.972248,257.800064 470.641402,265.130319 470.641402,274.172678 C470.641402,283.215627 477.972248,290.545883 487.014607,290.545883 Z" id="Stroke-347" stroke="#FB0D1B" stroke-width="2" stroke-dasharray="6,6"></path>
                <path d="M178.324557,110.454551 L195.427897,111.634092" id="Stroke-349" stroke="#FFFFFF" stroke-width="3" stroke-linecap="round" stroke-linejoin="round"></path>
                <path d="M178.324557,117.826681 L194.838127,119.595992" id="Stroke-351" stroke="#FFFFFF" stroke-width="3" stroke-linecap="round" stroke-linejoin="round"></path>
                <path d="M178.324557,137.878873 L194.248356,140.237954" id="Stroke-353" stroke="#FFFFFF" stroke-width="3" stroke-linecap="round" stroke-linejoin="round"></path>
                <path d="M178.324557,146.725428 L193.658586,149.084509" id="Stroke-355" stroke="#FFFFFF" stroke-width="3" stroke-linecap="round" stroke-linejoin="round"></path>
                <path d="M178.324557,162.649228 L194.248356,165.008309" id="Stroke-357" stroke="#FFFFFF" stroke-width="3" stroke-linecap="round" stroke-linejoin="round"></path>
                <path d="M178.324557,170.906013 L194.248356,173.265094" id="Stroke-359" stroke="#FFFFFF" stroke-width="3" stroke-linecap="round" stroke-linejoin="round"></path>
                <path d="M162.105872,212.484823 L191.299505,218.677411" id="Stroke-361" stroke="#2F91D5" stroke-width="2" stroke-linecap="round"></path>
                <path d="M236.711822,168.252046 L318.689901,180.047453" id="Stroke-363" stroke="#FFFFFF" stroke-width="5" stroke-linecap="round" stroke-linejoin="round"></path>
                <path d="M236.711822,180.932109 L328.715997,195.676367" id="Stroke-365" stroke="#FFFFFF" stroke-width="5" stroke-linecap="round" stroke-linejoin="round"></path>
                <path d="M236.711822,193.907056 L315.151279,207.471775" id="Stroke-367" stroke="#FFFFFF" stroke-width="5" stroke-linecap="round" stroke-linejoin="round"></path>
                <path d="M236.711822,206.882004 L331.664849,224.575115" id="Stroke-369" stroke="#FFFFFF" stroke-width="5" stroke-linecap="round" stroke-linejoin="round"></path>
                <path d="M236.711822,219.856952 L320.459212,236.370522" id="Stroke-371" stroke="#FFFFFF" stroke-width="5" stroke-linecap="round" stroke-linejoin="round"></path>
                <path d="M236.711822,232.242129 L283.89345,242.268225" id="Stroke-373" stroke="#FFFFFF" stroke-width="5" stroke-linecap="round" stroke-linejoin="round"></path>
            </g>
        </g>
    </g>
</svg>