<?xml version="1.0" encoding="UTF-8"?>
<svg width="354px" height="398px" viewBox="0 0 354 398" version="1.1" xmlns="http://www.w3.org/2000/svg" xmlns:xlink="http://www.w3.org/1999/xlink">
    <!-- Generator: Sketch 52.5 (67469) - http://www.bohemiancoding.com/sketch -->
    <title>img-data</title>
    <desc>Created with Sketch.</desc>
    <defs>
        <linearGradient x1="72.4240191%" y1="0%" x2="30.0427157%" y2="70.8968715%" id="linearGradient-1">
            <stop stop-color="#AFFAFD" offset="0%"></stop>
            <stop stop-color="#86D2E7" offset="100%"></stop>
        </linearGradient>
        <linearGradient x1="30.0427157%" y1="8.79811768%" x2="89.0432182%" y2="106.999483%" id="linearGradient-2">
            <stop stop-color="#17CCD5" offset="0%"></stop>
            <stop stop-color="#00C8FF" offset="100%"></stop>
        </linearGradient>
        <path d="M13.1289137,30.8897732 C13.9669571,33.1782298 15.1059213,35.6154633 16.2199084,37.0653376 C18.6695978,40.2536523 22.5615398,38.657739 21.34583,38.657739 C20.1301201,38.657739 17.7780424,41.8514685 17.0691828,42.3129746 C16.3603232,42.7744807 14.2525359,44.9367931 11.9740586,44.9367931 C9.69558125,44.9367931 3.09660978,45.5927478 5.08225189,42.3129746 C6.23457506,40.4096313 6.09058414,35.2252761 4.65027911,26.7599089 C4.1610215,26.3590673 3.81088063,26.0521311 3.62145084,25.9194909 C2.88800673,25.4059278 1.68560026,20.3802089 0.0142314358,10.8423343 C2.23541623,5.91020467 4.27613405,2.99575758 6.13638491,2.09899297 C8.9267612,0.753846059 17.8728937,-0.914042833 18.2584312,2.13044869 C18.6439687,5.17494022 21.898186,11.9137699 23.6345044,14.3955053 C25.3708228,16.8772406 26.6656891,26.899448 18.9541518,30.1193415 C16.9014556,30.976429 14.9331146,31.1342329 13.1289137,30.8897732 Z" id="path-3"></path>
        <path d="M17.5569286,8.1476794 C17.5265006,7.5370137 17.4965174,6.9208939 17.466979,6.29932 C25.9461715,-1.091683 31.9461638,-1.5746005 35.4669559,4.8505675 C40.748144,14.4883195 39.3981493,82.933257 39.2983871,89.678816 C39.2339055,94.038829 38.3324538,113.352439 36.5940318,147.619646 C36.5895249,147.708485 36.581069,147.797079 36.5686891,147.885167 C36.3380999,149.525895 34.8210975,150.669038 33.1803695,150.438449 L32.1396967,150.292195 C30.612133,150.07751 29.4963566,148.739372 29.5597502,147.198099 C30.9412505,113.612354 31.361218,94.855935 30.8196527,90.928843 C29.9856641,84.881281 25.466889,64.231267 22.2477066,51.695055 C22.0782221,51.035045 21.9121837,50.332785 21.7495912,49.588275 C20.6838521,67.76216 18.7504072,88.163769 17.9280238,94.015331 C17.0032297,100.595582 16.3350581,119.134233 15.9235088,149.631282 C15.9019295,151.230381 14.6297548,152.531419 13.0315426,152.588861 L11.488611,152.644322 C9.8467126,152.703335 8.46279126,151.430684 8.38429729,149.789601 L8.38428119,149.789602 C7.00149677,120.879573 6.8352625,102.687865 7.88557837,95.21448 C9.5141775,83.626395 0.27364181,27.053213 1.01151883,21.8029452 C1.50343685,18.3027666 2.47281701,13.0028473 3.91965931,5.9031871 L17.5569286,8.1476794 Z" id="path-5"></path>
        <path d="M0.11353988,10.883598 C4.48144611,6.59314049 7.33032198,4.77624436 8.6601675,5.43290961 C10.6549358,6.41790748 14.0423265,7.56728819 17.0120586,5.63596097 C19.9817907,3.70463375 18.2278808,1.97705407 22.0060257,1.14327103 C25.7841706,0.30948799 26.3991281,-0.362600983 28.6936882,1.98072536 C30.9882482,4.32405171 38.0666649,38.0199072 41.949865,42.3694203 C45.8330652,46.7189335 31.2124514,54.6275725 21.233156,54.1766037 C11.2538606,53.7256349 3.90705875,53.2131703 3.90705875,48.7752273 C3.90705875,44.3372842 7.70057762,29.7359473 3.90705875,24.6586453 C1.37804617,21.2737773 0.11353988,16.6820948 0.11353988,10.883598 Z" id="path-7"></path>
        <path d="M0.76488697,61.4073633 C0.76488697,60.1933053 3.61290874,54.3888644 8.21740277,53.3553571 C12.8218968,52.3218497 23.1083416,40.5146663 23.1083416,40.5146663 C23.1083416,40.5146663 25.0275214,33.2991654 27.2464929,29.3634376 C29.4654644,25.4277098 36.7680843,14.5119962 36.7680843,12.0456068 C36.7680843,9.5792173 33.7197514,5.66135477 34.2907355,3.48165987 C34.8617196,1.30196498 36.8663496,-1.04755068 37.2284487,2.20098655 C37.4698481,4.36667803 38.4156991,7.37535632 40.0660017,11.2270214 C33.0391199,33.8132396 29.525679,45.1063488 29.525679,45.1063488 C29.525679,45.1063488 17.6941536,57.5694868 11.7713445,61.5052145 C5.84853536,65.4409423 0.76488697,62.6214214 0.76488697,61.4073633 Z" id="path-9"></path>
        <path d="M0.189738956,7.4788183 C0.963365768,4.19904514 8.53054208,0.955808656 10.569179,0.955808656 C11.9282704,0.955808656 13.2401092,4.22340292 14.5046956,10.7585915 C11.7373534,13.3360229 8.78862958,14.6479322 5.65852405,14.6943192 C0.963365768,14.7638999 -0.583887856,10.7585915 0.189738956,7.4788183 Z" id="path-11"></path>
        <linearGradient x1="30.0427157%" y1="8.79811768%" x2="89.0432182%" y2="106.999483%" id="linearGradient-13">
            <stop stop-color="#AFFAFD" offset="0%"></stop>
            <stop stop-color="#86D2E7" offset="100%"></stop>
        </linearGradient>
    </defs>
    <g id="Page-1" stroke="none" stroke-width="1" fill="none" fill-rule="evenodd">
        <g id="img-data" transform="translate(2.000000, 2.000000)">
            <path d="M167.419157,149.063248 L324.044445,170.110402 C326.781268,170.478173 329.29804,168.557677 329.665812,165.820853 C329.695474,165.600123 329.710354,165.377658 329.710354,165.154943 L329.710354,47.3530675 C329.710354,44.6194744 327.515036,42.3925947 324.781722,42.3535768 L168.156434,40.117762 C165.395291,40.0783469 163.124991,42.2847429 163.085576,45.0458853 C163.085236,45.0696729 163.085066,45.0934626 163.085066,45.1172527 L163.085066,144.10779 C163.085066,146.61185 164.937404,148.729753 167.419157,149.063248 Z" id="Path-100-Copy" fill="#2791D9" opacity="0.306291853"></path>
            <path d="M189.323251,67.5954631 L322.494853,69.8913043" id="Path-106" stroke="#FFFFFF"></path>
            <path d="M224.860106,106.233343 L322.253995,113.985985" id="Path-107" stroke="#FFFFFF"></path>
            <path d="M271.918445,147.293951 L323.137996,152.869565" id="Path-108" stroke="#FFFFFF"></path>
            <path d="M167.020794,155.84746 L167.020794,93.633241 C167.020794,90.8718172 169.25937,88.633241 172.020794,88.633241 C172.065931,88.633241 172.111067,88.6338522 172.156187,88.6350745 L173.392002,88.668551 C176.099699,88.7418988 178.256609,90.9580276 178.256609,93.6667175 L178.256609,157.019608 L167.020794,155.84746 Z M188.011342,158.718456 L188.011342,110.677797 C188.011342,107.916373 190.249918,105.677797 193.011342,105.677797 C193.046964,105.677797 193.082585,105.678177 193.118199,105.678939 L194.354014,105.705356 C197.073175,105.763481 199.247157,107.984432 199.247157,110.704214 L199.247157,159.643427 L188.011342,158.718456 Z M279.844991,170.047785 L279.844991,123.140935 C279.844991,120.379511 282.083567,118.140935 284.844991,118.140935 C284.880613,118.140935 284.916234,118.141315 284.951848,118.142077 L286.187662,118.168494 C288.906823,118.226619 291.080805,120.44757 291.080805,123.167352 L291.080805,172.106565 L279.844991,170.047785 Z M212.281664,162.113553 L212.281664,79.2160539 C212.281664,76.4546301 214.52024,74.2160539 217.281664,74.2160539 C217.339772,74.2160539 217.397876,74.2170668 217.455949,74.2190923 L218.691763,74.2621953 C221.383717,74.3560858 223.517478,76.5655663 223.517478,79.2591569 L223.517478,163.622762 L212.281664,162.113553 Z M257.542533,166.98366 L257.542533,86.4315548 C257.542533,83.6701311 259.781109,81.4315548 262.542533,81.4315548 C262.600641,81.4315548 262.658745,81.4325678 262.716818,81.4345933 L263.952633,81.4776963 C266.644586,81.5715868 268.778348,83.7810672 268.778348,86.4746578 L268.778348,168.49287 L257.542533,166.98366 Z M235.89603,163.911023 L235.89603,135.591253 C235.89603,132.829829 238.134606,130.591253 240.89603,130.591253 C240.919972,130.591253 240.943912,130.591425 240.967851,130.591769 L242.203666,130.609522 C244.9368,130.648785 247.131845,132.87559 247.131845,135.609006 L247.131845,165.519338 L235.89603,163.911023 Z" id="Combined-Shape" fill="#17CCD5" fill-rule="nonzero"></path>
            <path d="M129.015595,385.438566 C130.161478,379.080828 153.909426,372.976141 166.111695,372.976141 C178.313964,372.976141 211.655484,364.050414 219.983925,368.717319 C228.312366,373.384224 212.770889,371.110785 193.33623,383.795989 C173.90157,396.481193 161.743858,396.481193 156.66153,394.402296 C151.579202,392.323399 127.869712,391.796305 129.015595,385.438566 Z" id="Path-118" fill="url(#linearGradient-1)" opacity="0.377139137"></path>
            <path d="M184.731569,158.117202 L184.731569,111.333751 C184.731569,108.572328 186.970145,106.333751 189.731569,106.333751 C189.767191,106.333751 189.802812,106.334132 189.838426,106.334893 L191.074241,106.36131 C193.793402,106.419436 195.967384,108.640386 195.967384,111.360168 L195.967384,159.643427 L184.731569,158.117202 Z M254.26276,167.639615 L254.26276,87.0875094 C254.26276,84.3260857 256.501336,82.0875094 259.26276,82.0875094 C259.320868,82.0875094 259.378972,82.0885224 259.437045,82.0905479 L260.67286,82.1336509 C263.364813,82.2275414 265.498575,84.4370218 265.498575,87.1306124 L265.498575,169.148825 L254.26276,167.639615 Z M232.616257,164.566978 L232.616257,136.247207 C232.616257,133.485784 234.854833,131.247207 237.616257,131.247207 C237.640198,131.247207 237.664139,131.247379 237.688078,131.247723 L238.923893,131.265476 C241.657027,131.30474 243.852072,133.531544 243.852072,136.264961 L243.852072,166.175292 L232.616257,164.566978 Z" id="Combined-Shape-Copy-3" fill="#173155" fill-rule="nonzero"></path>
            <path d="M59.2485227,164.8097 C85.780923,164.8097 107.289684,143.370994 107.289684,116.925011 C107.289684,103.802931 101.994252,91.9136368 93.4172117,83.264391 C84.7082531,74.4821164 72.615964,69.0403232 59.2485227,69.0403232 C53.672989,69.0403232 48.3192944,69.9870362 43.3404146,71.7279851 C39.136927,73.1978051 35.2006003,75.2337414 31.6234914,77.7440371" id="Oval-Copy-4" stroke="#FF0000" stroke-width="2" opacity="0.600000024" stroke-dasharray="6,6" transform="translate(69.456588, 116.925012) rotate(-145.000000) translate(-69.456588, -116.925012) "></path>
            <path d="M160.236495,155.408542 L316.861783,175.400405 C319.600983,175.75004 322.104978,173.812915 322.454613,171.073715 C322.481413,170.863756 322.494853,170.652307 322.494853,170.440645 L322.494853,59.0445202 C322.494853,56.3095337 320.297378,54.0820605 317.562643,54.0449797 L160.937355,51.9212671 C158.176185,51.8838279 155.907464,54.0918479 155.870025,56.8530178 C155.869718,56.8756131 155.869565,56.8982102 155.869565,56.9208076 L155.869565,150.448782 C155.869565,152.965446 157.740084,155.089897 160.236495,155.408542 Z" id="Path-100" stroke="#588B8B"></path>
            <path d="M157.344068,385.006574 C163.012488,380.631839 167.722526,380.566998 161.144684,386.919145 C158.078843,389.879793 155.827512,393.875432 154.4891,394.694855 C152.955914,395.633525 151.92947,392.979732 150.630682,391.814759 C147.827582,389.300464 143.662168,386.660121 146.159995,384.247997 C148.657823,381.835872 151.675648,389.381308 157.344068,385.006574 Z" id="Path-105-Copy" fill="#FCB9A5" transform="translate(154.869745, 388.401173) rotate(53.000000) translate(-154.869745, -388.401173) "></path>
            <path d="M135.660404,383.325936 C137.055711,381.602875 139.967782,387.00769 134.061538,390.420737 C132.502623,391.321589 131.782784,388.53071 130.203121,387.540641 C127.244472,385.68628 123.234606,382.386003 125.732434,379.973879 C128.230262,377.561755 134.34589,384.949225 135.660404,383.325936 Z" id="Path-105-Copy-2" fill="#FCB9A5" transform="translate(131.284316, 385.041250) rotate(53.000000) translate(-131.284316, -385.041250) "></path>
            <path d="M222.776938,190.093383 L222.776938,270.837455 C222.776938,273.177426 224.399815,275.204434 226.683106,275.716341 L316.160163,295.776829 C318.854698,296.380935 321.528775,294.686309 322.132881,291.991774 C322.213378,291.632731 322.253995,291.265899 322.253995,290.897942 L322.253995,202.45082 C322.253995,199.95372 320.41166,197.839458 317.938039,197.497833 L228.460981,185.140396 C225.725522,184.762609 223.201737,186.67388 222.82395,189.409339 C222.792645,189.636009 222.776938,189.864561 222.776938,190.093383 Z" id="Path-101" stroke="#2791D9"></path>
            <g id="Group" transform="translate(75.676549, 123.351607)">
                <path d="M5.48496127,0.534518946 L60.8651893,5.93141778 C63.4266442,6.18103598 65.380228,8.33425445 65.380228,10.9078435 L65.380228,102.782166 C65.380228,105.54359 63.1416518,107.782166 60.380228,107.782166 C60.0490131,107.782166 59.7186176,107.749255 59.3939109,107.683919 L4.01368285,96.5404617 C1.67926651,96.0707369 -6.05319322e-15,94.0199149 0,91.6387091 L1.77635684e-15,5.51094463 C1.43817996e-15,2.74952088 2.23857625,0.510944627 5,0.510944627 C5.16194014,0.510944627 5.32378466,0.518812007 5.48496127,0.534518946 Z" id="Path-102" stroke="#2791D9"></path>
                <ellipse id="Oval" fill="#86D2E7" cx="13.4470699" cy="20.3345936" rx="2.95179584" ry="3.27977316"></ellipse>
                <ellipse id="Oval-Copy" fill="#86D2E7" cx="13.4470699" cy="38.7013233" rx="2.95179584" ry="3.27977316"></ellipse>
                <ellipse id="Oval-Copy-2" fill="#86D2E7" cx="13.4470699" cy="57.0680529" rx="2.95179584" ry="3.27977316"></ellipse>
                <ellipse id="Oval-Copy-3" fill="#86D2E7" cx="13.4470699" cy="77.4026465" rx="2.95179584" ry="3.27977316"></ellipse>
                <path d="M20.9905482,21.6465028 L50.5085066,24.926276" id="Path-109" stroke-opacity="0.544270833" stroke="#86D2E7" stroke-width="5" stroke-linecap="round" stroke-linejoin="round"></path>
                <path d="M20.3345936,40.6691871 L50.5085066,44.9328922" id="Path-109-Copy" stroke-opacity="0.544270833" stroke="#86D2E7" stroke-width="5" stroke-linecap="round" stroke-linejoin="round"></path>
                <path d="M20.9905482,58.3799622 L50.5085066,63.2996219" id="Path-109-Copy-2" stroke-opacity="0.544270833" stroke="#86D2E7" stroke-width="5" stroke-linecap="round" stroke-linejoin="round"></path>
                <path d="M20.9905482,78.7145558 L50.1805293,84.2901701" id="Path-109-Copy-3" stroke-opacity="0.544270833" stroke="#86D2E7" stroke-width="5" stroke-linecap="round" stroke-linejoin="round"></path>
            </g>
            <ellipse id="Oval-Copy-4" fill="url(#linearGradient-2)" cx="90.9300567" cy="65.6275992" rx="37.389414" ry="40.6691871"></ellipse>
            <path d="M90.9300567,102.361059 C109.768291,102.361059 125.039698,86.2086095 125.039698,66.2835539" id="Oval" stroke="#588B8B"></path>
            <g id="Group-2" transform="translate(107.123394, 47.760378) rotate(2.000000) translate(-107.123394, -47.760378) translate(89.123394, 24.260378)" fill="#FFFFFF" fill-opacity="0.500311368">
                <path d="M-6.65134614e-13,0.743308424 C0.818031887,0.68516553 1.64324187,0.655638419 2.47479212,0.655638419 C2.66385399,0.655638419 1.30442262,0.652596445 1.49281916,0.655638419 C15.5167594,0.882078111 28.4025295,9.50891087 35.0809193,22.1152999 L-6.65134614e-13,46.9369766 L-1.13686838e-13,0.743308424 Z" id="Combined-Shape-Copy"></path>
            </g>
            <g id="Path-184-Clipped" transform="translate(118.000000, 156.000000)">
                <mask id="mask-4" fill="white">
                    <use xlink:href="#path-3"></use>
                </mask>
                <g id="path-3"></g>
                <path d="M17.0949119,-0.190610103 C18.354862,2.13727979 18.354862,4.11861942 17.0949119,5.75340878 C15.2049867,8.20559283 15.9822817,11.3621954 17.0949119,15.1065648 C18.2075421,18.8509341 15.3554688,23.0783584 15.3554688,25.7678614 C15.3554688,28.4573643 9.9375,29.2790698 9.9375,32.1395349 C9.9375,35 11.9764027,36.4470842 12.0025554,38 C12.0287081,39.5529158 12.0548609,40.9664451 12.0287081,42.090134 C12.0025554,43.2138229 5.66410255,41.2981004 5.66410255,39.9803535 C5.66410255,38.6626066 5.09179688,31.5810811 3.91796875,28 C2.74414063,24.4189189 0.358439425,18.2612078 0.358439425,13.3164147 C0.358439425,8.37162162 2.17183495,2.88633671 3.91796875,0.943168354 C5.66410255,-1 10.0559273,-0.672786177 11.0423177,-1 C11.6999113,-1.21814255 13.7174427,-0.948345916 17.0949119,-0.190610103 Z" id="Path-184" fill-opacity="0.440245697" fill="#FCB9A5" mask="url(#mask-4)"></path>
            </g>
            <g id="Path-181" transform="translate(116.000000, 191.000000)">
                <g id="Path-185-+-Path-186-Mask" transform="translate(3.000000, 40.000000)">
                    <mask id="mask-6" fill="white">
                        <use xlink:href="#path-5"></use>
                    </mask>
                    <use id="Mask" fill="#173155" xlink:href="#path-5"></use>
                    <path d="M31.8327929,10.4105849 C29,18.6947095 28.2918018,24.885658 29.7081982,28.983431 C31.8327929,35.13009 33.8708755,46.460027 33.8708755,50.934907 C33.8708755,53.918161 35.1522103,67.361191 37.7148798,91.263999 L33.8708755,147.775089 L38.2989949,147.775089 L41.2830528,88.634593 L38.2989949,15.4097873 L38.2989949,7 L31.8327929,10.4105849 Z" id="Path-185" fill-opacity="0.573426178" fill="#2476AD" mask="url(#mask-6)"></path>
                    <polygon id="Path-186" fill-opacity="0.573426178" fill="#2476AD" mask="url(#mask-6)" points="22.4081111 47 17.1047427 152.816375 14 153.260186 14 94.528632 18.2040556 49.09739"></polygon>
                </g>
                <g id="Mask" transform="translate(22.492317, 28.505026) rotate(2.000000) translate(-22.492317, -28.505026) translate(0.992317, 1.005026)" fill="#FF5252">
                    <path d="M0.11353988,10.883598 C4.48144611,6.59314049 7.33032198,4.77624436 8.6601675,5.43290961 C10.6549358,6.41790748 14.0423265,7.56728819 17.0120586,5.63596097 C19.9817907,3.70463375 18.2278808,1.97705407 22.0060257,1.14327103 C25.7841706,0.30948799 26.3991281,-0.362600983 28.6936882,1.98072536 C30.9882482,4.32405171 38.0666649,38.0199072 41.949865,42.3694203 C45.8330652,46.7189335 31.2124514,54.6275725 21.233156,54.1766037 C11.2538606,53.7256349 3.90705875,53.2131703 3.90705875,48.7752273 C3.90705875,44.3372842 7.70057762,29.7359473 3.90705875,24.6586453 C1.37804617,21.2737773 0.11353988,16.6820948 0.11353988,10.883598 Z" id="path-5"></path>
                </g>
                <g id="Clipped" transform="translate(1.000000, 1.000000)">
                    <mask id="mask-8" fill="white">
                        <use xlink:href="#path-7"></use>
                    </mask>
                    <g id="path-5"></g>
                    <path d="M13.0025554,4.55291577 C19.550852,3.21526278 22.8250003,3.62203024 22.8250003,5.77321814 C22.8250003,9 26.4154901,18.9464865 28.2404905,22 C30.0654908,25.0535135 30.3450676,34.7461953 29.5511925,38.9126835 C28.7573175,43.0791717 33.854587,47.5185825 33.854587,50.7689378 C33.854587,52.9358413 31.2210944,55.0966425 25.9541092,57.2513413 C16.9363686,56.332375 10.9454822,55.4121643 7.9814499,54.4907095 C3.53540149,53.1085271 1.35843942,52.9155881 1.35843942,49.362972 C1.35843942,45.8103558 3.41362371,39.5984991 3.41362371,37.2958712 C3.41362371,34.9932432 5.468808,28.7844643 3.41362371,27 C1.35843942,25.2155357 -2.22548993,18.2903987 -2.22548993,16.0506048 C-2.22548993,13.8108108 -0.696744865,6.99352052 1.35843942,5.77321814 C3.41362371,4.55291577 8.78795982,2.77229739 10,3.66260658 C10.8080268,4.25614604 11.8088786,4.55291577 13.0025554,4.55291577 Z" id="Path" fill-opacity="0.687726449" fill="#E03C3C" mask="url(#mask-8)"></path>
                </g>
            </g>
            <g id="Path-183" transform="translate(137.000000, 139.000000)">
                <g id="Mask" transform="translate(22.502114, 33.002989) rotate(2.000000) translate(-22.502114, -33.002989) translate(2.002114, 1.002989)" fill="#FFD5C2">
                    <path d="M0.76488697,61.4073633 C0.76488697,60.1933053 3.61290874,54.3888644 8.21740277,53.3553571 C12.8218968,52.3218497 23.1083416,40.5146663 23.1083416,40.5146663 C23.1083416,40.5146663 25.0275214,33.2991654 27.2464929,29.3634376 C29.4654644,25.4277098 36.7680843,14.5119962 36.7680843,12.0456068 C36.7680843,9.5792173 33.7197514,5.66135477 34.2907355,3.48165987 C34.8617196,1.30196498 36.8663496,-1.04755068 37.2284487,2.20098655 C37.4698481,4.36667803 38.4156991,7.37535632 40.0660017,11.2270214 C33.0391199,33.8132396 29.525679,45.1063488 29.525679,45.1063488 C29.525679,45.1063488 17.6941536,57.5694868 11.7713445,61.5052145 C5.84853536,65.4409423 0.76488697,62.6214214 0.76488697,61.4073633 Z" id="path-7"></path>
                </g>
                <g id="Clipped" transform="translate(2.000000, 1.000000)">
                    <mask id="mask-10" fill="white">
                        <use xlink:href="#path-9"></use>
                    </mask>
                    <g id="path-7"></g>
                    <path d="M11.3404948,58.1081081 C15.5974392,54.1323918 18.1551649,51.7787882 19.0136719,51.0472973 C20.3014323,49.9500609 26.3522135,46.6739991 26.3522135,44.7209302 C26.3522135,42.7678614 28.1647135,37.1396396 29.2395833,35.106982 C30.3144531,33.0743243 34.1855469,24.867278 34.1855469,24.4775579 C34.1855469,24.2177445 35.7903646,21.3918919 39,16 L40.1822917,17.9431684 L30.5429688,45.7050378 L11.3404948,61.3175676 L11.3404948,58.1081081 Z" id="Path" fill-opacity="0.440245697" fill="#FCB9A5" mask="url(#mask-10)"></path>
                </g>
            </g>
            <g id="Path-182" transform="translate(137.000000, 190.000000)">
                <g id="Mask" fill="#FF5252">
                    <path d="M0.189738956,7.4788183 C0.963365768,4.19904514 8.53054208,0.955808656 10.569179,0.955808656 C11.9282704,0.955808656 13.2401092,4.22340292 14.5046956,10.7585915 C11.7373534,13.3360229 8.78862958,14.6479322 5.65852405,14.6943192 C0.963365768,14.7638999 -0.583887856,10.7585915 0.189738956,7.4788183 Z" id="path-9"></path>
                </g>
                <g id="Clipped">
                    <mask id="mask-12" fill="white">
                        <use xlink:href="#path-11"></use>
                    </mask>
                    <g id="path-9"></g>
                    <path d="M-0.474543233,8.38336933 C1.02045114,8.58251114 2.78618016,9.16633315 4.82264382,10.1348353 C7.87733931,11.5875887 9.06265756,9.91783951 11.035005,8.83867681 C13.0073524,7.75951411 14.8403978,7.71796382 14.8403978,8.73629597 C14.8403978,9.75462811 15.4381163,10.3199338 14.4834831,11.3604744 C13.52885,12.4010149 8.90934395,15.3511195 6.46532832,14.5630496 C4.02131269,13.7749798 1.39598495,14.8150809 0.465328318,11.9457554 C-0.155109439,10.0328718 -0.468399956,8.84540974 -0.474543233,8.38336933 Z" id="Path" fill-opacity="0.687726449" fill="#E03C3C" mask="url(#mask-12)"></path>
                </g>
            </g>
            <path d="M129.415791,165.927364 C132.63579,166.70248 141.422013,164.237036 139.750443,157.739962 C138.078873,151.242887 132.160912,154.248357 128.013427,150.857826 C123.865942,147.467294 114.108066,152.455788 110.404228,161.019735 C106.70039,169.583682 110.404228,174.831319 101.392539,182.702774 C92.3808496,190.57423 108.083582,200.503092 99.4355648,202.079939 C90.7875475,203.656786 92.3742308,216.775878 100.50021,216.775878 C108.626189,216.775878 107.292928,224.856826 116.664623,223.737645 C126.036319,222.618464 124.432305,228.869401 133.579156,223.737645 C142.726008,218.605888 138.831217,209.869663 137.948527,202.079939 C137.065837,194.290215 130.730494,187.433627 130.730494,181.390865 C130.730494,175.348103 126.195791,165.152248 129.415791,165.927364 Z" id="Path-103" fill="#000000" transform="translate(116.799222, 187.787191) rotate(2.000000) translate(-116.799222, -187.787191) "></path>
            <path d="M72.7657505,64.9716446 L32.2169926,64.9716446" id="Path-111" stroke="#588B8B"></path>
            <path d="M227.36862,195.959399 L227.36862,266.310158 C227.36862,268.637395 228.974258,270.65692 231.241605,271.181486 L312.42657,289.964187 C315.11693,290.586621 317.80248,288.910235 318.424913,286.219875 C318.510417,285.8503 318.553585,285.472196 318.553585,285.092859 L318.553585,206.633421 C318.553585,204.123938 316.693434,202.00321 314.205365,201.676085 L233.0204,191.002063 C230.282539,190.642095 227.771252,192.569758 227.411284,195.307619 C227.382872,195.523717 227.36862,195.741442 227.36862,195.959399 Z" id="Path-114" fill="url(#linearGradient-13)" opacity="0.69577753"></path>
            <polyline id="Path-112" stroke="#588B8B" points="106.893328 36.7655955 106.893328 11.1833648 177.610874 11.1833648"></polyline>
            <polyline id="Path-113-Copy" stroke-opacity="0.193755661" stroke="#004DB7" stroke-width="2" stroke-linecap="round" stroke-linejoin="round" points="224.966442 240.767486 240.426217 256.802657 266.697712 200.572175 295.370104 250.262977 316.850056 229.945054 319.765979 235.868395"></polyline>
            <path d="M225.735816,200.134835 L291.046333,209.27904" id="Path-115" stroke="#86D2E7"></path>
            <path d="M225.511773,226.545976 L242.220228,229.130637" id="Path-116" stroke="#86D2E7"></path>
            <path d="M225.455283,259.79017 L273.821813,268.31758" id="Path-117" stroke="#86D2E7"></path>
            <path d="M0.664540423,63.4997698 L20.8922844,63.4997698" id="Path-119" stroke="#2791D9" stroke-width="4" stroke-linecap="round" stroke-linejoin="round"></path>
            <polyline id="Path-113" stroke="#2791D9" stroke-width="2" stroke-linecap="round" stroke-linejoin="round" points="207.034026 227.342933 232.554761 258.296644 258.826257 202.066163 287.498649 251.756965 308.978601 231.439041 336.802864 264.200236"></polyline>
            <path d="M185,0.529205604 L232.150038,0.529205604" id="Path-119-Copy-3" stroke="#2791D9" stroke-width="4" stroke-linecap="round" stroke-linejoin="round"></path>
            <path d="M0.664540423,73.4195507 L20.8922844,73.4195507" id="Path-119-Copy" stroke="#2791D9" stroke-width="4" stroke-linecap="round" stroke-linejoin="round"></path>
            <path d="M185,10.5292056 L232.150038,10.5292056" id="Path-119-Copy-4" stroke="#2791D9" stroke-width="4" stroke-linecap="round" stroke-linejoin="round"></path>
            <path d="M0.664540423,83.3393317 L20.8922844,83.3393317" id="Path-119-Copy-2" stroke="#2791D9" stroke-width="4" stroke-linecap="round" stroke-linejoin="round"></path>
            <path d="M185,21.5292056 L232.150038,21.5292056" id="Path-119-Copy-5" stroke="#2791D9" stroke-width="4" stroke-linecap="round" stroke-linejoin="round"></path>
            <circle id="Oval-Copy-4" fill="#FF5252" cx="29.1512287" cy="315.151229" r="11.1512287"></circle>
            <path d="M60.4470699,296.89414 C67.8736816,296.89414 73.8941399,290.873682 73.8941399,283.44707 C73.8941399,279.762102 72.4119102,276.423328 70.0111343,273.99443 C67.5734335,271.528175 64.1887139,270 60.4470699,270 C53.0204583,270 47,276.020458 47,283.44707 C47,290.873682 53.0204583,296.89414 60.4470699,296.89414 Z" id="Oval-Copy-4" stroke="#004DB7" stroke-width="2" opacity="0.600000024" stroke-dasharray="6,6"></path>
            <circle id="Oval-Copy-4" fill="#2791D9" cx="62.5274102" cy="358.52741" r="8.52741021"></circle>
            <circle id="Oval-Copy-6" fill="#FF5252" cx="188.667297" cy="272.909263" r="3.27977316"></circle>
            <circle id="Oval-Copy-7" fill="#FF5252" cx="348.720227" cy="52.5085066" r="3.27977316"></circle>
            <path d="M335.929112,34.7977316 C342.993449,34.7977316 348.720227,29.0709542 348.720227,22.0066163 C348.720227,18.5014031 347.310301,15.3254957 345.026636,13.0150807 C342.707848,10.6691306 339.488236,9.21550095 335.929112,9.21550095 C328.864774,9.21550095 323.137996,14.9422783 323.137996,22.0066163 C323.137996,29.0709542 328.864774,34.7977316 335.929112,34.7977316 Z" id="Oval-Copy-4" stroke="#FF5252" stroke-width="2" opacity="0.600000024" stroke-dasharray="6,6"></path>
            <circle id="Oval-Copy-4" fill="#173155" cx="204.082231" cy="306.690926" r="8.19943289"></circle>
        </g>
    </g>
</svg>