<?xml version="1.0" encoding="UTF-8"?>
<svg width="470px" height="351px" viewBox="0 0 470 351" version="1.1" xmlns="http://www.w3.org/2000/svg" xmlns:xlink="http://www.w3.org/1999/xlink">
    <!-- Generator: Sketch 52.5 (67469) - http://www.bohemiancoding.com/sketch -->
    <title>Group 3</title>
    <desc>Created with Sketch.</desc>
    <defs>
        <linearGradient x1="12.0408514%" y1="-6.90290552%" x2="89.0432182%" y2="106.999483%" id="linearGradient-1">
            <stop stop-color="#17CCD5" offset="0%"></stop>
            <stop stop-color="#00C8FF" offset="100%"></stop>
        </linearGradient>
        <path d="M48.2609101,1.00199493 C34.0284578,4.25856266 16.1900096,18.5262438 12.305393,27.8892303 C8.42077633,37.2522169 6.2238436,44.9594593 2.10569859,51.2769636 C-2.01244641,57.5944679 1.43847472,63.3070135 7.87031663,63.3070135 C14.3021585,63.3070135 22.7003485,65.3331116 27.03436,67.1763354 C31.3683716,69.0195592 49.9279886,66.6552134 48.2609101,56.9835495 C46.5938317,47.3118856 47.5475693,27.5704703 50.4509744,19.1610318 C53.3543795,10.7515933 62.4933625,-2.25457281 48.2609101,1.00199493 Z" id="path-2"></path>
        <path d="M0.786770245,0 C0.786770245,9.52090946 0.786770245,15.4238733 0.786770245,17.7088916 C0.786770245,21.136419 1.93952535,26.8489647 9.77598069,26.8489647 C15.0002843,26.8489647 18.593426,26.4681283 20.5554058,25.7064555 L20.5554058,0 L0.786770245,0 Z" id="path-4"></path>
        <path d="M9.84384335,1.6230782 C9.12623063,9.56995282 8.03289974,13.7338083 6.56385068,14.1146447 C4.36027709,14.6858993 2.09814942,14.6540804 0.693892749,15.7965895 C-0.710363918,16.9390987 1.58945009,16.9390987 3.11033307,18.6528624 C4.63121605,20.3666261 6.22463491,24.365408 13.3829305,21.5091352 C20.541226,18.6528624 17.5838482,16.9390987 20.1192853,16.9390987 C22.6547224,16.9390987 22.6286474,15.1995883 20.1192853,13.6327714 C18.4463772,12.5882268 18.1276885,8.13361684 19.1632191,0.268941628 L9.84384335,1.6230782 Z" id="path-6"></path>
        <path d="M23.1033175,0.96348642 C19.8797471,15.4352688 17.2263784,24.1945055 15.1432114,27.2411965 C12.018461,31.8112331 4.97479509,39.2057236 1.69550766,39.2375424 C-1.58377977,39.2693613 3.23908782,42.748473 8.36983611,39.808797 C13.5005844,36.869121 18.5663378,35.2387605 20.8348277,31.8112331 C23.1033175,28.3837057 34.2515047,6.35858593 30.8087303,3.24850469 C28.5135473,1.1751172 25.9450764,0.413444439 23.1033175,0.96348642 Z" id="path-8"></path>
        <path d="M13.457048,54.3786562 L9.94497184,29.8147097 C3.31499061,29.4851907 1.91915558e-13,28.6645738 1.91846539e-13,27.3528591 C1.91846539e-13,25.385287 6.98402057,2.96574507 9.04909967,2.3944905 C11.1141788,1.82323593 20.825934,0.712545676 24.6119123,0.712545676 C28.3978907,0.712545676 23.3862945,8.67829074 29.6897557,6.96452704 C35.9932168,5.25076334 35.5586286,0.712545676 39.8070275,0.712545676 C42.6392933,0.712545676 47.2975809,1.27319395 53.78189,2.3944905 C56.0524733,7.607803 57.493422,11.7019845 58.1047363,14.677035 C59.0217076,19.1396107 58.563902,29.7819992 56.3611256,32.3061403 C54.1583491,34.8302815 49.786054,30.9572189 47.5485355,30.9572189 C47.5485355,32.2548261 46.6528275,37.6825625 42.4955812,46.2672412 C41.5289716,48.2632818 39.0585671,51.5383414 35.0843678,56.0924199 L13.457048,54.3786562 Z" id="path-10"></path>
        <linearGradient x1="50%" y1="0%" x2="50%" y2="100%" id="linearGradient-12">
            <stop stop-color="#0069B1" offset="0%"></stop>
            <stop stop-color="#031D41" offset="100%"></stop>
        </linearGradient>
        <linearGradient x1="30.0427157%" y1="8.79811768%" x2="89.0432182%" y2="106.999483%" id="linearGradient-13">
            <stop stop-color="#17CCD5" offset="0%"></stop>
            <stop stop-color="#00C8FF" offset="100%"></stop>
        </linearGradient>
        <path d="M15.8380437,0.655298417 C19.2974018,6.36784409 21.9837656,10.3666261 23.8971351,12.6516443 C26.7671894,16.0791717 27.7406234,22.9342266 18.497851,26.361754 C12.3360027,28.6467722 6.22081301,24.9762796 0.152282009,15.350276 L15.8380437,0.655298417 Z" id="path-14"></path>
        <path d="M9.4405609,0.926918392 C17.3865474,17.683719 23.1638295,27.0142103 26.7724073,28.9183922 C32.1852738,31.774665 40.7086328,32.3459196 43.4691948,30.6321559 C46.2297567,28.9183922 49.3615956,32.599728 43.4691948,35.773447 C37.5767939,38.947166 23.3478162,38.0584653 16.3941885,31.774665 C9.4405609,25.4908648 0.0966687023,6.411762 0.0966687023,3.66934019 C0.0966687023,1.84105899 3.21129944,0.926918392 9.4405609,0.926918392 Z" id="path-16"></path>
        <path d="M30.7044536,2.09172859 C33.6571085,4.58038619 27.7831691,16.7681941 24.2934463,17.5099576 C20.8037235,18.2517211 13.3875922,29.7010316 10.0754268,30.405054 C7.86731648,30.8744024 4.55904905,26.5345584 0.150624457,17.3855222 C3.12085675,14.2476664 6.99508919,10.7715984 11.7733218,6.95731824 C18.9406707,1.23589802 27.7517986,-0.396929012 30.7044536,2.09172859 Z" id="path-18"></path>
        <ellipse id="path-20" cx="16.8520097" cy="16.5663825" rx="16.8520097" ry="16.5663825"></ellipse>
        <linearGradient x1="50%" y1="0%" x2="50%" y2="100%" id="linearGradient-22">
            <stop stop-color="#FFD4B3" offset="0%"></stop>
            <stop stop-color="#FFDCC2" offset="100%"></stop>
        </linearGradient>
        <path d="M0.517753432,1.06968221 C1.21551634,8.86921124 1.21551634,13.4849482 0.517753432,14.9168929 C-0.528890927,17.0648101 -0.781581272,25.6068014 7.72313188,25.3345877 C13.3929406,25.1531119 17.7536269,23.8020545 20.8051908,21.2814155 L20.8051908,2.62406589 C17.0315522,3.01405306 14.4601459,2.49592517 13.0909719,1.06968221 C11.721798,-0.356560738 7.53072513,-0.356560738 0.517753432,1.06968221 Z" id="path-23"></path>
        <filter x="-12.4%" y="-15.1%" width="124.8%" height="130.2%" filterUnits="objectBoundingBox" id="filter-25">
            <feGaussianBlur stdDeviation="2" in="SourceGraphic"></feGaussianBlur>
        </filter>
    </defs>
    <g id="Page-1" stroke="none" stroke-width="1" fill="none" fill-rule="evenodd">
        <g id="Build-your-team-Copy-2" transform="translate(-485.000000, -337.000000)">
            <g id="Group-3" transform="translate(486.000000, 337.000000)">
                <path d="M129.674787,296.277393 C210.832779,314.693357 282.34149,321.616322 344.20092,317.046285 C406.060351,312.476248 428.92212,294.185496 412.786228,262.174028 C335.494499,244.496565 272.389109,238.604207 223.470058,244.496955 C174.551007,250.389703 143.285916,267.649848 129.674787,296.277393 Z" id="Path-40" fill="url(#linearGradient-1)" fill-rule="nonzero"></path>
                <path d="M384.863818,274.056359 C379.865874,275.003312 372.145288,271.295454 368.412126,269.048706 C364.678964,266.801959 362.699872,264.51694 358.236635,262.803177 C353.773398,261.089413 350.674746,257.725523 355.395231,258.264959 C360.115717,258.804395 364.908211,261.660668 368.949571,262.231922 C372.99093,262.803177 382.687483,266.010116 389.315387,265.088195 C395.943292,264.166274 389.861763,273.109406 384.863818,274.056359 Z" id="Path-26" fill="#FFD5C2" fill-rule="nonzero"></path>
                <g id="Path-177" transform="translate(359.000000, 268.000000)">
                    <mask id="mask-3" fill="white">
                        <use xlink:href="#path-2"></use>
                    </mask>
                    <use id="Mask" fill="#FF5252" fill-rule="nonzero" xlink:href="#path-2"></use>
                    <path d="M39.0057588,-8.98458317 C29.4921428,-4.01567187 24.7353348,1.67738739 24.7353348,8.09459459 C24.7353348,17.7204054 24.1231506,26.9877592 22.2964382,30.6486663 C20.4697257,34.3095734 16.5709155,46.7019384 14.518614,51.3509692 C12.4663125,56 3.33655966,62.412527 6.43792594,62.412527 C9.53929223,62.412527 18.6430132,62.412527 20.4697257,62.412527 C22.2964382,62.412527 44.649179,49.8672084 46.4099844,43.9188445 C48.1707898,37.9704806 51.5407381,29.7894535 51.5407381,18.3391112 C51.5407381,6.8887689 48.5320243,-1.77711159 46.4099844,-2.61828552 C44.9952912,-3.17906815 42.527216,-5.30116736 39.0057588,-8.98458317 Z" fill-opacity="0.687726449" fill="#E03C3C" fill-rule="nonzero" mask="url(#mask-3)"></path>
                </g>
                <path d="M391.469165,252.325428 C391.283871,258.009413 390.363362,261.683722 388.707638,263.348356 C386.224052,265.845306 385.946112,268.489647 388.707638,269.274637 C391.469165,270.059628 399.103131,267.628115 401.173829,268.451376 C402.554294,269.000217 401.300734,262.919592 397.413149,250.209501 L391.469165,252.325428 Z" id="Path-20" fill="#FFD5C2" fill-rule="nonzero"></path>
                <g id="Path-176" transform="translate(380.000000, 227.000000)">
                    <mask id="mask-5" fill="white">
                        <use xlink:href="#path-4"></use>
                    </mask>
                    <use id="Mask" fill="#FFD5C2" fill-rule="nonzero" xlink:href="#path-4"></use>
                    <path d="M5.80851265,0.90712743 C5.80851265,2.25793112 4.72162827,6.31209891 7.86081414,8.7561675 C11,11.2002361 8.53022596,17.9465501 11,20.2094595 C13.469774,22.4723689 15.7064226,23.422484 13.3532113,25.211242 C11.7844038,26.4037473 15.1544289,26.2342342 23.4632868,24.7027027 C22.2076462,14.6183153 21.579826,9.24237523 21.579826,8.5748825 C21.579826,7.90738978 20.1785909,4.51490783 17.3761207,-1.60256333 C9.664382,-0.829971949 5.80851265,0.0065916368 5.80851265,0.90712743 Z" fill-opacity="0.440245697" fill="#FCB9A5" fill-rule="nonzero" mask="url(#mask-5)"></path>
                </g>
                <path d="M276.853015,208.997894 C272.44859,228.0185 268.989375,239.052149 266.475369,242.09884 C262.704361,246.668877 256.80247,254.095186 257.734122,255.80895 C258.665774,257.522714 278.898512,242.09884 283.847748,223.9869 C288.796984,205.87496 290.390003,207.483436 286.217589,203.856603 C283.435979,201.438714 280.314455,203.152478 276.853015,208.997894 Z" id="Path-31" fill="#FFD5C2" fill-rule="nonzero"></path>
                <g id="Path-171" transform="translate(290.000000, 183.000000)">
                    <g>
                        <mask id="mask-7" fill="white">
                            <use xlink:href="#path-6"></use>
                        </mask>
                        <use id="Mask" fill="#FFD5C2" fill-rule="nonzero" xlink:href="#path-6"></use>
                        <path d="M9.69835438,8.21553572 C12.9540088,10.5437947 15.3181966,11.8773549 16.790918,12.2162162 C18.2636393,12.5550776 19.6666667,12.8163388 21,13 C19.6666667,10.8396858 19,9.60968476 19,9.3099969 C19,9.01030905 19,7.57364341 19,5 L9.69835438,8.21553572 Z" fill-opacity="0.440245697" fill="#FCB9A5" fill-rule="nonzero" mask="url(#mask-7)"></path>
                    </g>
                </g>
                <g id="Path-175" transform="translate(297.000000, 218.000000)">
                    <mask id="mask-9" fill="white">
                        <use xlink:href="#path-8"></use>
                    </mask>
                    <use id="Mask" fill="#FFD5C2" fill-rule="nonzero" xlink:href="#path-8"></use>
                    <path d="M23.9394891,10.3508037 C22.6011269,16.126907 21.1252211,19.9209624 19.5117717,21.7329697 C17.0915977,24.4509807 13.0915977,30.8777035 12.0915977,32.0685555 C11.0915977,33.2594075 5.01661515,33.1082934 3.42847007,35.3631428 C2.36970669,36.8663758 1.56021666,39.0153038 1,41.8099268 L11.0915977,37.6179923 L21.2773357,32.0685555 L32.7079299,9 L23.9394891,10.3508037 Z" fill-opacity="0.440245697" fill="#FCB9A5" fill-rule="nonzero" mask="url(#mask-9)"></path>
                </g>
                <g id="Path-172" transform="translate(271.000000, 197.000000)">
                    <mask id="mask-11" fill="white">
                        <use xlink:href="#path-10"></use>
                    </mask>
                    <use id="Mask" fill="#2791D9" fill-rule="nonzero" xlink:href="#path-10"></use>
                    <path d="M10.1047499,10.029983 C10.1047499,22.7683751 10.1047499,30.1776912 10.1047499,32.2579311 C10.1047499,35.378291 3.54411662,32.0800856 5.73099439,28 C7.91787216,23.9199144 7.22437266,20.8457777 7.22437266,18.531416 C7.22437266,16.9885082 8.18449842,14.1546972 10.1047499,10.029983 Z" id="Path-174" fill-opacity="0.573426178" fill="#2476AD" fill-rule="nonzero" mask="url(#mask-11)"></path>
                    <path d="M39,2.29947163 C46.0797656,4.26324181 50.0056229,6.20671571 50.777572,8.12989334 C51.9354957,11.0146598 54.6594269,12.4376703 53.2974613,16.5748895 C51.9354957,20.7121088 55.8173505,21.4436164 53.2974613,24.9045912 C50.777572,28.365566 49.4684438,32.6668474 50.777572,33.4032815 C52.0867003,34.1397156 58.7502416,32.5074143 58.7502416,30.9447639 C58.7502416,29.3821135 60,20.8732261 60,17.2017311 C60,13.530236 55.5998183,5.26668778 54.4486398,3.88441612 C53.2974613,2.50214445 51.3714761,1.01568456 47.185738,1.00018069 C44.395246,0.989844772 41.3333333,1.42294175 38,2.29947163 L39,2.29947163 Z" id="Path-173" fill-opacity="0.573426178" fill="#2476AD" fill-rule="nonzero" mask="url(#mask-11)"></path>
                    <path d="M46.4605266,12.7125457 C48.336468,21.8475172 48.6859173,29.3290259 47.5088746,35.1570718 C46.331832,40.9851177 42.3383069,47.7106009 35.5282992,55.3335214 C29.1773314,53.4730611 26.0018475,52.542831 26.0018475,52.542831 C26.0018475,52.542831 25.7269477,47.5104024 31.8836501,45.3215473 C38.0403526,43.1326921 38.0403526,39.0025041 38.0403526,34.5647888 C38.0403526,30.1270735 40.7269617,26.5127464 42.3836571,23.6576959 C43.4881207,21.7543289 44.8470773,18.1059455 46.4605266,12.7125457 Z" fill-opacity="0.573426178" fill="#2476AD" fill-rule="nonzero" mask="url(#mask-11)"></path>
                </g>
                <path d="M289.159113,163.378806 C289.856876,171.178335 289.856876,175.794072 289.159113,177.226017 C288.112469,179.373934 287.859779,187.915925 296.364492,187.643712 C302.0343,187.462236 306.394987,186.111179 309.446551,183.59054 L309.446551,164.93319 C305.672912,165.323177 303.101506,164.805049 301.732332,163.378806 C300.363158,161.952563 296.172085,161.952563 289.159113,163.378806 Z" id="Path-28" fill="#FFD5C2" fill-rule="nonzero"></path>
                <path d="M295.043284,180.94845 L295.043284,185.235716 C295.043284,185.235716 292.187012,183.804723 290.473248,180.94845 C288.759484,178.092178 283.618193,170.665868 286.474466,167.238341 C289.330739,163.810813 284.189448,158.669522 292.758266,153.528231 C301.327085,148.38694 308.182139,154.099486 313.894685,154.099486 C319.607231,154.099486 316.750958,163.810813 316.179703,164.953322 C315.608449,166.095832 308.182139,165.524577 304.183358,164.953322 C300.184576,164.382068 295.043284,164.382068 295.043284,166.667086 L295.043284,180.94845 Z" id="Fill-23" fill="#000000" transform="translate(301.512826, 168.309088) scale(-1, 1) translate(-301.512826, -168.309088) "></path>
                <path d="M45.1291108,270.804775 L45.1291108,15.1203966 C45.1291108,6.83612539 51.8448396,0.120396637 60.1291108,0.120396637 L321.184806,0.120396637 C329.469077,0.120396637 336.184806,6.83612539 336.184806,15.1203966 L336.184806,166.836444" id="Path-38-Copy" fill="#17CCD5" fill-rule="nonzero" opacity="0.180292039"></path>
                <path d="M311.01391,273.21983 L325.984058,286.948833 C327.400473,288.247816 329.540497,288.355863 331.080544,287.206149 L358.65043,266.623992 C360.420673,265.302426 360.784398,262.79602 359.462832,261.025777 C359.365442,260.895323 359.260179,260.770936 359.14763,260.653311 L346.056725,246.971936 C344.693696,245.547427 342.495972,245.328533 340.878745,246.456206 L311.429616,266.990735 C309.617513,268.254293 309.172829,270.747609 310.436387,272.559711 C310.604115,272.800255 310.797787,273.021625 311.01391,273.21983 Z" id="Path-25" fill="url(#linearGradient-12)" fill-rule="nonzero"></path>
                <path d="" id="Path-35" stroke="#979797" fill-rule="nonzero"></path>
                <path d="M53,276.684378 L53,21 C53,12.7157288 59.7157288,6 68,6 L329.055695,6 C337.339966,6 344.055695,12.7157288 344.055695,21 L344.055695,172.716047" id="Path-38" stroke="#588B8B" stroke-width="2" fill="#FFFFFF" fill-rule="nonzero"></path>
                <path d="M53.051388,34.033407 L344.20092,34.033407" id="Path-39" stroke="#588B8B" stroke-width="2" fill-rule="nonzero"></path>
                <circle id="Oval" fill="#FF0000" fill-rule="nonzero" cx="65.9799026" cy="20.2795371" r="4.85566382"></circle>
                <circle id="Oval-Copy" fill="#FFAB29" fill-rule="nonzero" cx="81.9750305" cy="20.2795371" r="4.85566382"></circle>
                <circle id="Oval-Copy-2" fill="#C0DDFF" fill-rule="nonzero" cx="97.9701583" cy="20.2795371" r="4.85566382"></circle>
                <circle id="Oval" fill="url(#linearGradient-13)" fill-rule="nonzero" cx="435.010353" cy="133.387942" r="21.9933009"></circle>
                <path d="M119.367253,216.097862 C119.367253,222.191244 118.445038,225.564226 116.600607,226.216809 C113.833961,227.195682 120.209559,227.284126 123.26838,227.284126 C126.327201,227.284126 131.885506,225.80919 129.575007,225.237935 C127.264508,224.666681 125.587516,218.949565 125.587516,216.666832 C125.587516,215.145009 123.514095,214.955353 119.367253,216.097862 Z" id="Path-36" fill="#FFD5C2" fill-rule="nonzero"></path>
                <g id="Path-179" transform="translate(110.000000, 193.000000)">
                    <mask id="mask-15" fill="white">
                        <use xlink:href="#path-14"></use>
                    </mask>
                    <use id="Mask" fill="#FFD5C2" fill-rule="nonzero" xlink:href="#path-14"></use>
                    <path d="M11.670674,7.35135135 C11.6912262,10.1267216 12.5882448,12.3529321 14.3617299,14.029983 C16.1352149,15.7070338 18.3402964,17.7693909 20.9769745,20.2170543 C22.1099155,23.0335001 22.1099155,24.9498874 20.9769745,25.9662162 C19.8440336,26.982545 16.7419334,26.982545 11.670674,25.9662162 L1.17619847,10.1306375 L11.670674,7.35135135 Z" fill-opacity="0.440245697" fill="#FCB9A5" fill-rule="nonzero" mask="url(#mask-15)"></path>
                </g>
                <path d="M118.400732,202.541563 C121.964878,202.308941 124.248041,201.060617 125.250221,198.79659 C126.753491,195.400549 128.687409,197.020151 129.849372,192.450114 C131.011335,187.880078 122.800539,182.801462 118.400732,184.623078 C114.000925,186.444695 105.242309,188.101843 100.598326,189.77683 C95.9543439,191.451818 94.4757902,200.027594 100.598326,202.883867 C106.720863,205.740139 96.1613414,210.942432 104.083299,213.17571 C112.005257,215.408988 114.002408,220.019219 117.900935,220.019219 C121.799462,220.019219 129.452854,219.724768 127.222224,217.394182 C126.104254,216.226115 121.161582,215.065634 118.400732,210.057559 C116.560165,206.718843 116.560165,204.213511 118.400732,202.541563 Z" id="Path-34" fill="#000000" fill-rule="nonzero"></path>
                <polygon id="Path-41-Copy" fill="url(#linearGradient-13)" fill-rule="nonzero" opacity="0.488374256" points="71.406821 52.5554202 71.406821 142.010432 187.505527 142.010432 187.505527 52.5554202"></polygon>
                <path d="M103.006355,239.918714 C102.943206,234.575255 103.350664,231.584633 104.228731,230.946847 C105.54583,229.990169 114.299656,226.208605 116.418038,226.208605 C118.53642,226.208605 132.618493,223.923586 137.394325,225.63735 C142.170157,227.351114 140.601176,228.700035 139.555333,238.23677 C132.715083,239.358066 120.532091,239.918714 103.006355,239.918714 Z" id="Path-37" fill="#86D2E7" fill-rule="nonzero"></path>
                <path d="M102.223315,240.918714 C102.160165,235.575255 102.567623,232.584633 103.44569,231.946847 C104.762789,230.990169 113.516615,227.208605 115.634997,227.208605 C117.753379,227.208605 131.835452,224.923586 136.611284,226.63735 C141.387116,228.351114 139.818135,229.700035 138.772292,239.23677 C131.932042,240.358066 119.74905,240.918714 102.223315,240.918714 Z" id="Path-37-Copy" fill-opacity="0.222231658" fill="#17CCD5" fill-rule="nonzero"></path>
                <path d="M152.451474,286.769793 C149.684829,280.676411 148.301507,274.963865 148.301507,269.632156 C148.301507,261.634592 149.458496,236.076477 136.978521,236.076477 C124.498545,236.076477 105.333039,240.276183 99.6731284,238.244974 C94.0132182,236.213764 90.4013852,259.707092 99.6731284,274.773447 C108.944872,289.839802 90.4013852,294.250215 99.6731284,303.336175 C108.944872,312.422136 134.677204,313.219412 145.335435,303.336175 C152.440923,296.747351 154.812936,291.225223 152.451474,286.769793 Z" id="Path-32" fill="#173155" fill-rule="nonzero"></path>
                <circle id="Oval" fill="#FF5252" fill-rule="nonzero" cx="400.735079" cy="184.800853" r="6.56942753"></circle>
                <circle id="Oval" fill="#173155" fill-rule="nonzero" cx="459.003045" cy="178.517052" r="9.99695493"></circle>
                <circle id="Oval" fill="url(#linearGradient-13)" fill-rule="nonzero" cx="87.9732034" cy="330.204806" r="10.8538368"></circle>
                <circle id="Oval" fill="#173155" fill-rule="nonzero" cx="53.6979294" cy="343.323995" r="7.42630938"></circle>
                <polyline id="Path-41" stroke="#004DB7" fill-rule="nonzero" points="71.406821 52.5554202 71.406821 142.010432 187.505527 142.010432"></polyline>
                <polyline id="Path-42" stroke="#FFFFFF" stroke-width="2" opacity="0.6" stroke-linecap="round" stroke-linejoin="round" fill-rule="nonzero" points="63.409257 75.4056029 85.0349894 89.1157125 124.66938 68.5505481 135.846944 106.824604 154.155942 87.719395 160.918128 100.67105 186.852625 100.67105"></polyline>
                <polyline id="Path-42-Copy" stroke="#588B8B" stroke-width="2" stroke-linecap="round" stroke-linejoin="round" fill-rule="nonzero" points="59.410475 89.1157125 81.0362074 102.825822 120.670598 82.2606577 131.848162 120.534714 150.15716 101.429505 156.919346 114.38116 182.853843 114.38116"></polyline>
                <path d="M206.893741,209.079172 L206.893741,73.6798404 C206.893741,65.3955692 213.609469,58.6798404 221.893741,58.6798404 L303.617373,58.6798404 C311.901644,58.6798404 318.617373,65.3955692 318.617373,73.6798404 L318.617373,141.099878" id="Path-43" stroke="#588B8B" stroke-width="2" stroke-linecap="round" stroke-linejoin="round" fill-rule="nonzero"></path>
                <polygon id="Path-50" fill="url(#linearGradient-12)" fill-rule="nonzero" points="194.549958 280.485993 168.057493 279.211797 194.549958 263.921452 219.566963 265.573904"></polygon>
                <path d="M194.796728,280.485446 L199.012352,252.194512 C199.107299,251.557328 199.503361,251.004891 200.076345,250.710429 L220.592821,240.166834 C221.575251,239.661955 222.780955,240.049086 223.285834,241.031517 C223.487411,241.423759 223.553691,241.871628 223.474364,242.305441 L219.172115,265.832745 L194.796728,280.485446 Z" id="Path-49" fill="url(#linearGradient-12)" fill-rule="nonzero"></path>
                <g id="Path-180" transform="translate(143.000000, 239.000000)">
                    <mask id="mask-17" fill="white">
                        <use xlink:href="#path-16"></use>
                    </mask>
                    <use id="Mask" fill="#FFD5C2" fill-rule="nonzero" xlink:href="#path-16"></use>
                    <path d="M6.08372861,6.16342905 C9.36124287,10.7518977 11,14.0587136 11,16.0838768 C11,19.1216216 13.7059305,25.2972127 15.2868852,26.3817145 C16.86784,27.4662162 23.7303966,32.2066375 25.0701163,33.0500772 C26.4098361,33.8935168 34.2824224,33.4914934 36.5655738,33.4914934 C38.0876747,33.4914934 40.3445053,33.9609709 43.3360656,34.899926 C42.5551729,36.7732937 40.7689282,37.9283596 37.9773313,38.3651239 C33.7899359,39.0202703 23.2252823,37.0945946 21.6986807,37.0945946 C20.1720792,37.0945946 19,34.8825973 14,30.6321559 C9,26.3817145 6.24448068,22.5555321 4.24782235,18.4797297 C2.25116403,14.4039273 2.13648115,9.16569041 2.13648115,8.20945946 C2.13648115,7.57197216 3.4522303,6.88996202 6.08372861,6.16342905 Z" fill-opacity="0.440245697" fill="#FCB9A5" fill-rule="nonzero" mask="url(#mask-17)"></path>
                </g>
                <path d="M153.953177,242.66934 C148.205074,232.081822 142.602641,226.407227 137.145877,225.645554 C128.960731,224.503045 136.273014,236.213764 137.91082,240.729199 C139.002691,243.739489 141.476092,246.518753 145.331023,249.066991 L153.953177,242.66934 Z" id="Path-46" fill="#86D2E7" fill-rule="nonzero"></path>
                <path d="M257.226238,264.490865 L251.907411,238.741377 C251.460525,236.577911 252.852087,234.461802 255.015554,234.014915 C255.346114,233.946634 255.683987,233.920469 256.021118,233.937042 L296.280512,235.916211 C298.178092,236.009497 299.748247,237.424703 300.037482,239.302429 L304.332794,267.187758 L257.226238,264.490865 Z" id="Path-44" fill="url(#linearGradient-12)" fill-rule="nonzero"></path>
                <path d="M386.140366,279.665087 C376.902967,287.281815 368.935353,291.471015 362.237523,292.232687 C352.190779,293.375197 338.604883,287.343891 334.993762,283.504489 C331.382641,279.665087 339.962217,281.25163 345.068292,283.588614 C350.174366,285.925598 357.796855,287.126928 362.237523,285.315709 C366.678192,283.504489 378.310799,268.81125 386.140366,271.381896 C391.360077,273.095659 391.360077,275.856723 386.140366,279.665087 Z" id="Path-24" fill="#FFD5C2" fill-rule="nonzero" transform="translate(362.093350, 281.727635) rotate(3.000000) translate(-362.093350, -281.727635) "></path>
                <g id="Path-178" transform="translate(370.000000, 259.000000)">
                    <mask id="mask-19" fill="white">
                        <use xlink:href="#path-18"></use>
                    </mask>
                    <use id="Mask" fill="#FF5252" fill-rule="nonzero" xlink:href="#path-18"></use>
                    <path d="M31.579826,5.03100775 C27.2955296,5.62371695 23.768921,7.03361818 21,9.26071145 C16.8466185,12.6013514 11.8880893,15.2080261 9.46972568,15.2080261 C7.0513621,15.2080261 7.9526874,19.6063579 5.03627417,21.5599357 C3.09199869,22.8623209 1.82430296,23.9414414 1.233187,24.7972973 L5.53508655,32.03824 C13.9726932,27.6574742 19.1276644,24.8158987 21,23.5135135 C23.8085034,21.5599357 30.3733261,13.0295449 32,11.5316644 C33.0844493,10.5330773 32.9443912,8.36619177 31.579826,5.03100775 Z" fill-opacity="0.687726449" fill="#E03C3C" fill-rule="nonzero" mask="url(#mask-19)"></path>
                </g>
                <path d="M374.577396,339.291509 C367.257492,331.525303 381.8973,320.527925 390.217222,316.47503 C398.537145,312.422136 405.560532,295.377624 402.048838,284.134108 C398.537145,272.890592 406.200078,262.777101 418.470656,264.490865 C430.741234,266.204629 441.061193,256.764643 435.901213,272.890592 C430.741234,289.01654 418.206116,311.333739 424.473675,321.616322 C430.741234,331.898904 431.311012,342.912121 413.941502,345.609013 C396.571992,348.305906 381.8973,347.057715 374.577396,339.291509 Z" id="Path-45" fill="#173155" fill-rule="nonzero"></path>
                <rect id="Rectangle" fill="#86D2E7" fill-rule="nonzero" opacity="0.566266741" x="71.406821" y="153.667479" width="115.964677" height="8.56881851" rx="4.28440926"></rect>
                <rect id="Rectangle-Copy" fill="#86D2E7" fill-rule="nonzero" opacity="0.566266741" x="71.406821" y="171.134503" width="115.964677" height="8.56881851" rx="4.28440926"></rect>
                <g id="Group-2" transform="translate(216.505481, 68.550548)">
                    <g id="Group">
                        <mask id="mask-21" fill="white">
                            <use xlink:href="#path-20"></use>
                        </mask>
                        <use id="Mask" fill="#86D2E7" fill-rule="nonzero" xlink:href="#path-20"></use>
                        <g mask="url(#mask-21)">
                            <g transform="translate(3.591412, 4.345281)">
                                <path d="M16.0929561,14.7957118 L16.0929561,17.1237782 C16.0929561,17.5721465 9.21128105,17.4213512 9.21128105,16.774862 C9.21128105,16.1665047 9.22422747,13.4093855 9.21128105,10.5728968 C7.67020858,8.65077403 7.67020858,7.44936911 8.88870253,6.20773372 C9.70103184,5.3799768 12.9985011,4.75915911 18.7811104,4.34528065 C19.2149777,8.36058819 19.4658721,10.9128387 19.5337936,12.0020322 C19.5747664,12.6590739 20.0176614,14.7957118 18.2972426,14.7957118 C17.652388,14.7957118 16.9176258,14.7957118 16.0929561,14.7957118 Z" id="Mask" fill="url(#linearGradient-22)" fill-rule="evenodd"></path>
                                <path d="M16.0232224,14.8011122 C14.4891075,14.6324716 13.1998827,14.2251015 12.155548,13.579002 C12.713408,14.8606709 14.0026328,15.675411 16.0232224,16.0232224 L16.0232224,14.8011122 Z" id="Path-48" fill="#FFD7B8" fill-rule="nonzero" style="mix-blend-mode: multiply;"></path>
                                <path d="M23.8276367,22.180996 C24.4997687,23.5130843 25.0292718,25.715247 25.4161458,28.7874843 L0,28.7874843 C0.387059071,25.7149028 0.91656211,23.51274 1.58850912,22.180996 C2.03499945,21.2960887 4.32951261,20.0020116 8.47204861,18.2987648 C8.55453982,17.5201857 8.69574063,17.075098 8.89565105,16.9635016 C9.19551666,16.7961071 16.1632865,16.7961252 16.5204948,16.9635016 C16.7586337,17.075086 16.8998345,17.5199411 16.9440972,18.2980671 C21.0875175,20.0035464 23.3820306,21.297856 23.8276367,22.180996 Z" id="Combined-Shape" fill="#173155" fill-rule="nonzero"></path>
                                <path d="M10.7022674,7.60570949 C10.3662432,7.32195343 9.95801853,7.1309419 9.38094019,7.42576795 C8.0127746,8.12475601 8.92079525,10.8190012 10.4518622,10.7664281 C10.9798163,10.7482994 10.7379261,11.7835372 9.32659888,12.4672332 C9.32659888,11.3763813 7.63611591,8.6752242 7.48868536,6.21587565 C5.78715017,5.59307463 6.20977091,3.10105453 7.37806597,3.10105453 C7.1912073,0.816339729 10.9114267,-0.363263045 12.3519329,0.947418321 C13.8169443,-0.778825677 17.5148757,0.104244916 17.7382016,1.60181888 C20.280929,0.267060008 21.9523935,4.10403525 19.57146,5.59307463 C18.5917612,6.20577973 16.2998411,6.43926727 12.9915134,6.43926727 C11.4038919,6.43926727 12.316914,10.0931154 12.81322,11.2724907 C13.4471511,12.7789052 16.9865998,12.9866865 18.0959793,12.8308505 C18.9622983,12.7091576 19.4166691,12.3633426 19.4694967,12.1555612 C20.2619106,14.2333744 19.2581784,15.4800623 17.6733585,15.4800623 C14.9791513,15.4800623 12.2849441,14.7008824 11.8623233,12.7789052 C11.5259782,11.2492887 11.5444119,8.78077593 10.7022674,7.60570949 Z" id="Combined-Shape" fill="#000000" fill-rule="evenodd"></path>
                            </g>
                        </g>
                    </g>
                </g>
                <rect id="Rectangle" fill="#86D2E7" fill-rule="nonzero" opacity="0.620907738" x="259.349574" y="74.2630938" width="46.8428745" height="3.42752741" rx="1.7137637"></rect>
                <rect id="Rectangle-Copy-7" fill="#86D2E7" fill-rule="nonzero" opacity="0.620907738" x="219.361754" y="151.38246" width="46.8428745" height="3.42752741" rx="1.7137637"></rect>
                <rect id="Rectangle-Copy-4" fill="#86D2E7" fill-rule="nonzero" opacity="0.620907738" x="217.64799" y="114.822168" width="89.1157125" height="3.42752741" rx="1.7137637"></rect>
                <rect id="Rectangle-Copy-2" fill="#86D2E7" fill-rule="nonzero" opacity="0.620907738" x="259.349574" y="83.4031669" width="46.8428745" height="3.42752741" rx="1.7137637"></rect>
                <rect id="Rectangle-Copy-8" fill="#86D2E7" fill-rule="nonzero" opacity="0.620907738" x="219.361754" y="160.522533" width="46.8428745" height="3.42752741" rx="1.7137637"></rect>
                <rect id="Rectangle-Copy-5" fill="#86D2E7" fill-rule="nonzero" opacity="0.620907738" x="217.64799" y="123.962241" width="89.1157125" height="3.42752741" rx="1.7137637"></rect>
                <rect id="Rectangle-Copy-3" fill="#86D2E7" fill-rule="nonzero" opacity="0.620907738" x="259.349574" y="92.54324" width="46.8428745" height="3.42752741" rx="1.7137637"></rect>
                <rect id="Rectangle-Copy-9" fill="#86D2E7" fill-rule="nonzero" opacity="0.620907738" x="219.361754" y="169.662607" width="46.8428745" height="3.42752741" rx="1.7137637"></rect>
                <rect id="Rectangle-Copy-6" fill="#86D2E7" fill-rule="nonzero" opacity="0.620907738" x="217.64799" y="133.102314" width="89.1157125" height="3.42752741" rx="1.7137637"></rect>
                <path d="M359.891224,132.570974 C382.997632,132.570974 401.729076,113.900539 401.729076,90.8693908 C401.729076,79.4416977 397.117417,69.0876071 389.647885,61.5551941 C382.06347,53.9069297 371.532596,49.1678074 359.891224,49.1678074 C355.035631,49.1678074 350.373231,49.9922762 346.037249,51.5084253 C342.376536,52.7884549 338.948487,54.5615012 335.833272,56.7476553" id="Oval-Copy-2" stroke="#FF5252" stroke-width="2" opacity="0.600000024" stroke-dasharray="6,6" fill-rule="nonzero" transform="translate(368.781174, 90.869391) rotate(16.000000) translate(-368.781174, -90.869391) "></path>
                <path d="M11.7107186,239.355664 C18.1783699,239.355664 23.4214373,234.112597 23.4214373,227.644945 C23.4214373,224.435798 22.1306004,221.528143 20.0398243,219.412876 C17.9168913,217.265076 14.9692233,215.934227 11.7107186,215.934227 C5.24306732,215.934227 -1.63424829e-13,221.177294 -1.63424829e-13,227.644945 C-1.63424829e-13,234.112597 5.24306732,239.355664 11.7107186,239.355664 Z" id="Oval-Copy-3" stroke="#FF5252" stroke-width="2" opacity="0.600000024" stroke-dasharray="6,6" fill-rule="nonzero"></path>
                <path d="M49.4135201,322.187576 C62.1910751,322.187576 72.5493301,311.829321 72.5493301,299.051766 C72.5493301,292.711745 69.9991401,286.967352 65.8685826,282.78841 C61.6744954,278.545195 55.8510536,275.915956 49.4135201,275.915956 C36.6359651,275.915956 26.2777101,286.274211 26.2777101,299.051766 C26.2777101,311.829321 36.6359651,322.187576 49.4135201,322.187576 Z" id="Oval-Copy-6" stroke="#173155" stroke-width="2" opacity="0.600000024" stroke-dasharray="6,6" fill-rule="nonzero"></path>
                <g id="Path-170" transform="translate(290.000000, 166.000000)">
                    <mask id="mask-24" fill="white">
                        <use xlink:href="#path-23"></use>
                    </mask>
                    <use id="Mask" fill="#FFD5C2" fill-rule="nonzero" xlink:href="#path-23"></use>
                    <path d="M4,3 C6.21116097,4.23443584 8.26856221,4.95545816 10.1722037,5.16306695 C13.027666,5.47448015 14.8038985,8.83050917 14.8038985,11.098492 C14.8038985,13.3664748 13.3036566,18.8857918 13.3036566,20.8716216 C13.3036566,22.8574514 7.27739453,25.2155357 11.0406465,25.2155357 C14.8038985,25.2155357 20.0973549,23.5757773 21,21.6912364 C21.9026451,19.8066955 22.9548942,9.15184592 22.9548942,6.85238085 C22.9548942,4.55291577 14.744316,0.502864079 13.3036566,0.502864079 C12.3432169,0.502864079 9.24199809,1.33524272 4,3 Z" fill-opacity="0.440245697" fill="#FCB9A5" fill-rule="nonzero" mask="url(#mask-24)"></path>
                </g>
                <path d="M296.185794,184.947232 L296.185794,189.234498 C296.185794,189.234498 293.329521,187.803505 291.615757,184.947232 C289.901993,182.09096 284.760702,174.66465 287.616975,171.237123 C290.473248,167.809595 285.331957,162.668304 293.900775,157.527013 C302.469594,152.385722 309.324649,158.098268 315.037194,158.098268 C320.74974,158.098268 317.893467,167.809595 317.322213,168.952104 C316.750958,170.094614 309.324649,169.523359 305.325867,168.952104 C301.327085,168.38085 296.185794,168.38085 296.185794,170.665868 L296.185794,184.947232 Z" id="Fill-23" fill="#000000" transform="translate(302.655335, 172.307870) scale(-1, 1) translate(-302.655335, -172.307870) "></path>
                <polygon id="Path-105" fill="#FFFFFF" fill-rule="nonzero" points="310.762485 269.685553 328.223326 286.463867 359.079097 263.321192 343.675945 246.781973"></polygon>
                <polygon id="Path-105-Copy" fill="#FFFFFF" fill-rule="nonzero" filter="url(#filter-25)" points="309.619976 269.114298 327.080816 285.892613 357.936588 262.749937 342.533436 246.210719"></polygon>
                <path d="M323.871646,263.8125 L336.872891,275.915956" id="Path-130" stroke="#FF5252" stroke-linecap="round" stroke-linejoin="round" fill-rule="nonzero"></path>
                <ellipse id="Oval" fill="#FF5252" fill-rule="nonzero" cx="323.044458" cy="271.631547" rx="3.71315469" ry="3.14190012"></ellipse>
                <path d="M330.18514,263.8125 L344.20092,253.546554" id="Path-132" stroke-opacity="0.512624547" stroke="#588B8B" stroke-width="2" stroke-linecap="round" stroke-linejoin="round" fill-rule="nonzero"></path>
                <path d="M332.467168,266.617718 L346.448601,256.52512" id="Path-133" stroke-opacity="0.512624547" stroke="#588B8B" stroke-width="2" stroke-linecap="round" stroke-linejoin="round" fill-rule="nonzero"></path>
                <path d="M335.040804,269.346529 L348.750914,259.063946" id="Path-134" stroke-opacity="0.512624547" stroke="#588B8B" stroke-width="2" stroke-linecap="round" stroke-linejoin="round" fill-rule="nonzero"></path>
                <path d="M383.477908,230.373173 C378.424371,231.457757 370.538839,229.288589 368.79877,222.833013 C367.0587,216.377437 372.247793,208.871912 378.843681,208.871912 C385.439569,208.871912 387.017505,203.713696 393.850042,202.867738 C400.68258,202.021779 402.27198,208.871912 407.000875,208.871912 C411.729771,208.871912 420.448134,215.292853 420.448134,222.833013 C420.448134,230.373173 414.305074,237.228228 420.448134,242.369519 C426.591195,247.51081 432.903759,252.144485 434.761744,258.110839 C436.619729,264.077193 429.168955,266.613079 427.896452,273.616612 C426.623949,280.620144 420.927984,288.284676 412.678007,285.892262 C404.428029,283.499848 397.227173,278.929812 399.492781,266.933466 C401.75839,254.93712 390.743468,229.230664 396.250929,229.230664 C401.75839,229.230664 388.531445,229.288589 383.477908,230.373173 Z" id="Path-21" fill="#000000" fill-rule="nonzero"></path>
            </g>
        </g>
    </g>
</svg>