<?xml version="1.0" encoding="UTF-8"?>
<svg width="476px" height="433px" viewBox="0 0 476 433" version="1.1" xmlns="http://www.w3.org/2000/svg" xmlns:xlink="http://www.w3.org/1999/xlink">
    <!-- Generator: Sketch 52.5 (67469) - http://www.bohemiancoding.com/sketch -->
    <title>img-attract</title>
    <desc>Created with Sketch.</desc>
    <defs>
        <path d="M10.8492262,0.878378378 C14.6520899,10.9521473 18.3815412,16.3461376 22.0375802,17.0603493 C27.5216387,18.1316669 26.2607426,19.3542142 22.0375802,24.8409135 C17.8144178,30.3276129 1.96477028,42.2781635 5.10900547,34.3330183 C8.25324066,26.387873 13.4452117,24.6220926 10.8492262,22.3397176 C9.11856917,20.8181343 5.73639467,18.1316669 0.702702703,14.2803156 L10.8492262,0.878378378 Z" id="path-1"></path>
        <path d="M39.4867991,0.945945946 C24.513871,12.657983 15.7290391,18.8344593 13.1323034,19.475375 C9.2371998,20.4367485 0.25,19.4396216 0.25,21.3652973 C0.25,23.290973 4.87041456,28.4261081 8.06775061,28.4261081 C11.2650867,28.4261081 41.0452996,15.0836423 46.0823089,12.3788108 C49.4403151,10.5755898 47.2418119,6.76463484 39.4867991,0.945945946 Z" id="path-3"></path>
        <path d="M0.533783784,11.7007617 C0.533783784,15.0376819 5.37114688,22.4014657 5.37114688,30.9251481 C5.37114688,39.4488305 14.296914,50.0278508 26.5809171,45.8677495 C38.8649201,41.7076481 44.0190473,35.2755062 41.4419837,26.6467461 C38.8649201,18.0179859 31.8504118,-0.348466763 26.5809171,0.293425129 C21.3114223,0.935317021 0.533783784,8.36384155 0.533783784,11.7007617 Z" id="path-5"></path>
        <linearGradient x1="50%" y1="0%" x2="80.9010207%" y2="100%" id="linearGradient-7">
            <stop stop-color="#818181" offset="0%"></stop>
            <stop stop-color="#4A4A4A" offset="100%"></stop>
        </linearGradient>
        <path d="M0.364864865,19.8162158 C0.364864865,17.5338408 12.4602251,67.9223543 14.7620031,78.937972 C17.063781,89.9535897 36.2492371,140.456138 37.9645444,143.665598 C39.6798518,146.875057 52.2496334,141.060158 49.7392531,137.208807 C47.2288728,133.357456 47.1168235,123.342014 43.3917816,110.077307 C39.6667396,96.8125993 29.6490588,79.8274331 29.6490588,76.8658378 C29.6490588,73.9042425 42.2331445,14.8503279 32.3275129,3.53446691 C22.4218813,-7.78139409 0.364864865,22.0985908 0.364864865,19.8162158 Z" id="path-8"></path>
        <path d="M19.5556333,0.459375491 C18.1561454,1.79771407 16.5369581,3.44972983 14.6980714,5.41542279 C11.9397414,8.36396222 6.01392653,3.84599711 1.83431963,14.1162674 C-2.34528728,24.3865377 7.39323182,43.9746899 10.4987836,56.683457 C13.6043354,69.3922242 16.7193632,71.301848 18.5754588,76.027027 C20.4315544,80.7522061 40.8726493,77.198835 48.2828029,72.5284295 C55.6929564,67.8580241 64.7529949,67.2242417 62.4755429,59.1163018 C60.198091,51.008362 51.0368783,45.8660103 49.3563,35.1215377 C47.6757217,24.377065 37.2163795,3.78642051 31.3729066,1.77891265 C27.477258,0.440574079 23.5381669,0.000728358443 19.5556333,0.459375491 Z" id="path-10"></path>
        <path d="M74.4999977,12.1834857 C56.1257071,25.8771794 45.2596177,33.3659181 41.9017294,34.6497019 C36.864897,36.5753776 10.4801984,15.6185548 8.12738488,12.708771 C5.77457132,9.79898716 4.48214352,12.0719234 1.7743255,10.9354553 C-0.933492533,9.79898716 -0.306780743,3.79788916 3.91030207,1.27132355 C8.12738488,-1.25524207 11.2153287,2.86321544 12.3484342,5.27672895 C13.1038379,6.88573796 13.8374256,8.77198008 14.5491975,10.9354553 C29.9776782,16.522354 38.3935537,19.7318134 39.796824,20.5638337 C41.9017294,21.8118641 55.7594642,1.27132355 65.129731,2.55510733 C71.3765755,3.41096319 74.4999977,6.62042265 74.4999977,12.1834857 Z" id="path-12"></path>
        <path d="M16.767155,1.31387089 C7.22448855,7.85682272 1.76451766,11.9960723 0.387242303,13.7316196 C-1.67867074,16.3349405 4.95638436,28.9152222 9.99442632,26.3476547 C15.0324683,23.7800871 17.7997066,24.3705895 20.690851,22.4884852 C23.5819955,20.606381 33.212665,12.3144216 28.3973303,5.80711414 C25.1871071,1.46890918 21.310382,-0.0288385675 16.767155,1.31387089 Z" id="path-14"></path>
        <ellipse id="path-16" cx="18.2939189" cy="22.1452703" rx="18.2939189" ry="22.1452703"></ellipse>
        <linearGradient x1="50%" y1="0%" x2="50%" y2="100%" id="linearGradient-18">
            <stop stop-color="#1D0024" offset="0%"></stop>
            <stop stop-color="#100014" offset="100%"></stop>
        </linearGradient>
        <path d="M2.57223587,15.4680196 C2.57223587,14.2574789 2.53079204,8.28659899 2.53282835,8.18565482 C-0.812285012,8.67554142 -0.744594595,2.35382907 2.63992629,3.90063102 C3.38452088,4.37139684 5.48292383,3.90063102 5.27985258,5.45696821e-12 C8.93513514,3.90063102 13.1788893,-0.648832732 13.5428017,3.05832931 C14.0397254,8.12047242 13.5398715,13.4180518 10.3734074,13.4183809 C10.0703568,13.4184124 9.72631352,13.3842678 9.34127764,13.3159473 C9.34127764,14.0781396 9.34127764,14.9748363 9.34127764,15.4680196 C9.34127764,16.3647164 10.1535627,17.037239 11.7781327,17.4855873 C8.97200218,20.1125156 6.9864166,21.4189218 5.82137592,21.404806 C4.65633524,21.3906901 2.76100355,20.0842839 0.135380835,17.4855873 C1.75995086,17.037239 2.57223587,16.3647164 2.57223587,15.4680196 Z" id="path-19"></path>
        <linearGradient x1="81.0579221%" y1="18.8043954%" x2="46.4183066%" y2="108.920956%" id="linearGradient-21">
            <stop stop-color="#E68349" offset="0%"></stop>
            <stop stop-color="#F09960" offset="100%"></stop>
        </linearGradient>
        <ellipse id="path-22" cx="18.6148649" cy="21.8243243" rx="18.6148649" ry="21.8243243"></ellipse>
        <path d="M15.5418141,22.3600382 C12.9515117,24.2142912 10.3612094,25.6976936 7.77090705,25.6976936 C5.1806047,25.6976936 2.59030235,24.2142912 -1.45519152e-11,22.3600382 C2.13511363,21.7204324 3.21810456,20.7656472 3.24897281,19.4956825 C3.24834063,19.2692825 3.24726716,18.9478078 3.24575241,18.3440619 C3.2455119,18.248203 3.24526028,18.1499889 3.24499752,18.0495512 C3.24074527,16.4307242 3.23381794,14.2952082 3.22413468,12.1251281 C1.19916791,9.54168713 1.94301841,6.51286968 2.57764061,6.58840478 C3.35622928,6.68107532 10.0961466,0.385755889 11.3889535,0.063647595 C12.6817604,-0.258460699 15.9656818,0.782250786 16.5308386,3.68532779 C17.0959955,6.58840478 17.3322266,13.9058764 15.188591,16.8273457 C14.5785838,17.6586985 13.6179404,17.9838662 12.3066608,17.8028487 C12.3048876,18.4104163 12.3011816,18.7514031 12.2921621,19.4395898 C12.3089106,20.767593 13.3921279,21.7210843 15.5418141,22.3600382 Z" id="path-24"></path>
        <ellipse id="path-26" cx="18.6148649" cy="21.8243243" rx="18.6148649" ry="21.8243243"></ellipse>
        <linearGradient x1="50%" y1="0%" x2="50%" y2="100%" id="linearGradient-28">
            <stop stop-color="#E6864E" offset="0%"></stop>
            <stop stop-color="#EB965E" offset="100%"></stop>
        </linearGradient>
        <linearGradient x1="81.0579221%" y1="18.8043954%" x2="46.4183066%" y2="108.920956%" id="linearGradient-29">
            <stop stop-color="#E07A3F" offset="0%"></stop>
            <stop stop-color="#EB9154" offset="100%"></stop>
        </linearGradient>
        <ellipse id="path-30" cx="18.6148649" cy="21.8243243" rx="18.6148649" ry="21.8243243"></ellipse>
        <path d="M8.49616079,3.30088711 C9.06088535,0.962671959 6.38308917,-0.831617656 3.62541146,0.400127241 C-2.86892099,3.30088711 0.994397926,7.3486762 3.39447731,7.08145161 C5.79455669,6.81422702 7.93143623,5.63910227 8.49616079,3.30088711 Z" id="path-32"></path>
        <ellipse id="path-34" cx="18.6148649" cy="21.8243243" rx="18.6148649" ry="21.8243243"></ellipse>
        <linearGradient x1="50%" y1="0%" x2="50%" y2="100%" id="linearGradient-36">
            <stop stop-color="#130027" offset="0%"></stop>
            <stop stop-color="#130017" offset="100%"></stop>
        </linearGradient>
        <linearGradient x1="50%" y1="0%" x2="50%" y2="100%" id="linearGradient-37">
            <stop stop-color="#FFE0CC" offset="0%"></stop>
            <stop stop-color="#FFEADB" offset="100%"></stop>
        </linearGradient>
        <path d="M11.2471402,13.7055115 C10.1584057,14.2715208 9.1131996,14.5545255 8.1115219,14.5545255 C7.1098442,14.5545255 6.1081665,14.2715208 5.1064888,13.7055115 L5.1064888,11.0371818 C4.72367482,11.1019421 4.43012132,11.0922864 4.12881954,11.0922565 C1.06012406,11.0919524 -0.09709772,6.85407505 0.50100021,1.69802797 C0.88479092,1.69802797 1.78030258,1.69802797 3.05960496,0 C2.73977936,2.36511039 6.4497562,2.00124725 7.8569889,0.121287712 C7.1533726,2.36511039 9.008361,3.88120679 10.607489,2.97154895 C13.7432315,1.18779379 14.448051,6.62543963 11.2471402,6.67082417 L11.2471402,13.7055115 Z" id="path-38"></path>
        <ellipse id="path-40" cx="20.8614865" cy="24.3918919" rx="20.8614865" ry="24.3918919"></ellipse>
        <path d="M14.5274136,17.0791758 C13.1518545,17.7845105 11.8312911,18.1371779 10.5657236,18.1371779 C9.3001561,18.1371779 8.0345886,17.7845105 6.7690211,17.0791758 L6.7690211,13.7540266 C6.2853557,13.8347279 5.9144661,13.8226953 5.5337871,13.8226581 C1.65665048,13.8222792 0.19456115,8.54123199 0.95022667,2.11600409 C1.4351262,2.11600409 2.56655845,2.11600409 4.1828902,0 C3.77880729,2.9472914 8.4661695,2.49386196 10.2441344,0.151143149 C9.3551519,2.9472914 11.698833,4.83658077 13.7192478,3.70300715 C17.6810948,1.4801738 18.5715974,8.25631707 14.5274136,8.31287319 L14.5274136,17.0791758 Z" id="path-42"></path>
        <ellipse id="path-44" cx="18.6148649" cy="21.8243243" rx="18.6148649" ry="21.8243243"></ellipse>
        <linearGradient x1="50%" y1="100%" x2="50%" y2="0%" id="linearGradient-46">
            <stop stop-color="#E6864E" offset="0%"></stop>
            <stop stop-color="#E67240" offset="100%"></stop>
        </linearGradient>
        <ellipse id="path-47" cx="18.6148649" cy="21.8243243" rx="18.6148649" ry="21.8243243"></ellipse>
        <path d="M2.32023426,13.0562355 C2.32023426,12.0344432 2.28285068,6.99454689 2.28468749,6.90934201 C-0.732705556,7.32284515 -0.67164676,1.98681845 2.38129306,3.29244201 C3.05293982,3.6898057 4.9457625,3.29244201 4.76258612,5.45696821e-12 C8.05976112,3.29244201 11.8877552,-0.547666295 12.2160152,2.58147255 C12.6642554,6.85432289 12.2133721,11.3259001 9.35712602,11.3261779 C9.08376524,11.3262045 8.77342786,11.2973838 8.4261139,11.2397158 C8.4261139,11.8830666 8.4261139,12.6399498 8.4261139,13.0562355 C8.4261139,13.8131188 9.15881945,14.3807812 10.6242306,14.7592228 C8.09301631,16.9765586 6.30195828,18.0792691 5.25105649,18.0673542 C4.20015469,18.0554393 2.49050839,16.9527288 0.122117593,14.7592228 C1.58752871,14.3807812 2.32023426,13.8131188 2.32023426,13.0562355 Z" id="path-49"></path>
        <ellipse id="path-51" cx="18.6148649" cy="21.8243243" rx="18.6148649" ry="21.8243243"></ellipse>
    </defs>
    <g id="Page-1" stroke="none" stroke-width="1" fill="none" fill-rule="evenodd">
        <g id="img-attract" transform="translate(-1.000000, 1.000000)">
            <g id="Group" transform="translate(238.000000, 216.500000) scale(-1, 1) translate(-238.000000, -216.500000) ">
                <path d="M325.439189,167.533784 C358.40835,167.533784 385.135135,140.806998 385.135135,107.837838 C385.135135,74.8686773 358.40835,48.1418919 325.439189,48.1418919 C292.470029,48.1418919 265.743243,74.8686773 265.743243,107.837838 C265.743243,140.806998 292.470029,167.533784 325.439189,167.533784 Z" id="Oval" stroke="#2791D9" stroke-dasharray="6,6"></path>
                <path d="M390.456601,427.528193 C307.776245,427.67374 263.071149,425.06738 256.341314,419.709113 C246.246561,411.671713 327.205176,414.743259 341.722965,411.671713 C356.240754,408.600167 356.531612,397.797855 369.269154,395.075869 C377.760849,393.261212 411.588886,394.034704 470.753265,397.396346 C469.34244,408.691585 463.296287,413.168734 452.614804,410.827794 C436.592581,407.316384 396.970801,399.613681 390.456601,407.316384 C386.113801,412.451519 394.488485,416.582429 415.580651,419.709113 L390.456601,427.528193 Z" id="Path-72" fill-opacity="0.542147871" fill="#17CCD5" opacity="0.580054874"></path>
                <g id="Path-161" transform="translate(387.000000, 175.000000)">
                    <g id="Mask" fill="#FFD5C2">
                        <path d="M10.8492262,0.878378378 C14.6520899,10.9521473 18.3815412,16.3461376 22.0375802,17.0603493 C27.5216387,18.1316669 26.2607426,19.3542142 22.0375802,24.8409135 C17.8144178,30.3276129 1.96477028,42.2781635 5.10900547,34.3330183 C8.25324066,26.387873 13.4452117,24.6220926 10.8492262,22.3397176 C9.11856917,20.8181343 5.73639467,18.1316669 0.702702703,14.2803156 L10.8492262,0.878378378 Z" id="path-1"></path>
                    </g>
                    <g id="Clipped">
                        <mask id="mask-2" fill="white">
                            <use xlink:href="#path-1"></use>
                        </mask>
                        <g id="path-1"></g>
                        <path d="M0.122923696,13.6397649 C7.15669104,14.139129 11.0613123,14.96568 11.8367874,16.119418 C13,17.850025 15.6325918,21.5411419 17,20.8099878 C17.9116055,20.3225517 20.7606039,18.6804628 25.5469953,15.8837209 C19.8489984,11.4375872 17,9.01383898 17,8.61247637 C17,8.21111376 15.6666667,5.28642697 13,-0.161584022 L5.06132513,6.03719819 L0.122923696,13.6397649 Z" id="Path" fill-opacity="0.440245697" fill="#FCB9A5" mask="url(#mask-2)"></path>
                    </g>
                </g>
                <g id="Path-164" transform="translate(356.000000, 225.000000)">
                    <g id="Mask" fill="#FFD5C2">
                        <path d="M39.4867991,0.945945946 C24.513871,12.657983 15.7290391,18.8344593 13.1323034,19.475375 C9.2371998,20.4367485 0.25,19.4396216 0.25,21.3652973 C0.25,23.290973 4.87041456,28.4261081 8.06775061,28.4261081 C11.2650867,28.4261081 41.0452996,15.0836423 46.0823089,12.3788108 C49.4403151,10.5755898 47.2418119,6.76463484 39.4867991,0.945945946 Z" id="path-3"></path>
                    </g>
                    <g id="Clipped">
                        <mask id="mask-4" fill="white">
                            <use xlink:href="#path-3"></use>
                        </mask>
                        <g id="path-3"></g>
                        <path d="M8,25.5455592 C16.0769516,22.7957202 20.8638274,21.0391068 22.3606275,20.2757191 C24.6058276,19.1306375 34.4011366,15.5149449 34.4011366,14.3147948 C34.4011366,13.5146947 37.6007578,11.5130954 44,8.3099969 L48,11.0520143 C42.9778496,16.153424 39.7753118,18.8027526 38.3923867,19 C36.317999,19.2958712 19.0498543,24.5218557 19.0498543,25.5455592 C19.0498543,26.5692627 10.6471053,29.1508845 9.32355263,28.4806202 C8.44118421,28.0337773 8,27.0554236 8,25.5455592 Z" id="Path" fill-opacity="0.440245697" fill="#FCB9A5" mask="url(#mask-4)"></path>
                    </g>
                </g>
                <path d="M329.730297,231.741647 L340.245871,223.596615 C342.284772,222.017346 345.190341,222.247937 346.954621,224.129033 L373.363429,252.286401 C375.252509,254.30056 375.151113,257.464761 373.136954,259.353841 C373.07793,259.4092 373.01757,259.463118 372.955928,259.515547 L362.488944,268.418235 C360.439166,270.161673 357.377207,269.970144 355.560665,267.984863 L329.103268,239.069839 C327.239146,237.032559 327.379519,233.869848 329.416799,232.005726 C329.517645,231.913451 329.622232,231.825351 329.730297,231.741647 Z" id="Path-58" fill="#FFAB29"></path>
                <g id="Path-159" transform="translate(357.000000, 148.000000)">
                    <g id="Mask" fill="#FFD5C2">
                        <path d="M0.533783784,11.7007617 C0.533783784,15.0376819 5.37114688,22.4014657 5.37114688,30.9251481 C5.37114688,39.4488305 14.296914,50.0278508 26.5809171,45.8677495 C38.8649201,41.7076481 44.0190473,35.2755062 41.4419837,26.6467461 C38.8649201,18.0179859 31.8504118,-0.348466763 26.5809171,0.293425129 C21.3114223,0.935317021 0.533783784,8.36384155 0.533783784,11.7007617 Z" id="path-5"></path>
                    </g>
                    <g id="Clipped">
                        <mask id="mask-6" fill="white">
                            <use xlink:href="#path-5"></use>
                        </mask>
                        <g id="path-5"></g>
                        <path d="M8,4 C15.7673912,8.26522601 19.6510867,12.5149812 19.6510867,16.7492656 C19.6510867,23.1006922 20.4324324,30.8425659 25.5675676,34.2972497 C28.990991,36.6003722 28.990991,40.8609002 25.5675676,47.0788337 C30.8579164,45.7237307 34.7995227,44.0664468 37.3923867,42.106982 C39.9852506,40.1475171 43.136683,36.4444888 46.8466839,30.9978969 L8,4 Z" id="Path" fill-opacity="0.440245697" fill="#FCB9A5" mask="url(#mask-6)"></path>
                    </g>
                </g>
                <path d="M407.952566,414.818145 C405.456521,416.853796 402.836454,418.085586 400.092365,418.513514 C395.976233,419.155405 388.892086,416.535741 384.460274,420.566973 C380.028462,424.598205 384.460274,428.619064 386.796394,429.424978 C389.132514,430.230892 403.265919,431.48255 407.323781,431.48255 C411.381642,431.48255 419.881475,431.48255 419.881475,426.058234 C419.881475,422.442024 419.28012,418.643333 418.077408,414.662162 L407.952566,414.818145 Z" id="Path-70" fill="url(#linearGradient-7)"></path>
                <g id="Path-158" transform="translate(422.000000, 259.000000)">
                    <g id="Mask" fill="#144281">
                        <path d="M0.364864865,19.8162158 C0.364864865,17.5338408 12.4602251,67.9223543 14.7620031,78.937972 C17.063781,89.9535897 36.2492371,140.456138 37.9645444,143.665598 C39.6798518,146.875057 52.2496334,141.060158 49.7392531,137.208807 C47.2288728,133.357456 47.1168235,123.342014 43.3917816,110.077307 C39.6667396,96.8125993 29.6490588,79.8274331 29.6490588,76.8658378 C29.6490588,73.9042425 42.2331445,14.8503279 32.3275129,3.53446691 C22.4218813,-7.78139409 0.364864865,22.0985908 0.364864865,19.8162158 Z" id="path-8"></path>
                    </g>
                    <g id="Clipped">
                        <mask id="mask-9" fill="white">
                            <use xlink:href="#path-8"></use>
                        </mask>
                        <g id="path-8"></g>
                        <polygon id="Path" fill-opacity="0.516106205" fill="#2791D9" mask="url(#mask-9)" points="19 38.5251197 19 77.6337217 39 136.828303 35.0073777 141.246673 10.254881 74.21093 10.254881 40.7783191"></polygon>
                    </g>
                </g>
                <g id="Path-157" transform="translate(394.000000, 236.000000)">
                    <g id="Mask" transform="translate(34.009841, 93.467885) rotate(6.000000) translate(-34.009841, -93.467885) translate(10.009841, 2.967885)" fill="#10386F">
                        <path d="M4.3325572,16.9655453 C1.907075,51.3497976 0.69433397,74.3101745 0.69433397,85.846676 C0.69433397,103.151428 9.0444002,151.592764 9.0444002,165.292249 C9.0444002,174.430332 8.1187906,181.325417 12.1835191,180.632651 C14.2124853,180.286848 18.8327224,179.660545 21.4324907,179.660545 C29.2405038,179.660545 22.2929932,172.539953 22.2929932,159.664244 C22.2929932,146.788534 27.1347637,119.219919 22.2929932,109.594108 C17.4512227,99.968298 51.8175128,38.7566772 47.5624716,28.2814063 C44.7257775,21.2978924 38.5826715,12.0291084 29.1331536,0.47505437 L4.3325572,16.9655453 Z" id="path-10"></path>
                    </g>
                    <g id="Clipped" transform="translate(10.000000, 28.000000)" fill="#2791D9" fill-opacity="0.472373188">
                        <path d="M12.0518663,4.21093 C20.3635297,-1.9143726 24.5193614,-0.933003 24.5193614,7.1550388 C24.5193614,15.2430806 20.3635297,28.3357346 12.0518663,46.4330009 L7.8148271,88.918844 L3.2100935,150.875835 C1.46340526,154.202577 0.487387899,154.012621 0.282041426,150.305968 C0.282041426,146.669313 0.711302459,141.982881 1.56982453,136.246673 C0.711302459,105.39978 0.525223195,80.8910241 1.01158673,62.720405 C2.15917533,48.9235119 4.9703115,30.1026873 9.44499527,6.25793114 L12.0518663,4.21093 Z" id="Path"></path>
                    </g>
                </g>
                <path d="M332.809125,211.173267 L343.528605,204.114094 L347.207359,208.26698 L336.779459,215.162277 C335.412951,216.065861 333.59883,215.880453 332.443362,214.719117 C331.546743,213.817943 331.550434,212.360544 332.451607,211.463925 C332.560759,211.355325 332.680531,211.257952 332.809125,211.173267 Z" id="Path-71" fill="#4A4A4A" transform="translate(339.490332, 209.923512) rotate(-51.000000) translate(-339.490332, -209.923512) "></path>
                <path d="M363.624942,162.834322 C356.569547,168.859761 345.891332,164.948072 343.542448,158.410403 C341.193565,151.872734 343.937937,143.812608 355.454304,141.831972 C366.97067,139.851335 378.085612,136.841809 386.587387,137.442812 C395.089161,138.043815 399.826897,153.855709 399.826897,159.010101 C399.826897,164.164493 402.326378,181.057835 397.683569,182.025523 C393.040761,182.99321 387.004578,166.36875 381.850094,164.787128 C376.69561,163.205507 370.680337,156.808883 363.624942,162.834322 Z" id="Path-52" fill="#000000"></path>
                <g id="Path-156" transform="translate(391.001867, 192.000000)">
                    <g id="Mask" fill="#2791D9">
                        <path d="M19.5556333,0.459375491 C18.1561454,1.79771407 16.5369581,3.44972983 14.6980714,5.41542279 C11.9397414,8.36396222 6.01392653,3.84599711 1.83431963,14.1162674 C-2.34528728,24.3865377 7.39323182,43.9746899 10.4987836,56.683457 C13.6043354,69.3922242 16.7193632,71.301848 18.5754588,76.027027 C20.4315544,80.7522061 40.8726493,77.198835 48.2828029,72.5284295 C55.6929564,67.8580241 64.7529949,67.2242417 62.4755429,59.1163018 C60.198091,51.008362 51.0368783,45.8660103 49.3563,35.1215377 C47.6757217,24.377065 37.2163795,3.78642051 31.3729066,1.77891265 C27.477258,0.440574079 23.5381669,0.000728358443 19.5556333,0.459375491 Z" id="path-12"></path>
                    </g>
                    <g id="Clipped">
                        <mask id="mask-11" fill="white">
                            <use xlink:href="#path-10"></use>
                        </mask>
                        <g id="path-12"></g>
                        <path d="M18.7602975,-3.89343524 C12.4132342,3.01062453 10.8264683,7.21541302 14,8.72093023 C18.7602975,10.979206 31.9297873,24.7310584 31.9297873,31 C31.9297873,37.2689416 38.949228,55.0182627 35.5203687,63.2170543 C33.2344626,68.6829153 33.2344626,74.0834321 35.5203687,79.4186047 L67.5965517,63.2170543 C67.1988506,54.1879833 64.3333333,47.667398 59,43.6552984 C51,37.637149 51.745119,27.0820581 47,21.1345033 C44.9183587,18.5253641 43.0145073,6.28397634 35.5203687,-0.11627907 C32.9240377,-2.33363621 27.3373473,-3.59268827 18.7602975,-3.89343524 Z" id="Path" fill-opacity="0.573426178" fill="#2476AD" mask="url(#mask-11)"></path>
                    </g>
                </g>
                <g id="Path-163" transform="translate(333.000000, 203.000000)">
                    <g id="Mask" fill="#FFD5C2">
                        <path d="M74.4999977,12.1834857 C56.1257071,25.8771794 45.2596177,33.3659181 41.9017294,34.6497019 C36.864897,36.5753776 10.4801984,15.6185548 8.12738488,12.708771 C5.77457132,9.79898716 4.48214352,12.0719234 1.7743255,10.9354553 C-0.933492533,9.79898716 -0.306780743,3.79788916 3.91030207,1.27132355 C8.12738488,-1.25524207 11.2153287,2.86321544 12.3484342,5.27672895 C13.1038379,6.88573796 13.8374256,8.77198008 14.5491975,10.9354553 C29.9776782,16.522354 38.3935537,19.7318134 39.796824,20.5638337 C41.9017294,21.8118641 55.7594642,1.27132355 65.129731,2.55510733 C71.3765755,3.41096319 74.4999977,6.62042265 74.4999977,12.1834857 Z" id="path-14"></path>
                    </g>
                    <g id="Clipped">
                        <mask id="mask-13" fill="white">
                            <use xlink:href="#path-12"></use>
                        </mask>
                        <g id="path-14"></g>
                        <path d="M52,20.0506048 C45.8496538,23.5191749 41.8120672,25.913806 39.8872403,27.2344979 C37,29.2155357 29.8904571,27.2787866 28.4452285,25.637149 C27,23.9955115 17.5893798,17.9009001 15.3202735,17.0661626 C13.807536,16.5096709 12.198925,16.0838447 10.4944405,15.7886838 C22.5227389,25.4352829 29.3579254,30.7241545 31,31.6552984 C33.4631118,33.0520143 38.2028704,37.5149449 41.1014352,36.3147948 C44,35.1146447 52.8510337,28.0678277 54.1229237,27.6511628 C54.9708504,27.3733862 56.6388288,26.0918971 59.1268589,23.8066955 L52,20.0506048 Z" id="Path" fill-opacity="0.440245697" fill="#FCB9A5" mask="url(#mask-13)"></path>
                    </g>
                </g>
                <g id="Path-162" transform="translate(380.000000, 202.000000)">
                    <g id="Mask" fill="#2791D9">
                        <path d="M16.767155,1.31387089 C7.22448855,7.85682272 1.76451766,11.9960723 0.387242303,13.7316196 C-1.67867074,16.3349405 4.95638436,28.9152222 9.99442632,26.3476547 C15.0324683,23.7800871 17.7997066,24.3705895 20.690851,22.4884852 C23.5819955,20.606381 33.212665,12.3144216 28.3973303,5.80711414 C25.1871071,1.46890918 21.310382,-0.0288385675 16.767155,1.31387089 Z" id="path-16"></path>
                    </g>
                    <g id="Clipped">
                        <mask id="mask-15" fill="white">
                            <use xlink:href="#path-14"></use>
                        </mask>
                        <g id="path-16"></g>
                        <path d="M28.9462794,8.66260658 C25.3024925,7.8645273 20.7672403,10.180268 17.5798135,12.090134 C14.3923867,14 8.49356062,20.5356371 6,20.5356371 C4.33762625,20.5356371 2.53956879,21.4381742 0.605827601,23.2432483 L10.4311729,27.5140073 L30.821273,14.9903405 C32.0004686,11.3039041 31.3754707,9.19465943 28.9462794,8.66260658 Z" id="Path" fill-opacity="0.573426178" fill="#2476AD" mask="url(#mask-15)"></path>
                    </g>
                </g>
                <g id="Group-8" transform="translate(152.190508, 32.347908)">
                    <g id="Mask" fill="#2791D9">
                        <ellipse id="path-18" cx="18.2939189" cy="22.1452703" rx="18.2939189" ry="22.1452703"></ellipse>
                    </g>
                    <g id="Group-7-Clipped">
                        <mask id="mask-17" fill="white">
                            <use xlink:href="#path-16"></use>
                        </mask>
                        <g id="path-18"></g>
                        <g id="Group-7" mask="url(#mask-17)">
                            <g transform="translate(3.000000, 8.000000)" id="Group">
                                <g transform="translate(0.209459, 0.344595)">
                                    <g>
                                        <path d="M14.3197742,24.4769933 C13.2153786,22.499526 10.6542954,18.6934761 4.42913449,13.2535294 C-4.96456215,5.04471181 4.41368875,-1.83408273 14.0833441,2.34320567 C15.1177667,2.79007595 18.0815327,1.24989645 20.7130425,3.07411154 C22.4106097,4.250899 21.7040224,5.1017772 22.3496224,5.99994414 C22.9952224,6.89811107 25.6039916,6.93801434 26.0954557,9.22918149 C26.3865892,10.586423 25.4012379,11.9629083 25.4908328,12.9798046 C25.5804278,13.9967009 26.5366571,14.9441645 26.5369612,16.2825979 C26.5375019,18.6618408 24.599511,20.5901606 22.2083373,20.5896208 C22.1145733,22.9001736 20.207743,24.7488962 17.8664339,24.7483676 C17.1192581,24.7481989 16.4162449,24.5597182 15.8027323,24.2280371 C15.1427008,24.7911796 14.5873029,24.9560148 14.3197742,24.4769933 Z" id="Combined-Shape" fill="url(#linearGradient-18)" transform="translate(13.539409, 12.921271) scale(-1, 1) rotate(-2.000000) translate(-13.539409, -12.921271) "></path>
                                        <g id="Group-6" transform="translate(10.018182, 6.963604)">
                                            <g id="Mask" fill="#FFD5C2">
                                                <path d="M2.57223587,15.4680196 C2.57223587,14.2574789 2.53079204,8.28659899 2.53282835,8.18565482 C-0.812285012,8.67554142 -0.744594595,2.35382907 2.63992629,3.90063102 C3.38452088,4.37139684 5.48292383,3.90063102 5.27985258,5.45696821e-12 C8.93513514,3.90063102 13.1788893,-0.648832732 13.5428017,3.05832931 C14.0397254,8.12047242 13.5398715,13.4180518 10.3734074,13.4183809 C10.0703568,13.4184124 9.72631352,13.3842678 9.34127764,13.3159473 C9.34127764,14.0781396 9.34127764,14.9748363 9.34127764,15.4680196 C9.34127764,16.3647164 10.1535627,17.037239 11.7781327,17.4855873 C8.97200218,20.1125156 6.9864166,21.4189218 5.82137592,21.404806 C4.65633524,21.3906901 2.76100355,20.0842839 0.135380835,17.4855873 C1.75995086,17.037239 2.57223587,16.3647164 2.57223587,15.4680196 Z" id="path-21"></path>
                                            </g>
                                            <g id="Path-2-Clipped">
                                                <mask id="mask-20" fill="white">
                                                    <use xlink:href="#path-19"></use>
                                                </mask>
                                                <g id="path-21"></g>
                                                <path d="M4.63784233,13.2338485 C6.48479152,12.9030734 8.07038286,12.2809988 9.39461636,11.3676247 C8.54982878,13.2313594 6.94997186,14.3015576 4.5950456,14.5782191 L4.63784233,13.2338485 Z" id="Path-2" fill="url(#linearGradient-21)" opacity="0.699999988" style="mix-blend-mode: multiply;" mask="url(#mask-20)" transform="translate(6.994831, 12.972922) scale(-1, 1) rotate(-2.000000) translate(-6.994831, -12.972922) "></path>
                                            </g>
                                        </g>
                                        <g id="Combined-Shape" transform="translate(1.624570, 23.776669)">
                                            <g id="Group" transform="translate(0.270762, 0.000000)" fill="#004DB7">
                                                <g id="Mask">
                                                    <path d="M26.3992629,4.70765813 C27.0540813,6.15332526 27.5504777,9.06758982 27.8884521,13.4504518 L0,13.4504518 C0.337974362,9.06758982 0.834370758,6.15332526 1.48918919,4.70765813 C2.34962143,2.80804971 8.01975915,0.62695479 9.68146191,0 C10.6412652,1.06634047 12.0159152,1.74855873 13.944226,1.74855873 C15.8725369,1.74855873 17.2471869,1.06634047 18.2069902,0 C19.8686929,0.62695479 25.5388307,2.80804971 26.3992629,4.70765813 Z" id="path-24"></path>
                                                </g>
                                            </g>
                                            <path d="M1.63474821,4.66046554 C2.37142991,3.26864354 4.79628844,1.80794297 7.03843251,0.82354243 C7.78390026,0.496249073 9.20727902,4.7500537 11.3085688,13.5849563 L0.118505831,13.5849563 C0.137343873,9.5094754 0.642758,6.53464514 1.63474821,4.66046554 Z" id="Rectangle" fill="#003D91"></path>
                                        </g>
                                    </g>
                                </g>
                            </g>
                        </g>
                    </g>
                </g>
                <path d="M229.797297,149.210149 L229.797297,236.325295 C229.797297,239.086719 232.035874,241.325295 234.797297,241.325295 C235.041377,241.325295 235.28513,241.307423 235.5266,241.271821 L282.124169,234.4016 C284.577387,234.039904 286.394867,231.934812 286.394867,229.455074 L286.394867,145.93777 C286.394867,143.176347 284.156291,140.93777 281.394867,140.93777 C281.278003,140.93777 281.161175,140.941868 281.044598,140.950054 L234.447028,144.222433 C231.827982,144.406359 229.797297,146.584653 229.797297,149.210149 Z" id="Path-65" stroke="#2791D9" fill="#FFFFFF"></path>
                <path d="M223.613721,33.9855157 L223.613721,121.158315 C223.613721,123.919738 225.852297,126.158315 228.613721,126.158315 C228.651519,126.158315 228.689316,126.157886 228.727105,126.157029 L275.324675,125.100072 C278.04122,125.038453 280.21129,122.818601 280.21129,120.101357 L280.21129,36.5264015 C280.21129,33.8707554 278.135234,31.6784113 275.483527,31.5338183 L228.885958,28.9929325 C226.12863,28.8425802 223.77149,30.9559511 223.621138,33.7132787 C223.616194,33.8039402 223.613721,33.8947195 223.613721,33.9855157 Z" id="Path-65-Copy" stroke="#2791D9" fill="#FFFFFF"></path>
                <g id="User-07b" transform="translate(66.754493, 12.391780)">
                    <g id="Mask" fill="#2791D9">
                        <ellipse id="path-26" cx="18.6148649" cy="21.8243243" rx="18.6148649" ry="21.8243243"></ellipse>
                    </g>
                    <g id="Clipped">
                        <mask id="mask-23" fill="white">
                            <use xlink:href="#path-22"></use>
                        </mask>
                        <g id="path-26"></g>
                        <g id="Group" mask="url(#mask-23)">
                            <g transform="translate(17.804054, 24.777027) scale(-1, 1) translate(-17.804054, -24.777027) translate(0.304054, 5.777027)">
                                <g id="Group-10" transform="translate(4.516801, 0.000000)">
                                    <g id="Group-11">
                                        <g id="Group-2" transform="translate(10.921781, 14.500000) scale(-1, 1) translate(-10.921781, -14.500000) translate(0.921781, 0.000000)">
                                            <g id="Group">
                                                <g id="Group-14">
                                                    <g id="Path-48" transform="translate(0.706446, 2.225104)">
                                                        <g id="Combined-Shape" fill="#FFD5C2">
                                                            <path d="M15.5418141,22.3600382 C12.9515117,24.2142912 10.3612094,25.6976936 7.77090705,25.6976936 C5.1806047,25.6976936 2.59030235,24.2142912 -1.45519152e-11,22.3600382 C2.13511363,21.7204324 3.21810456,20.7656472 3.24897281,19.4956825 C3.24834063,19.2692825 3.24726716,18.9478078 3.24575241,18.3440619 C3.2455119,18.248203 3.24526028,18.1499889 3.24499752,18.0495512 C3.24074527,16.4307242 3.23381794,14.2952082 3.22413468,12.1251281 C1.19916791,9.54168713 1.94301841,6.51286968 2.57764061,6.58840478 C3.35622928,6.68107532 10.0961466,0.385755889 11.3889535,0.063647595 C12.6817604,-0.258460699 15.9656818,0.782250786 16.5308386,3.68532779 C17.0959955,6.58840478 17.3322266,13.9058764 15.188591,16.8273457 C14.5785838,17.6586985 13.6179404,17.9838662 12.3066608,17.8028487 C12.3048876,18.4104163 12.3011816,18.7514031 12.2921621,19.4395898 C12.3089106,20.767593 13.3921279,21.7210843 15.5418141,22.3600382 Z" id="path-29"></path>
                                                        </g>
                                                        <g id="Clipped">
                                                            <mask id="mask-25" fill="white">
                                                                <use xlink:href="#path-24"></use>
                                                            </mask>
                                                            <g id="path-29"></g>
                                                            <path d="M12.2921621,17.8008285 C10.2199202,17.5690469 8.52444955,17.012771 7.20575017,16.1320009 C8.71283518,17.9862538 10.4083058,19.0988056 12.2921621,19.4696562 L12.2921621,17.8008285 Z" id="Path" fill="#FC9F6A" mask="url(#mask-25)"></path>
                                                        </g>
                                                    </g>
                                                    <path d="M2.89642899,14.3936387 C1.92297158,12.0891968 -1.97804907,7.39616772 1.38446194,4.47571929 C2.51477569,-0.947970662 8.75993158,-0.347672433 12.9279635,0.903948325 C15.7293003,1.74516337 17.844656,3.40718984 18.2969539,2.15556908 C21.1227383,4.47571929 19.7076363,6.74484519 17.844656,7.39616772 C16.1539448,7.98726266 13.2948829,8.57825399 8.4340135,8.0219781 C7.56566661,7.92260484 7.74751647,10.5402379 7.28346348,10.8232796 C6.587384,11.2478422 6.04700617,8.57825399 4.13852465,9.37981554 C2.23004314,10.1813771 3.362511,13.8981237 5.41120468,13.8981237 C6.11765078,13.8981237 6.47087382,15.8098406 4.56346937,16.7137889 C3.17900743,17.3836216 3.52894877,15.8909873 2.89642899,14.3936387 Z" id="Path-22" fill="#173155"></path>
                                                </g>
                                            </g>
                                        </g>
                                    </g>
                                </g>
                                <g id="Group-23" transform="translate(0.000000, 21.941495)">
                                    <path d="M31.8940034,6.89017554 C32.7936721,8.69342862 33.5024278,11.6745049 34.0202703,15.8334045 L0,15.8334045 C0.518090127,11.6740389 1.22684576,8.6929626 2.12626689,6.89017554 C3.02568803,5.08738848 6.10165316,3.34992993 11.3541623,1.6777999 C15.7078146,3.3543897 18.3720466,3.35405041 22.6618663,1.67685543 C27.9169556,3.34914908 30.9943346,5.08692245 31.8940034,6.89017554 Z" id="Combined-Shape" fill="#003D91"></path>
                                    <g id="Group-22" transform="translate(15.309122, 1.956331)">
                                        <g id="Mask" fill="#17CCD5">
                                            <path d="M2.6932714,0.698689761 L3.40202703,13.5545814 L0,13.5545814 L0.708755631,0.698689761 C1.14975913,0.232896587 1.48051176,0 1.70101351,0 C1.92151527,0 2.25226789,0.232896587 2.6932714,0.698689761 Z" id="path-31"></path>
                                        </g>
                                        <g id="Combined-Shape" fill="#2791D9">
                                            <path d="M2.85483184,3.31065115 L0.62572732,2.04101546 L0.708755631,0.698689761 C1.14975913,0.232896587 1.48051176,0 1.70101351,0 C1.92151527,0 2.25226789,0.232896587 2.6932714,0.698689761 L2.85483184,3.31065115 Z" id="path-33"></path>
                                        </g>
                                    </g>
                                    <polygon id="Combined-Shape" fill="#FFFFFF" points="17.0101351 1.95512148 15.5926239 4.47161447 11.198339 1.81659338 12.4740991 0 17.0101351 1.65185181 21.5461712 0 22.8219313 1.81659338 18.4276464 4.47161447"></polygon>
                                </g>
                            </g>
                        </g>
                    </g>
                </g>
                <g id="User-05c" transform="translate(79.594595, 122.601351)">
                    <g id="Mask" fill="#2791D9">
                        <ellipse id="path-35" cx="18.6148649" cy="21.8243243" rx="18.6148649" ry="21.8243243"></ellipse>
                    </g>
                    <g id="Clipped">
                        <mask id="mask-27" fill="white">
                            <use xlink:href="#path-26"></use>
                        </mask>
                        <g id="path-35"></g>
                        <g id="Group" mask="url(#mask-27)">
                            <g transform="translate(1.283784, 8.344595)">
                                <path d="M20.0712474,18.1349953 C20.0712474,18.1349953 20.0712474,18.6379023 20.0712474,19.6437162 C20.0712474,20.9848014 21.1022242,21.9487064 23.1641778,22.5354312 C20.7884486,24.2117877 18.3678944,25.0499659 15.9025151,25.0499659 C13.4371358,25.0499659 11.0165815,24.2117877 8.64085239,22.5354312 C10.7189971,21.9487064 11.7499739,20.9848014 11.7337828,19.6437162 C11.7094961,17.6320883 11.7256872,16.4504594 11.7094961,13.0038198 C9.78218779,10.6682334 9.90582259,9.10064835 10.9597054,7.998288 C13.3135852,5.53613202 17.6955182,4.72414316 24.1055044,5.56232142 C24.7036474,11.5965896 24.3226343,15.4941185 22.9624649,17.2549081 C22.3797389,18.0092686 21.4159997,18.3026309 20.0712474,18.1349953 Z" id="face" fill="url(#linearGradient-28)" fill-rule="evenodd"></path>
                                <path d="M20.0591216,18.3505564 C18.1193384,18.1482796 16.5763291,17.6628151 15.4300936,16.8941631 C16.3999851,18.3910118 17.9429945,19.3619407 20.0591216,19.8069498 L20.0591216,18.3505564 Z" id="shade" fill="url(#linearGradient-29)" fill-rule="evenodd" opacity="0.600000024" style="mix-blend-mode: multiply;"></path>
                                <path d="M30.0886824,26.5656436 C30.9374265,28.1981717 31.6060639,30.8970112 32.0945946,34.6621622 L0,34.6621622 C0.488764271,30.8965893 1.15740166,28.1977498 2.00591216,26.5656436 C2.85442267,24.9335375 5.75627657,23.3605748 10.7114739,21.8467556 C12.1441435,24.6296933 20.006669,24.6293862 21.3791192,21.8459005 C26.3367506,23.3598679 29.2399383,24.9331156 30.0886824,26.5656436 Z" id="body" fill="url(#linearGradient-18)" fill-rule="evenodd"></path>
                                <path d="M16.2386954,26.9432773 C15.9625531,26.9432773 15.7386954,26.71506 15.7386954,26.4335396 C15.7386954,26.1520193 15.9625531,25.923802 16.2386954,25.923802 C16.5148378,25.923802 16.7386954,26.1520193 16.7386954,26.4335396 C16.7386954,26.71506 16.5148378,26.9432773 16.2386954,26.9432773 Z M16.2386954,29.4919657 C15.9625531,29.4919657 15.7386954,29.2637484 15.7386954,28.982228 C15.7386954,28.7007077 15.9625531,28.4724903 16.2386954,28.4724903 C16.5148378,28.4724903 16.7386954,28.7007077 16.7386954,28.982228 C16.7386954,29.2637484 16.5148378,29.4919657 16.2386954,29.4919657 Z M16.2386954,32.0406541 C15.9625531,32.0406541 15.7386954,31.8124368 15.7386954,31.5309164 C15.7386954,31.2493961 15.9625531,31.0211787 16.2386954,31.0211787 C16.5148378,31.0211787 16.7386954,31.2493961 16.7386954,31.5309164 C16.7386954,31.8124368 16.5148378,32.0406541 16.2386954,32.0406541 Z" id="buttons" fill="#FFFFFF" fill-rule="nonzero"></path>
                                <path d="M13.5347444,9.24020659 C13.1088559,8.89547023 12.5914581,8.66340956 11.8600494,9.02159491 C10.1259898,9.87079827 11.4383785,13.1265859 12.9783547,13.1265859 C13.3802033,13.1265859 13.5799394,14.3158661 11.7911753,15.146491 C11.7911753,13.8212107 9.64859975,10.5395643 9.46174125,7.55169195 C7.30515768,6.79504852 7.84080158,3.76748343 9.32153848,3.76748343 C9.08470744,0.991774371 13.79984,-0.441329712 15.6255865,1.15102227 C17.4823918,-0.9461984 22.1692759,0.126647561 22.4523267,1.94605611 C25.6750659,0.324452262 27.7935369,4.98600868 24.7758607,6.79504852 C23.5341571,7.53942638 20.6292997,7.82309132 16.4362126,7.82309132 C15.8032804,7.82309132 15.448685,7.97124476 15.6255865,8.70898487 C15.9683608,10.1384709 15.1727396,11.0389789 13.5347444,9.24020659 Z" id="hair" fill="url(#linearGradient-18)" fill-rule="evenodd"></path>
                            </g>
                        </g>
                    </g>
                </g>
                <g id="User-06c" transform="translate(234.525883, 38.513514)">
                    <g id="Mask" fill="#2791D9">
                        <ellipse id="path-39" cx="18.6148649" cy="21.8243243" rx="18.6148649" ry="21.8243243"></ellipse>
                    </g>
                    <g id="Clipped">
                        <mask id="mask-31" fill="white">
                            <use xlink:href="#path-30"></use>
                        </mask>
                        <g id="path-39"></g>
                        <g id="Group" mask="url(#mask-31)">
                            <g transform="translate(17.635161, 25.918919) scale(-1, 1) translate(-17.635161, -25.918919) translate(2.135161, 6.418919)">
                                <g id="body" stroke-width="1" fill="none" transform="translate(0.080498, 22.222397)">
                                    <g id="Mask" fill="#003D91">
                                        <path d="M27.6591917,6.37479628 C28.3526416,7.61434 28.8727289,10.4918522 29.2194538,15.0073329 L0,15.0073329 C0.346724911,10.4918522 0.866812276,7.61434 1.5602621,6.37479628 C2.60043683,4.5154807 6.95025844,2.39054861 14.6097269,0 C22.2691954,2.39054861 26.619017,4.5154807 27.6591917,6.37479628 Z" id="path-41"></path>
                                    </g>
                                </g>
                                <g id="bun" stroke-width="1" fill="none" transform="translate(15.074304, 0.000000)">
                                    <g id="Mask" transform="translate(5.118180, 4.000000) scale(-1, 1) translate(-5.118180, -4.000000) translate(0.618180, 0.000000)" fill="url(#linearGradient-18)">
                                        <path d="M8.49616079,3.30088711 C9.06088535,0.962671959 6.38308917,-0.831617656 3.62541146,0.400127241 C-2.86892099,3.30088711 0.994397926,7.3486762 3.39447731,7.08145161 C5.79455669,6.81422702 7.93143623,5.63910227 8.49616079,3.30088711 Z" id="path-43"></path>
                                    </g>
                                    <g id="Path-3-Clipped" transform="translate(1.000000, 0.000000)">
                                        <mask id="mask-33" fill="white">
                                            <use xlink:href="#path-32"></use>
                                        </mask>
                                        <g id="path-43"></g>
                                        <path d="M2.47066995,3.6743381 C5.6707758,5.63398508 7.67084195,6.0793594 8.47086841,5.01046104 C8.59466838,5.6799636 8.02527684,7.57115314 7.12964758,7.54909464 C5.3435299,7.50510426 3.79053736,6.21351874 2.47066995,3.6743381 Z" id="Path-3" fill="#000000" opacity="0.600000024" mask="url(#mask-33)"></path>
                                    </g>
                                </g>
                                <path d="M17.769946,18.0045818 C14.7051344,19.3748202 14.2580744,19.3014237 7.49850785,14.154294 C-2.70160083,6.38733416 6.9278724,-0.715783006 17.2706399,3.06812053 C28.4693607,7.64863533 24.7174796,14.8984277 17.769946,18.0045818 Z" id="hair" fill="url(#linearGradient-18)"></path>
                                <path d="M18.0932971,23.3340511 C17.0587539,24.9302726 12.3562848,24.9302726 11.3217416,23.3340511 L11.3217416,20.6736819 C11.0148953,20.6821855 10.7562595,20.6821855 10.5458342,20.6736819 C7.24620909,20.5403379 6.14355944,15.5356085 6.66138054,10.5293939 C7.04059676,6.86318994 10.3342231,11.8944634 15.6950379,8.36947413 C15.4834268,12.2270095 17.2468527,11.8279541 18.0227601,11.3623895 C21.549612,9.83267721 21.5790843,16.1034545 18.0932971,15.6189803 L18.0932971,23.3340511 Z" id="face" fill="#FFD5C2"></path>
                                <path d="M11.1928174,20.6587838 C12.4717114,20.6147475 14.0843262,20.001379 16.0306619,18.8186781 C15.0565072,20.6118539 13.4299713,21.6238694 11.1510542,21.8547247 L11.1928174,20.6587838 Z" id="shade" fill="#DB6F3D" transform="translate(13.590858, 20.336701) rotate(-2.000000) translate(-13.590858, -20.336701) "></path>
                                <path d="M18.0897178,23.0627169 L18.0897178,22.2223968 C18.3495009,22.2223968 19.0933335,22.7859252 19.4758495,23.2629919 C20.9881228,25.1490706 19.310696,26.8400377 17.9427435,26.8400377 C16.2165579,26.8400377 15.0729323,25.5156823 14.6902246,24.8784767 C14.3075169,25.5156823 13.1638913,26.8400377 11.4377057,26.8400377 C10.0697532,26.8400377 8.39232633,25.1490706 9.90459965,23.2629919 C10.2871157,22.7859252 11.0309483,22.2223968 11.2907313,22.2223968 L11.2907313,23.0627169 C11.2907313,24.0574743 13.6618111,24.5179257 14.6855371,24.5604717 C15.6545556,24.5179256 18.0897178,24.0574742 18.0897178,23.0627169 Z" id="collar" fill="#FFFFFF"></path>
                            </g>
                        </g>
                    </g>
                </g>
                <g id="User-01c-Copy" transform="translate(159.831081, 144.425676)">
                    <g id="Mask" fill="#2791D9">
                        <ellipse id="path-45" cx="18.6148649" cy="21.8243243" rx="18.6148649" ry="21.8243243"></ellipse>
                    </g>
                    <g id="Clipped">
                        <mask id="mask-35" fill="white">
                            <use xlink:href="#path-34"></use>
                        </mask>
                        <g id="path-45"></g>
                        <g id="Group" mask="url(#mask-35)">
                            <g transform="translate(16.810811, 28.554054) scale(-1, 1) translate(-16.810811, -28.554054) translate(2.810811, 11.554054)">
                                <path d="M0.835578659,14.562458 C-0.197709468,11.3177692 -0.834605266,5.77040961 3.51054101,1.97658052 C6.83128332,-0.922822164 15.8026299,-1.21505348 18.9234193,5.10799501 C19.4443875,6.1635314 18.7323506,7.81787293 17.3311798,7.75765342 C16.7804765,7.7339853 16.4395257,9.38358018 16.1210778,10.4073118 C16.5669049,14.562458 20.5388712,14.6391838 22.5537254,17.8143115 C25.037619,21.7285796 21.9805192,27.5096525 14.6562175,27.5096525 C7.3319158,27.5096525 3.13316852,21.777255 0.835578659,14.562458 Z" id="Combined-Shape" fill="url(#linearGradient-36)" fill-rule="evenodd" transform="translate(11.741517, 13.754826) scale(-1, 1) translate(-11.741517, -13.754826) "></path>
                                <g id="Group-16" stroke-width="1" fill="none" fill-rule="evenodd" transform="translate(0.382194, 6.017736)">
                                    <path d="M24.9463963,18.1233896 C25.571833,19.2654261 26.0409106,21.9165822 26.3536289,26.0768581 L0,26.0768581 C0.312718358,21.9165822 0.781795895,19.2654261 1.40723261,18.1233896 C2.34538769,16.4103348 6.26858163,14.4525579 13.1768145,12.2500589 C20.0850473,14.4525579 24.0082412,16.4103348 24.9463963,18.1233896 Z" id="Rectangle" fill="#004DB7"></path>
                                    <g id="Mask" transform="translate(5.000000, 0.000000)" fill="url(#linearGradient-37)">
                                        <path d="M11.2471402,13.7055115 C10.1584057,14.2715208 9.1131996,14.5545255 8.1115219,14.5545255 C7.1098442,14.5545255 6.1081665,14.2715208 5.1064888,13.7055115 L5.1064888,11.0371818 C4.72367482,11.1019421 4.43012132,11.0922864 4.12881954,11.0922565 C1.06012406,11.0919524 -0.09709772,6.85407505 0.50100021,1.69802797 C0.88479092,1.69802797 1.78030258,1.69802797 3.05960496,0 C2.73977936,2.36511039 6.4497562,2.00124725 7.8569889,0.121287712 C7.1533726,2.36511039 9.008361,3.88120679 10.607489,2.97154895 C13.7432315,1.18779379 14.448051,6.62543963 11.2471402,6.67082417 L11.2471402,13.7055115 Z" id="path-49"></path>
                                    </g>
                                    <g id="Path-2-Clipped" transform="translate(5.000000, 0.000000)">
                                        <mask id="mask-39" fill="white">
                                            <use xlink:href="#path-38"></use>
                                        </mask>
                                        <g id="path-49"></g>
                                        <path d="M5.1064888,11.0371818 C6.8122253,10.7541771 8.3047447,10.2083824 9.5840471,9.39979769 C8.5179618,11.1382549 7.0254423,12.0074835 5.1064888,12.0074835 L5.1064888,11.0371818 Z" id="Path-2" fill="#FFD7B8" opacity="0.782421875" style="mix-blend-mode: multiply;" mask="url(#mask-39)"></path>
                                    </g>
                                </g>
                                <g id="Group-9" stroke-width="1" fill="none" fill-rule="evenodd" transform="translate(8.560906, 18.339768)">
                                    <path d="M4.85086521,2.14619533 C5.77266872,2.10714095 7.90768296,1.68447759 7.90768296,0.771357247 L7.90768296,0 C8.14160196,0 8.81137833,0.517281112 9.15581093,0.955196268 C10.5175218,2.6864895 9.0071001,4.23868344 7.77534143,4.23868344 C6.22101545,4.23868344 5.19124957,3.02301431 4.8466444,2.43810254 C4.50203923,3.02301431 3.47227334,4.23868344 1.91794736,4.23868344 C0.686188692,4.23868344 -0.824233018,2.6864895 0.537477865,0.955196268 C0.881910466,0.517281112 1.55168684,0 1.78560583,0 L1.78560583,0.771357247 C1.78560583,1.68447745 3.97832248,2.10714082 4.85086564,2.14619531 L4.85086521,2.14619533 Z" id="Combined-Shape" fill="#FFFFFF"></path>
                                </g>
                                <path d="M13.6046354,24.4530245 C13.328493,24.4530245 13.1046354,24.2391965 13.1046354,23.9754263 C13.1046354,23.7116562 13.328493,23.4978282 13.6046354,23.4978282 C13.8807778,23.4978282 14.1046354,23.7116562 14.1046354,23.9754263 C14.1046354,24.2391965 13.8807778,24.4530245 13.6046354,24.4530245 Z M13.6046354,26.8410151 C13.328493,26.8410151 13.1046354,26.6271872 13.1046354,26.363417 C13.1046354,26.0996468 13.328493,25.8858189 13.6046354,25.8858189 C13.8807778,25.8858189 14.1046354,26.0996468 14.1046354,26.363417 C14.1046354,26.6271872 13.8807778,26.8410151 13.6046354,26.8410151 Z M13.6046354,29.2290058 C13.328493,29.2290058 13.1046354,29.0151778 13.1046354,28.7514077 C13.1046354,28.4876375 13.328493,28.2738095 13.6046354,28.2738095 C13.8807778,28.2738095 14.1046354,28.4876375 14.1046354,28.7514077 C14.1046354,29.0151778 13.8807778,29.2290058 13.6046354,29.2290058 Z" id="Combined-Shape" fill="url(#linearGradient-36)" fill-rule="nonzero"></path>
                            </g>
                        </g>
                    </g>
                </g>
                <g id="User-01c" transform="translate(77.668919, 133.918919)">
                    <g id="Mask" transform="translate(0.000000, 110.000000)" fill="#2791D9">
                        <ellipse id="path-51" cx="20.8614865" cy="24.3918919" rx="20.8614865" ry="24.3918919"></ellipse>
                    </g>
                    <g id="Clipped" transform="translate(0.000000, 110.000000)">
                        <mask id="mask-41" fill="white">
                            <use xlink:href="#path-40"></use>
                        </mask>
                        <g id="path-51"></g>
                        <g id="Group" mask="url(#mask-41)">
                            <g transform="translate(18.445946, 30.128378) scale(-1, 1) translate(-18.445946, -30.128378) translate(0.945946, 9.628378)">
                                <path d="M0.962290223,18.3486971 C-0.352429865,14.2603892 -1.16279406,7.27071611 4.36581983,2.49049145 C8.59101753,-1.16275593 20.0058488,-1.53096738 23.9766334,6.43607371 C24.6394952,7.76604956 23.7335241,9.85051989 21.9507229,9.77464331 C21.250027,9.74482148 20.816213,11.823311 20.4110309,13.1132129 C20.9782859,18.3486971 26.0320785,18.4453716 28.5957093,22.4460325 C31.7561296,27.3780103 27.8663815,34.6621622 18.5471933,34.6621622 C9.22800499,34.6621622 3.88566412,27.4393413 0.962290223,18.3486971 Z" id="Combined-Shape" fill="url(#linearGradient-36)" fill-rule="evenodd" transform="translate(14.838629, 17.331081) scale(-1, 1) translate(-14.838629, -17.331081) "></path>
                                <g id="Group-16" stroke-width="1" fill="none" fill-rule="evenodd" transform="translate(0.723836, 7.943412)">
                                    <path d="M31.5184698,22.5845316 C32.3086764,24.0076848 32.9013314,27.3114333 33.2964347,32.495777 L0,32.495777 C0.395103325,27.3114333 0.987758312,24.0076848 1.77796496,22.5845316 C2.96327494,20.4498018 7.92002574,18.0101106 16.6482174,15.265458 C25.376409,18.0101106 30.3331598,20.4498018 31.5184698,22.5845316 Z" id="Rectangle" fill="#004DB7"></path>
                                    <g id="Mask" transform="translate(6.000000, 0.000000)" fill="url(#linearGradient-37)">
                                        <path d="M14.5274136,17.0791758 C13.1518545,17.7845105 11.8312911,18.1371779 10.5657236,18.1371779 C9.3001561,18.1371779 8.0345886,17.7845105 6.7690211,17.0791758 L6.7690211,13.7540266 C6.2853557,13.8347279 5.9144661,13.8226953 5.5337871,13.8226581 C1.65665048,13.8222792 0.19456115,8.54123199 0.95022667,2.11600409 C1.4351262,2.11600409 2.56655845,2.11600409 4.1828902,0 C3.77880729,2.9472914 8.4661695,2.49386196 10.2441344,0.151143149 C9.3551519,2.9472914 11.698833,4.83658077 13.7192478,3.70300715 C17.6810948,1.4801738 18.5715974,8.25631707 14.5274136,8.31287319 L14.5274136,17.0791758 Z" id="path-53"></path>
                                    </g>
                                    <g id="Path-2-Clipped" transform="translate(6.000000, 0.000000)">
                                        <mask id="mask-43" fill="white">
                                            <use xlink:href="#path-42"></use>
                                        </mask>
                                        <g id="path-53"></g>
                                        <path d="M6.7690211,13.7540266 C8.9241301,13.4013592 10.8098505,12.721215 12.4261823,11.713594 C11.0792392,13.8799792 9.1935188,14.9631717 6.7690211,14.9631717 L6.7690211,13.7540266 Z" id="Path-2" fill="#FFD7B8" opacity="0.782421875" style="mix-blend-mode: multiply;" mask="url(#mask-43)"></path>
                                    </g>
                                </g>
                                <g id="Group-9" stroke-width="1" fill="none" fill-rule="evenodd" transform="translate(10.857533, 23.108108)">
                                    <path d="M6.15796021,2.52392571 C7.32814926,2.47799776 10.038456,1.98094564 10.038456,0.907116123 L10.038456,0 C10.3354059,0 11.1856576,0.608322588 11.6228996,1.12331081 C13.3515317,3.15931166 11.4341178,4.98469172 9.87045425,4.98469172 C7.89730573,4.98469172 6.59006319,3.55506483 6.15260207,2.86720859 C5.71514095,3.55506483 4.40789841,4.98469172 2.43474989,4.98469172 C0.87108639,4.98469172 -1.04632759,3.15931166 0.682304529,1.12331081 C1.11954658,0.608322588 1.96979825,0 2.26674813,0 L2.26674813,0.907116123 C2.26674813,1.98094548 5.05030556,2.47799761 6.15796075,2.52392568 L6.15796021,2.52392571 Z" id="Combined-Shape" fill="#FFFFFF"></path>
                                </g>
                                <path d="M17.3720529,30.8108108 C16.9722896,30.8108108 16.6482174,30.5413876 16.6482174,30.2090372 C16.6482174,29.8766868 16.9722896,29.6072635 17.3720529,29.6072635 C17.7718162,29.6072635 18.0958884,29.8766868 18.0958884,30.2090372 C18.0958884,30.5413876 17.7718162,30.8108108 17.3720529,30.8108108 Z M17.3720529,33.8196791 C16.9722896,33.8196791 16.6482174,33.5502558 16.6482174,33.2179054 C16.6482174,32.885555 16.9722896,32.6161318 17.3720529,32.6161318 C17.7718162,32.6161318 18.0958884,32.885555 18.0958884,33.2179054 C18.0958884,33.5502558 17.7718162,33.8196791 17.3720529,33.8196791 Z M17.3720529,36.8285473 C16.9722896,36.8285473 16.6482174,36.5591241 16.6482174,36.2267736 C16.6482174,35.8944232 16.9722896,35.625 17.3720529,35.625 C17.7718162,35.625 18.0958884,35.8944232 18.0958884,36.2267736 C18.0958884,36.5591241 17.7718162,36.8285473 17.3720529,36.8285473 Z" id="Combined-Shape" fill="url(#linearGradient-36)" fill-rule="nonzero"></path>
                            </g>
                        </g>
                    </g>
                    <path d="M73.817567,8.081397 L73.817567,94.29863 C73.817567,97.060054 76.056144,99.29863 78.817567,99.29863 C79.043778,99.29863 79.269727,99.283279 79.493858,99.252682 L125.918695,92.915106 C128.395796,92.57695 130.242404,90.461129 130.242404,87.961054 L130.242404,5.51996 C130.242404,2.758537 128.003828,0.51996 125.242404,0.51996 C125.150535,0.51996 125.058683,0.522492 124.966954,0.527553 L78.542117,3.08899 C75.891745,3.235222 73.817567,5.426994 73.817567,8.081397 Z" id="Path-64" stroke="#2791D9"></path>
                </g>
                <g id="User-04c" transform="translate(240.067568, 152.770270)">
                    <g id="Mask" fill="#2791D9">
                        <ellipse id="path-55" cx="18.6148649" cy="21.8243243" rx="18.6148649" ry="21.8243243"></ellipse>
                    </g>
                    <g id="Clipped">
                        <mask id="mask-45" fill="white">
                            <use xlink:href="#path-44"></use>
                        </mask>
                        <g id="path-55"></g>
                        <g id="Group" mask="url(#mask-45)">
                            <g transform="translate(18.952703, 26.344595) scale(-1, 1) translate(-18.952703, -26.344595) translate(6.452703, 8.344595)">
                                <path d="M23.4181925,26.4425377 C23.9970724,27.7149605 24.4312323,30.6687993 24.7206722,35.3040541 L0.3287803,35.3040541 C0.618220226,30.6687993 1.05238011,27.7149605 1.63125996,26.4425377 C2.49957974,24.5339034 6.13073516,22.352607 12.5247263,19.8986486 C18.9187173,22.352607 22.5498728,24.5339034 23.4181925,26.4425377 Z" id="Rectangle" fill="url(#linearGradient-18)" fill-rule="evenodd" transform="translate(12.524726, 27.601351) scale(-1, 1) translate(-12.524726, -27.601351) "></path>
                                <path d="M12.5247263,27.3873874 C12.1702192,27.3873874 11.8828344,27.1479001 11.8828344,26.8524775 C11.8828344,26.5570549 12.1702192,26.3175676 12.5247263,26.3175676 C12.8792334,26.3175676 13.1666181,26.5570549 13.1666181,26.8524775 C13.1666181,27.1479001 12.8792334,27.3873874 12.5247263,27.3873874 Z M12.5247263,30.0619369 C12.1702192,30.0619369 11.8828344,29.8224496 11.8828344,29.527027 C11.8828344,29.2316044 12.1702192,28.9921171 12.5247263,28.9921171 C12.8792334,28.9921171 13.1666181,29.2316044 13.1666181,29.527027 C13.1666181,29.8224496 12.8792334,30.0619369 12.5247263,30.0619369 Z M12.5247263,32.7364865 C12.1702192,32.7364865 11.8828344,32.4969992 11.8828344,32.2015766 C11.8828344,31.906154 12.1702192,31.6666667 12.5247263,31.6666667 C12.8792334,31.6666667 13.1666181,31.906154 13.1666181,32.2015766 C13.1666181,32.4969992 12.8792334,32.7364865 12.5247263,32.7364865 Z" id="Combined-Shape" fill="#FFFFFF" fill-rule="nonzero" transform="translate(12.524726, 29.527027) scale(-1, 1) translate(-12.524726, -29.527027) "></path>
                                <path d="M22.6109309,17.972973 L3.22425633,15.379862 C2.26846557,9.76407504 3.4021365,6.22583518 6.62526912,4.7651424 C8.11526064,-0.638321017 13.9146053,-0.198810913 15.5583345,0.241703264 C21.1521975,1.74084067 23.503063,7.65126391 22.6109309,17.972973 Z" id="Combined-Shape" fill="url(#linearGradient-46)" fill-rule="evenodd" transform="translate(12.845672, 8.986486) scale(-1, 1) translate(-12.845672, -8.986486) "></path>
                                <path d="M7.44201398,21.5310776 L7.44201398,13.5156035 C4.44093539,13.4656151 5.02624419,7.67338565 8.04173187,9.44107083 C8.58147797,9.7082533 9.96082912,8.97350151 9.48105481,7.17001984 C12.7195314,9.84184454 17.2323382,5.15267186 17.5172746,8.03836287 C18.0780333,13.7174435 16.9930567,18.3852146 14.1159393,18.3855495 C13.8334477,18.3855824 13.5582207,18.3962176 13.1993058,18.3248879 L13.1993058,21.5310776 C12.2601626,22.1545033 11.3210194,22.4662162 10.3818763,22.4662162 C9.44273305,22.4662162 8.46277897,22.1545033 7.44201398,21.5310776 Z" id="Mask" fill="#FFDBC9" fill-rule="evenodd" transform="translate(11.561888, 14.763514) scale(-1, 1) translate(-11.561888, -14.763514) "></path>
                                <path d="M14.4504018,18.3013828 L14.4504018,19.2567568 C12.5247262,19.2567568 11.0269784,18.4009009 9.9571586,16.6891892 C11.2409424,17.4853342 12.7386901,18.022732 14.4504018,18.3013828 Z" id="Path-2" fill="#FFBC9E" fill-rule="evenodd" transform="translate(12.203780, 17.972973) scale(-1, 1) translate(-12.203780, -17.972973) "></path>
                                <path d="M13.1627049,22.4987492 C13.9716251,22.4514349 16.0044562,21.9393812 16.0044562,20.8331425 L16.0044562,19.8986486 C16.2213186,19.8986486 16.8422571,20.5253311 17.1615748,21.0558622 C18.4239943,23.1533118 17.0237075,25.0337838 15.8817646,25.0337838 C14.4407748,25.0337838 13.4860961,23.5610092 13.1666183,22.8523927 C12.8471406,23.5610092 11.8924618,25.0337838 10.4514721,25.0337838 C9.30952921,25.0337838 7.90924242,23.1533118 9.17166188,21.0558622 C9.49097961,20.5253311 10.1119181,19.8986486 10.3287805,19.8986486 L10.3287805,20.8331425 C10.3287805,21.9393814 12.3081166,22.4514351 13.1627053,22.4987492 L13.1627049,22.4987492 Z" id="Combined-Shape" fill="#FFFFFF" fill-rule="evenodd" transform="translate(13.166618, 22.466216) scale(-1, 1) translate(-13.166618, -22.466216) "></path>
                            </g>
                        </g>
                    </g>
                </g>
                <g id="User-03C" transform="translate(164.966216, 259.966216)">
                    <g id="Mask" fill="#2791D9">
                        <ellipse id="path-58" cx="18.6148649" cy="21.8243243" rx="18.6148649" ry="21.8243243"></ellipse>
                    </g>
                    <g id="Group-7-Clipped">
                        <mask id="mask-48" fill="white">
                            <use xlink:href="#path-47"></use>
                        </mask>
                        <g id="path-58"></g>
                        <g id="Group-7" mask="url(#mask-48)">
                            <g transform="translate(4.000000, 12.000000)" id="Group">
                                <g transform="translate(0.094568, 0.195946)">
                                    <g transform="translate(0.080264, 0.000000)">
                                        <path d="M12.946212,20.4071484 C11.946095,18.7356373 9.62840859,15.5175841 4.00256999,10.9128712 C-4.48675624,3.96441183 3.95814314,-1.82336643 12.6882243,1.72243571 C13.6221349,2.10175201 16.2922189,0.807600053 18.6694214,2.35282992 C20.2029369,3.34964611 19.5673436,4.0664867 20.151464,4.82597913 C20.7355845,5.58547157 23.0886694,5.62442882 23.5365812,7.55951071 C23.8019151,8.70581447 22.9159503,9.86578275 22.9988166,10.7243768 C23.081683,11.5829708 23.9460782,12.3847049 23.9490578,13.5145439 C23.9543544,15.5229827 22.2102626,17.1468566 20.0535196,17.1415678 C19.9736183,19.0918312 18.2574712,20.6485761 16.1457041,20.6433976 C15.4717814,20.641745 14.837311,20.481218 14.283277,20.1999894 C13.6890936,20.674032 13.1884802,20.8120551 12.946212,20.4071484 Z" id="Combined-Shape" fill="url(#linearGradient-46)" transform="translate(12.216047, 10.646700) scale(-1, 1) rotate(-2.000000) translate(-12.216047, -10.646700) "></path>
                                        <path d="M13.3108176,1.30772601 C11.8068574,2.20472846 9.94605233,5.14622819 10.7628565,9.09501037 C10.9410856,9.95664649 10.3843679,10.2146101 9.90803333,9.15177661 C8.47106109,5.94549605 8.30455634,3.05396763 10.7626509,1.67079172 C11.1902681,1.43156776 11.4345032,1.62539214 11.7397972,1.60186649 C12.3204035,1.55712553 13.1022333,1.17468149 13.3108176,1.30772601 Z" id="Path-4" fill="url(#linearGradient-18)"></path>
                                        <g id="Group-6" transform="translate(9.036702, 5.621960)">
                                            <g id="Mask" fill="url(#linearGradient-37)">
                                                <path d="M2.32023426,13.0562355 C2.32023426,12.0344432 2.28285068,6.99454689 2.28468749,6.90934201 C-0.732705556,7.32284515 -0.67164676,1.98681845 2.38129306,3.29244201 C3.05293982,3.6898057 4.9457625,3.29244201 4.76258612,5.45696821e-12 C8.05976112,3.29244201 11.8877552,-0.547666295 12.2160152,2.58147255 C12.6642554,6.85432289 12.2133721,11.3259001 9.35712602,11.3261779 C9.08376524,11.3262045 8.77342786,11.2973838 8.4261139,11.2397158 C8.4261139,11.8830666 8.4261139,12.6399498 8.4261139,13.0562355 C8.4261139,13.8131188 9.15881945,14.3807812 10.6242306,14.7592228 C8.09301631,16.9765586 6.30195828,18.0792691 5.25105649,18.0673542 C4.20015469,18.0554393 2.49050839,16.9527288 0.122117593,14.7592228 C1.58752871,14.3807812 2.32023426,13.8131188 2.32023426,13.0562355 Z" id="path-60"></path>
                                            </g>
                                            <g id="Path-2-Clipped">
                                                <mask id="mask-50" fill="white">
                                                    <use xlink:href="#path-49"></use>
                                                </mask>
                                                <g id="path-60"></g>
                                                <path d="M4.18416663,11.1656724 C5.84937151,10.8901817 7.27825341,10.3682623 8.47081233,9.59991416 C7.71261512,11.1714782 6.27177201,12.0716522 4.14828298,12.3004361 L4.18416663,11.1656724 Z" id="Path-2" fill="#FFDBC9" style="mix-blend-mode: multiply;" mask="url(#mask-50)" transform="translate(6.309548, 10.950175) scale(-1, 1) rotate(-2.000000) translate(-6.309548, -10.950175) "></path>
                                            </g>
                                        </g>
                                        <g id="Combined-Shape" transform="translate(1.831764, 19.813521)" fill="url(#linearGradient-36)">
                                            <g id="Group">
                                                <g id="Mask">
                                                    <path d="M23.8129306,3.97363691 C24.4035965,5.19389464 24.851361,7.65376511 25.1562241,11.3532483 L0,11.3532483 C0.304863058,7.65376511 0.752627564,5.19389464 1.34329352,3.97363691 C2.11942933,2.37021671 7.2340644,0.529199577 8.73297035,0 C9.59874183,0.900075942 10.8387176,1.47592228 12.578112,1.47592228 C14.3175065,1.47592228 15.5574823,0.900075942 16.4232537,0 C17.9221597,0.529199577 23.0367948,2.37021671 23.8129306,3.97363691 Z" id="path-62"></path>
                                                </g>
                                            </g>
                                        </g>
                                    </g>
                                </g>
                            </g>
                        </g>
                    </g>
                </g>
                <g id="User-05c" transform="translate(246.486486, 263.817568)">
                    <g id="Mask" fill="#2791D9">
                        <ellipse id="path-64" cx="18.6148649" cy="21.8243243" rx="18.6148649" ry="21.8243243"></ellipse>
                    </g>
                    <g id="Clipped">
                        <mask id="mask-52" fill="white">
                            <use xlink:href="#path-51"></use>
                        </mask>
                        <g id="path-64"></g>
                        <g id="Group" mask="url(#mask-52)">
                            <g transform="translate(1.283784, 7.702703)">
                                <path d="M21.7490795,19.5642825 C21.7490795,19.5642825 21.7490795,20.1021136 21.7490795,21.1777757 C21.7490795,22.6119918 22.8423193,23.6428347 25.0287987,24.2703042 C22.5095941,26.0630744 19.9428574,26.9594595 17.3285885,26.9594595 C14.7143197,26.9594595 12.1475829,26.0630744 9.62837838,24.2703042 C11.8320268,23.6428347 12.9252665,22.6119918 12.9080975,21.1777757 C12.8823441,19.0264515 12.899513,17.762765 12.8823441,14.0767754 C10.8386415,11.5789954 10.9697429,9.90255038 12.0872719,8.72363723 C14.5833076,6.09049819 19.229875,5.22212122 26.0269741,6.1185063 C26.6612402,12.5718209 26.2572169,16.7400115 24.814904,18.6230782 C24.1969859,19.4298248 23.1750444,19.7435595 21.7490795,19.5642825 Z" id="face" fill="url(#linearGradient-28)" fill-rule="evenodd"></path>
                                <path d="M21.8243243,19.5777027 C19.6724582,19.3548236 17.9607465,18.8199137 16.6891892,17.972973 C17.7651223,19.6222785 19.476834,20.6920983 21.8243243,21.1824324 L21.8243243,19.5777027 Z" id="shade" fill="url(#linearGradient-29)" fill-rule="evenodd" opacity="0.600000024" style="mix-blend-mode: multiply;"></path>
                                <path d="M32.495777,28.7140732 C33.4124207,30.4311135 34.134549,33.2696656 34.6621622,37.2297297 L0,37.2297297 C0.527865412,33.2692219 1.24999379,30.4306697 2.16638514,28.7140732 C3.08277648,26.9974767 6.21677869,25.3430854 11.5683918,23.7508993 C13.1156749,26.6779033 21.6072025,26.6775802 23.0894487,23.75 C28.4436906,25.3423419 31.5791334,26.997033 32.495777,28.7140732 Z" id="body" fill="url(#linearGradient-18)" fill-rule="evenodd"></path>
                                <path d="M17.3310811,28.6711712 C16.976574,28.6711712 16.6891892,28.4316838 16.6891892,28.1362613 C16.6891892,27.8408387 16.976574,27.6013514 17.3310811,27.6013514 C17.6855882,27.6013514 17.972973,27.8408387 17.972973,28.1362613 C17.972973,28.4316838 17.6855882,28.6711712 17.3310811,28.6711712 Z M17.3310811,31.3457207 C16.976574,31.3457207 16.6891892,31.1062334 16.6891892,30.8108108 C16.6891892,30.5153882 16.976574,30.2759009 17.3310811,30.2759009 C17.6855882,30.2759009 17.972973,30.5153882 17.972973,30.8108108 C17.972973,31.1062334 17.6855882,31.3457207 17.3310811,31.3457207 Z M17.3310811,34.0202703 C16.976574,34.0202703 16.6891892,33.7807829 16.6891892,33.4853604 C16.6891892,33.1899378 16.976574,32.9504505 17.3310811,32.9504505 C17.6855882,32.9504505 17.972973,33.1899378 17.972973,33.4853604 C17.972973,33.7807829 17.6855882,34.0202703 17.3310811,34.0202703 Z" id="buttons" fill="#FFFFFF" fill-rule="nonzero"></path>
                                <path d="M14.3675683,10.1813387 C13.9021228,9.80149035 13.3366684,9.54579387 12.5373254,9.94046106 C10.642204,10.8761573 12.0764892,14.463553 13.7595005,14.463553 C14.1986734,14.463553 14.4169612,15.7739636 12.4620543,16.6891892 C12.4620543,15.2289266 10.1204734,11.6130384 9.91625919,8.32084576 C7.55936921,7.4871368 8.14476444,4.1512086 9.76303419,4.1512086 C9.50420597,1.09278843 14.6572864,-0.486279961 16.6526108,1.26825602 C18.6818786,-1.04257046 23.8040869,0.13954685 24.1134279,2.14426552 C27.6354994,0.357498325 29.9507369,5.4938429 26.6527749,7.4871368 C25.2957401,8.30733092 22.1210756,8.61988766 17.5385289,8.61988766 C16.8468091,8.61988766 16.4592783,8.7831308 16.6526108,9.5960111 C17.0272224,11.171093 16.1577028,12.1633193 14.3675683,10.1813387 Z" id="hair" fill="url(#linearGradient-18)" fill-rule="evenodd"></path>
                            </g>
                        </g>
                    </g>
                </g>
                <path d="M64.1891892,120.879145 L64.1891892,215.061477 C64.1891892,217.822901 66.4277654,220.061477 69.1891892,220.061477 C69.4152119,220.061477 69.6409744,220.046151 69.8649235,220.015605 L125.749108,212.393101 C128.226459,212.055195 130.073374,209.939262 130.073374,207.438973 L130.073374,117.630208 C130.073374,114.868785 127.834798,112.630208 125.073374,112.630208 C124.976581,112.630208 124.879809,112.633019 124.783179,112.638637 L68.8989944,115.887573 C66.2547574,116.041301 64.1891892,118.230443 64.1891892,120.879145 Z" id="Path-63" stroke="#2791D9"></path>
                <path d="M141.920238,27.1780182 L141.920238,114.350817 C141.920238,117.112241 144.158814,119.350817 146.920238,119.350817 C146.958036,119.350817 146.995833,119.350388 147.033622,119.349531 L193.631192,118.292574 C196.347737,118.230956 198.517807,116.011104 198.517807,113.29386 L198.517807,29.718904 C198.517807,27.0632579 196.441751,24.8709138 193.790044,24.7263208 L147.192475,22.185435 C144.435147,22.0350827 142.078007,24.1484536 141.927655,26.9057812 C141.922711,26.9964427 141.920238,27.087222 141.920238,27.1780182 Z" id="Path-65-Copy-2" stroke="#2791D9"></path>
                <path d="M53.9166556,5.27088801 L53.9166556,94.956096 C53.9166556,97.7175197 56.1552319,99.956096 58.9166556,99.956096 C58.9517211,99.956096 58.9867856,99.9557271 59.0218432,99.9549894 L111.584679,98.8489528 C114.304509,98.7917216 116.479492,96.5704906 116.479492,93.8500593 L116.479492,7.92975914 C116.479492,5.26651526 114.391935,3.07069105 111.732092,2.9361439 L59.1692558,0.277272766 C56.4113582,0.137765565 54.0625476,2.26039033 53.9230404,5.01828787 C53.9187846,5.10242069 53.9166556,5.18664762 53.9166556,5.27088801 Z" id="Path-65-Copy-3" stroke="#2791D9"></path>
                <path d="M60.9797297,243.925233 L60.9797297,339.744801 C60.9797297,342.506225 63.218306,344.744801 65.9797297,344.744801 C66.3350778,344.744801 66.6894134,344.70692 67.0367304,344.631799 L131.141876,330.766604 C133.442773,330.268947 135.084875,328.233706 135.084875,325.879606 L135.084875,233.729685 C135.084875,230.968261 132.846299,228.729685 130.084875,228.729685 C129.821867,228.729685 129.559269,228.750437 129.299525,228.791748 L65.1943797,238.987296 C62.7666479,239.373413 60.9797297,241.466989 60.9797297,243.925233 Z" id="Path-66" stroke="#2791D9"></path>
                <path d="M152.77027,256.810637 C152.77027,323.547449 152.77027,356.693903 152.77027,356.25 C152.77027,356.036471 173.668494,350.473408 215.464942,339.560811 L215.464942,247.908754 C215.464942,245.14733 213.226365,242.908754 210.464942,242.908754 C210.185857,242.908754 209.907262,242.93212 209.632076,242.978608 L156.937405,251.880492 C154.531465,252.286935 152.77027,254.370609 152.77027,256.810637 Z" id="Path-67" stroke="#2791D9"></path>
                <path d="M235.574324,260.340943 L235.574324,347.961697 C235.574324,350.723121 237.812901,352.961697 240.574324,352.961697 C240.965664,352.961697 241.355651,352.915753 241.736277,352.824809 L290.839392,341.092507 C293.089869,340.554796 294.677439,338.543218 294.677439,336.229395 L294.677439,252.364267 C294.677439,249.602843 292.438863,247.364267 289.677439,247.364267 C289.408893,247.364267 289.140783,247.385902 288.875711,247.428962 L239.772597,255.405639 C237.352357,255.7988 235.574324,257.888978 235.574324,260.340943 Z" id="Path-68" stroke="#2791D9"></path>
                <path d="M452.348449,408.562427 C451.47516,411.017541 451.775889,413.786615 453.939105,414.54844 C456.10232,415.310265 459.359101,414.951136 461.384813,412.879992 C463.410525,410.808848 464.635512,408.527286 469.478612,405.352967 C474.321712,402.178649 475.069566,401.377187 474.151501,399.57594 C473.233437,397.774693 471.184859,397.088233 471.184859,396.167494 C471.184859,395.246756 461.049312,399.897153 460.235089,400.553555 C459.420867,401.209956 453.221738,406.107313 452.348449,408.562427 Z" id="Path-69" fill="url(#linearGradient-7)"></path>
                <ellipse id="Oval" stroke="#4A4A4A" stroke-width="5" cx="339.239865" cy="188.716216" rx="14.4425676" ry="14.1216216"></ellipse>
                <path d="M72.5337838,313.050077 L122.01223,303.614865" id="Path-76" stroke="#17CCD5" stroke-width="5" stroke-linecap="round" stroke-linejoin="round"></path>
                <path d="M72.5337838,326.720405 L120.466873,317.094595" id="Path-77" stroke="#17CCD5" stroke-width="5" stroke-linecap="round" stroke-linejoin="round"></path>
                <path d="M166.891892,315.914266 L201.909666,310.033784" id="Path-78" stroke="#17CCD5" stroke-width="5" stroke-linecap="round" stroke-linejoin="round"></path>
                <path d="M166.891892,328.006757 L201.595961,321.587838" id="Path-79" stroke="#17CCD5" stroke-width="5" stroke-linecap="round" stroke-linejoin="round"></path>
                <path d="M167.533784,339.102969 L201.450492,331.858108" id="Path-80" stroke="#17CCD5" stroke-width="5" stroke-linecap="round" stroke-linejoin="round"></path>
                <path d="M247.77027,319.02027 L283.046462,312.601351" id="Path-81" stroke="#17CCD5" stroke-width="5" stroke-linecap="round" stroke-linejoin="round"></path>
                <path d="M247.77027,329.932432 L283.046462,323.513514" id="Path-81-Copy" stroke="#17CCD5" stroke-width="5" stroke-linecap="round" stroke-linejoin="round"></path>
                <path d="M78.9527027,177.753409 L116.226455,174.594595" id="Path-82" stroke="#17CCD5" stroke-width="5" stroke-linecap="round" stroke-linejoin="round"></path>
                <path d="M78.9527027,189.307463 L116.226455,186.148649" id="Path-82-Copy" stroke="#17CCD5" stroke-width="5" stroke-linecap="round" stroke-linejoin="round"></path>
                <path d="M78.9527027,200.219625 L116.226455,197.060811" id="Path-82-Copy-2" stroke="#17CCD5" stroke-width="5" stroke-linecap="round" stroke-linejoin="round"></path>
                <path d="M165.608108,195.777027 L192.477863,194.493243" id="Path-83" stroke="#17CCD5" stroke-width="5" stroke-linecap="round" stroke-linejoin="round"></path>
                <path d="M161.756757,206.689189 L196.444329,204.763514" id="Path-84" stroke="#17CCD5" stroke-width="5" stroke-linecap="round" stroke-linejoin="round"></path>
                <path d="M161.756757,216.659784 L197.15841,213.887877" id="Path-85" stroke="#17CCD5" stroke-width="5" stroke-linecap="round" stroke-linejoin="round"></path>
                <path d="M243.918919,215.976206 L275.890766,213.57637" id="Path-87" stroke="#17CCD5" stroke-width="5" stroke-linecap="round" stroke-linejoin="round"></path>
                <path d="M243.277027,206.047297 L275.269638,203.800676" id="Path-88" stroke="#17CCD5" stroke-width="5" stroke-linecap="round" stroke-linejoin="round"></path>
                <polygon id="Path-62" fill="#FFFFFF" points="330.574324 234.514001 343.428083 224.662162 366.553563 248.913904 353.89396 259.29394"></polygon>
                <path d="M330.574324,231.129456 L330.990397,231.596702 C332.029146,232.763206 333.789163,232.937489 335.036517,231.997361 L339.558659,228.589037 C340.88179,227.591796 341.145977,225.710763 340.148737,224.387631 C340.054962,224.263211 339.951637,224.146285 339.839699,224.037914 L339.821475,224.02027 L330.574324,231.129456 Z" id="Path-61" fill="#8F5F14"></path>
                <path d="M336.993243,236.13907 L343.801038,231.081081" id="Path-86" stroke="#979797" stroke-linecap="round" stroke-linejoin="round"></path>
                <path d="M341.486486,240.899739 L347.984309,236.216216" id="Path-89" stroke="#979797" stroke-linecap="round" stroke-linejoin="round"></path>
                <path d="M346.621622,245.912684 L352.650518,241.351351" id="Path-90" stroke="#979797" stroke-linecap="round" stroke-linejoin="round"></path>
                <circle id="Oval-Copy-2" fill="#86D2E7" cx="458.310811" cy="160.472973" r="10.9121622"></circle>
                <path d="M20.2195946,379.358108 C31.3865683,379.358108 40.4391892,370.305487 40.4391892,359.138514 C40.4391892,353.597637 38.2104447,348.577312 34.6005344,344.925116 C30.9351023,341.216749 25.8456919,338.918919 20.2195946,338.918919 C9.05262085,338.918919 -1.42108547e-14,347.97154 -1.42108547e-14,359.138514 C-1.42108547e-14,370.305487 9.05262085,379.358108 20.2195946,379.358108 Z" id="Oval-Copy-2" stroke="#FF5252" stroke-width="2" opacity="0.600000024" stroke-dasharray="6,6"></path>
                <circle id="Oval" fill="#86D2E7" cx="24.3918919" cy="313.885135" r="5.77702703"></circle>
                <circle id="Oval-Copy-5" fill="#86D2E7" cx="353.040541" cy="330.574324" r="5.77702703"></circle>
                <circle id="Oval-Copy-6" fill="#173155" cx="416.263874" cy="109.763514" r="5.77702703"></circle>
                <circle id="Oval-Copy-4" fill="#173155" cx="326.081081" cy="368.445946" r="10.9121622"></circle>
                <path d="M61.6216216,382.532264 L125.203316,366.52027" id="Path-91" stroke-opacity="0.4" stroke="#173155" stroke-width="11" opacity="0.694568452" stroke-linecap="round" stroke-linejoin="round"></path>
                <path d="M157.263514,390.876858 L220.845208,374.864865" id="Path-91-Copy" stroke-opacity="0.4" stroke="#173155" stroke-width="11" opacity="0.694568452" stroke-linecap="round" stroke-linejoin="round"></path>
                <path d="M235.574324,394.086318 L299.156019,378.074324" id="Path-91-Copy-2" stroke-opacity="0.4" stroke="#173155" stroke-width="11" opacity="0.694568452" stroke-linecap="round" stroke-linejoin="round"></path>
                <path d="M235.167775,92.2719595 L267.845951,91.9510135" id="Path-60" stroke="#17CCD5" stroke-width="5" stroke-linecap="round" stroke-linejoin="round"></path>
                <path d="M153.474292,85.464462 L186.152468,85.143516" id="Path-60-Copy" stroke="#17CCD5" stroke-width="5" stroke-linecap="round" stroke-linejoin="round"></path>
                <path d="M66.7544935,64.8786952 L102.876882,64.5495806" id="Path-60-Copy-2" stroke="#17CCD5" stroke-width="5" stroke-linecap="round" stroke-linejoin="round"></path>
                <path d="M235.167775,104.949324 L266.79369,103.986486" id="Path-73" stroke="#17CCD5" stroke-width="5" stroke-linecap="round" stroke-linejoin="round"></path>
                <path d="M154.116184,98.1418268 L185.742099,97.178989" id="Path-73-Copy" stroke="#17CCD5" stroke-width="5" stroke-linecap="round" stroke-linejoin="round"></path>
                <path d="M67.3963854,78.2102049 L102.355607,77.2228611" id="Path-73-Copy-2" stroke="#17CCD5" stroke-width="5" stroke-linecap="round" stroke-linejoin="round"></path>
                <g id="Path-160"></g>
            </g>
        </g>
    </g>
</svg>