<?xml version="1.0" encoding="UTF-8"?>
<svg width="566px" height="413px" viewBox="0 0 566 413" version="1.1" xmlns="http://www.w3.org/2000/svg" xmlns:xlink="http://www.w3.org/1999/xlink">
    <!-- Generator: Sketch 52.5 (67469) - http://www.bohemiancoding.com/sketch -->
    <title>Group 3</title>
    <desc>Created with Sketch.</desc>
    <defs>
        <filter x="-4.5%" y="-4.9%" width="109.0%" height="109.9%" filterUnits="objectBoundingBox" id="filter-1">
            <feGaussianBlur stdDeviation="5" in="SourceGraphic"></feGaussianBlur>
        </filter>
        <polygon id="path-2" points="63.3248225 163.427135 0.508971816 149.124024 1.09874217 0.501894572 63.3248225 5.74849165"></polygon>
        <linearGradient x1="50.0001937%" y1="-2.46789663%" x2="50.0001937%" y2="99.9999546%" id="linearGradient-4">
            <stop stop-color="#4BF2FB" offset="0%"></stop>
            <stop stop-color="#2F90D4" offset="100%"></stop>
        </linearGradient>
        <polygon id="path-5" points="0.483611691 40.8722651 170.510866 59.2907933 170.826394 13.0050261 0.483611691 0.0955427975"></polygon>
        <linearGradient x1="23.9072578%" y1="-23.4262141%" x2="66.5528364%" y2="88.9764614%" id="linearGradient-7">
            <stop stop-color="#41E6E9" offset="0%"></stop>
            <stop stop-color="#3DBDEB" offset="100%"></stop>
        </linearGradient>
        <path d="M2.28536013,0.477124217 L10.2101044,0.476534447 C13.0203601,1.66374217 14.92119,2.64335073 15.9131837,3.41477035 C14.0548173,6.05163361 11.3306681,7.52134134 8.30278706,7.14093946 C5.18408142,6.74874217 2.40567328,4.47458768 0.573256785,1.22495303 C1.10051148,0.985506263 1.67140919,0.736033403 2.28536013,0.477124217 Z" id="path-8"></path>
        <linearGradient x1="49.9989047%" y1="0.00306646237%" x2="49.9989047%" y2="149.710708%" id="linearGradient-10">
            <stop stop-color="#110224" offset="0%"></stop>
            <stop stop-color="#110217" offset="100%"></stop>
        </linearGradient>
        <path d="M36.3351618,4.22334551 L1.20313152,1.86662317 C0.796189979,1.84008351 0.475354906,1.49506785 0.462969729,1.07043319 C0.451174322,0.694159708 0.734853862,0.379222338 1.09638309,0.366837161 C1.11702505,0.366837161 1.13766701,0.366837161 1.15771921,0.368016701 L36.2897495,2.64806889 C36.7185125,2.6757881 37.0558612,3.03849687 37.0688361,3.4855428 C37.0800418,3.88127871 36.7810282,4.21272965 36.4000365,4.22452505" id="path-11"></path>
        <linearGradient x1="50%" y1="0%" x2="50%" y2="100%" id="linearGradient-13">
            <stop stop-color="#0069B1" offset="0%"></stop>
            <stop stop-color="#031D41" offset="100%"></stop>
        </linearGradient>
        <polygon id="path-14" points="0.429942589 62.4301409 74.4992015 73.753142 74.7380585 6.38308455 0.419916493 0.401043841"></polygon>
        <linearGradient x1="28.1300214%" y1="9.94749184%" x2="87.1304727%" y2="108.148818%" id="linearGradient-16">
            <stop stop-color="#2ACAD3" offset="0%"></stop>
            <stop stop-color="#21C8FB" offset="100%"></stop>
        </linearGradient>
        <path d="M7.58715971,0.468690501 C7.58715971,0.468690501 9.11053653,7.45982829 5.82020772,7.92987526 C2.52987891,8.39992223 1.083762,8.47305376 0.450938413,9.27632098 C-0.181295407,10.0795882 5.62440397,12.89987 8.2418048,16.8253815 C10.8586159,20.7514828 14.7847171,23.3688836 16.7468831,18.7881373 C18.7096388,14.2085705 18.0555835,12.2464045 20.0183392,11.5911696 C21.981095,10.9371143 22.8386211,7.65268319 22.8386211,7.65268319 C22.8386211,7.65268319 16.8152965,6.70374269 16.1612411,6.04968737 C15.5077756,5.39563205 14.7847171,1.12333559 14.7847171,1.12333559 L7.58715971,0.468690501 Z" id="path-17"></path>
        <path d="M1.78623747,0.706544885 C1.78623747,0.706544885 14.9469629,17.6282359 16.8277406,20.9185647 C18.7073387,24.2088935 25.2885861,29.8494572 27.168774,32.1991023 C29.0489619,34.5499269 37.5098074,36.4301148 35.1595725,37.8402557 C32.8093377,39.2503967 27.168774,36.4301148 23.8784452,34.5499269 C20.5881164,32.669739 17.7678346,30.3195042 14.9469629,27.9692693 C12.1272709,25.6190344 3.66642537,16.218095 1.78623747,13.3978132 C-0.0939504175,10.5775313 -1.03404436,-1.64368998 1.78623747,0.706544885" id="path-19"></path>
        <path d="M42.1601467,14.6035986 C41.2200527,13.1934577 37.7468951,4.54919363 36.5201728,3.32247129 C34.5568272,1.35971555 29.8374849,0.502779228 28.5293742,0.502779228 C27.220084,0.502779228 26.5471561,2.77044624 25.2390454,4.73320198 C23.930345,6.69595772 19.597892,7.55348382 16.3075632,7.08284708 C13.0172343,6.6128001 9.26452557,1.81324896 9.26452557,1.81324896 C9.26452557,1.81324896 3.22881576,3.89454854 1.26606002,5.20324896 C-0.69669572,6.5113596 1.51435334,17.5353471 0.860298017,20.8068032 C0.205652923,24.0776696 2.82305376,48.2865632 2.16840866,53.5207751 C1.51435334,58.7543972 3.14683768,62.5483899 9.72690553,63.0190266 C16.3075632,63.4890736 20.5568586,61.0368085 23.8283147,59.7286978 C27.1003606,58.4199974 47.3141498,54.1754201 47.3141498,54.1754201 C47.3141498,54.1754201 42.734583,47.6319181 41.4258826,44.3610517 C40.1171822,41.0895955 34.6393951,24.944632 34.6393951,24.944632 C34.6393951,24.944632 38.2039671,22.2470224 42.1601467,20.2441623 C43.5997761,19.5152062 43.1008304,16.0143293 42.1601467,14.6035986" id="path-21"></path>
        <polygon id="path-23" points="0.508382046 39.426738 40.0235856 54.1709969 98.4108507 11.117761 61.76488 0.575615866"></polygon>
        <linearGradient x1="23.0283795%" y1="8.47951879%" x2="96.6016301%" y2="111.045145%" id="linearGradient-25">
            <stop stop-color="#AFF9FB" offset="0%"></stop>
            <stop stop-color="#87D1E4" offset="100%"></stop>
        </linearGradient>
        <polygon id="path-26" points="0.508382046 51.2221451 42.382667 65.3766336 88.1429489 10.7255637 51.1649374 0.160417537"></polygon>
        <linearGradient x1="29.674453%" y1="11.6623395%" x2="83.0757374%" y2="105.154529%" id="linearGradient-28">
            <stop stop-color="#AFF9FB" offset="0%"></stop>
            <stop stop-color="#87D1E4" offset="100%"></stop>
        </linearGradient>
        <linearGradient x1="33.6872195%" y1="0%" x2="72.497387%" y2="100%" id="linearGradient-29">
            <stop stop-color="#1A88DA" offset="0%"></stop>
            <stop stop-color="#0B50B3" offset="100%"></stop>
        </linearGradient>
        <polygon id="path-30" points="0.508971816 20.5540866 23.0128392 28.6410177 53.5883038 8.16890919 32.9463413 0.501894572"></polygon>
        <linearGradient x1="49.9996343%" y1="-3.6259222e-05%" x2="49.9996343%" y2="99.9998317%" id="linearGradient-32">
            <stop stop-color="#0E6BAE" offset="0%"></stop>
            <stop stop-color="#041D3F" offset="100%"></stop>
        </linearGradient>
        <path d="M19.2996451,1.60966023 C19.2996451,1.60966023 19.2996451,6.11137735 19.9542902,8.36253079 C20.6083455,10.6136842 22.0951566,16.2695819 21.4411013,18.8869828 C20.7864562,21.5037938 16.682834,26.3705788 13.4119676,25.6198011 C10.1399217,24.8696133 7.52252088,24.8696133 4.90570981,22.6184598 C2.28889875,20.3678961 1.63484342,19.6177082 0.98019833,15.866179 C0.325553236,12.1146498 0.325553236,7.6123429 2.28889875,6.86215501 C4.25106472,6.11137735 3.59759916,0.859472338 5.56035491,0.859472338 C7.52252088,0.859472338 13.4119676,0.109284447 13.4119676,0.109284447 L19.2996451,1.60966023 Z" id="path-33"></path>
        <path d="M5.64274582,0.1006738 C5.64274582,0.1006738 18.1157991,20.3557469 19.3826258,22.3462218 C23.9627824,29.5425997 30.5056947,31.5059452 35.7393168,32.8146456 C40.9741185,34.123346 44.2455746,34.7768116 46.2083304,36.0861018 C48.1710861,37.3942124 48.1710861,38.7023231 44.89963,38.7023231 C41.6287636,38.7023231 37.0480172,37.3942124 34.4312062,37.3942124 C31.8143951,37.3942124 25.9255381,38.0482677 23.3081373,36.0861018 C20.691916,34.123346 12.8403032,27.5798439 9.56884708,23.6543325 C6.29680115,19.7282312 1.71723434,11.2231529 0.408533925,8.60575209 C-0.900166493,5.98835125 5.64274582,0.1006738 5.64274582,0.1006738" id="path-35"></path>
        <path d="M0.93384238,10.5949885 C0.0208778706,18.5020397 0.93384238,23.2868466 1.40388935,25.1664447 C1.87393633,27.0472223 0.747474948,35.1718987 7.04386326,32.2171493 C13.3408413,29.2629896 18.7950376,27.5166795 18.7950376,27.5166795 C18.7950376,27.5166795 18.7059823,17.7524415 16.2849749,14.332953 C13.8645574,10.9140543 14.5876159,8.39809395 14.5876159,8.39809395 C14.5876159,8.39809395 12.2149697,-0.686138831 9.39468789,0.254544885 C6.57381628,1.19463883 1.84680689,2.68793737 0.93384238,10.5949885" id="path-37"></path>
        <path d="M8.18837161,24.5828079 L8.18837161,28.1102244 C8.18837161,28.1102244 5.83813674,26.9330428 4.42799582,24.5828079 C3.01785491,22.2325731 -1.21256785,16.1219624 1.13766701,13.3016806 C3.48790188,10.4813987 -0.742520877,6.25097599 6.30818372,2.02055324 C13.3588883,-2.20986952 18.999452,2.49060021 23.6999217,2.49060021 C28.4003914,2.49060021 26.0501566,10.4813987 25.5801096,11.4214927 C25.1100626,12.3615866 18.999452,11.8915397 15.7091232,11.4214927 C12.4187944,10.9514457 8.18837161,10.9514457 8.18837161,12.8316336 L8.18837161,24.5828079 Z" id="path-39"></path>
        <linearGradient x1="84.472281%" y1="2.58986585%" x2="17.2839068%" y2="59.9778702%" id="linearGradient-41">
            <stop stop-color="#34608A" offset="0%"></stop>
            <stop stop-color="#000000" offset="100%"></stop>
        </linearGradient>
        <path d="M29.4295407,0.504253653 C29.2160438,0.51545929 29.0054958,0.567948852 28.8108716,0.657593946 L2.48588205,16.8963309 C1.28098121,17.4501253 0.508971816,18.6556159 0.508971816,19.9820094 L2.86746347,48.2732933 L32.6378914,28.7053027 L31.2171347,2.11019833 C31.1687735,1.20372129 30.4185856,0.501304802 29.5215449,0.501304802 C29.4908768,0.501304802 29.4607985,0.502484342 29.4295407,0.504253653" id="path-42"></path>
        <linearGradient x1="50.0000028%" y1="0.0012131949%" x2="50.0000028%" y2="99.9999786%" id="linearGradient-44">
            <stop stop-color="#0E6BAE" offset="0%"></stop>
            <stop stop-color="#041D3F" offset="100%"></stop>
        </linearGradient>
        <polygon id="path-45" points="0.523126305 28.6209656 24.6889666 36.4778862 49.4074217 7.74958246 25.4362056 0.469457203"></polygon>
        <linearGradient x1="50.0008165%" y1="-0.00144099582%" x2="50.0008165%" y2="99.9999653%" id="linearGradient-47">
            <stop stop-color="#0E6BAE" offset="0%"></stop>
            <stop stop-color="#041D3F" offset="100%"></stop>
        </linearGradient>
        <path d="M4.42870355,2.97928392 C4.42870355,2.97928392 4.60740397,8.5343309 3.87608873,10.326643 C3.14477349,12.1183653 1.82073904,13.8664447 0.588708768,14.389571 C-0.643321503,14.9121075 0.813411273,19.3324363 3.23146973,18.8983653 C5.64893841,18.4648841 7.7042881,14.9250825 11.2157808,15.8050198 C14.7272735,16.6849572 10.8536618,12.6986994 11.1756764,8.4128382 C11.4982808,4.12697704 11.469382,0.154873695 11.469382,0.154873695 L6.34604697,1.27602714 L4.42870355,2.97928392 Z" id="path-48"></path>
        <path d="M8.65440814,29.3870183 C5.25851044,30.7281561 -0.0104979123,24.7337302 0.57455428,21.1272844 C1.15960647,17.5208387 1.86143319,7.60031159 1.86143319,7.60031159 C1.86143319,7.60031159 0.514397704,-1.6130809 3.85367745,1.00844833 C7.1929572,3.6311571 10.9651284,4.95224269 10.9651284,4.95224269 L22.7888445,17.5167103 C22.7888445,17.5167103 15.2846065,26.3668043 13.6898674,27.0361936 C13.6898674,27.0361936 12.0503058,28.0452907 8.65440814,29.3870183" id="path-50"></path>
        <linearGradient x1="38.4588368%" y1="6.03222993%" x2="71.0972324%" y2="122.311655%" id="linearGradient-52">
            <stop stop-color="#34608A" offset="0%"></stop>
            <stop stop-color="#000000" offset="100%"></stop>
        </linearGradient>
        <path d="M11.3866962,13.503559 C15.5369102,13.8155475 20.643142,17.278679 26.6186952,17.1123638 C32.5942484,16.9466383 42.9512056,14.0314034 46.0533977,12.4177918 C49.1567693,10.8041801 56.6863674,5.82828758 57.2790866,5.87311013 C57.8723956,5.91793267 56.600261,-0.951122651 54.7295094,0.139952505 C52.8587578,1.23043789 47.2459134,4.50307359 42.3172025,6.59498904 C37.390261,8.68690449 33.4205167,9.92778132 25.6662161,9.96021868 C17.9119154,9.99206628 8.37827766,9.89003601 5.36867954,10.2792844 C2.35731211,10.6685329 -1.29218685,11.6251404 1.30634134,12.7451143 L11.3866962,13.503559 Z" id="path-53"></path>
        <linearGradient x1="67.0947204%" y1="2.92391504%" x2="37.823438%" y2="80.7878221%" id="linearGradient-55">
            <stop stop-color="#AFF9FB" offset="0%"></stop>
            <stop stop-color="#87D1E4" offset="100%"></stop>
        </linearGradient>
    </defs>
    <g id="Page-1" stroke="none" stroke-width="1" fill="none" fill-rule="evenodd">
        <g id="Main-Illustration-Copy-4" transform="translate(-403.000000, -306.000000)">
            <g id="Group-3" transform="translate(403.000000, 307.000000)">
                <g id="Group-6">
                    <path d="M141.807343,34.2072823 C141.807343,53.3724597 127.234708,68.0713063 109.863612,67.0722353 C93.1265188,66.1097301 80,50.8299597 80,32.9121466 C80,14.9949232 93.1265188,0.265408587 109.863612,0.0035505497 C127.234708,-0.267743814 141.807343,15.0421048 141.807343,34.2072823 Z" id="Stroke-18" stroke="#183254" stroke-width="2" stroke-linecap="round" stroke-linejoin="round" stroke-dasharray="6"></path>
                    <polygon id="Fill-20" fill="#C0DDFD" points="215.847004 265.516644 144.057208 248.514154 144 79 215.847004 82.6247286"></polygon>
                    <path d="M450.080648,264.391738 L450.080648,32.9646712 C450.080648,28.5561378 448.820898,24.9349478 442.051514,24.9349478 C435.28213,24.9349478 129.23142,21 123.563137,21 C117.896034,21 116.007,21.629285 116.007,28.5561378 L116.007,232.590141 C116.007,241.406618 115.376535,246.444436 126.082636,249.59322 C136.788148,252.742004 418.87059,321.531049 430.874186,324.531801 C438.430324,326.420835 449.76571,326.420835 450.080648,314.141227 C450.258169,307.216143 450.080648,264.391738 450.080648,264.391738" id="Fill-22" fill="#183254" opacity="0.2" filter="url(#filter-1)"></path>
                    <path d="M456.081219,309.141227 C456.25874,302.216733 456.081219,259.392328 456.081219,259.392328 L456.081219,27.9646712 C456.081219,23.5573173 454.82147,19.9361273 448.052086,19.9361273 C441.282112,19.9361273 135.231402,16 129.563709,16 C123.896016,16 122.006981,16.629285 122.006981,23.5573173 L122.006981,227.590731 C122.006981,236.407208 121.377107,241.445026 132.083208,244.59381 C142.78813,247.742594 424.870572,316.531049 436.874168,319.531801 C444.430896,321.420835 455.766282,321.420835 456.081219,309.141227" id="Fill-24" fill="#FFFFFF"></path>
                    <path d="M456.081219,309.141227 C456.25874,302.216733 456.081219,259.392328 456.081219,259.392328 L456.081219,27.9646712 C456.081219,23.5573173 454.82147,19.9361273 448.052086,19.9361273 C441.282112,19.9361273 135.231402,16 129.563709,16 C123.896016,16 122.006981,16.629285 122.006981,23.5573173 L122.006981,227.590731 C122.006981,236.407208 121.377107,241.445026 132.083208,244.59381 C142.78813,247.742594 424.870572,316.531049 436.874168,319.531801 C444.430896,321.420835 455.766282,321.420835 456.081219,309.141227 Z" id="Stroke-26" stroke="#2791D9"></path>
                    <path d="M134.413252,22.4495196 C134.413252,23.7847597 133.421848,24.8492952 132.201023,24.8251146 C130.984916,24.8027033 130,23.7063203 130,22.3769779 C130,21.0470457 130.984916,19.9831 132.201023,20.0002033 C133.421848,20.0173067 134.413252,21.1136898 134.413252,22.4495196" id="Fill-28" fill="#F94145"></path>
                    <path d="M145.413841,22.4495196 C145.413841,23.7847597 144.422437,24.8492952 143.201613,24.8251146 C141.985506,24.8027033 141,23.7063203 141,22.3769779 C141,21.0470457 141.985506,19.9831 143.201613,20.0002033 C144.422437,20.0173067 145.413841,21.1136898 145.413841,22.4495196" id="Fill-30" fill="#1FB952"></path>
                    <path d="M157.413841,22.4495196 C157.413841,23.7847597 156.422437,24.8492952 155.201613,24.8251146 C153.985506,24.8027033 153,23.7063203 153,22.3769779 C153,21.0470457 153.985506,19.9831 155.201613,20.0002033 C156.422437,20.0173067 157.413841,21.1136898 157.413841,22.4495196" id="Fill-32" fill="#FDCC57"></path>
                    <polygon id="Fill-36" fill="#183254" points="455.425741 64.6488309 121 49.3478288 121 26 455.425741 34.5705428"></polygon>
                    <g id="Group" transform="translate(160.000000, 86.000000)">
                        <g id="Group-40" transform="translate(-0.000000, -0.000000)">
                            <mask id="mask-3" fill="white">
                                <use xlink:href="#path-2"></use>
                            </mask>
                            <g id="Clip-39"></g>
                            <path d="M58.4367571,162.314127 L3.6335914,149.835497 C1.80740424,149.419676 0.514256167,147.792368 0.521688371,145.919452 L1.08154325,4.83602211 C1.09030961,2.62690051 2.88826304,0.843160141 5.09738465,0.851926497 C5.20426197,0.852350613 5.31107936,0.857058128 5.41757964,0.866037708 L59.6608904,5.43956691 C61.7323973,5.61422618 63.3248225,7.34656716 63.3248225,9.42542421 L63.3248225,158.413955 C63.3248225,160.623094 61.5339615,162.413955 59.3248225,162.413955 C59.0260012,162.413955 58.7281208,162.38047 58.4367571,162.314127 Z" id="Fill-38" fill="url(#linearGradient-4)" mask="url(#mask-3)"></path>
                        </g>
                        <path d="M25.9646712,29.8474591 C25.9646712,34.3538944 23.2617537,37.6684038 19.9466545,37.2514362 C16.6539666,36.8385969 14,32.893623 14,28.4396773 C14,23.9857316 16.6539666,20.6659142 19.9466545,21.0268537 C23.2617537,21.3901522 25.9646712,25.3404341 25.9646712,29.8474591" id="Fill-72" fill="#ECFAFF"></path>
                        <path d="M25.9646712,54.8479692 C25.9646712,59.3544045 23.2617537,62.6683241 19.9466545,62.2513564 C16.6539666,61.8385172 14,57.8935433 14,53.4401873 C14,48.9856519 16.6539666,45.6664243 19.9466545,46.026774 C23.2617537,46.3900725 25.9646712,50.3403544 25.9646712,54.8479692" id="Fill-74" fill="#ECFAFF"></path>
                        <path d="M25.9646712,79.8474591 C25.9646712,84.3538944 23.2617537,87.6684038 19.9466545,87.2514362 C16.6539666,86.8385969 14,82.893623 14,78.4396773 C14,73.9857316 16.6539666,70.6659142 19.9466545,71.0268537 C23.2617537,71.3901522 25.9646712,75.3404341 25.9646712,79.8474591" id="Fill-78" fill="#ECFAFF"></path>
                        <path d="M36.7604695,141.304745 L23.0418213,138.463822 C21.2306365,138.088138 19.9490655,136.468039 20.0015551,134.619109 C20.0434288,133.131118 21.2837159,131.958655 22.7717065,132.001118 C22.924457,132.005246 23.0766177,132.022939 23.2264194,132.052428 L36.9409392,134.805476 C38.7881,135.176442 40.0985697,136.82367 40.0449006,138.706807 C40.0024372,140.21485 38.7456365,141.403237 37.2375937,141.360773 C37.0771762,141.356055 36.9179382,141.337772 36.7604695,141.304745" id="Fill-104" fill="#2F91D5"></path>
                        <path d="M31,24 L48.1033403,25.1795407" id="Stroke-349" stroke="#FFFFFF" stroke-width="3" stroke-linecap="round" stroke-linejoin="round"></path>
                        <path d="M31,32 L47.5135699,33.7693111" id="Stroke-351" stroke="#FFFFFF" stroke-width="3" stroke-linecap="round" stroke-linejoin="round"></path>
                        <path d="M31,52 L46.9237996,54.3590814" id="Stroke-353" stroke="#FFFFFF" stroke-width="3" stroke-linecap="round" stroke-linejoin="round"></path>
                        <path d="M31,61 L46.3340292,63.3590814" id="Stroke-355" stroke="#FFFFFF" stroke-width="3" stroke-linecap="round" stroke-linejoin="round"></path>
                        <path d="M31,76 L46.9237996,78.3590814" id="Stroke-357" stroke="#FFFFFF" stroke-width="3" stroke-linecap="round" stroke-linejoin="round"></path>
                        <path d="M31,85 L46.9237996,87.3590814" id="Stroke-359" stroke="#FFFFFF" stroke-width="3" stroke-linecap="round" stroke-linejoin="round"></path>
                        <path d="M15,126 L44.1936326,132.192589" id="Stroke-361" stroke="#2F91D5" stroke-width="2" stroke-linecap="round"></path>
                    </g>
                    <g id="Group-4" transform="translate(235.000000, 91.000000)">
                        <g id="Group-44" transform="translate(0.000000, 0.000000)">
                            <mask id="mask-6" fill="white">
                                <use xlink:href="#path-5"></use>
                            </mask>
                            <g id="Clip-43"></g>
                            <path d="M4.05282424,41.2589069 L166.110345,58.8140984 C168.306635,59.0520157 170.27995,57.4644409 170.517867,55.2681507 C170.532386,55.1341204 170.54012,54.9994417 170.541039,54.8646304 L170.800941,16.7387004 C170.815273,14.6363696 169.199677,12.8817448 167.103309,12.7228709 L4.78588619,0.421592074 C2.583064,0.254650476 0.661990877,1.90505779 0.495049278,4.10787998 C0.487426947,4.2084579 0.483611691,4.30928815 0.483611691,4.41015449 L0.483611691,37.2821718 C0.483611691,39.3245736 2.02230151,41.0389467 4.05282424,41.2589069 Z" id="Fill-42" fill="url(#linearGradient-7)" mask="url(#mask-6)"></path>
                        </g>
                        <path d="M35.1282724,23.8825781 C35.1282724,31.464076 30.581143,37.0397649 25.0048643,36.3379382 C19.4645616,35.6420092 15,29.0070927 15,21.5146501 C15,14.0222075 19.4645616,8.43826179 25.0048643,9.04513548 C30.581143,9.65613757 35.1282724,16.3016699 35.1282724,23.8825781" id="Fill-76" fill="#FFFFFF"></path>
                        <path d="M163.410094,25.2898121 L144.33751,23.7251514 C142.451425,23.5706315 141,21.9947651 141,20.1021921 C141,18.3889092 142.388319,17 144.102192,17 C144.181221,17 144.260251,17.0029489 144.33869,17.0088466 L163.408914,18.469118 C165.332745,18.6159708 166.818967,20.2195564 166.818967,22.1498747 C166.818967,23.8896973 165.408236,25.3010177 163.667824,25.3010177 C163.581717,25.3010177 163.4962,25.2974791 163.410094,25.2898121" id="Fill-80" fill="#183254"></path>
                        <path d="M125.892474,27.5801409 L44.2092797,20.4515866 C42.9589666,20.3430689 42,19.2956367 42,18.0411952 C42,16.9135543 42.9135543,16 44.0406054,16 C44.0972234,16 44.1538413,16.0023591 44.2098695,16.0070772 L125.891294,22.8094885 C127.23774,22.9215449 128.273377,24.0468267 128.273377,25.3979906 C128.273377,26.6081994 127.292589,27.5889875 126.08238,27.5889875 C126.019275,27.5889875 125.955579,27.5860386 125.892474,27.5801409" id="Fill-82" fill="#FFFFFF"></path>
                        <path d="M116.597693,39.5447547 L44.085428,32.209191 C42.9011691,32.0894676 42,31.0927557 42,29.9020094 C42,28.8516284 42.8510386,28 43.9014196,28 C43.9633455,28 44.0246816,28.0029489 44.0866075,28.0088466 L116.596514,35.0707568 C117.862161,35.1940188 118.827025,36.2579645 118.827025,37.5295094 C118.827025,38.647714 117.919958,39.5553706 116.801754,39.5553706 C116.732751,39.5553706 116.664927,39.5518319 116.597693,39.5447547" id="Fill-84" fill="#FFFFFF"></path>
                        <path d="M19.8078603,18.7834656 C18.6855273,19.9718528 18.6855273,21.1230846 20.1051046,22.9625783 C20.1169,25.677881 20.1051046,28.6019624 20.1051046,29.1846555 C20.1051046,29.3898956 21.1619731,29.6800626 23.2751202,30.0533873 C25.3888572,29.6187265 26.4445461,29.3291493 26.4445461,29.1846555 L26.4445461,27.0048643 L28.4757152,27.0048643 C30.0604282,27.0048643 29.6523071,24.9601305 29.6151516,24.3302557 C29.5520461,23.2881315 29.3214459,20.8441232 28.9215816,17 C23.594186,17.3957359 20.5562789,17.9908142 19.8078603,18.7834656" id="Fill-106" fill="#FDD4C2"></path>
                        <g id="Group-112" transform="translate(17.000000, 29.000000)">
                            <mask id="mask-9" fill="white">
                                <use xlink:href="#path-8"></use>
                            </mask>
                            <g id="Clip-111"></g>
                            <path d="M2.28536013,0.477124217 C1.67140919,0.736033403 1.10051148,0.985506263 0.573256785,1.22495303 C2.40567328,4.47458768 5.18408142,6.74874217 8.30278706,7.14093946 C11.3306681,7.52134134 14.0548173,6.05163361 15.9131837,3.41477035 C14.92119,2.64335073 13.0203601,1.66374217 10.2101044,0.476534447 L2.28536013,0.477124217 Z" id="Fill-110" fill="url(#linearGradient-10)" mask="url(#mask-9)"></path>
                        </g>
                        <path d="M22.412925,29.5736704 L22,35.3998396 C22.9537235,35.8061895 23.9509596,36.1203423 24.9775,36.3300052 L24.5006382,29.5736704 C24.0370966,29.1905405 23.6881084,29 23.4563376,29 C23.2236788,29 22.8755786,29.1905405 22.412925,29.5736704" id="Fill-113" fill="#2BCBD3"></path>
                        <polygon id="Fill-117" fill="#FFFFFF" points="23.5617484 29.3865501 22.4496277 31.1700157 19 29.2886482 20.0021672 28 23.5617484 29.1718737 27.1219921 28 28.1234969 29.2886482 24.6745316 31.1700157"></polygon>
                        <path d="M22.6236751,12.9035282 C21.2736908,11.653215 17.7851991,12.7784969 17.9603609,14.955929 C16.8645676,14.955929 16.4682419,17.3332933 18.0647503,17.9271921 C18.2027565,20.2709395 19.7874695,22.8470564 19.7874695,23.888001 C21.1103244,23.235715 21.3367962,22.2490292 20.8419789,22.2655428 C19.4070676,22.316263 18.556029,19.7466336 19.8381897,19.0813727 C20.3790091,18.7988727 20.7623599,18.9817015 21.0772972,19.2518163 C21.8669997,20.3717902 21.8493066,22.7255637 22.1648338,24.1846555 C22.5611594,26.0164823 25.0877356,26.7607724 27.6131323,26.7607724 C29.0987638,26.7607724 30.0400373,25.5712056 29.2969267,23.5895772 C29.2479757,23.7883299 28.8215718,24.1180115 28.0088682,24.2341962 C26.9696928,24.3828184 23.6504653,24.1846555 23.055387,22.7479749 C22.590648,21.6232829 21.7348912,18.1395094 23.2234715,18.1395094 C26.3250738,18.1395094 28.474197,17.917166 29.3930592,17.3332933 C31.62534,15.9131263 30.0583202,12.2536013 27.6738786,13.5269154 C27.5458985,12.6540553 26.2000425,12 24.8589047,12 C24.0072764,12 23.1574173,12.2636273 22.6236751,12.9035282" id="Fill-119" fill="#183254"></path>
                    </g>
                    <g id="Group-5" transform="translate(162.000000, 60.000000)">
                        <polyline id="Stroke-45" stroke="#939393" points="244.33714 12.9749478 244.33714 29.8270459 1.42108547e-14 15.3434656 0.0171033403 -4.28101998e-13"></polyline>
                        <path d="M36.3099243,17.1140449 L36.279846,2" id="Stroke-47" stroke="#939393"></path>
                        <path d="M74.2948852,19.6194781 L74.2948852,4" id="Stroke-49" stroke="#939393"></path>
                        <path d="M116.219395,21.7350731 L116.370376,6" id="Stroke-51" stroke="#939393"></path>
                        <path d="M161.267166,24.0393946 L161.322604,8" id="Stroke-53" stroke="#939393"></path>
                        <g id="Group-57" transform="translate(36.000000, 19.000000)">
                            <mask id="mask-12" fill="white">
                                <use xlink:href="#path-11"></use>
                            </mask>
                            <g id="Clip-56"></g>
                            <path d="M36.3351618,4.22334551 L1.20313152,1.86662317 C0.796189979,1.84008351 0.475354906,1.49506785 0.462969729,1.07043319 C0.451174322,0.694159708 0.734853862,0.379222338 1.09638309,0.366837161 C1.11702505,0.366837161 1.13766701,0.366837161 1.15771921,0.368016701 L36.2897495,2.64806889 C36.7185125,2.6757881 37.0558612,3.03849687 37.0688361,3.4855428 C37.0800418,3.88127871 36.7810282,4.21272965 36.4000365,4.22452505 C36.378215,4.22511482 36.3563935,4.22511482 36.3351618,4.22334551" id="Fill-55" fill="url(#linearGradient-13)" mask="url(#mask-12)" transform="translate(18.765878, 2.295857) rotate(-1.000000) translate(-18.765878, -2.295857) "></path>
                        </g>
                        <polygon id="Fill-62" fill="#E1E1E1" points="31.4488413 13.6676931 5 12.1838309 5 8 31.4488413 9.37416493"></polygon>
                        <polygon id="Fill-64" fill="#E1E1E1" points="69.916691 16.2480271 40 14.1838309 40 10 69.916691 11.5298643"></polygon>
                        <polygon id="Fill-66" fill="#E1E1E1" points="109.916691 18.2480271 80 16.1838309 80 12 109.916691 13.5298643"></polygon>
                        <polygon id="Fill-68" fill="#E1E1E1" points="153.916691 20.2480271 124 18.1838309 124 14 153.916691 15.5298643"></polygon>
                        <polygon id="Fill-70" fill="#E1E1E1" points="234.17452 25.0173382 173 21.1838309 173 17 234.17452 20.2991754"></polygon>
                    </g>
                    <polygon id="Fill-58" fill="#FFFFFF" points="164.483272 44.9630063 163 45.5162109 163 42 164.483272 42.5278445"></polygon>
                    <path d="M159.739896,45.627072 L163.033173,45.627072 L163.033173,41.7687944 L166.495715,41.7687944 L166.495715,45.627072 L169.788993,45.627072 L169.788993,35 L166.572975,35 L166.572975,38.7332463 L163.006044,38.7332463 L163.006044,35 L159.787077,35 L159.785308,40.4789666 C159.785308,42.1197077 159.157792,42.8174061 157.995945,42.8174061 C156.854149,42.8174061 156.229582,42.1197077 156.229582,40.4789666 L156.229582,35 L153,35 L153,40.4789666 C153,44.0907203 154.61892,45.627072 157.995945,45.627072 L159.739896,45.627072 Z" id="Fill-60" fill="#FFFFFF"></path>
                    <path d="M262.189092,149.075637 L237,145.998805 L237,139 L262.189092,141.912876 L262.189092,149.075637 Z M318.189682,155.075637 L293,151.998805 L293,145 L318.189682,147.912876 L318.189682,155.075637 Z M373.189682,161.075637 L348,157.998805 L348,151 L373.189682,153.912876 L373.189682,161.075637 Z M290.189092,152.075637 L265,148.998805 L265,142 L290.189092,144.912876 L290.189092,152.075637 Z M346.189682,158.075637 L321,154.998805 L321,148 L346.189682,150.912876 L346.189682,158.075637 Z M401.189682,164.075637 L376,160.998805 L376,154 L401.189682,156.912876 L401.189682,164.075637 Z" id="Combined-Shape" fill="#E1E1E1"></path>
                    <g id="Group-2" transform="translate(237.000000, 152.000000)">
                        <path d="M164.61184,137.091598 L3.08662237,99.2073316 C1.27841765,98.7832337 5.70708692e-14,97.170283 5.68434189e-14,95.3130099 L5.68434189e-14,4.53230489 C5.65728774e-14,2.32316589 1.790861,0.53230489 4,0.53230489 C4.16620376,0.53230489 4.33224596,0.542663765 4.49716097,0.563321271 L166.731262,20.8850132 C168.742423,21.1369344 170.247276,22.8533332 170.234015,24.880168 L169.525132,133.223448 C169.510678,135.432539 167.708138,137.211645 165.499046,137.197191 C165.200295,137.195236 164.902704,137.159818 164.61184,137.091598 Z" id="Fill-98" fill="#2BCBD3"></path>
                        <path d="M13,17 L94.9780793,28.7954071" id="Stroke-363" stroke="#FFFFFF" stroke-width="5" stroke-linecap="round" stroke-linejoin="round"></path>
                        <path d="M13,30 L105.004175,44.7442589" id="Stroke-365" stroke="#FFFFFF" stroke-width="5" stroke-linecap="round" stroke-linejoin="round"></path>
                        <path d="M13,43 L91.4394572,56.5647182" id="Stroke-367" stroke="#FFFFFF" stroke-width="5" stroke-linecap="round" stroke-linejoin="round"></path>
                        <path d="M13,56 L107.953027,73.6931106" id="Stroke-369" stroke="#FFFFFF" stroke-width="5" stroke-linecap="round" stroke-linejoin="round"></path>
                        <path d="M13,69 L96.7473904,85.5135699" id="Stroke-371" stroke="#FFFFFF" stroke-width="5" stroke-linecap="round" stroke-linejoin="round"></path>
                        <path d="M13,81 L60.1816284,91.026096" id="Stroke-373" stroke="#FFFFFF" stroke-width="5" stroke-linecap="round" stroke-linejoin="round"></path>
                    </g>
                    <path d="M102.119614,66.9124582 L102.119614,35.2246868 C102.119614,31.2348904 98.8853132,28 94.8949269,28 C94.802333,28 94.709739,28.0017693 94.6171451,28.0053079 L59.946905,29.3387787 C56.0679854,29.4885804 53,32.6762891 53,36.5581576 L53,66.0160073 C53,69.9338518 56.122834,73.1380741 60.039499,73.2389248 L62.2257777,73.2943633 L62.445762,85.6524113 L71.7930324,73.5709656 L94.7168163,74.1353758 C98.706023,74.2332777 102.018763,71.0791858 102.117255,67.0905689 C102.118434,67.0310021 102.119614,66.9720251 102.119614,66.9124582" id="Fill-121" fill="#2F91D5"></path>
                    <path d="M100.119024,68.2069154 L100.119024,30.1283925 C100.119024,27.8477505 98.2706837,26 95.9906315,26 C95.9375522,26 95.8844729,26.0011795 95.8319833,26.0023591 L54.9691545,27.5740971 C52.7527975,27.6596138 51,29.4814144 51,31.7001305 L51,67.1553549 C51,69.3941232 52.7840553,71.2241806 55.0222338,71.2819781 L60.2251879,71.4152662 L60.3413727,77.9045094 C60.3614248,79.0445355 61.3021086,79.9521921 62.4415449,79.9315501 C63.067881,79.9203445 63.6547025,79.6260491 64.0374635,79.130642 L69.7930324,71.6918685 L95.889191,72.3341284 C98.1680637,72.3901566 100.061816,70.5878184 100.117844,68.3089457 C100.118434,68.274739 100.119024,68.2411221 100.119024,68.2069154 Z" id="Stroke-123" stroke="#183254" stroke-width="2"></path>
                    <polygon id="Fill-125" fill="#FFFFFF" points="94.0055689 40.781357 60 41.5769572 60 38.8923225 94.0055689 38"></polygon>
                    <polygon id="Fill-127" fill="#FFFFFF" points="87.4488413 47.3154384 61 47.7430219 61 45.4900992 87.4488413 45"></polygon>
                    <polygon id="Fill-129" fill="#FFFFFF" points="74.2244207 56.6592745 61 56.7636639 61 54.1403653 74.2244207 54"></polygon>
                    <path d="M98.6259972,124.685412 L32.3216223,119.347892 C30.1196066,119.170629 28.1908203,120.812015 28.0135575,123.014031 C28.004946,123.121005 28.0006432,123.228282 28.0006596,123.335602 L28.0089138,177.594635 C28.0092144,179.570135 29.4516439,181.249566 31.4044588,181.548092 L97.4913106,191.650738 C99.6750807,191.984569 101.716,190.484898 102.049831,188.301127 C102.079695,188.105774 102.09504,187.908476 102.09574,187.710854 L102.305009,128.686696 C102.31242,126.596579 100.709388,124.853125 98.6259972,124.685412 Z" id="Fill-131" fill="#183254"></path>
                    <g id="Group-136" transform="translate(26.000000, 120.000000)">
                        <mask id="mask-15" fill="white">
                            <use xlink:href="#path-14"></use>
                        </mask>
                        <g id="Clip-135"></g>
                        <path d="M3.82492774,62.9491338 L69.9112222,73.0517755 C72.0949919,73.3856094 74.1359129,71.8859401 74.4697467,69.7021704 C74.4996107,69.5068153 74.5149561,69.3095157 74.5156568,69.1118924 L74.7249258,10.087179 C74.7323362,7.99704971 73.1292864,6.25359073 71.0458823,6.08589267 L4.74154858,0.748902095 C2.53953152,0.571656602 0.610758125,2.21305827 0.433512632,4.41507534 C0.424901865,4.52205157 0.420599933,4.62933101 0.420617281,4.73665323 L0.429387464,58.9957156 C0.429706772,60.9712001 1.87212922,62.6506086 3.82492774,62.9491338 Z" id="Fill-134" fill="url(#linearGradient-16)" mask="url(#mask-15)"></path>
                    </g>
                    <path d="M30,125 L95.4922286,130.667103" id="Stroke-137" stroke="#000000"></path>
                    <path d="M95.4922286,189.446352 L30,180" id="Stroke-139" stroke="#000000"></path>
                    <path d="M11.256357,138.415787 C11.256357,142.220396 8.71857516,145.048935 5.60163883,144.734587 C2.50180585,144.422598 1.0658141e-14,141.112807 1.0658141e-14,137.342995 C1.0658141e-14,133.572003 2.50180585,130.740516 5.60163883,131.018888 C8.71857516,131.299029 11.256357,134.611179 11.256357,138.415787" id="Fill-141" fill="#FB5457"></path>
                    <path d="M33.2948852,178.378773 L33.2948852,128" id="Stroke-143" stroke="#5A8A8A" stroke-width="0.5"></path>
                    <path d="M48.2948852,180.378773 L48.2948852,130" id="Stroke-145" stroke="#5A8A8A" stroke-width="0.5"></path>
                    <path d="M68.2948852,183.378773 L68.2948852,133" id="Stroke-147" stroke="#5A8A8A" stroke-width="0.5"></path>
                    <path d="M88.2948852,185.378773 L88.2948852,135" id="Stroke-149" stroke="#5A8A8A" stroke-width="0.5"></path>
                    <path d="M87,171 L107.334692,173.905209" id="Stroke-151" stroke="#2F91D5" stroke-linecap="round" stroke-linejoin="round"></path>
                    <polyline id="Stroke-153" stroke="#FFFFFF" stroke-linecap="round" stroke-linejoin="round" points="27 157.48417 35.1866023 165.670772 48.411023 143 58.4866597 167.559807 78.0080585 152.446352 89.3434447 160.003079 98.7897965 160.632954"></polyline>
                    <polyline id="Stroke-155" stroke="#000000" stroke-linecap="round" stroke-linejoin="round" points="89.0671347 145.346842 78.1723069 169.31393 69.4578601 149.704656 58.5642119 160.598304 52.0277871 159.871707 46.2179593 170.765355 36.0503184 133 16.4410438 155.514483 7 140.989029"></polyline>
                    <path d="M30.7612891,132.629875 L21,132" id="Stroke-157" stroke="#2BCBD3" stroke-linecap="round" stroke-linejoin="round"></path>
                    <path d="M111.777891,174.085147 C111.777891,176.694291 110.023914,178.635815 107.872432,178.419369 C105.729207,178.204693 104,175.936436 104,173.350293 C104,170.76415 105.729207,168.820857 107.872432,169.013122 C110.023914,169.205977 111.777891,171.477182 111.777891,174.085147" id="Fill-159" fill="#88D1E5"></path>
                    <path d="M513.403076,163.445963 L514.218963,163.5286 C516.261571,163.735484 517.815887,165.45518 517.815887,167.508239 L517.815887,228.492229 L509,227.195913 L509,167.425603 C509,165.216464 510.790861,163.425603 513,163.425603 C513.134616,163.425603 513.269145,163.432398 513.403076,163.445963 Z" id="Fill-161" fill="#2F91D5"></path>
                    <path d="M496.407944,173.483907 L497.252387,173.57661 C499.280409,173.799247 500.815887,175.512516 500.815887,177.552722 L500.815887,225.897683 L492,224.601367 L492,177.434426 C492,175.239506 493.779334,173.460172 495.974253,173.460172 C496.119141,173.460172 496.263921,173.468096 496.407944,173.483907 Z" id="Fill-163" fill="#2F91D5"></path>
                    <path d="M528.463426,187.406942 L528.463426,187.406942 C530.438338,187.638987 531.926853,189.312637 531.926853,191.301135 L531.926853,229.821456 L525,228.804102 L525,190.487252 C525,188.774341 526.388589,187.385752 528.1015,187.385752 C528.222452,187.385752 528.343301,187.392827 528.463426,187.406942 Z" id="Fill-165" fill="#2F91D5"></path>
                    <path d="M494.407944,172.21995 L495.272608,172.319327 C497.29175,172.551391 498.815887,174.260733 498.815887,176.293167 L498.815887,225.578931 L490,224.294237 L490,176.150298 C490,173.965337 491.771261,172.194076 493.956222,172.194076 C494.107166,172.194076 494.257987,172.202715 494.407944,172.21995 Z" id="Fill-167" fill="#2BCBD3"></path>
                    <path d="M526.463426,187.119122 L526.463426,187.119122 C528.441702,187.365038 529.926853,189.046236 529.926853,191.039738 L529.926853,229.80836 L523,228.730849 L523,190.178673 C523,188.475924 524.38035,187.095574 526.083099,187.095574 C526.210239,187.095574 526.337257,187.103438 526.463426,187.119122 Z" id="Fill-169" fill="#2BCBD3"></path>
                    <path d="M482.778364,184.4497 L483.02947,184.479586 C485.041548,184.719063 486.556728,186.425274 486.556728,188.451553 L486.556728,223.043387 L479,221.934619 L479,187.805031 C479,185.938854 480.512836,184.426018 482.379013,184.426018 C482.512481,184.426018 482.645831,184.433926 482.778364,184.4497 Z" id="Fill-171" fill="#2F91D5"></path>
                    <path d="M541.447797,173.366542 L541.447797,173.366542 C543.408241,173.574961 544.895595,175.22882 544.895595,177.200311 L544.895595,233.284556 L538,232.266023 L538,176.467227 C538,174.745116 539.396047,173.349069 541.118158,173.349069 C541.228269,173.349069 541.338303,173.354902 541.447797,173.366542 Z" id="Fill-173" fill="#2F91D5"></path>
                    <polyline id="Stroke-175" stroke="#88D1E5" points="465 226.734609 556.94107 243.107813 556.94107 154"></polyline>
                    <path d="M552,163 L558.926853,163.629285" id="Stroke-177" stroke="#88D1E5"></path>
                    <path d="M552,231.629285 L559.556728,232.888445" id="Stroke-179" stroke="#88D1E5"></path>
                    <path d="M552,214 L559.556728,215.25916" id="Stroke-181" stroke="#88D1E5"></path>
                    <path d="M552,197 L558.926853,197.629875" id="Stroke-183" stroke="#88D1E5"></path>
                    <path d="M552,180 L558.926853,180.629875" id="Stroke-185" stroke="#88D1E5"></path>
                    <path d="M456,81.9423385 C462.664995,79.5360755 470.133847,79.2759867 477.531926,81.666326 C481.437975,82.9290243 485.02142,84.8339826 488.207949,87.2408354 C500.474582,96.5049481 506.865334,113.197218 503.167474,129.215381 C499.559849,144.839578 487.345115,155.529755 473.159368,156.997693 C469.022719,157.425277 464.718575,157.069645 460.410892,155.822871" id="Stroke-187" stroke="#88D1E5" stroke-width="2" stroke-linecap="round" stroke-dasharray="6"></path>
                    <polygon id="Fill-189" fill="#FFFFFF" points="552.749489 103.222876 503 101.335021 503 3.72448852 552.749489 2"></polygon>
                    <path d="M548.464217,102.914596 L506.971514,101.339909 C504.754567,101.255572 503,99.4337712 503,97.2144654 L503,7.56701233 C503,5.34239855 504.762234,3.51764907 506.985668,3.44097892 L548.477782,2.00252903 C550.756654,1.9234998 552.66751,3.70637558 552.747129,5.98524824 C552.748309,6.03301963 552.749489,6.08079103 552.749489,6.12797266 L552.749489,98.7891522 C552.749489,101.069204 550.901148,102.917545 548.621096,102.917545 C548.568606,102.917545 548.516707,102.916365 548.464217,102.914596 Z" id="Stroke-191" stroke="#2F91D5"></path>
                    <polygon id="Fill-193" fill-opacity="0.5" fill="#2BCBD3" points="549.378773 101.453152 499 99.6160177 499 7.62245825 549.378773 6"></polygon>
                    <path d="M477,36.599619 L477,109.702244 C477,111.905626 478.730976,113.720939 480.931409,113.825919 L514.866795,115.446018 C517.143899,115.555125 519.078935,113.79702 519.187453,111.519327 C519.190402,111.453862 519.192171,111.388398 519.192171,111.322343 L519.192171,36.1283925 C519.192171,33.8483403 517.343831,32 515.063779,32 L515.005981,32 L481.070595,32.4712265 C478.813544,32.5030741 477,34.3419781 477,36.599619" id="Fill-195" fill="#183254"></path>
                    <polygon id="Fill-197" fill="#FFFFFF" points="517.303137 105.735214 477 104.329791 477 40.2453445 517.303137 40"></polygon>
                    <path d="M513.005569,80.5244781 L495.373205,80.1658977 L495.373205,78.6354436 L513.005569,78.9686639 L513.005569,80.5244781 Z M513.005569,75.4866597 L495.373205,75.1280793 L495.373205,73.5976253 L513.005569,73.9308455 L513.005569,75.4866597 Z M513.005569,70.4488413 L495.373205,70.090261 L495.373205,68.5598069 L513.005569,68.8924374 L513.005569,70.4488413 Z M513.005569,65.411023 L495.373205,65.0524426 L495.373205,63.5219885 L513.005569,63.854619 L513.005569,65.411023 Z M493.500684,105.12321 L479,104.618366 L479,61.0024896 L493.500684,61.3227349 L493.500684,63.7962317 L493.500684,105.12321 Z M513.005569,60.1732724 L479,59.8076148 L479,44.0660543 L513.005569,44 L513.005569,60.1732724 Z" id="Fill-199" fill="#88D1E5"></path>
                    <path d="M492,37.2948852 L503.965261,37.2948852" id="Stroke-201" stroke="#5881BA" stroke-width="3" stroke-linecap="round" stroke-linejoin="round"></path>
                    <path d="M497.148784,109.941711 C497.148784,110.966142 496.442829,111.758203 495.572328,111.708663 C494.703596,111.660301 494,110.79157 494,109.769498 C494,108.746836 494.703596,107.955364 495.572328,108.001956 C496.442829,108.047368 497.148784,108.91669 497.148784,109.941711" id="Fill-203" fill="#5881BA"></path>
                    <path d="M563.042385,83.3899374 L530.056529,82.5695668 C528.912965,82.5412578 528,81.605882 528,80.4611378 C528,79.3500104 528.901169,78.4488413 530.012886,78.4488413 C530.02763,78.4488413 530.042375,78.4488413 530.056529,78.4494311 L563.041795,79.1701305 C564.216028,79.1960804 565.154353,80.155047 565.154353,81.3292797 C565.154353,82.4681263 564.231952,83.3905271 563.093695,83.3905271 C563.076592,83.3905271 563.058899,83.3905271 563.042385,83.3899374 M563.042385,74.5734603 L530.056529,73.7530898 C528.912965,73.7247808 528,72.789405 528,71.6452505 C528,70.5335334 528.901169,69.6329541 530.012886,69.6329541 L530.056529,69.6329541 L563.041795,70.3536534 C564.216028,70.3790136 565.154353,71.3385699 565.154353,72.5133925 C565.154353,73.6510595 564.231952,74.5740501 563.093695,74.5740501 C563.076592,74.5740501 563.058899,74.5740501 563.042385,74.5734603 M563.042385,65.7575731 L530.056529,64.9372025 C528.912965,64.9088935 528,63.972928 528,62.8293633 C528,61.7176461 528.901169,60.816477 530.012886,60.816477 C530.02763,60.816477 530.042375,60.816477 530.056529,60.8170668 L563.041795,61.5371764 C564.216028,61.5631263 565.154353,62.5220929 565.154353,63.6963257 C565.154353,64.8351722 564.231952,65.7581628 563.093695,65.7581628 C563.076592,65.7581628 563.058899,65.7581628 563.042385,65.7575731 M563.042385,56.9405063 L530.056529,56.1207255 C528.912965,56.0924165 528,55.1570407 528,54.0122965 C528,52.9011691 528.901169,52 530.012886,52 C530.02763,52 530.042375,52 530.056529,52.0005898 L563.041795,52.7212891 C564.216028,52.7466493 565.154353,53.7062056 565.154353,54.8804384 C565.154353,56.0186952 564.231952,56.9416858 563.093695,56.9416858 C563.076592,56.9416858 563.058899,56.941096 563.042385,56.9405063" id="Fill-205" fill="#88D1E5"></path>
                    <path d="M489.032098,36 C489.602406,36 490.064196,36.4617902 490.064196,37.0320981 C490.064196,37.6024061 489.602406,38.0641962 489.032098,38.0641962 C488.46179,38.0641962 488,37.6024061 488,37.0320981 C488,36.4617902 488.46179,36 489.032098,36" id="Fill-207" fill="#5881BA"></path>
                    <path d="M517.297568,27 C520.775444,27 523.595136,29.8191023 523.595136,33.2975678 C523.595136,36.7754436 520.775444,39.5945459 517.297568,39.5945459 C513.820282,39.5945459 511,36.7754436 511,33.2975678 C511,29.8191023 513.820282,27 517.297568,27" id="Fill-209" fill="#FB5457"></path>
                    <polygon id="Fill-211" fill="#FFFFFF" points="518.083909 30 518.083909 36.2515658 516.913805 36.2515658 516.913805 31.1978236 515.520177 32.0435543 515 31.2444154 517.034118 30"></polygon>
                </g>
                <path d="M370.567999,351.755495 C375.665385,350.029237 379.675823,347.518585 381.602013,347.311576 C383.528793,347.105156 386.383871,349.780944 381.625604,357.157792 C376.867337,364.534639 374.138246,375.615066 377.95,384.564139 C381.761754,393.513213 378.776493,402.001005 371,406.772173 C363.223507,411.543342 347.978806,414.064347 336.489403,406.772173 C328.829801,401.910724 317,396.662366 301,391.027097 C319.374404,368.15582 332.219755,357.579281 339.536053,359.297479 C341.014607,359.644853 361.281475,367.844431 362.537097,368.144034 C366.536919,369.097693 366.089873,353.271795 370.567999,351.755495 Z" id="Fill-1" fill="#183254"></path>
                <path d="M121.12988,256.551166 C121.12988,256.551166 104.02654,250.854575 95.7697552,265.666067 C87.5129703,280.47815 96.3595256,292.441641 103.43677,304.405723 C110.514014,316.369215 100.487918,327.19327 111.103784,331.751015 C121.719651,336.308171 131.155977,339.156761 131.155977,339.156761 L167.439828,315.780624 C167.439828,315.780624 153.56725,314.090932 149.438858,305.544569 C145.310465,296.999387 141.182073,267.375812 121.12988,256.551166" id="Fill-4" fill="#183254"></path>
                <g id="Fill-230" transform="translate(123.569937, 255.242171)">
                    <mask id="mask-18" fill="white">
                        <use xlink:href="#path-17"></use>
                    </mask>
                    <use id="Mask" fill="#FDD4C2" xlink:href="#path-17"></use>
                    <path d="M14.8982479,3.94397129 C10.4266091,6.63096503 7.52552871,7.97387213 6.19441701,7.97387213 C4.86389509,7.97387213 5.27024687,6.18745772 7.41288257,2.61344937 L14.8982479,3.94397129 Z" fill="#FAB8A6" mask="url(#mask-18)"></path>
                </g>
                <g id="Fill-12" transform="translate(147.160752, 269.986430)">
                    <mask id="mask-20" fill="white">
                        <use xlink:href="#path-19"></use>
                    </mask>
                    <use id="Mask" fill="#FDD4C2" xlink:href="#path-19"></use>
                    <path d="M8.29211221,14.1641608 C10.8812041,16.3675428 12.8598836,19.6354603 14.2287406,23.9679134 L23.822535,32.020048 L23.822535,36.6220261 L14.05063,29.0535031 L7.43458612,21.631833 L3.42473747,14.772214 C4.08056211,12.1630699 5.70302035,11.9607787 8.29211221,14.1641608" fill="#FAB8A6" mask="url(#mask-20)"></path>
                </g>
                <path d="M154.015299,283.852226 C155.957412,286.20423 157.226598,288.095624 157.824035,289.525227 C158.421473,290.95483 162.803467,295.304387 170.971786,302.573896 L169.438973,304.507163 L159.006525,297.468254 L150.62235,286.337518 L154.015299,283.852226 Z" id="Fill-10" fill="#FAB8A6"></path>
                <g id="Combined-Shape" transform="translate(115.902923, 261.729645)">
                    <mask id="mask-22" fill="white">
                        <use xlink:href="#path-21"></use>
                    </mask>
                    <use id="Mask" fill="#2F91D5" xlink:href="#path-21"></use>
                    <path d="M4.28875104,3.58167537 C8.2584953,18.3642693 9.65035334,26.9873017 8.46196608,29.4484134 C6.68026983,33.1415553 11.8661206,41.3429019 13.5422479,44.2481106 C15.218965,47.1533194 13.5422479,50.0880167 10.4606978,51.892714 C7.3791477,53.698001 18.4839337,56.8839405 20.6460318,58.9339823 C22.80813,60.9846138 15.2012719,64.4495146 13.5422479,64.4495146 C11.8832239,64.4495146 2.14139718,61.8946294 -0.00477713987,60.0486482 C-1.43614979,58.8183873 -0.00477713987,39.9958664 4.28875104,3.58167537 Z M32.4168455,11.960012 C34.3353685,10.8825016 35.438239,13.0221884 35.7254572,18.3790725 C36.1571691,26.4135141 37.7955511,18.4056122 37.7955511,21.8575381 C37.7955511,24.158822 38.4938392,25.7771519 39.8898257,26.7119379 C38.8919342,29.7038429 37.7731399,30.6162176 36.5340324,29.4484723 C35.2949248,28.2819066 33.9225292,22.4520266 32.4168455,11.960012 Z" fill-opacity="0.573426178" fill="#2476AD" mask="url(#mask-22)"></path>
                </g>
                <g id="Group-216" transform="translate(121.210856, 299.730318)">
                    <mask id="mask-24" fill="white">
                        <use xlink:href="#path-23"></use>
                    </mask>
                    <g id="Clip-215"></g>
                    <path d="M8.05024465,42.2408238 L37.9944628,53.4138728 C39.2603864,53.8862253 40.6792149,53.687553 41.7667118,52.8856614 L91.8758312,15.9365127 C93.6538599,14.6254411 94.0324034,12.1212304 92.7213317,10.3432017 C92.1980915,9.633602 91.4550686,9.11675339 90.6077784,8.87300885 L63.4938411,1.07299548 C62.3942508,0.756670391 61.2118375,0.926375706 60.2456026,1.53919739 L7.30620251,35.1153104 C5.44064196,36.2985175 4.88748516,38.770032 6.07069222,40.6355925 C6.53787107,41.3721926 7.23302144,41.9358943 8.05024465,42.2408238 Z" id="Fill-214" fill="url(#linearGradient-25)" mask="url(#mask-24)"></path>
                </g>
                <g id="Group-219" transform="translate(264.000000, 335.000000)">
                    <mask id="mask-27" fill="white">
                        <use xlink:href="#path-26"></use>
                    </mask>
                    <g id="Clip-218"></g>
                    <path d="M6.58387779,53.2758049 L39.7911189,64.5006297 C41.3535905,65.0287817 43.0800414,64.543766 44.1388817,63.2792031 L84.1890724,15.4476407 C85.6073072,13.7538564 85.3839301,11.2310665 83.6901458,9.81283177 C83.2604551,9.45304433 82.7599554,9.18756555 82.2210891,9.03360376 L53.4383172,0.809954617 C52.0360546,0.409308171 50.5268727,0.803585688 49.4997616,1.83891204 L5.02510178,46.6692988 C3.46923923,48.2376057 3.47932744,50.7702456 5.04763443,52.3261081 C5.48061586,52.7556539 6.00609047,53.0804992 6.58387779,53.2758049 Z" id="Fill-217" fill="url(#linearGradient-28)" mask="url(#mask-27)"></path>
                </g>
                <g id="Group-224" transform="translate(167.392484, 308.705266)">
                    <path d="M24.8043884,8.29473382 C33.9200654,11.4430551 8.30631528,26.0814895 14.6215261,29.3368536 C20.9380391,32.5922178 61.7625986,4.39270448 70.0246575,9.09314809 C78.2867165,13.7923324 44.2663588,48.5724667 56.9026405,53.7420102 C69.538271,58.9121833 104.045015,26.0128561 111.821339,29.7719516 C119.597662,33.5323065 108.419238,49.9822849 118.139805,49.0421962 C127.85907,48.1021075 136.607516,41.5227458 136.607516,41.5227458" id="Stroke-220" stroke="url(#linearGradient-29)" stroke-width="2" stroke-linecap="round" stroke-dasharray="6,6"></path>
                    <polygon id="Fill-222" fill="#1C1919" points="0.607515658 23.2947338 34.6075157 0.942456933 34.6075157 0.29473382 0.607515658 22.7784985"></polygon>
                </g>
                <g id="Group-227" transform="translate(145.391441, 305.038252)">
                    <mask id="mask-31" fill="white">
                        <use xlink:href="#path-30"></use>
                    </mask>
                    <g id="Clip-226"></g>
                    <polygon id="Fill-225" fill="url(#linearGradient-32)" mask="url(#mask-31)" points="0.508971816 20.5540866 23.0128392 28.6410177 53.5883038 8.16890919 32.9463413 0.501894572"></polygon>
                </g>
                <polygon id="Fill-228" fill="#1C1919" points="145.900235 325.592338 145.900235 326.182109 168.404103 334.149316 168.404103 333.679269"></polygon>
                <g id="Fill-236" transform="translate(122.980167, 234.010438)">
                    <mask id="mask-34" fill="white">
                        <use xlink:href="#path-33"></use>
                    </mask>
                    <use id="Mask" fill="#FDD4C2" xlink:href="#path-33"></use>
                    <path d="M8.3019024,3.32023017 C8.19515397,4.43725522 7.58297234,6.07681681 6.46535752,8.2395047 C4.7886404,11.4832416 6.46535752,16.0781425 7.38362996,19.5271195 C8.3019024,22.9766863 9.26381785,24.8344629 7.02622912,24.3402354 C4.7886404,23.8454181 1.38448591,20.6771717 1.38448591,17.7990924 C1.38448591,14.9204233 1.17983559,8.18642537 2.28152662,6.12576775 C3.01638048,4.75278236 5.02277923,3.81740658 8.3019024,3.32023017" fill="#FAB8A6" mask="url(#mask-34)"></path>
                </g>
                <g id="Fill-240" transform="translate(111.774530, 281.781837)">
                    <mask id="mask-36" fill="white">
                        <use xlink:href="#path-35"></use>
                    </mask>
                    <use id="Mask" fill="#FDD4C2" xlink:href="#path-35"></use>
                    <path d="M6.88568685,15.1392281 C14.3156138,23.4313993 18.3142568,28.0080172 18.8822056,28.8696717 C19.7344238,30.1618586 28.9495856,36.2577249 30.4033695,36.2412114 C31.3723622,36.2311853 34.4055511,36.4281686 39.5035261,36.8315715 L38.2921378,38.8126101 L24.8553998,38.0022657 L14.5892672,30.1618586 L4.12320251,18.5805381 L3.71331211,13.6771874 L6.88568685,15.1392281 Z" fill="#FAB8A6" mask="url(#mask-36)"></path>
                </g>
                <g id="Fill-244" transform="translate(110.594990, 265.268267)">
                    <mask id="mask-38" fill="white">
                        <use xlink:href="#path-37"></use>
                    </mask>
                    <use id="Mask" fill="#2F91D5" xlink:href="#path-37"></use>
                    <path d="M11.0244003,-1.47855428 C4.03680115,0.169853862 0.332453549,4.1260334 -0.0898220251,10.3893946 C-0.723235386,19.7850261 0.804859603,32.8973904 1.70543894,33.3344102 C2.60660804,33.7720198 8.69775626,33.9925939 8.69775626,32.1996921 C8.69775626,30.4067902 12.6869629,32.1996921 12.6869629,28.7955376 C12.6869629,25.3919729 14.0687949,25.5889562 13.3781738,21.4287161 C12.6869629,17.268476 6.36993267,14.9512683 8.69775626,11.1891232 C10.2488523,8.68141962 11.0244003,4.45807411 11.0244003,-1.47855428" fill-opacity="0.573426178" fill="#2476AD" mask="url(#mask-38)"></path>
                </g>
                <g id="Group-248" transform="translate(118.851775, 227.778335)">
                    <mask id="mask-40" fill="white">
                        <use xlink:href="#path-39"></use>
                    </mask>
                    <g id="Clip-247"></g>
                    <path d="M8.18837161,24.5828079 L8.18837161,28.1102244 C8.18837161,28.1102244 5.83813674,26.9330428 4.42799582,24.5828079 C3.01785491,22.2325731 -1.21256785,16.1219624 1.13766701,13.3016806 C3.48790188,10.4813987 -0.742520877,6.25097599 6.30818372,2.02055324 C13.3588883,-2.20986952 18.999452,2.49060021 23.6999217,2.49060021 C28.4003914,2.49060021 26.0501566,10.4813987 25.5801096,11.4214927 C25.1100626,12.3615866 18.999452,11.8915397 15.7091232,11.4214927 C12.4187944,10.9514457 8.18837161,10.9514457 8.18837161,12.8316336 L8.18837161,24.5828079 Z" id="Fill-246" fill="url(#linearGradient-41)" mask="url(#mask-40)"></path>
                </g>
                <g id="Group-252" transform="translate(166.033403, 285.575830)">
                    <mask id="mask-43" fill="white">
                        <use xlink:href="#path-42"></use>
                    </mask>
                    <g id="Clip-251"></g>
                    <path d="M29.4295407,0.504253653 C29.2160438,0.51545929 29.0054958,0.567948852 28.8108716,0.657593946 L2.48588205,16.8963309 C1.28098121,17.4501253 0.508971816,18.6556159 0.508971816,19.9820094 L2.86746347,48.2732933 L32.6378914,28.7053027 L31.2171347,2.11019833 C31.1687735,1.20372129 30.4185856,0.501304802 29.5215449,0.501304802 C29.4908768,0.501304802 29.4607985,0.502484342 29.4295407,0.504253653" id="Fill-250" fill="url(#linearGradient-44)" mask="url(#mask-43)"></path>
                </g>
                <path d="M184.637055,306.000649 C185.495171,306.031317 186.153945,307.098211 186.109122,308.38568 C186.0643,309.673149 185.332395,310.691682 184.474279,310.661604 C183.616163,310.632115 182.9568,309.564631 183.002212,308.277162 C183.047034,306.990283 183.778939,305.97057 184.637055,306.000649" id="Fill-253" fill="#FFFFFF"></path>
                <path d="M275.270966,327.643832 L258.236039,341.568311 C257.577265,342.106771 256.606503,342.009459 256.067453,341.350685 C255.84334,341.075263 255.720078,340.730837 255.720078,340.375795 L255.720078,320.751186 C255.720078,319.774527 256.183048,318.856254 256.968622,318.274741 L273.944572,305.708504 C274.628706,305.201891 275.59357,305.345795 276.099593,306.029928 C276.295986,306.295325 276.402145,306.61675 276.402145,306.946432 L276.402145,325.258211 C276.402145,326.182971 275.986947,327.05878 275.270966,327.643832" id="Fill-255" fill="#183254"></path>
                <polygon id="Stroke-257" stroke="#FFFFFF" stroke-width="0.5" points="259.950737 328.299893 257.130455 330.654256 257.130455 326.889162 259.950737 324.571365"></polygon>
                <polygon id="Stroke-259" stroke="#FFFFFF" stroke-width="0.5" points="263.711113 325.479434 260.890831 327.833797 260.890831 324.068704 263.711113 321.750906"></polygon>
                <polygon id="Stroke-261" stroke="#FFFFFF" stroke-width="0.5" points="267.471489 322.659034 264.651207 325.013398 264.651207 321.248894 267.471489 318.931096"></polygon>
                <polygon id="Stroke-263" stroke="#FFFFFF" stroke-width="0.5" points="271.231805 319.838635 268.411523 322.192998 268.411523 318.428494 271.231805 316.110696"></polygon>
                <polygon id="Stroke-265" stroke="#FFFFFF" stroke-width="0.5" points="274.992181 317.018766 272.171899 319.373129 272.171899 315.608035 274.992181 313.290237"></polygon>
                <polygon id="Stroke-267" stroke="#FFFFFF" stroke-width="0.5" points="259.950737 333.000186 257.130455 335.354549 257.130455 331.590045 259.950737 329.271658"></polygon>
                <polygon id="Stroke-269" stroke="#FFFFFF" stroke-width="0.5" points="263.711113 330.179786 260.890831 332.534149 260.890831 328.769645 263.711113 326.451848"></polygon>
                <polygon id="Fill-271" fill="#0F6BAE" points="267.471489 327.359327 264.651207 329.713691 264.651207 325.949186 267.471489 323.631389"></polygon>
                <polygon id="Stroke-273" stroke="#FFFFFF" stroke-width="0.5" points="271.231805 324.539517 268.411523 326.89388 268.411523 323.128787 271.231805 320.810989"></polygon>
                <polygon id="Stroke-275" stroke="#FFFFFF" stroke-width="0.5" points="274.992181 321.719058 272.171899 324.073422 272.171899 320.308328 274.992181 317.99053"></polygon>
                <polygon id="Stroke-277" stroke="#FFFFFF" stroke-width="0.5" points="260.420725 337.700479 257.600443 340.054842 257.600443 336.290338 260.420725 333.97254"></polygon>
                <polygon id="Stroke-279" stroke="#FFFFFF" stroke-width="0.5" points="264.181101 334.880079 261.360819 337.234442 261.360819 333.469938 264.181101 331.15214"></polygon>
                <polygon id="Stroke-281" stroke="#FFFFFF" stroke-width="0.5" points="267.941418 332.06021 265.121136 334.414573 265.121136 330.649479 267.941418 328.331682"></polygon>
                <polygon id="Stroke-283" stroke="#FFFFFF" stroke-width="0.5" points="271.701793 329.23981 268.881511 331.594173 268.881511 327.829669 271.701793 325.511282"></polygon>
                <polygon id="Fill-285" fill="#0F6BAE" points="275.462169 326.41941 272.641887 328.773773 272.641887 325.009269 275.462169 322.691472"></polygon>
                <polygon id="Fill-287" fill="#88D1E5" points="268.881394 327.829905 266.061112 330.183678 266.061112 326.419174 268.881394 324.101377"></polygon>
                <polygon id="Fill-289" fill="#88D1E5" points="276.872074 326.889339 274.051792 329.243703 274.051792 325.479198 276.872074 323.161401"></polygon>
                <path d="M228.444084,367.153315 L228.208766,370.747966 L224.677221,365.6783 L212.455999,360.892903 C211.575472,360.547887 210.996318,359.699208 210.996318,358.754396 L210.996318,346.155132 C210.996318,344.887125 212.024288,343.859156 213.292884,343.859156 C213.557691,343.859156 213.820138,343.905158 214.069021,343.994213 L229.84066,349.660137 C230.752445,349.987459 231.360498,350.852063 231.360498,351.821055 L231.360498,365.16343 C231.360498,366.343561 230.403891,367.300758 229.223171,367.300758 C228.956594,367.300758 228.692377,367.250627 228.444084,367.153315" id="Fill-291" fill="#183254"></path>
                <polygon id="Fill-293" fill="#FFFFFF" points="225.007433 354.449603 212.747877 350.29762 212.747877 349.195928 225.007433 353.323731"></polygon>
                <polygon id="Fill-295" fill="#FFFFFF" points="225.007433 361.104689 212.747877 356.952706 212.747877 355.851015 225.007433 359.978818"></polygon>
                <polygon id="Fill-297" fill="#FFFFFF" points="220.103257 356.201044 212.747641 353.800089 212.747641 352.698398 220.103257 355.075172"></polygon>
                <path d="M223.653969,342.87477 L210.085712,338.53465 L207.385154,341.031148 L207.123886,337.586889 L206.988828,337.543836 C206.038118,337.238924 205.39232,336.354859 205.39232,335.356377 L205.39232,327.05359 C205.39232,325.784994 206.42029,324.757025 207.688886,324.757025 C207.91005,324.757025 208.130034,324.789462 208.342351,324.851978 L225.007492,329.80133 C225.981793,330.090908 226.650003,330.986179 226.650003,332.002353 L226.650003,340.687312 C226.650003,341.955318 225.622033,342.983877 224.354027,342.983877 C224.116349,342.983877 223.880441,342.946722 223.653969,342.87477" id="Fill-299" fill="#2BCBD3"></path>
                <polygon id="Fill-301" fill="#FFFFFF" points="223.606139 334.834549 208.19426 330.116386 208.19426 329.230551 223.606139 333.924533"></polygon>
                <polygon id="Fill-303" fill="#FFFFFF" points="218.352347 336.235843 208.194142 333.074084 208.194142 332.03255 218.352347 335.176026"></polygon>
                <path d="M256.565868,309.28493 C256.565868,308.810165 256.323472,308.367837 255.923018,308.113056 L249.861948,304.248291 C249.795894,304.206418 249.719814,304.184006 249.641374,304.184006 C249.414902,304.184006 249.230894,304.367425 249.230894,304.593897 C249.230894,305.059815 249.468572,305.493296 249.860769,305.745128 L255.924198,309.635254 C255.991432,309.678307 256.069281,309.701308 256.1489,309.701308 C256.379501,309.701308 256.565868,309.514941 256.565868,309.28493 M248.826901,291.797059 C248.783848,291.787033 248.739615,291.781725 248.695972,291.781725 C248.378676,291.781725 248.121536,292.038865 248.121536,292.356162 L248.121536,300.900755 C248.121536,301.327159 248.412883,301.698124 248.826901,301.800154 C248.871134,301.81077 248.916546,301.816668 248.961959,301.816668 C249.276896,301.816668 249.531677,301.561297 249.531677,301.24695 L249.531677,292.685254 C249.531677,292.261799 249.239741,291.893782 248.826901,291.797059 M260.717261,304.732493 C260.717261,312.234961 255.745497,316.821016 249.720403,315.008062 C243.810904,313.229904 239.103358,305.942112 239.103358,298.698552 C239.103358,291.454993 243.810904,286.795217 249.720403,288.317414 C255.745497,289.8691 260.717261,297.231204 260.717261,304.732493" id="Fill-305" fill="#183254"></path>
                <g id="Group-310" transform="translate(289.000000, 348.000000)">
                    <mask id="mask-46" fill="white">
                        <use xlink:href="#path-45"></use>
                    </mask>
                    <g id="Clip-309"></g>
                    <polygon id="Fill-308" fill="url(#linearGradient-47)" mask="url(#mask-46)" points="0.523126305 28.6209656 24.6889666 36.4778862 49.4074217 7.74958246 25.4398866 1.102"></polygon>
                </g>
                <path d="M349.531915,363.170214 C349.531915,363.170214 341.184896,363.157829 337.626221,362.889483 C334.069316,362.621727 328.732484,362.220683 327.685642,360.294494 C326.63821,358.367714 326.090903,357.711299 331.427145,358.112933 L347.436461,359.317834 C349.808518,359.496534 352.680699,360.94442 353.866728,361.033476 C355.052166,361.122531 349.531915,363.170214 349.531915,363.170214" id="Fill-311" fill="#FDD4C2"></path>
                <g id="Fill-315" transform="translate(358.000000, 333.000000)">
                    <mask id="mask-49" fill="white">
                        <use xlink:href="#path-48"></use>
                    </mask>
                    <use id="Mask" fill="#FDD4C2" xlink:href="#path-48"></use>
                    <path d="M4.71816284,1.9993215 C7.71323285,4.31593946 9.1318692,6.27397704 8.97561137,7.87284447 C8.8185838,9.4717119 9.87467119,10.3923434 12.145413,10.634739 L14.8079541,4.18913883 L11.4549536,-3.7658765e-13 L4.71816284,1.9993215 Z" fill="#FAB8A6" mask="url(#mask-49)"></path>
                </g>
                <path d="M355.145613,391.49861 C360.821563,378.945348 370.736783,357.670562 372.856417,357.409293 C375.866015,357.040097 374.533724,350.976078 371.15434,348.336856 C367.775546,345.697634 367.048949,347.431559 363.312753,349.535859 C359.576558,351.63957 359.295827,347.445123 359.295827,347.445123 C359.295827,347.445123 354.966323,349.504012 353.009465,351.7416 C351.052607,353.980369 348.546673,355.580416 347.37303,363.243892 C346.200566,370.907367 341.425196,378.896397 335.865431,381.459539 C330.306255,384.022681 338.375493,387.129001 344.349277,386.982148 C350.323651,386.835885 349.997508,389.294638 352.873228,390.703009" id="Fill-317" fill="#FB5457"></path>
                <g id="Fill-321" transform="translate(353.000000, 309.000000)">
                    <mask id="mask-51" fill="white">
                        <use xlink:href="#path-50"></use>
                    </mask>
                    <use id="Mask" fill="#FDD4C2" xlink:href="#path-50"></use>
                    <path d="M2.00980574,2.6336785 C1.23570305,6.88120459 1.62548492,9.99342276 3.17778607,11.970333 C5.5062378,14.9351086 12.9755778,20.4919248 12.7885371,22.6451764 C12.6629332,24.0806775 11.9434409,26.0434332 10.6273298,28.5346232 L18.9656581,26.7293361 L14.0834867,7.78001461 L2.00980574,2.6336785 Z" fill="#FAB8A6" mask="url(#mask-51)"></path>
                </g>
                <g id="Group-326" transform="translate(352.000000, 296.000000)" fill="url(#linearGradient-52)">
                    <path d="M0.0112056367,14.8628027 C-0.26539666,18.5358925 5.66356472,18.9823486 5.66356472,18.9823486 C6.89264614,22.4608142 10.5828392,28.8969781 13.9563257,31.6134603 C17.3292223,34.3299426 17.2313205,43.5586691 16.9547182,47.2317589 C16.6787056,50.906618 13.7009551,56.3655324 15.9473904,62.0585856 C18.1938257,67.7522286 16.1367067,76.0915814 23.7353079,83.0001514 C31.3339092,89.9081315 37.4899322,91.5701044 45.1929228,82.1213935 C52.8965031,72.6732724 47.0194415,57.8529332 41.2597443,44.8414196 C35.500047,31.8304958 41.5168841,17.9856367 37.3265658,10.2814666 C33.1356576,2.57729645 23.7400261,0.638721294 18.9976827,0.28191023 C18.8237004,0.268935282 18.652667,0.262447808 18.4828132,0.262447808 C14.0088152,0.263037578 10.763309,4.65623695 6.6307881,6.12417537 C2.34256785,7.64873173 0.287807933,11.1885334 0.0112056367,14.8628027 Z" id="Fill-324"></path>
                </g>
                <g id="Fill-329" transform="translate(304.000000, 359.000000)">
                    <mask id="mask-54" fill="white">
                        <use xlink:href="#path-53"></use>
                    </mask>
                    <use id="Mask" fill="#FDD4C2" xlink:href="#path-53"></use>
                    <path d="M56.4465668,3.15379697 L38.8018173,12.9251122 L16.0514259,15.6415945 C20.0282474,17.0924295 23.596358,17.9363909 26.7539885,18.1746581 C31.491024,18.5308794 40.906118,14.0822416 46.3302359,12.7552584 C49.9455282,11.870013 54.5451472,8.76251305 60.1296827,3.43098904 L56.4465668,3.15379697 Z" fill="#FAB8A6" mask="url(#mask-54)"></path>
                </g>
                <path d="M289.617981,376.639064 L284.086453,351.756741 C283.8358,350.719924 284.138353,349.62767 284.887951,348.868045 L307.969203,325.45888 C308.566641,324.853186 309.542121,324.846109 310.148405,325.443546 C310.36721,325.659402 310.517011,325.936005 310.577168,326.237377 L314.439887,349.150899 L289.617981,376.639064 Z" id="Fill-331" fill="#000000"></path>
                <path d="M308.680209,327.25655 L286.930068,349.274447 C286.175752,350.038199 285.873199,351.139301 286.131519,352.180245 L290.929068,375.473688 L313.800371,349.800682 L309.981242,327.64108 C309.905752,327.277192 309.586096,327.027719 309.228695,327.027719 C309.176206,327.027719 309.123126,327.033027 309.070047,327.044233 C308.922015,327.074311 308.785778,327.148622 308.680209,327.25655 Z" id="Fill-334" fill="url(#linearGradient-55)"></path>
                <path d="M271.349645,295 C272.64773,295 273.69988,296.05215 273.69988,297.350235 C273.69988,298.648319 272.64773,299.70047 271.349645,299.70047 C270.05215,299.70047 269,298.648319 269,297.350235 C269,296.05215 270.05215,295 271.349645,295" id="Fill-337" fill="#FB5457"></path>
                <path d="M195.525647,346 C197.472479,346 199.051294,347.578815 199.051294,349.525647 C199.051294,351.472479 197.472479,353.050705 195.525647,353.050705 C193.578225,353.050705 192,351.472479 192,349.525647 C192,347.578815 193.578225,346 195.525647,346" id="Fill-339" fill="#88D1E5"></path>
                <path d="M226.115506,305 C227.283252,305 228.230423,305.947171 228.230423,307.115506 C228.230423,308.283252 227.283252,309.230423 226.115506,309.230423 C224.947171,309.230423 224,308.283252 224,307.115506 C224,305.947171 224.947171,305 226.115506,305" id="Fill-341" fill="#FB5457"></path>
                <path d="M290.760376,314 C292.836957,314 294.520752,315.683205 294.520752,317.760376 C294.520752,319.836957 292.836957,321.520752 290.760376,321.520752 C288.683794,321.520752 287,319.836957 287,317.760376 C287,315.683205 288.683794,314 290.760376,314" id="Fill-343" fill="#2BCBD3"></path>
                <path d="M257.0556,364.589922 C258.742933,364.589922 260.1112,365.957599 260.1112,367.645522 C260.1112,369.332855 258.742933,370.700532 257.0556,370.700532 C255.368267,370.700532 254,369.332855 254,367.645522 C254,365.957599 255.368267,364.589922 257.0556,364.589922" id="Fill-345" fill="#88D1E5"></path>
                <path d="M466,365 C474.836556,365 482,357.836556 482,349 C482,340.163444 474.836556,333 466,333 C457.163444,333 450,340.163444 450,349 C450,357.836556 457.163444,365 466,365 Z" id="Oval" stroke="#FF5252" stroke-linecap="round" stroke-linejoin="round" stroke-dasharray="6,6" fill-rule="nonzero"></path>
                <path d="M66.7803851,270 C71.4748055,270 75.2803851,266.19442 75.2803851,261.5 C75.2803851,256.80558 71.4748055,253 66.7803851,253 C62.0859647,253 58.2803851,256.80558 58.2803851,261.5 C58.2803851,266.19442 62.0859647,270 66.7803851,270 Z" id="Oval" stroke="#FF5252" stroke-dasharray="6,6" fill-rule="nonzero"></path>
            </g>
        </g>
    </g>
</svg>