<?xml version="1.0" encoding="UTF-8"?>
<svg width="102px" height="76px" viewBox="0 0 102 76" version="1.1" xmlns="http://www.w3.org/2000/svg" xmlns:xlink="http://www.w3.org/1999/xlink">
    <!-- Generator: Sketch 52.5 (67469) - http://www.bohemiancoding.com/sketch -->
    <title>Group 17</title>
    <desc>Created with Sketch.</desc>
    <defs>
        <linearGradient x1="0%" y1="-26.5903574%" x2="90.3499107%" y2="100%" id="linearGradient-1">
            <stop stop-color="#4FC4EE" offset="0%"></stop>
            <stop stop-color="#2791D9" offset="100%"></stop>
        </linearGradient>
    </defs>
    <g id="Page-1" stroke="none" stroke-width="1" fill="none" fill-rule="evenodd">
        <g id="Pricing-Page-Copy" transform="translate(-530.000000, -689.000000)" fill-rule="nonzero">
            <g id="Group-17" transform="translate(530.000000, 690.000000)">
                <path d="M20.1297138,34 C29.5901934,34 37.2594275,26.4270847 37.2594275,17.0854203 C37.2594275,7.7437559 29.5901934,0.170840628 20.1297138,0.170840628 C10.6692341,0.170840628 3,7.7437559 3,17.0854203 C3,26.4270847 10.6692341,34 20.1297138,34 Z" id="Oval" stroke="#17CCD5" stroke-dasharray="3,6"></path>
                <ellipse id="Oval" fill="#17CCD5" cx="3.18037256" cy="18.1336043" rx="3.18037256" ry="3.13360428"></ellipse>
                <ellipse id="Oval" fill="#17CCD5" cx="96.4968196" cy="54.6060706" rx="5.49681963" ry="5.39392942"></ellipse>
                <g id="Group-25" transform="translate(12.000000, 4.000000)">
                    <path d="M46.1123596,70.6190266 L46.1123596,53.0238095 C46.1123596,50.8146705 44.3214985,49.0238095 42.1123596,49.0238095 L33.8876404,49.0238095 C31.6785015,49.0238095 29.8876404,50.8146705 29.8876404,53.0238095 L29.8876404,70.6190266 L1.70786517,70.6190266 L1.70786517,21.9761905 L74.2921348,21.9761905 L74.2921348,70.6190266 L46.1123596,70.6190266 Z M11.6853933,49.0238095 C9.47625426,49.0238095 7.68539326,50.8146705 7.68539326,53.0238095 L7.68539326,61.0833333 C7.68539326,63.2924723 9.47625426,65.0833333 11.6853933,65.0833333 L19.9101124,65.0833333 C22.1192514,65.0833333 23.9101124,63.2924723 23.9101124,61.0833333 L23.9101124,53.0238095 C23.9101124,50.8146705 22.1192514,49.0238095 19.9101124,49.0238095 L11.6853933,49.0238095 Z M56.0898876,49.0238095 C53.8807486,49.0238095 52.0898876,50.8146705 52.0898876,53.0238095 L52.0898876,61.0833333 C52.0898876,63.2924723 53.8807486,65.0833333 56.0898876,65.0833333 L64.3146067,65.0833333 C66.5237457,65.0833333 68.3146067,63.2924723 68.3146067,61.0833333 L68.3146067,53.0238095 C68.3146067,50.8146705 66.5237457,49.0238095 64.3146067,49.0238095 L56.0898876,49.0238095 Z" id="Combined-Shape" fill="url(#linearGradient-1)"></path>
                    <rect id="Rectangle" fill="#2791D9" x="0" y="36.0357143" width="76" height="5.38095238"></rect>
                    <path d="M17.0786517,11.1685393 L38,-1.77635684e-14 L76,20.2857143 L76,23.6666667 L0,23.6666667 L0,20.2857143 L10.247191,14.8154093 L10.247191,7.60714286 L17.0786517,7.60714286 L17.0786517,11.1685393 Z" id="Combined-Shape" fill="#2791D9"></path>
                </g>
            </g>
        </g>
    </g>
</svg>