<?xml version="1.0" encoding="UTF-8"?>
<svg width="195px" height="25px" viewBox="0 0 195 25" version="1.1" xmlns="http://www.w3.org/2000/svg" xmlns:xlink="http://www.w3.org/1999/xlink">
    <!-- Generator: Sketch 52.5 (67469) - http://www.bohemiancoding.com/sketch -->
    <title>logo/urbanhire/blue</title>
    <desc>Created with Sketch.</desc>
    <defs>
        <polygon id="path-1" points="0 24.5962828 194.932474 24.5962828 194.932474 0.0393795315 0 0.0393795315"></polygon>
    </defs>
    <g id="Page-1" stroke="none" stroke-width="1" fill="none" fill-rule="evenodd">
        <g id="LANDING-1" transform="translate(-40.000000, -28.000000)">
            <g id="logo/urbanhire/blue_firm" transform="translate(40.000000, 28.000000)">
                <g id="Group">
                    <g id="logo" transform="translate(0.021306, 0.250581)">
                        <path d="M79.1186623,10.064355 C79.1186623,9.33832486 78.9227753,8.84044348 78.5310013,8.56733924 C78.1414919,8.29760667 77.4609827,8.16049261 76.4906061,8.16049261 L74.2135613,8.16049261 L74.2135613,12.1604019 L76.4294622,12.1604019 C77.4711734,12.1604019 78.1799899,11.992943 78.5547795,11.6602728 C78.9295691,11.324231 79.1186623,10.792633 79.1186623,10.064355 Z M79.6247981,14.2497055 L83.0715034,19.0790425 L79.3360629,19.0790425 L76.3151004,14.7689407 L74.2135613,14.7689407 L74.2135613,19.0790425 L71.1733498,19.0790425 L71.1733498,5.57105988 L76.3320848,5.57105988 C78.4517407,5.57105988 79.9610896,5.92620777 80.8589994,6.63425578 C81.7603061,7.34455157 82.2143563,8.48529559 82.2143563,10.0542401 C82.2143563,12.2177201 81.3549445,13.6180817 79.6247981,14.2497055 Z" id="Fill-3" fill="#173155"></path>
                        <path d="M91.4183864,16.5489262 L93.5029411,16.5489262 C94.3736758,16.5489262 95.0270099,16.443281 95.4629434,16.2297427 C95.8966123,16.0173283 96.1140129,15.5992428 96.1140129,14.9766101 C96.1140129,14.3517296 95.8830247,13.9370158 95.4255776,13.7369641 C94.9613368,13.541408 94.2253452,13.4380105 93.2142059,13.4380105 L91.4183864,13.4380105 L91.4183864,16.5489262 Z M91.4183864,11.0598683 L92.8631945,11.0598683 C93.7056219,11.0598683 94.3351778,10.9722052 94.7416716,10.7912596 C95.15043,10.6091901 95.3565077,10.2225734 95.3565077,9.62017068 C95.3565077,9.02563513 95.1674144,8.62777958 94.789228,8.436719 C94.4110415,8.240039 93.7746918,8.14450871 92.880179,8.14450871 L91.4183864,8.14450871 L91.4183864,11.0598683 Z M88.3815717,19.1012707 L88.3815717,5.59328809 L93.6818437,5.59328809 C94.6001347,5.59328809 95.3950057,5.70230501 96.0619273,5.92258661 C96.7288489,6.14062045 97.2315878,6.43620239 97.5758055,6.80933246 C98.1838478,7.50838939 98.4873028,8.29286163 98.4873028,9.1694925 C98.4873028,10.2236973 98.146482,11.0092934 97.4546499,11.5262809 C97.2247941,11.7072265 97.0628759,11.8184912 96.9666309,11.8623227 C96.8839733,11.908402 96.7152614,11.9825785 96.4854056,12.085976 C97.3278329,12.2680455 97.9947545,12.6434233 98.4974934,13.216605 C99.0002323,13.7920345 99.2504694,14.5023303 99.2504694,15.3519879 C99.2504694,16.2926803 98.9243685,17.122108 98.273299,17.8425187 C97.520323,18.6820614 96.2102579,19.1012707 94.3453684,19.1012707 L88.3815717,19.1012707 Z" id="Fill-5" fill="#173155"></path>
                        <path d="M110.08189,9.57514352 L108.368728,13.4997525 L111.77467,13.4997525 L110.08189,9.57514352 Z M114.188723,19.0652347 L112.922817,16.1453795 L107.217184,16.1453795 L105.954675,19.0652347 L102.720841,19.0652347 L108.596319,5.55725202 L111.540285,5.55725202 L117.422557,19.0652347 L114.188723,19.0652347 Z" id="Fill-7" fill="#173155"></path>
                        <polygon id="Fill-9" fill="#173155" points="131.502722 5.57309647 134.544066 5.57309647 134.544066 19.0810791 131.502722 19.0810791 125.019202 10.6159718 125.019202 19.0810791 121.984652 19.0810791 121.984652 5.57309647 124.826712 5.57309647 131.502722 14.2708482"></polygon>
                        <polygon id="Fill-11" fill="#173155" points="149.205166 5.56853987 152.238584 5.56853987 152.238584 19.0765225 149.205166 19.0765225 149.205166 13.7627908 143.795062 13.7627908 143.795062 19.0765225 140.753718 19.0765225 140.753718 5.56853987 143.795062 5.56853987 143.795062 11.2104463 149.205166 11.2104463"></polygon>
                        <mask id="mask-2" fill="white">
                            <use xlink:href="#path-1"></use>
                        </mask>
                        <g id="Clip-14"></g>
                        <polygon id="Fill-13" fill="#173155" mask="url(#mask-2)" points="158.354312 19.0715132 161.388862 19.0715132 161.388862 5.56353054 158.354312 5.56353054"></polygon>
                        <path d="M175.676365,10.0574553 C175.676365,9.33142509 175.477081,8.83354371 175.088704,8.56043948 C174.700327,8.2907069 174.018685,8.15359284 173.041515,8.15359284 L170.771264,8.15359284 L170.771264,12.1535022 L172.986032,12.1535022 C174.028876,12.1535022 174.734295,11.9860432 175.109085,11.653373 C175.487271,11.3173312 175.676365,10.7857332 175.676365,10.0574553 Z M176.1825,14.2428058 L179.625809,19.0721428 L175.890368,19.0721428 L172.872803,14.762041 L170.771264,14.762041 L170.771264,19.0721428 L167.731052,19.0721428 L167.731052,5.56416011 L172.89092,5.56416011 C175.002649,5.56416011 176.511998,5.919308 177.416702,6.62735601 C178.318008,7.3376518 178.772059,8.47839582 178.772059,10.0473403 C178.772059,12.2108203 177.912647,13.611182 176.1825,14.2428058 Z" id="Fill-15" fill="#173155" mask="url(#mask-2)"></path>
                        <polygon id="Fill-16" fill="#173155" mask="url(#mask-2)" points="194.754772 5.55819574 194.754772 8.24653042 187.97459 8.24653042 187.97459 11.0258998 194.07313 11.0258998 194.07313 13.5973504 187.97459 13.5973504 187.97459 16.3980737 194.964246 16.3980737 194.964246 19.0661784 184.937776 19.0661784 184.937776 5.55819574"></polygon>
                        <polygon id="Fill-17" fill="#173155" mask="url(#mask-2)" points="27.5589229 23.3190991 24.1393927 24.5958333 24.1393927 16.4847499 27.5589229 17.7030421"></polygon>
                        <path d="M15.5371227,24.5962828 L23.1291593,24.5962828 L23.1291593,15.6984795 L31.1118375,15.6984795 L31.1118375,24.5962828 L38.7038741,24.5962828 L38.7038741,0.0874685445 L31.2896646,0.0874685445 L31.2896646,8.69652268 L23.0668251,8.69652268 L23.0668251,0.0874685445 L15.6455259,0.0874685445 L15.642129,12.7235539 C15.642129,16.5065533 14.1953533,18.1170816 11.5163439,18.1170816 C8.88489077,18.1170816 7.44448882,16.5065533 7.44448882,12.7235539 L7.44448882,0.0874685445 L-0.000226458958,0.0874685445 L-0.000226458958,12.7235539 C-0.000226458958,21.0526711 3.73181717,24.5962828 11.5163439,24.5962828 L15.5371227,24.5962828 Z" id="Fill-18" fill="#173155" mask="url(#mask-2)"></path>
                        <path d="M59.3945915,16.5487649 C60.2517386,16.5487649 60.9288509,16.2363247 61.4281929,15.613692 C61.9264026,14.9910593 62.1777721,14.1346584 62.1777721,13.0512325 L62.1777721,5.59312681 L65.2179836,5.59312681 L65.2179836,13.1490106 C65.2179836,15.1090673 64.6676883,16.6105787 63.5806853,17.6602879 C62.4902854,18.7099972 61.094166,19.2382235 59.3945915,19.2382235 C57.6927524,19.2382235 56.2921037,18.7088733 55.198307,17.650173 C54.0977164,16.5937204 53.5508181,15.0967046 53.5508181,13.1490106 L53.5508181,5.59312681 L56.5910296,5.59312681 L56.5910296,13.0512325 C56.5910296,14.1346584 56.8457959,14.9910593 57.3485348,15.613692 C57.8535383,16.2363247 58.5351797,16.5487649 59.3945915,16.5487649 Z" id="Fill-1" fill="#173155" mask="url(#mask-2)"></path>
                    </g>
                </g>
            </g>
        </g>
    </g>
</svg>