<?xml version="1.0" encoding="UTF-8"?>
<svg width="200px" height="200px" viewBox="0 0 200 200" version="1.1" xmlns="http://www.w3.org/2000/svg" xmlns:xlink="http://www.w3.org/1999/xlink">
    <!-- Generator: Sketch 55 (78076) - https://sketchapp.com -->
    <title>img-borders</title>
    <desc>Created with Sketch.</desc>
    <defs>
        <ellipse id="path-1" cx="78.1578947" cy="77.8125" rx="78.1578947" ry="77.8125"></ellipse>
    </defs>
    <g id="img-borders" stroke="none" stroke-width="1" fill="none" fill-rule="evenodd">
        <g id="Group-12" transform="translate(11.000000, 20.000000)">
            <g id="Path-67" transform="translate(20.240092, 0.000000)">
                <mask id="mask-2" fill="white">
                    <use xlink:href="#path-1"></use>
                </mask>
                <use id="Mask" fill-opacity="0.2" fill="#33BEEF" xlink:href="#path-1"></use>
                <path d="M146.212662,35 C126.879328,25.6666667 115.545995,20.3333333 112.212662,19 C107.212662,17 103.212662,15 93.2126616,15 C83.2126616,15 66.2126616,16 62.2126616,16 C58.2126616,16 56.2126616,22 50.2126616,30 C44.2126616,38 33.7832966,52.9185711 33.2126616,56 C32.6420266,59.0814289 40.2126616,64 45.2126616,57 C48.5459949,52.3333333 52.5459949,47 57.2126616,41 C59.8793283,50.3333333 61.5459949,55.6666667 62.2126616,57 C63.2126616,59 65.2126616,61 70.2126616,60 C75.2126616,59 86.2126616,60 91.2126616,54 C94.5459949,50 98.2126616,45.3333333 102.212662,40 C107.545995,41.3333333 114.879328,46.6666667 124.212662,56 C138.212662,70 156.212662,86 161.212662,89 C164.545995,91 159.545995,73 146.212662,35 Z" fill="#3390CE" mask="url(#mask-2)"></path>
            </g>
            <ellipse id="Oval" stroke="#3390CE" stroke-width="1.6" opacity="0.5" cx="89.5801733" cy="77.8125" rx="78.1578947" ry="77.8125"></ellipse>
            <path d="M55.4222785,59 C29.4222785,69.6666667 14.0889452,76 9.42227854,78 C2.42227854,81 -2.57772146,86 1.42227854,93 C5.42227854,100 36.4222785,148 39.4222785,152 C42.4222785,156 45.4222785,164 55.4222785,158 C65.4222785,152 108.422279,133 115.422279,129 C122.422279,125 125.422279,122 120.422279,114 C117.088945,108.666667 106.088945,91.6666667 87.4222785,63" id="Path-64" stroke="#011148" stroke-width="2" stroke-linecap="round"></path>
            <path d="M35.4222785,145 C42.0889452,130.333333 46.0889452,121.333333 47.4222785,118 C49.4222785,113 52.4222785,108 61.4222785,111 C67.4222785,113 76.4222785,115.666667 88.4222785,119" id="Path-66" stroke="#011148" stroke-width="2" stroke-linecap="round" stroke-linejoin="round"></path>
            <path d="M78.4222785,116 C81.7556119,108.666667 84.0889452,103.666667 85.4222785,101 C87.4222785,97 90.4222785,92 98.4222785,94 C103.755612,95.3333333 107.422279,96.3333333 109.422279,97" id="Path-65" stroke="#011148" stroke-width="2" stroke-linecap="round" stroke-linejoin="round"></path>
            <ellipse id="Oval" stroke="#011148" stroke-width="2" cx="69.4222785" cy="86.5" rx="10" ry="8.5"></ellipse>
            <path d="M54.4222785,44 L54.4222785,31.6185008 C54.4222785,30.5139313 53.526848,29.6185008 52.4222785,29.6185008 C52.2445146,29.6185008 52.067544,29.6422003 51.8960437,29.6889731 L45.9992982,31.2971765 C44.9336495,31.5878079 44.3053739,32.6872902 44.5960053,33.7529389 C44.6461535,33.9368153 44.7223275,34.1125796 44.8222164,34.274899 L51.4222785,45 L54.4222785,44 Z" id="Path-68" fill="#011148"></path>
            <path d="M44.4222785,56 L44.4222785,43.6185008 C44.4222785,42.5139313 43.526848,41.6185008 42.4222785,41.6185008 C42.2445146,41.6185008 42.067544,41.6422003 41.8960437,41.6889731 L35.9992982,43.2971765 C34.9336495,43.5878079 34.3053739,44.6872902 34.5960053,45.7529389 C34.6461535,45.9368153 34.7223275,46.1125796 34.8222164,46.274899 L41.4222785,57 L44.4222785,56 Z" id="Path-68-Copy" fill="#011148" transform="translate(38.922279, 49.000000) rotate(-56.000000) translate(-38.922279, -49.000000) "></path>
        </g>
    </g>
</svg>