<?xml version="1.0" encoding="UTF-8"?>
<svg width="100px" height="100px" viewBox="0 0 100 100" version="1.1" xmlns="http://www.w3.org/2000/svg" xmlns:xlink="http://www.w3.org/1999/xlink">
    <!-- Generator: Sketch 55 (78076) - https://sketchapp.com -->
    <title>img-universality</title>
    <desc>Created with Sketch.</desc>
    <defs>
        <circle id="path-1" cx="26" cy="26" r="26"></circle>
        <linearGradient x1="50%" y1="0%" x2="50%" y2="100%" id="linearGradient-3">
            <stop stop-color="#62C3E9" stop-opacity="0.4" offset="0%"></stop>
            <stop stop-color="#3390CE" stop-opacity="0.4" offset="100%"></stop>
        </linearGradient>
        <linearGradient x1="50%" y1="0%" x2="50%" y2="100%" id="linearGradient-4">
            <stop stop-color="#62C3E9" stop-opacity="0.3" offset="0%"></stop>
            <stop stop-color="#3390CE" stop-opacity="0.3" offset="100%"></stop>
        </linearGradient>
        <linearGradient x1="50%" y1="0%" x2="50%" y2="100%" id="linearGradient-5">
            <stop stop-color="#62C3E9" stop-opacity="0.3" offset="0%"></stop>
            <stop stop-color="#3390CE" stop-opacity="0.3" offset="100%"></stop>
        </linearGradient>
        <linearGradient x1="50%" y1="0%" x2="50%" y2="100%" id="linearGradient-6">
            <stop stop-color="#3390CE" offset="0%"></stop>
            <stop stop-color="#011148" offset="100%"></stop>
        </linearGradient>
        <linearGradient x1="2.44800456%" y1="100%" x2="85.0497885%" y2="17.936897%" id="linearGradient-7">
            <stop stop-color="#3390CE" offset="0%"></stop>
            <stop stop-color="#011148" offset="100%"></stop>
        </linearGradient>
    </defs>
    <g id="img-universality" stroke="none" stroke-width="1" fill="none" fill-rule="evenodd">
        <circle id="Oval" fill-opacity="0.2" fill="#3390CE" transform="translate(51.000000, 49.000000) rotate(-24.000000) translate(-51.000000, -49.000000) " cx="51" cy="49" r="26"></circle>
        <g id="Path-60-+-Path-61-+-Oval-+-Path-62-Mask" transform="translate(51.000000, 49.000000) rotate(-20.000000) translate(-51.000000, -49.000000) translate(25.000000, 23.000000)">
            <mask id="mask-2" fill="white">
                <use xlink:href="#path-1"></use>
            </mask>
            <use id="Mask" fill-opacity="0.4" fill="#FFFFFF" xlink:href="#path-1"></use>
            <path d="M50,30 C47.3333333,26.6666667 44.3333333,25.3333333 41,26 C36,27 39,30 32,37 C27.3333333,41.6666667 28.3333333,46.3333333 35,51 C39,49.6666667 42.6666667,47.3333333 46,44 C49.3333333,40.6666667 51.3333333,36.6666667 52,32 L50,30 Z" id="Path-60" fill="url(#linearGradient-3)" mask="url(#mask-2)"></path>
            <path d="M0,20 C4,20 7.33333333,23 10,29 C14,38 25,29 25,37 C25,45 31,44 22,48 C13,52 10,54 5,46 C1.66666667,40.6666667 -1.33333333,35 -4,29 L0,20 Z" id="Path-61" fill-opacity="0.2" fill="#3390CE" mask="url(#mask-2)"></path>
            <circle id="Oval" fill="url(#linearGradient-4)" mask="url(#mask-2)" cx="19.5" cy="24.5" r="2.5"></circle>
            <path d="M11,2 C10.3333333,6.66666667 11.3333333,9.33333333 14,10 C18,11 21,8 26,10 C31,12 28,17 33,17 C38,17 36,12 41,12 C44.3333333,12 46.3333333,11.3333333 47,10 L34,-3 L11,2 Z" id="Path-62" fill="url(#linearGradient-5)" mask="url(#mask-2)"></path>
        </g>
        <path d="M27.3665292,64.0490102 C25.3665292,70.7156769 30.0331958,69.0490102 41.3665292,59.0490102 C52.6998625,49.0490102 59.6998625,41.7156769 62.3665292,37.0490102 L56.3665292,37.0490102" id="Path-57" stroke="url(#linearGradient-6)" stroke-width="2" stroke-linecap="round" transform="translate(44.641529, 52.549010) rotate(9.000000) translate(-44.641529, -52.549010) "></path>
        <path d="M74.5201995,38.096444 C78.5201995,38.096444 76.8535328,42.096444 69.5201995,50.096444 C62.1868661,58.096444 56.1868661,64.096444 51.5201995,68.096444 L56.5201995,68.096444" id="Path-59" stroke="url(#linearGradient-7)" stroke-width="2" stroke-linecap="round" transform="translate(64.079023, 53.096444) rotate(9.000000) translate(-64.079023, -53.096444) "></path>
    </g>
</svg>