<?xml version="1.0" encoding="UTF-8"?>
<svg width="755px" height="129px" viewBox="0 0 755 129" version="1.1" xmlns="http://www.w3.org/2000/svg" xmlns:xlink="http://www.w3.org/1999/xlink">
    <!-- Generator: Sketch 55.1 (78136) - https://sketchapp.com -->
    <title>white-long</title>
    <desc>Created with Sketch.</desc>
    <g id="white-long" stroke="none" stroke-width="1" fill="none" fill-rule="evenodd" transform="translate(0.000000, 1.000000)">
        <path d="M124.918791,103.802343 L112.249403,108.5312 L112.249403,78.4866286 L124.918791,82.9994857 L124.918791,103.802343 Z M138.589694,20 L168.023004,20 L168.023004,108.534286 L138.592266,108.534286 L138.592266,75.5737143 L109.020072,75.5737143 L109.020072,108.534286 L78.4628237,108.534286 L63.568705,108.534286 C34.7269424,108.534286 20,95.4071429 20,64.5551429 L20,20 L49.4384532,20 L49.4384532,69.158 C49.4384532,77.294 56.0329137,83.8871429 64.1679676,83.8871429 C72.3055935,83.8871429 79.2652698,77.294 79.2652698,69.158 L79.2292626,20 L108.999496,20 L108.999496,49.6382857 L138.589694,49.6382857 L138.589694,20 Z" id="Combined-Shape" fill="#FFFFFF"></path>
        <path d="M308.247621,70.1755143 L321.004455,88.0443714 L307.180264,88.0443714 L295.997459,72.0963714 L288.222477,72.0963714 L288.222477,88.0443714 L276.970228,88.0443714 L276.970228,38.0635143 L296.061757,38.0635143 C303.906182,38.0635143 309.492441,39.3749429 312.81539,41.9978 C316.1512,44.6232286 317.83325,48.8455143 317.83325,54.6518 C317.83325,62.6566571 314.649185,67.8380857 308.247621,70.1755143 Z M306.372674,54.6903714 C306.372674,52.0032286 305.649959,50.1595143 304.199383,49.1489429 C302.756523,48.1538 300.241164,47.6446571 296.64816,47.6446571 L288.222477,47.6446571 L288.222477,62.4432286 L296.421829,62.4432286 C300.277171,62.4432286 302.900552,61.8260857 304.286829,60.5918 C305.675678,59.3498 306.372674,57.3826571 306.372674,54.6903714 Z M340.655638,88.1276857 L340.655638,38.1442571 L360.271844,38.1442571 C363.669379,38.1442571 366.611682,38.5479714 369.080746,39.3631143 C371.547239,40.1705429 373.406754,41.2634 374.679865,42.6442571 C376.930315,45.2311143 378.056826,48.1342571 378.056826,51.3768286 C378.056826,55.2802571 376.794002,58.1834 374.234919,60.0991143 C373.383606,60.7676857 372.784344,61.1816857 372.429415,61.3411143 C372.120782,61.5108286 371.4958,61.7859714 370.647059,62.1691143 C373.764254,62.8428286 376.233318,64.2314 378.095405,66.3528286 C379.952347,68.4819714 380.880818,71.1099714 380.880818,74.2522571 C380.880818,77.7339714 379.674577,80.8016857 377.262095,83.4682571 C374.476682,86.5745429 369.62857,88.1276857 362.725477,88.1276857 L340.655638,88.1276857 Z M351.895027,58.3736857 L357.242095,58.3736857 C360.35929,58.3736857 362.686897,58.0496857 364.191484,57.3785429 C365.706358,56.7048286 366.467653,55.2751143 366.467653,53.0431143 C366.467653,50.8445429 365.770656,49.3736857 364.368948,48.6665429 C362.969811,47.9388286 360.616484,47.5839714 357.306394,47.5839714 L351.895027,47.5839714 L351.895027,58.3736857 Z M351.895027,78.6828286 L359.608282,78.6828286 C362.830926,78.6828286 365.251124,78.2919714 366.86116,77.4999714 C368.466052,76.7156857 369.273642,75.1676857 369.273642,72.8636857 C369.273642,70.5519714 368.417185,69.0168286 366.724847,68.2762571 C365.00679,67.5536857 362.283103,67.1731143 358.540926,67.1731143 L351.895027,67.1731143 L351.895027,78.6828286 Z M436.16395,87.9947429 L431.480442,77.1896 L410.364795,77.1896 L405.691576,87.9947429 L393.724327,87.9947429 L415.467529,38.0113143 L426.362277,38.0113143 L448.131198,87.9947429 L436.16395,87.9947429 Z M420.966342,52.8793143 L414.626504,67.4001714 L427.229022,67.4001714 L420.966342,52.8793143 Z M500.241581,38.0702 L511.496401,38.0702 L511.496401,88.0536286 L500.241581,88.0536286 L476.24793,56.7310571 L476.24793,88.0536286 L465.016257,88.0536286 L465.016257,38.0702 L475.535502,38.0702 L500.241581,70.2542 L500.241581,38.0702 Z M565.755642,38.0527143 L576.982171,38.0527143 L576.982171,88.0361429 L565.755642,88.0361429 L565.755642,68.3724286 L545.735642,68.3724286 L545.735642,88.0361429 L534.47825,88.0361429 L534.47825,38.0527143 L545.735642,38.0527143 L545.735642,58.9301429 L565.755642,58.9301429 L565.755642,38.0527143 Z M599.615779,88.0171143 L599.615779,38.0362571 L610.847451,38.0362571 L610.847451,88.0171143 L599.615779,88.0171143 Z M665.596905,70.1503143 L678.340879,88.0191714 L664.514117,88.0191714 L653.346743,72.0711714 L645.571761,72.0711714 L645.571761,88.0191714 L634.319513,88.0191714 L634.319513,38.0383143 L653.416185,38.0383143 C661.229746,38.0383143 666.816005,39.3497429 670.164674,41.9726 C673.500484,44.5980286 675.182534,48.8203143 675.182534,54.6266 C675.182534,62.6314571 671.998469,67.8128857 665.596905,70.1503143 Z M663.721959,54.6651714 C663.721959,51.9780286 662.986383,50.1343143 661.548667,49.1237429 C660.110951,48.1260286 657.590448,47.6168857 653.971725,47.6168857 L645.571761,47.6168857 L645.571761,62.4180286 L653.765969,62.4180286 C657.626455,62.4180286 660.236977,61.7983143 661.623254,60.5666 C663.024962,59.3246 663.721959,57.3574571 663.721959,54.6651714 Z M734.331038,38.0149143 L734.331038,47.9612 L709.236595,47.9612 L709.236595,58.2469143 L731.807962,58.2469143 L731.807962,67.7612 L709.236595,67.7612 L709.236595,78.1240571 L734.325894,78.1240571 L734.325894,87.9983429 L697.999779,87.9983429 L697.999779,38.0149143 L734.331038,38.0149143 Z M233.377347,78.6833429 C236.548552,78.6833429 239.056196,77.5262 240.905423,75.2222 C242.749505,72.9182 243.677977,69.7476286 243.677977,65.7413429 L243.677977,38.1447714 L254.930225,38.1447714 L254.930225,66.1013429 C254.930225,73.3553429 252.893246,78.9122 248.868156,82.7950571 C244.835351,86.6779143 239.665746,88.6322 233.377347,88.6322 C227.081232,88.6322 221.896196,86.6727714 217.847959,82.7564857 C213.774002,78.8479143 211.749883,73.3090571 211.749883,66.1013429 L211.749883,38.1447714 L223.002131,38.1447714 L223.002131,65.7413429 C223.002131,69.7476286 223.946034,72.9182 225.805549,75.2222 C227.672779,77.5262 230.198426,78.6833429 233.377347,78.6833429 Z" id="Combined-Shape" fill="#FFFFFF"></path>
    </g>
</svg>