<?xml version="1.0" encoding="UTF-8"?>
<svg width="100px" height="100px" viewBox="0 0 100 100" version="1.1" xmlns="http://www.w3.org/2000/svg" xmlns:xlink="http://www.w3.org/1999/xlink">
    <!-- Generator: Sketch 55 (78076) - https://sketchapp.com -->
    <title>img-opportunity</title>
    <desc>Created with Sketch.</desc>
    <defs>
        <linearGradient x1="22.8088038%" y1="-22.5662727%" x2="63.6959213%" y2="89.8368519%" id="linearGradient-1">
            <stop stop-color="#011148" offset="0%"></stop>
            <stop stop-color="#33BEEF" offset="100%"></stop>
        </linearGradient>
        <linearGradient x1="22.8088038%" y1="-22.5662727%" x2="63.6959213%" y2="89.8368519%" id="linearGradient-2">
            <stop stop-color="#3390CE" offset="0%"></stop>
            <stop stop-color="#33BEEF" offset="100%"></stop>
        </linearGradient>
    </defs>
    <g id="img-opportunity" stroke="none" stroke-width="1" fill="none" fill-rule="evenodd">
        <g id="Group-2-Copy-3" transform="translate(25.000000, 25.000000)">
            <path d="M24.2348299,0.0326294526 C24.3949285,-0.0108764842 24.5634048,-0.0108764842 24.7235035,0.0326294526 L48.253622,6.4268121 C48.6691683,6.53973457 48.9583333,6.9235287 48.9583333,7.36213992 L48.9583333,42.2207485 C48.9583333,42.6535525 48.6766322,43.0337584 48.2684065,43.151928 L24.7382879,49.9632222 C24.5688858,50.0122593 24.3894476,50.0122593 24.2200454,49.9632222 L0.68992688,43.151928 C0.281701084,43.0337584 0,42.6535525 0,42.2207485 L0,7.36213992 C0,6.9235287 0.289165004,6.53973457 0.704711327,6.4268121 L24.2348299,0.0326294526 Z M1.89809623,8.10596625 L1.89809623,41.4892831 L24.4791667,48.0258551 L47.0602371,41.4892831 L47.0602371,8.10596625 L24.4791667,1.9696823 L1.89809623,8.10596625 Z" id="Combined-Shape-Copy-8" fill="url(#linearGradient-1)" fill-rule="nonzero"></path>
            <path d="M28.6458333,4.25531915 L50,10.0578887 L50,41.691252 L28.6458333,47.8723404 L7.29166667,41.691252 L7.29166667,10.0578887 L28.6458333,4.25531915 Z" id="Combined-Shape-Copy-9" fill-opacity="0.2" fill="url(#linearGradient-2)"></path>
        </g>
    </g>
</svg>