<?xml version="1.0" encoding="UTF-8"?>
<svg width="462px" height="398px" viewBox="0 0 462 398" version="1.1" xmlns="http://www.w3.org/2000/svg" xmlns:xlink="http://www.w3.org/1999/xlink">
    <!-- Generator: Sketch 55.2 (78181) - https://sketchapp.com -->
    <title>Group 10</title>
    <desc>Created with Sketch.</desc>
    <g id="UH-DESIGN-SYSTEM" stroke="none" stroke-width="1" fill="none" fill-rule="evenodd">
        <g id="LANDING" transform="translate(-575.000000, -199.000000)">
            <g id="Group-10" transform="translate(579.000000, 203.000000)">
                <path d="M390,164.990935 C390,229.990935 390,304.993957 390,390 L0,390 L0,0 L390,0 L390,53.724334" id="Path" stroke="#011148" stroke-width="7" transform="translate(195.000000, 195.000000) rotate(-360.000000) translate(-195.000000, -195.000000) "></path>
                <path d="M59.08,133.48 C56.1199852,133.48 53.5000114,132.900006 51.22,131.74 C48.9399886,130.579994 47.1700063,128.930011 45.91,126.79 C44.6499937,124.649989 44.02,122.180014 44.02,119.38 L44.02,91.72 C44.02,91.519999 44.0899993,91.3500007 44.23,91.21 C44.3700007,91.0699993 44.539999,91 44.74,91 L50.26,91 C50.460001,91 50.6299993,91.0699993 50.77,91.21 C50.9100007,91.3500007 50.98,91.519999 50.98,91.72 L50.98,119.5 C50.98,121.860012 51.7199926,123.779993 53.2,125.26 C54.6800074,126.740007 56.6399878,127.48 59.08,127.48 C61.5200122,127.48 63.4799926,126.740007 64.96,125.26 C66.4400074,123.779993 67.18,121.860012 67.18,119.5 L67.18,91.72 C67.18,91.519999 67.2499993,91.3500007 67.39,91.21 C67.5300007,91.0699993 67.699999,91 67.9,91 L73.42,91 C73.620001,91 73.7899993,91.0699993 73.93,91.21 C74.0700007,91.3500007 74.14,91.519999 74.14,91.72 L74.14,119.38 C74.14,122.180014 73.52,124.649989 72.28,126.79 C71.0399938,128.930011 69.2800114,130.579994 67,131.74 C64.7199886,132.900006 62.080015,133.48 59.08,133.48 Z M112.12,133 C111.719998,133 111.440001,132.820002 111.28,132.46 L103.36,115.18 C103.28,115.019999 103.160001,114.94 103,114.94 L95.8,114.94 C95.599999,114.94 95.5,115.039999 95.5,115.24 L95.5,132.28 C95.5,132.480001 95.4300007,132.649999 95.29,132.79 C95.1499993,132.930001 94.980001,133 94.78,133 L89.26,133 C89.059999,133 88.8900007,132.930001 88.75,132.79 C88.6099993,132.649999 88.54,132.480001 88.54,132.28 L88.54,91.72 C88.54,91.519999 88.6099993,91.3500007 88.75,91.21 C88.8900007,91.0699993 89.059999,91 89.26,91 L105.76,91 C108.200012,91 110.359991,91.5099949 112.24,92.53 C114.120009,93.5500051 115.579995,94.9899907 116.62,96.85 C117.660005,98.7100093 118.18,100.839988 118.18,103.24 C118.18,106.000014 117.470007,108.34999 116.05,110.29 C114.629993,112.23001 112.660013,113.579996 110.14,114.34 C110.06,114.34 110,114.38 109.96,114.46 C109.92,114.54 109.92,114.62 109.96,114.7 L118.42,132.16 C118.5,132.320001 118.54,132.44 118.54,132.52 C118.54,132.840002 118.320002,133 117.88,133 L112.12,133 Z M95.8,97 C95.599999,97 95.5,97.099999 95.5,97.3 L95.5,109.24 C95.5,109.440001 95.599999,109.54 95.8,109.54 L104.8,109.54 C106.72001,109.54 108.269994,108.970006 109.45,107.83 C110.630006,106.689994 111.22,105.180009 111.22,103.3 C111.22,101.419991 110.630006,99.9000058 109.45,98.74 C108.269994,97.5799942 106.72001,97 104.8,97 L95.8,97 Z M154.78,111.1 C154.539999,111.220001 154.539999,111.339999 154.78,111.46 C158.86002,113.38001 160.9,116.679977 160.9,121.36 C160.9,125.160019 159.630013,128.04999 157.09,130.03 C154.549987,132.01001 151.24002,133 147.16,133 L132.04,133 C131.839999,133 131.670001,132.930001 131.53,132.79 C131.389999,132.649999 131.32,132.480001 131.32,132.28 L131.32,91.72 C131.32,91.519999 131.389999,91.3500007 131.53,91.21 C131.670001,91.0699993 131.839999,91 132.04,91 L146.68,91 C151.040022,91 154.399988,91.9399906 156.76,93.82 C159.120012,95.7000094 160.3,98.539981 160.3,102.34 C160.3,106.540021 158.460018,109.459992 154.78,111.1 Z M138.58,97 C138.379999,97 138.28,97.099999 138.28,97.3 L138.28,108.4 C138.28,108.600001 138.379999,108.7 138.58,108.7 L146.68,108.7 C148.800011,108.7 150.469994,108.190005 151.69,107.17 C152.910006,106.149995 153.52,104.740009 153.52,102.94 C153.52,101.099991 152.910006,99.6500053 151.69,98.59 C150.469994,97.5299947 148.800011,97 146.68,97 L138.58,97 Z M147.16,126.94 C149.24001,126.94 150.889994,126.380006 152.11,125.26 C153.330006,124.139994 153.94,122.62001 153.94,120.7 C153.94,118.73999 153.320006,117.210005 152.08,116.11 C150.839994,115.009995 149.160011,114.46 147.04,114.46 L138.58,114.46 C138.379999,114.46 138.28,114.559999 138.28,114.76 L138.28,126.64 C138.28,126.840001 138.379999,126.94 138.58,126.94 L147.16,126.94 Z M198.7,133 C198.299998,133 198.040001,132.800002 197.92,132.4 L195.94,125.98 C195.86,125.819999 195.760001,125.74 195.64,125.74 L179.8,125.74 C179.679999,125.74 179.58,125.819999 179.5,125.98 L177.52,132.4 C177.399999,132.800002 177.140002,133 176.74,133 L170.74,133 C170.499999,133 170.320001,132.930001 170.2,132.79 C170.079999,132.649999 170.06,132.440001 170.14,132.16 L183.16,91.6 C183.280001,91.199998 183.539998,91 183.94,91 L191.44,91 C191.840002,91 192.099999,91.199998 192.22,91.6 L205.3,132.16 C205.34,132.24 205.36,132.339999 205.36,132.46 C205.36,132.820002 205.140002,133 204.7,133 L198.7,133 Z M181.36,119.92 C181.32,120.160001 181.399999,120.28 181.6,120.28 L193.78,120.28 C194.020001,120.28 194.1,120.160001 194.02,119.92 L187.84,99.82 C187.8,99.6599992 187.74,99.58 187.66,99.58 C187.58,99.58 187.52,99.6599992 187.48,99.82 L181.36,119.92 Z M241.96,91.72 C241.96,91.519999 242.029999,91.3500007 242.17,91.21 C242.310001,91.0699993 242.479999,91 242.68,91 L248.2,91 C248.400001,91 248.569999,91.0699993 248.71,91.21 C248.850001,91.3500007 248.92,91.519999 248.92,91.72 L248.92,132.28 C248.92,132.480001 248.850001,132.649999 248.71,132.79 C248.569999,132.930001 248.400001,133 248.2,133 L242.86,133 C242.459998,133 242.180001,132.840002 242.02,132.52 L224.74,104.2 C224.66,104.079999 224.58,104.03 224.5,104.05 C224.42,104.07 224.38,104.159999 224.38,104.32 L224.5,132.28 C224.5,132.480001 224.430001,132.649999 224.29,132.79 C224.149999,132.930001 223.980001,133 223.78,133 L218.26,133 C218.059999,133 217.890001,132.930001 217.75,132.79 C217.609999,132.649999 217.54,132.480001 217.54,132.28 L217.54,91.72 C217.54,91.519999 217.609999,91.3500007 217.75,91.21 C217.890001,91.0699993 218.059999,91 218.26,91 L223.6,91 C224.000002,91 224.279999,91.1599984 224.44,91.48 L241.66,119.8 C241.74,119.920001 241.82,119.97 241.9,119.95 C241.98,119.93 242.02,119.840001 242.02,119.68 L241.96,91.72 Z M277.24,133.48 C274.119984,133.48 271.400012,132.980005 269.08,131.98 C266.759988,130.979995 264.970006,129.580009 263.71,127.78 C262.449994,125.979991 261.82,123.860012 261.82,121.42 L261.82,119.92 C261.82,119.719999 261.889999,119.550001 262.03,119.41 C262.170001,119.269999 262.339999,119.2 262.54,119.2 L267.88,119.2 C268.080001,119.2 268.249999,119.269999 268.39,119.41 C268.530001,119.550001 268.6,119.719999 268.6,119.92 L268.6,121.06 C268.6,122.900009 269.419992,124.429994 271.06,125.65 C272.700008,126.870006 274.939986,127.48 277.78,127.48 C280.220012,127.48 282.059994,126.960005 283.3,125.92 C284.540006,124.879995 285.16,123.540008 285.16,121.9 C285.16,120.779994 284.82,119.830004 284.14,119.05 C283.459997,118.269996 282.490006,117.560003 281.23,116.92 C279.969994,116.279997 278.080013,115.480005 275.56,114.52 C272.719986,113.479995 270.420009,112.500005 268.66,111.58 C266.899991,110.659995 265.430006,109.410008 264.25,107.83 C263.069994,106.249992 262.48,104.280012 262.48,101.92 C262.48,98.3999824 263.759987,95.6200102 266.32,93.58 C268.880013,91.5399898 272.299979,90.52 276.58,90.52 C279.580015,90.52 282.229988,91.0399948 284.53,92.08 C286.830011,93.1200052 288.619994,94.5699907 289.9,96.43 C291.180006,98.2900093 291.82,100.439988 291.82,102.88 L291.82,103.9 C291.82,104.100001 291.750001,104.269999 291.61,104.41 C291.469999,104.550001 291.300001,104.62 291.1,104.62 L285.7,104.62 C285.499999,104.62 285.330001,104.550001 285.19,104.41 C285.049999,104.269999 284.98,104.100001 284.98,103.9 L284.98,103.24 C284.98,101.359991 284.210008,99.7700065 282.67,98.47 C281.129992,97.1699935 279.000014,96.52 276.28,96.52 C274.079989,96.52 272.370006,96.9799954 271.15,97.9 C269.929994,98.8200046 269.32,100.119992 269.32,101.8 C269.32,103.000006 269.639997,103.979996 270.28,104.74 C270.920003,105.500004 271.879994,106.189997 273.16,106.81 C274.440006,107.430003 276.419987,108.219995 279.1,109.18 C281.940014,110.260005 284.209992,111.239996 285.91,112.12 C287.610009,113.000004 289.069994,114.229992 290.29,115.81 C291.510006,117.390008 292.12,119.359988 292.12,121.72 C292.12,125.320018 290.790013,128.179989 288.13,130.3 C285.469987,132.420011 281.840023,133.48 277.24,133.48 Z M331.96,91 C332.160001,91 332.329999,91.0699993 332.47,91.21 C332.610001,91.3500007 332.68,91.519999 332.68,91.72 L332.68,96.34 C332.68,96.540001 332.610001,96.7099993 332.47,96.85 C332.329999,96.9900007 332.160001,97.06 331.96,97.06 L320.92,97.06 C320.719999,97.06 320.62,97.159999 320.62,97.36 L320.62,132.28 C320.62,132.480001 320.550001,132.649999 320.41,132.79 C320.269999,132.930001 320.100001,133 319.9,133 L314.38,133 C314.179999,133 314.010001,132.930001 313.87,132.79 C313.729999,132.649999 313.66,132.480001 313.66,132.28 L313.66,97.36 C313.66,97.159999 313.560001,97.06 313.36,97.06 L302.74,97.06 C302.539999,97.06 302.370001,96.9900007 302.23,96.85 C302.089999,96.7099993 302.02,96.540001 302.02,96.34 L302.02,91.72 C302.02,91.519999 302.089999,91.3500007 302.23,91.21 C302.370001,91.0699993 302.539999,91 302.74,91 L331.96,91 Z M357.22,133.6 C354.219985,133.6 351.560012,132.990006 349.24,131.77 C346.919988,130.549994 345.130006,128.820011 343.87,126.58 C342.609994,124.339989 341.98,121.760015 341.98,118.84 L341.98,105.16 C341.98,102.279986 342.619994,99.7300111 343.9,97.51 C345.180006,95.2899889 346.969988,93.5700061 349.27,92.35 C351.570011,91.1299939 354.219985,90.52 357.22,90.52 C360.260015,90.52 362.929988,91.1299939 365.23,92.35 C367.530011,93.5700061 369.319994,95.2899889 370.6,97.51 C371.880006,99.7300111 372.52,102.279986 372.52,105.16 L372.52,118.84 C372.52,121.760015 371.880006,124.339989 370.6,126.58 C369.319994,128.820011 367.530011,130.549994 365.23,131.77 C362.929988,132.990006 360.260015,133.6 357.22,133.6 Z M357.22,127.6 C359.740013,127.6 361.759992,126.820008 363.28,125.26 C364.800008,123.699992 365.56,121.640013 365.56,119.08 L365.56,105.1 C365.56,102.499987 364.800008,100.420008 363.28,98.86 C361.759992,97.2999922 359.740013,96.52 357.22,96.52 C354.739988,96.52 352.740008,97.2999922 351.22,98.86 C349.699992,100.420008 348.94,102.499987 348.94,105.1 L348.94,119.08 C348.94,121.640013 349.699992,123.699992 351.22,125.26 C352.740008,126.820008 354.739988,127.6 357.22,127.6 Z M409.84,133 C409.439998,133 409.160001,132.820002 409,132.46 L401.08,115.18 C401,115.019999 400.880001,114.94 400.72,114.94 L393.52,114.94 C393.319999,114.94 393.22,115.039999 393.22,115.24 L393.22,132.28 C393.22,132.480001 393.150001,132.649999 393.01,132.79 C392.869999,132.930001 392.700001,133 392.5,133 L386.98,133 C386.779999,133 386.610001,132.930001 386.47,132.79 C386.329999,132.649999 386.26,132.480001 386.26,132.28 L386.26,91.72 C386.26,91.519999 386.329999,91.3500007 386.47,91.21 C386.610001,91.0699993 386.779999,91 386.98,91 L403.48,91 C405.920012,91 408.079991,91.5099949 409.96,92.53 C411.840009,93.5500051 413.299995,94.9899907 414.34,96.85 C415.380005,98.7100093 415.9,100.839988 415.9,103.24 C415.9,106.000014 415.190007,108.34999 413.77,110.29 C412.349993,112.23001 410.380013,113.579996 407.86,114.34 C407.78,114.34 407.72,114.38 407.68,114.46 C407.64,114.54 407.64,114.62 407.68,114.7 L416.14,132.16 C416.22,132.320001 416.26,132.44 416.26,132.52 C416.26,132.840002 416.040002,133 415.6,133 L409.84,133 Z M393.52,97 C393.319999,97 393.22,97.099999 393.22,97.3 L393.22,109.24 C393.22,109.440001 393.319999,109.54 393.52,109.54 L402.52,109.54 C404.44001,109.54 405.989994,108.970006 407.17,107.83 C408.350006,106.689994 408.94,105.180009 408.94,103.3 C408.94,101.419991 408.350006,99.9000058 407.17,98.74 C405.989994,97.5799942 404.44001,97 402.52,97 L393.52,97 Z M438.46,132.94 C438.259999,132.94 438.090001,132.870001 437.95,132.73 C437.809999,132.589999 437.74,132.420001 437.74,132.22 L437.74,116.14 C437.74,115.979999 437.72,115.86 437.68,115.78 L425.32,91.84 C425.24,91.6799992 425.2,91.5600004 425.2,91.48 C425.2,91.1599984 425.419998,91 425.86,91 L431.8,91 C432.2,91 432.479999,91.1799982 432.64,91.54 L441.04,108.28 C441.160001,108.440001 441.279999,108.440001 441.4,108.28 L449.86,91.54 C450.060001,91.1799982 450.339998,91 450.7,91 L456.7,91 C456.980001,91 457.169999,91.0799992 457.27,91.24 C457.370001,91.4000008 457.360001,91.5999988 457.24,91.84 L444.82,115.78 C444.74,115.940001 444.7,116.06 444.7,116.14 L444.7,132.22 C444.7,132.420001 444.630001,132.589999 444.49,132.73 C444.349999,132.870001 444.180001,132.94 443.98,132.94 L438.46,132.94 Z" id="URBANSTORY" fill="#011148" fill-rule="nonzero"></path>
                <g id="Group-9" transform="translate(3.000000, 193.000000)">
                    <g id="Group-7" transform="translate(0.000000, 78.000000)" fill="#EF4344" stroke="#772121">
                        <rect id="Rectangle" x="0.5" y="77.1779661" width="38.4936709" height="38.3220339"></rect>
                        <rect id="Rectangle-Copy-3" x="39.0063291" y="77.1779661" width="38.4936709" height="38.3220339"></rect>
                        <rect id="Rectangle-Copy" x="0.5" y="38.8389831" width="38.4936709" height="38.3220339"></rect>
                        <rect id="Rectangle-Copy-2" x="0.5" y="0.5" width="38.4936709" height="38.3220339"></rect>
                    </g>
                    <g id="Group-6" transform="translate(115.000000, 155.000000)" fill="#FFCE07" stroke="#7F6603">
                        <rect id="Rectangle-Copy-8" x="0.5" y="0.5" width="38.2356688" height="38"></rect>
                        <rect id="Rectangle-Copy-9" x="38.7547771" y="0.5" width="38.2356688" height="38"></rect>
                        <rect id="Rectangle-Copy-10" x="77.0095541" y="0.5" width="38.2356688" height="38"></rect>
                        <rect id="Rectangle-Copy-11" x="115.264331" y="0.5" width="38.2356688" height="38"></rect>
                    </g>
                    <g id="Group-5" transform="translate(153.000000, 78.000000)" fill="#2791D9" stroke="#13486C">
                        <rect id="Rectangle-Copy-14" x="0.5" y="38.9052626" width="38.390013" height="38.390013"></rect>
                        <rect id="Rectangle-Copy-13" x="38.9052626" y="38.9052626" width="38.390013" height="38.390013"></rect>
                        <rect id="Rectangle-Copy-16" x="0.5" y="0.5" width="38.390013" height="38.390013"></rect>
                        <rect id="Rectangle-Copy-15" x="38.9052626" y="0.5" width="38.390013" height="38.390013"></rect>
                    </g>
                    <g id="Group-3" transform="translate(230.000000, 0.000000)" fill="#EF4344" stroke="#772121">
                        <rect id="Rectangle-Copy-17" x="38.9052626" y="76.9767116" width="38.390013" height="38.2188265"></rect>
                        <rect id="Rectangle-Copy-20" x="38.9052626" y="38.7383558" width="38.390013" height="38.2188265"></rect>
                        <rect id="Rectangle-Copy-12" x="0.5" y="38.7383558" width="38.390013" height="38.2188265"></rect>
                        <rect id="Rectangle-Copy-21" x="0.5" y="0.5" width="38.390013" height="38.2188265"></rect>
                    </g>
                    <g id="Group" transform="translate(306.000000, 78.000000)" fill="#2FBD90" stroke="#175E47">
                        <rect id="Rectangle-Copy-18" x="0.5" y="77.1779661" width="38.4936709" height="38.3220339"></rect>
                        <rect id="Rectangle-Copy-19" x="39.0063291" y="77.1779661" width="38.4936709" height="38.3220339"></rect>
                        <rect id="Rectangle-Copy-22" x="39.0063291" y="38.8389831" width="38.4936709" height="38.3220339"></rect>
                        <rect id="Rectangle-Copy-23" x="39.0063291" y="0.5" width="38.4936709" height="38.3220339"></rect>
                    </g>
                    <g id="Group-8" transform="translate(38.000000, 0.000000)" fill="#2FBD90" stroke="#175E47">
                        <rect id="Rectangle-Copy-4" x="0.5" y="0.5" width="38.3220339" height="38.4936709"></rect>
                        <rect id="Rectangle-Copy-5" x="38.8389831" y="0.5" width="38.3220339" height="38.4936709"></rect>
                        <rect id="Rectangle-Copy-7" x="77.1779661" y="0.5" width="38.3220339" height="38.4936709"></rect>
                        <rect id="Rectangle-Copy-6" x="38.8389831" y="39.0063291" width="38.3220339" height="38.4936709"></rect>
                    </g>
                </g>
            </g>
        </g>
    </g>
</svg>