<?xml version="1.0" encoding="UTF-8"?>
<svg width="200px" height="200px" viewBox="0 0 200 200" version="1.1" xmlns="http://www.w3.org/2000/svg" xmlns:xlink="http://www.w3.org/1999/xlink">
    <!-- Generator: Sketch 55 (78076) - https://sketchapp.com -->
    <title>img-monochrome</title>
    <desc>Created with Sketch.</desc>
    <defs>
        <linearGradient x1="50%" y1="0%" x2="50%" y2="100%" id="linearGradient-1">
            <stop stop-color="#62E0F8" offset="0%"></stop>
            <stop stop-color="#33BEEF" offset="100%"></stop>
        </linearGradient>
        <path d="M4.14046844,0 L46.3379774,0 C48.5471164,3.51840692e-15 50.3379774,1.790861 50.3379774,4 C50.3379774,4.02761344 50.3376914,4.05522613 50.3371196,4.08283365 L47.5368409,139.278047 C47.4917616,141.454438 45.7145557,143.195214 43.5376986,143.195214 L8.80759968,143.195214 C6.65217448,143.195214 4.88434505,141.487359 4.809981,139.333217 L0.142849771,4.13800349 C0.0666325496,1.93017966 1.79464113,0.0785985506 4.00246495,0.00238132916 C4.048449,0.000793894543 4.09445701,3.56116584e-15 4.14046844,3.55271368e-15 Z" id="path-2"></path>
    </defs>
    <g id="img-monochrome" stroke="none" stroke-width="1" fill="none" fill-rule="evenodd">
        <g id="Group-6" transform="translate(17.000000, 6.000000)">
            <g id="Group-34-Copy" transform="translate(0.000000, 22.650557)">
                <ellipse id="Oval" fill-opacity="0.2" fill="#33BEEF" cx="86.9757085" cy="77.8125" rx="78.1578947" ry="77.8125"></ellipse>
                <ellipse id="Oval" stroke="#3390CE" stroke-width="1.6" opacity="0.5" cx="78.1578947" cy="77.8125" rx="78.1578947" ry="77.8125"></ellipse>
            </g>
            <g id="Group" transform="translate(75.500000, 94.000000) rotate(-10.000000) translate(-75.500000, -94.000000) translate(28.000000, 7.000000)">
                <g id="Group-5" transform="translate(0.538762, 0.271977)">
                    <path d="M25.5229981,4.55138354 L67.7507356,4.47346168 C69.9598708,4.46938522 71.7540334,6.25693854 71.7581099,8.46607378 C71.7581699,8.49862642 71.7578326,8.53117858 71.757098,8.56372299 L68.7071793,143.678631 C68.6581841,145.849176 66.8866727,147.58435 64.7155791,147.588356 L29.9594786,147.652491 C27.7984156,147.656479 26.0249298,145.943254 25.9542382,143.783343 L21.5325199,8.68222248 C21.4602557,6.47426573 23.1915767,4.62578149 25.3995334,4.55351738 C25.4406749,4.55217086 25.4818347,4.55145949 25.5229981,4.55138354 Z" id="Rectangle" fill="url(#linearGradient-1)" transform="translate(46.623584, 76.062773) rotate(-18.000000) translate(-46.623584, -76.062773) "></path>
                    <g id="Group-5-Copy" transform="translate(46.898852, 76.401040) rotate(-18.000000) translate(-46.898852, -76.401040) translate(21.398852, 4.401040)">
                        <mask id="mask-3" fill="white">
                            <use xlink:href="#path-2"></use>
                        </mask>
                        <g id="Mask"></g>
                        <g mask="url(#mask-3)" fill="#FFFFFF">
                            <g transform="translate(-2.965982, 10.788680)">
                                <rect id="Rectangle" fill-opacity="0.2" x="0" y="0" width="56.3536499" height="30.4044632"></rect>
                                <rect id="Rectangle-Copy-9" fill-opacity="0.4" x="0" y="30.4044632" width="56.3536499" height="30.4044632"></rect>
                                <rect id="Rectangle-Copy-10" fill-opacity="0.6" x="0" y="60.8089264" width="56.3536499" height="30.4044632"></rect>
                                <rect id="Rectangle-Copy-11" fill-opacity="0.8" x="0" y="91.2133895" width="56.3536499" height="30.4044632"></rect>
                            </g>
                        </g>
                    </g>
                </g>
                <path d="M6.8980212,165.660024 L14.6340223,109.905615 L27.6957924,88.466146 L34.2266774,106.520436 C42.2088702,97.4932909 46.9256205,92.2274564 48.3769283,90.7229322 C50.55389,88.466146 53.8193325,87.3377529 55.9962942,90.7229322 C58.1732558,94.1081116 55.9962942,102.006863 53.8193325,104.263649 C52.3680247,105.768174 50.55389,108.401091 48.3769283,112.162401 C49.8282361,118.93276 50.55389,123.822463 50.55389,126.831512 C50.55389,131.345084 47.2884474,136.98705 41.8460433,142.629015 C38.2177738,146.390325 34.2266774,149.775505 29.872754,152.784553 L32.32175,172.598799 C31.1918065,173.755262 27.2370043,173.755262 20.4573432,172.598799 C13.6776822,171.442337 9.15790821,169.129411 6.8980212,165.660024 Z" id="Path-69" fill="#3390CE"></path>
            </g>
        </g>
    </g>
</svg>