<?xml version="1.0" encoding="UTF-8"?>
<svg width="1045px" height="139px" viewBox="0 0 1045 139" version="1.1" xmlns="http://www.w3.org/2000/svg" xmlns:xlink="http://www.w3.org/1999/xlink">
    <!-- Generator: Sketch 55.1 (78136) - https://sketchapp.com -->
    <title>story-1</title>
    <desc>Created with Sketch.</desc>
    <defs>
        <polygon id="path-1" points="0.000125862069 0.71808 72.4362638 0.71808 72.4362638 44 0.000125862069 44"></polygon>
        <polygon id="path-3" points="20 88 370 88 370 0 20 0"></polygon>
    </defs>
    <g id="story-1" stroke="none" stroke-width="1" fill="none" fill-rule="evenodd">
        <g id="Group-3">
            <g id="Group">
                <polygon id="Fill-1" fill="#151646" points="51 85.6390791 45 88 45 73 51 75.2530811"></polygon>
                <g id="Group-5" transform="translate(0.000000, 44.000000)">
                    <mask id="mask-2" fill="white">
                        <use xlink:href="#path-1"></use>
                    </mask>
                    <g id="Clip-4"></g>
                    <path d="M58.0338672,0.71808 L58.0338672,15.2079086 L43.5534362,15.2079086 L43.5534362,0.71808 L28.9836431,0.71808 L29.0012638,24.75088 C29.0012638,28.7272229 25.5966948,31.9517943 21.614419,31.9517943 C17.6334017,31.9517943 14.4062983,28.7272229 14.4062983,24.75088 L14.4062983,0.71808 L0.000125862069,0.71808 L0.000125862069,22.5005943 C0.000125862069,37.5825371 7.20698793,44.0002514 21.3199017,44.0002514 L28.6098328,44.0002514 L43.5622466,44.0002514 L43.5622466,27.8874514 L58.0351259,27.8874514 L58.0351259,44.0002514 L72.4362638,44.0002514 L72.4362638,0.71808 L58.0338672,0.71808 Z" id="Fill-3" fill="#151646" mask="url(#mask-2)"></path>
                </g>
                <path d="M141.627453,69.4192221 L148,78 L141.092874,78 L135.506776,70.3416341 L131.620794,70.3416341 L131.620794,78 L126,78 L126,54 L135.538902,54 C139.458294,54 142.248131,54.6297592 143.908411,55.8880428 C145.575117,57.1500309 146.415537,59.1776086 146.415537,61.9646018 C146.415537,65.8086026 144.825935,68.2980037 141.627453,69.4192221 M140.690654,61.9831241 C140.690654,60.69397 140.328271,59.8086026 139.60479,59.3233176 C138.883879,58.8442066 137.625818,58.5997119 135.831893,58.5997119 L131.620794,58.5997119 L131.620794,65.7073472 L135.718808,65.7073472 C137.643808,65.7073472 138.955841,65.4097551 139.648481,64.8182754 C140.341121,64.2218563 140.690654,63.2759827 140.690654,61.9831241" id="Fill-6" fill="#151646"></path>
                <path d="M157,78 L157,54 L166.753197,54 C168.442455,54 169.905371,54.1938571 171.132992,54.5852755 C172.359335,54.9729897 173.283887,55.4965272 173.91688,56.1608273 C175.035806,57.4017595 175.594629,58.7958018 175.594629,60.354067 C175.594629,62.2271956 174.968031,63.6224726 173.695652,64.5411329 C173.272379,64.8621701 172.973146,65.0609662 172.797954,65.138756 C172.644501,65.22025 172.33376,65.3523692 171.911765,65.5351134 C173.461637,65.8586202 174.689258,66.5266245 175.613811,67.5440654 C176.538363,68.5664454 177,69.8296033 177,71.3384782 C177,73.0103411 176.398977,74.4834079 175.200767,75.7626177 C173.814578,77.2542059 171.405371,78 167.973146,78 L157,78 Z M162.586957,63.71261 L165.245524,63.71261 C166.796675,63.71261 167.953964,63.5570304 168.702046,63.2347585 C169.453964,62.9112517 169.83376,62.224726 169.83376,61.1541905 C169.83376,60.098472 169.487212,59.3921902 168.790281,59.0513968 C168.094629,58.7019602 166.923274,58.5315635 165.277494,58.5315635 L162.586957,58.5315635 L162.586957,63.71261 Z M162.586957,73.4647322 L166.423274,73.4647322 C168.025575,73.4647322 169.2289,73.2782837 170.029412,72.8979781 C170.827366,72.5213768 171.227621,71.7780522 171.227621,70.6704738 C171.227621,69.5616608 170.803069,68.82451 169.961637,68.4688995 C169.107417,68.1219324 167.751918,67.9379534 165.892583,67.9379534 L162.586957,67.9379534 L162.586957,73.4647322 Z" id="Fill-8" fill="#151646"></path>
                <path d="M204.061404,78 L201.737273,72.8127797 L191.258899,72.8127797 L188.938596,78 L183,78 L193.791066,54 L199.197447,54 L210,78 L204.061404,78 Z M196.519783,61.1393734 L193.372442,68.1108196 L199.627558,68.1108196 L196.519783,61.1393734 Z" id="Fill-10" fill="#151646"></path>
                <polygon id="Fill-12" fill="#151646" points="235.430722 54 241 54 241 78 235.430722 78 223.557824 62.9594073 223.557824 78 218 78 218 54 223.20529 54 235.430722 69.4542368"></polygon>
                <polygon id="Fill-14" fill="#151646" points="267.453286 54 273 54 273 78 267.453286 78 267.453286 68.5590369 257.560692 68.5590369 257.560692 78 252 78 252 54 257.560692 54 257.560692 64.0237691 267.453286 64.0237691"></polygon>
                <polygon id="Fill-16" fill="#151646" points="284 78 289 78 289 54 284 54"></polygon>
                <path d="M315.632019,69.4196635 L322,78 L315.090856,78 L309.509553,70.3420281 L305.622436,70.3420281 L305.622436,78 L300,78 L300,54 L309.544259,54 C313.449372,54 316.241309,54.6309616 317.913643,55.8891804 C319.580836,57.1511036 320.421502,59.1773422 320.421502,61.9654268 C320.421502,65.8092298 318.831434,68.2985029 315.632019,69.4196635 M314.694946,61.9839481 C314.694946,60.6936256 314.32603,59.8095385 313.608764,59.3230437 C312.890213,58.8451922 311.629214,58.60071 309.821911,58.60071 L305.622436,58.60071 L305.622436,65.7079796 L309.719077,65.7079796 C311.64721,65.7079796 312.953199,65.4104028 313.646041,64.8189535 C314.345311,64.2225652 314.694946,63.2767402 314.694946,61.9839481" id="Fill-18" fill="#151646"></path>
                <polygon id="Fill-20" fill="#151646" points="350 54 350 58.7760457 337.568061 58.7760457 337.568061 63.7138447 348.750053 63.7138447 348.750053 68.282451 337.568061 68.282451 337.568061 73.2597623 349.997452 73.2597623 349.997452 78 332 78 332 54"></polygon>
                <path d="M104.518137,74.0725745 C106.060397,74.0725745 107.279945,73.5008913 108.178033,72.3587981 C109.076121,71.2192513 109.527667,69.6493506 109.527667,67.6643748 L109.527667,54 L115,54 L115,67.8439012 C115,71.4357016 114.009351,74.1858925 112.05182,76.109753 C110.089285,78.0323402 107.576389,79 104.518137,79 C101.454881,79 98.9332301,78.0297937 96.9656918,76.0906544 C94.9843945,74.1540616 94,71.4115101 94,67.8439012 L94,54 L99.4723331,54 L99.4723331,67.6643748 C99.4723331,69.6493506 99.9301328,71.2192513 100.835726,72.3587981 C101.74382,73.5008913 102.972125,74.0725745 104.518137,74.0725745" id="Fill-22" fill="#151646"></path>
                <mask id="mask-4" fill="white">
                    <use xlink:href="#path-3"></use>
                </mask>
                <g id="Clip-24"></g>
                <text id="x" mask="url(#mask-4)" font-family="Barlow-Regular, Barlow" font-size="11.4410971" font-weight="normal" fill="#3F5395">
                    <tspan x="47" y="7">x</tspan>
                </text>
                <g id="Group-32" mask="url(#mask-4)" stroke="#3F5395" stroke-width="1.25899281">
                    <g transform="translate(43.000000, 14.000000)">
                        <path d="M0.640246154,30.468288 L0.640246154,29.228288" id="Stroke-25"></path>
                        <path d="M0.640246154,25.767448 L0.640246154,4.424568" id="Stroke-26" stroke-dasharray="2.342985538269976,3.513848781585693"></path>
                        <polyline id="Stroke-27" points="0.640246154 2.694148 0.640246154 1.454148 1.87101538 1.454148"></polyline>
                        <path d="M6.29649231,1.454148 L11.4595692,1.454148" id="Stroke-28" stroke-dasharray="3.017805849047873,4.527338074265624"></path>
                        <polyline id="Stroke-29" points="13.6727385 1.454148 14.9035077 1.454148 14.9035077 2.694148"></polyline>
                        <path d="M14.9035077,6.155112 L14.9035077,27.497992" id="Stroke-30" stroke-dasharray="2.342985538269976,3.513848781585693"></path>
                        <path d="M14.9035077,29.228288 L14.9035077,30.468288" id="Stroke-31"></path>
                    </g>
                </g>
            </g>
            <g id="Group" transform="translate(440.000000, 17.000000)">
                <text id="5x" font-family="Barlow-Regular, Barlow" font-size="10.5196718" font-weight="normal" letter-spacing="0.0631180307" fill="#3F5395">
                    <tspan x="57" y="11">5x</tspan>
                </text>
                <text id="3x" font-family="Barlow-Regular, Barlow" font-size="10.5196718" font-weight="normal" letter-spacing="0.0631180307" fill="#3F5395">
                    <tspan x="0" y="56">3x</tspan>
                </text>
                <text id="x" font-family="Barlow-Regular, Barlow" font-size="6.31180307" font-weight="normal" fill="#3F5395">
                    <tspan x="105" y="26">x</tspan>
                </text>
                <polygon id="Fill-3" fill-opacity="0.2" fill="#081437" points="99 33 113 33 113 19 99 19"></polygon>
                <text id="x" font-family="Barlow-Regular, Barlow" font-size="6.31180307" font-weight="normal" fill="#3F5395">
                    <tspan x="22" y="26">x</tspan>
                </text>
                <polygon id="Fill-5" fill-opacity="0.2" fill="#081437" points="17 33 31 33 31 19 17 19"></polygon>
                <text id="x" font-family="Barlow-Regular, Barlow" font-size="6.31180307" font-weight="normal" fill="#3F5395">
                    <tspan x="105" y="83">x</tspan>
                </text>
                <polygon id="Fill-7" fill-opacity="0.2" fill="#081437" points="99 90 113 90 113 76 99 76"></polygon>
                <text id="x" font-family="Barlow-Regular, Barlow" font-size="6.31180307" font-weight="normal" fill="#3F5395">
                    <tspan x="22" y="83">x</tspan>
                </text>
                <polygon id="Fill-9" fill-opacity="0.2" fill="#081437" points="17 90 31 90 31 76 17 76"></polygon>
                <path d="M115,75.5 L13,75.5" id="Stroke-11" stroke="#081437" stroke-width="1.05196718" opacity="0.2"></path>
                <path d="M115,33.5 L13,33.5" id="Stroke-13" stroke="#081437" stroke-width="1.05196718" opacity="0.2"></path>
                <polygon id="Fill-15" fill="#151646" points="79 72.7964738 73 75 73 61 79 63.1028757"></polygon>
                <path d="M85.279608,34 L85.279608,48.0601801 L71.4860822,48.0601801 L71.4860822,34 L57.6086322,34 L57.625417,57.3214058 C57.625417,61.1798432 54.3823499,64.3088005 50.5877815,64.3088005 C46.7956109,64.3088005 43.7215909,61.1798432 43.7215909,57.3214058 L43.7215909,34 L30,34 L30,55.136625 C30,69.7725821 36.8649917,76 50.3084341,76 L57.2525542,76 L71.4956735,76 L71.4956735,60.3637525 L85.2808069,60.3637525 L85.2808069,76 L99,76 L99,34 L85.279608,34 Z" id="Fill-17" fill="#151646"></path>
                <path d="M30.5,14 L30.5,92" id="Stroke-19" stroke="#081437" stroke-width="1.05196718" opacity="0.2"></path>
                <path d="M99.5,14 L99.5,92" id="Stroke-21" stroke="#081437" stroke-width="1.05196718" opacity="0.2"></path>
                <path d="M17,90 L113,90 L113,18 L17,18 L17,90 Z" id="Stroke-23" stroke="#081437" stroke-width="1.05196718" opacity="0.2" stroke-dasharray="2.10393423936805,6.311802961388413"></path>
            </g>
            <g id="Group-2" transform="translate(645.000000, 18.000000)">
                <text id="3x" font-family="Barlow-Regular, Barlow" font-size="12.0481928" font-weight="normal" letter-spacing="0.072289155" fill="#3F5395">
                    <tspan x="0" y="53.269759">3x</tspan>
                </text>
                <text id="25x" font-family="Barlow-Regular, Barlow" font-size="12.0481928" font-weight="normal" letter-spacing="0.072289155" fill="#3F5395">
                    <tspan x="180.40747" y="12">25x</tspan>
                </text>
                <text id="1.5x" font-family="Barlow-Regular, Barlow" font-size="12.0481928" font-weight="normal" letter-spacing="0.072289155" fill="#3F5395">
                    <tspan x="106.443614" y="118.26506">1.5x</tspan>
                </text>
                <polygon id="Fill-27" fill="#151646" points="84.4561446 71.7590654 78.5212048 73.9747281 78.5212048 59.8976197 84.4561446 62.0120775"></polygon>
                <path d="M90.860241,32.4942462 L90.860241,46.3809932 L76.9987952,46.3809932 L76.9987952,32.4942462 L63.053012,32.4942462 L63.0698795,55.5267763 C63.0698795,59.3388245 59.8096386,62.4279811 55.9975904,62.4279811 C52.186747,62.4279811 49.0975904,59.3388245 49.0975904,55.5267763 L49.0975904,32.4942462 L35.3072289,32.4942462 L35.3072289,53.3701498 C35.3072289,67.8255715 42.2060241,73.9761739 55.7168675,73.9761739 L62.6939759,73.9761739 L77.0084337,73.9761739 L77.0084337,58.5328004 L90.8614458,58.5328004 L90.8614458,73.9761739 L104.648193,73.9761739 L104.648193,32.4942462 L90.860241,32.4942462 Z" id="Fill-28" fill="#151646"></path>
                <path d="M170.336024,56.0035233 L176.311928,64.3758124 L169.836024,64.3758124 L164.59747,56.9035233 L160.955301,56.9035233 L160.955301,64.3758124 L155.684217,64.3758124 L155.684217,40.9577401 L164.62759,40.9577401 C168.302289,40.9577401 170.919157,41.572198 172.475783,42.8011136 C174.038434,44.0312341 174.826386,46.0095474 174.826386,48.7300293 C174.826386,52.4806317 173.334819,54.9083426 170.336024,56.0035233 M169.457711,48.7481016 C169.457711,47.4890654 169.119157,46.62521 168.439639,46.151716 C167.763735,45.685451 166.585422,45.4468968 164.902289,45.4468968 L160.955301,45.4468968 L160.955301,52.3806317 L164.796265,52.3806317 C166.602289,52.3806317 167.831205,52.0914751 168.480602,51.5131618 C169.131205,50.9312341 169.457711,50.0095474 169.457711,48.7481016" id="Fill-29" fill="#151646"></path>
                <path d="M185.51747,64.4148486 L185.51747,40.9967763 L194.706627,40.9967763 C196.298193,40.9967763 197.676506,41.1847281 198.833133,41.5666558 C199.988554,41.9449691 200.859639,42.4570173 201.456024,43.10521 C202.510241,44.3160534 203.037952,45.6762944 203.037952,47.1955715 C203.037952,49.0244871 202.446386,50.3847281 201.24759,51.2823185 C200.848795,51.5955715 200.568072,51.7895474 200.401807,51.8642462 C200.257229,51.9437642 199.964458,52.0726799 199.566867,52.252198 C201.027108,52.5678606 202.183735,53.218463 203.056024,54.2124389 C203.925904,55.2100293 204.360843,56.4413546 204.360843,57.9136438 C204.360843,59.5449691 203.795783,60.9823185 202.665663,62.231716 C201.360843,63.6871377 199.089759,64.4148486 195.856024,64.4148486 L185.51747,64.4148486 Z M190.78253,50.4738847 L193.287349,50.4738847 C194.74759,50.4738847 195.837952,50.3220775 196.542771,50.0076197 C197.25241,49.691957 197.609036,49.0220775 197.609036,47.9762944 C197.609036,46.9461739 197.28253,46.2570173 196.625904,45.925692 C195.970482,45.5847281 194.868072,45.418463 193.31747,45.418463 L190.78253,45.418463 L190.78253,50.4738847 Z M190.78253,59.9895474 L194.395783,59.9895474 C195.905422,59.9895474 197.039157,59.8064148 197.793373,59.4353305 C198.545181,59.0678606 198.923494,58.3425594 198.923494,57.2630413 C198.923494,56.1799088 198.522289,55.4606317 197.729518,55.1136438 C196.924699,54.7750895 195.648795,54.5967763 193.895783,54.5967763 L190.78253,54.5967763 L190.78253,59.9895474 Z" id="Fill-30" fill="#151646"></path>
                <path d="M230.258072,64.3525594 L228.064096,59.2899088 L218.17253,59.2899088 L215.983373,64.3525594 L210.377349,64.3525594 L220.562892,40.9344871 L225.666506,40.9344871 L235.864096,64.3525594 L230.258072,64.3525594 Z M223.138795,47.8995474 L220.168916,54.7031618 L226.07253,54.7031618 L223.138795,47.8995474 Z" id="Fill-31" fill="#151646"></path>
                <polygon id="Fill-32" fill="#151646" points="260.27506 40.9608727 265.547349 40.9608727 265.547349 64.378945 260.27506 64.378945 249.035301 49.7042462 249.035301 64.378945 243.773855 64.378945 243.773855 40.9608727 248.701566 40.9608727 260.27506 56.0403907"></polygon>
                <polygon id="Fill-33" fill="#151646" points="290.96494 40.9526799 296.223976 40.9526799 296.223976 64.3707522 290.96494 64.3707522 290.96494 55.158704 281.586627 55.158704 281.586627 64.3707522 276.313133 64.3707522 276.313133 40.9526799 281.586627 40.9526799 281.586627 50.7346076 290.96494 50.7346076"></polygon>
                <polygon id="Fill-34" fill="#151646" points="306.826988 64.3634028 312.088434 64.3634028 312.088434 40.9453305 306.826988 40.9453305"></polygon>
                <path d="M337.735301,55.991716 L343.705181,64.3640052 L337.228072,64.3640052 L331.996747,56.891716 L328.354578,56.891716 L328.354578,64.3640052 L323.083494,64.3640052 L323.083494,40.9459329 L332.029277,40.9459329 C335.689518,40.9459329 338.306386,41.5603907 339.87506,42.7893064 C341.437711,44.0194269 342.225663,45.9977401 342.225663,48.7182221 C342.225663,52.4688245 340.734096,54.8965353 337.735301,55.991716 M336.856988,48.7362944 C336.856988,47.4772582 336.51241,46.6134028 335.838916,46.1399088 C335.165422,45.6724389 333.984699,45.4338847 332.289518,45.4338847 L328.354578,45.4338847 L328.354578,52.3688245 L332.193133,52.3688245 C334.001566,52.3688245 335.224458,52.078463 335.873855,51.5013546 C336.530482,50.9194269 336.856988,49.9977401 336.856988,48.7362944" id="Fill-35" fill="#151646"></path>
                <polygon id="Fill-36" fill="#151646" points="369.933614 40.9349691 369.933614 45.59521 358.178193 45.59521 358.178193 50.4144871 368.751687 50.4144871 368.751687 54.8723185 358.178193 54.8723185 358.178193 59.7277401 369.931205 59.7277401 369.931205 64.3530413 352.914337 64.3530413 352.914337 40.9349691"></polygon>
                <path d="M135.263253,59.9897883 C136.748795,59.9897883 137.923494,59.4476197 138.789759,58.3681016 C139.653614,57.2885835 140.088554,55.8030413 140.088554,53.9259329 L140.088554,40.9958124 L145.359639,40.9958124 L145.359639,54.0946076 C145.359639,57.4934028 144.405422,60.0970173 142.51988,61.9162944 C140.630723,63.7355715 138.209036,64.6512341 135.263253,64.6512341 C132.313855,64.6512341 129.88494,63.7331618 127.988554,61.8982221 C126.08012,60.0668968 125.131928,57.471716 125.131928,54.0946076 L125.131928,40.9958124 L130.403012,40.9958124 L130.403012,53.9259329 C130.403012,55.8030413 130.845181,57.2885835 131.716265,58.3681016 C132.590964,59.4476197 133.774096,59.9897883 135.263253,59.9897883" id="Fill-37" fill="#151646"></path>
                <path d="M5.11216867,32.4942462 L399.814578,32.4942462" id="Stroke-38" stroke="#081437" stroke-width="1.20481928" opacity="0.2"></path>
                <path d="M5.11216867,74.3640052 L399.814578,74.3640052" id="Stroke-39" stroke="#081437" stroke-width="1.20481928" opacity="0.2"></path>
                <path d="M35.223253,7.57304135 L35.223253,106.821234" id="Stroke-40" stroke="#081437" stroke-width="1.20481928" opacity="0.2"></path>
                <path d="M369.977108,7.57304135 L369.977108,106.821234" id="Stroke-41" stroke="#081437" stroke-width="1.20481928" opacity="0.2"></path>
                <text id="x" font-family="Barlow-Regular, Barlow" font-size="7.22891566" font-weight="normal" fill="#3F5395">
                    <tspan x="26.4836145" y="26.2055539">x</tspan>
                </text>
                <polygon id="Fill-43" fill-opacity="0.2" fill="#081437" points="21.493253 32.5067763 35.3546988 32.5067763 35.3546988 18.6200293 21.493253 18.6200293"></polygon>
                <polygon id="Fill-45" fill-opacity="0.2" fill="#081437" points="21.7281928 87.9838847 35.5896386 87.9838847 35.5896386 74.0971377 21.7281928 74.0971377"></polygon>
                <polygon id="Fill-47" fill-opacity="0.2" fill="#081437" points="369.895663 33.2007522 383.757108 33.2007522 383.757108 19.3140052 369.895663 19.3140052"></polygon>
                <polygon id="Fill-49" fill-opacity="0.2" fill="#081437" points="369.895663 87.9838847 383.757108 87.9838847 383.757108 74.0971377 369.895663 74.0971377"></polygon>
                <polyline id="Stroke-51" stroke="#081437" stroke-width="1.20481928" points="383.757229 86.7793064 383.757229 87.9841257 382.55241 87.9841257"></polyline>
                <path d="M375.408193,87.9841257 L26.5045783,87.9841257" id="Stroke-53" stroke="#081437" stroke-width="1.20481928" opacity="0.2" stroke-dasharray="2.381927708545363,7.144578106432077"></path>
                <polyline id="Stroke-55" stroke="#081437" stroke-width="1.20481928" points="22.9326506 87.9841257 21.7278313 87.9841257 21.7278313 86.7793064"></polyline>
                <path d="M21.7278313,79.4174992 L21.7278313,24.2006317" id="Stroke-57" stroke="#081437" stroke-width="1.20481928" opacity="0.2" stroke-dasharray="2.454216796231557,7.362650675945972"></path>
                <polyline id="Stroke-59" stroke="#081437" stroke-width="1.20481928" points="21.7278313 20.518945 21.7278313 19.3141257 22.9326506 19.3141257"></polyline>
                <path d="M30.0768675,19.3141257 L378.980482,19.3141257" id="Stroke-61" stroke="#081437" stroke-width="1.20481928" opacity="0.2" stroke-dasharray="2.381927708545363,7.144578106432077"></path>
                <polyline id="Stroke-63" stroke="#081437" stroke-width="1.20481928" points="382.55241 19.3141257 383.757229 19.3141257 383.757229 20.518945"></polyline>
                <path d="M383.757229,27.8808727 L383.757229,83.098945" id="Stroke-65" stroke="#081437" stroke-width="1.20481928" opacity="0.2" stroke-dasharray="2.454216796231557,7.362650675945972"></path>
                <path d="M104.60506,52.2360534 L124.106265,52.2360534" id="Stroke-68" stroke="#081437" stroke-width="1.20481928" stroke-dasharray="2.409638554216868,3.614457831325302"></path>
                <path d="M115.253133,52.4090654 L115.253133,105.104246" id="Stroke-70" stroke="#081437" stroke-width="1.20481928" stroke-dasharray="2.409638554216868,3.614457831325302"></path>
            </g>
        </g>
    </g>
</svg>