<?xml version="1.0" encoding="UTF-8"?>
<svg width="200px" height="200px" viewBox="0 0 200 200" version="1.1" xmlns="http://www.w3.org/2000/svg" xmlns:xlink="http://www.w3.org/1999/xlink">
    <!-- Generator: Sketch 55 (78076) - https://sketchapp.com -->
    <title>colorful on focal</title>
    <desc>Created with Sketch.</desc>
    <defs>
        <linearGradient x1="21.6394223%" y1="34.2404852%" x2="64.2849265%" y2="58.6515324%" id="linearGradient-1">
            <stop stop-color="#3390CE" offset="0%"></stop>
            <stop stop-color="#33BEEF" offset="100%"></stop>
        </linearGradient>
        <path d="M28,0.333333333 C23.3333333,0.801806824 19.6666667,2.03604357 17,4.03604357 C13,7.03604357 10,12.7660681 8,15.7660681 C6.66666667,17.7660681 4,19.7660681 0,21.7660681 C5.33333333,23.9460517 11,24.3693769 17,23.0360436 C26,21.0360436 29,19.0360436 32,14.0360436 C33.239625,11.9700019 33.9670266,9.90396028 34.1822049,7.83791863 C34.3141933,6.57062694 35,3.33333333 33,1.33333333 C31.6666667,-1.02806652e-13 30,-0.333333333 28,0.333333333 Z" id="path-2"></path>
    </defs>
    <g id="colorful-on-focal" stroke="none" stroke-width="1" fill="none" fill-rule="evenodd">
        <g id="Group-14" transform="translate(10.000000, 22.000000)">
            <g id="Group-34-Copy" transform="translate(6.000000, 0.000000)">
                <ellipse id="Oval" fill-opacity="0.2" fill="#33BEEF" cx="86.9757085" cy="77.8125" rx="78.1578947" ry="77.8125"></ellipse>
                <ellipse id="Oval" stroke="#3390CE" stroke-width="1.6" opacity="0.5" cx="78.1578947" cy="77.8125" rx="78.1578947" ry="77.8125"></ellipse>
            </g>
            <polygon id="Path-77" fill="url(#linearGradient-1)" points="-7.07767178e-15 96 48 88 103 117 20 136"></polygon>
            <polygon id="Path-78" fill-opacity="0.3" fill="#3390CE" points="53 88 106 115 150 107 103 82"></polygon>
            <polygon id="Path-79" fill-opacity="0.3" fill="#3390CE" points="108 82 154 105 173 100 144 78"></polygon>
            <path d="M177,50.5672652 L151,51.5672652 C144.333333,48.2339319 139.333333,45.5672652 136,43.5672652 C131,40.5672652 125,34.5672652 118,40.5672652 C111,46.5672652 101,56.5672652 98,59.5672652 C95,62.5672652 93,66.5672652 97,66.5672652 C99.6666667,66.5672652 107.333333,62.2339319 120,53.5672652 C120,56.2339319 122,58.5672652 126,60.5672652 C130,62.5672652 138.333333,64.9005986 151,67.5672652 L176,78 C177.374072,73.7174521 178.374072,69.5732071 179,65.5672652 C179.625928,61.5613233 178.959262,56.5613233 177,50.5672652 Z" id="Path-74" fill="#3390CE"></path>
            <path d="M75.7796606,55.3745271 C77.5563987,54.2397821 79.8512341,53.6760782 82.6641668,53.6834153 C85.4770995,53.6907523 107.069527,53.6907523 147.441451,53.6834153 C150.917191,54.0232988 152.802888,55.5997069 153.098539,58.4126396 C153.39419,61.2255723 152.184824,63.2486863 149.470442,64.4819817 C109.151005,64.6734157 87.0249012,64.7344454 83.0921301,64.6650709 C79.159359,64.5956964 76.7584716,64.1020077 75.889468,63.1840048 L75.7796606,55.3745271 Z" id="Rectangle" fill="#011148" transform="translate(114.460879, 59.188048) rotate(-39.000000) translate(-114.460879, -59.188048) "></path>
            <g id="Path-80" transform="translate(55.000000, 78.233932)">
                <mask id="mask-3" fill="white">
                    <use xlink:href="#path-2"></use>
                </mask>
                <use id="Mask" fill="#FFFFFF" xlink:href="#path-2"></use>
                <path d="M4,13.7660681 C8,15.0994014 11.6666667,15.0994014 15,13.7660681 C20,11.7660681 11,16.7660681 11,18.7660681 C11,20.7660681 15,18.7660681 17,18.7660681 C19,18.7660681 20,22.7660681 16,23.7660681 C13.3333333,24.4327348 8.33333333,24.4327348 1,23.7660681 L-3,20.7660681 L4,13.7660681 Z" fill-opacity="0.3" fill="#3390CE" mask="url(#mask-3)"></path>
            </g>
            <path d="M127,55.5672652 C122.333333,58.9005986 119,60.5672652 117,60.5672652 C114,60.5672652 109,62.5672652 111,66.5672652 C113,70.5672652 121,66.5672652 127,68.5672652 C133,70.5672652 140,68.5672652 143,68.5672652 C145,68.5672652 155.666667,73.0448435 175,82 C175.666667,79.3333333 176.333333,76.3333333 177,73 C177.666667,69.6666667 168.333333,66.1890884 149,62.5672652 L127,55.5672652 Z" id="Path-75" fill="#3390CE"></path>
        </g>
    </g>
</svg>