<?xml version="1.0" encoding="UTF-8"?>
<svg width="744px" height="291px" viewBox="0 0 744 291" version="1.1" xmlns="http://www.w3.org/2000/svg" xmlns:xlink="http://www.w3.org/1999/xlink">
    <!-- Generator: Sketch 54.1 (76490) - https://sketchapp.com -->
    <title>Group</title>
    <desc>Created with Sketch.</desc>
    <defs>
        <linearGradient x1="50%" y1="0%" x2="50%" y2="100%" id="linearGradient-1">
            <stop stop-color="#4FC4EE" offset="0%"></stop>
            <stop stop-color="#2791D9" stop-opacity="0" offset="100%"></stop>
        </linearGradient>
        <linearGradient x1="61.4400989%" y1="-7.70574774%" x2="61.4400989%" y2="96.7354304%" id="linearGradient-2">
            <stop stop-color="#17CCD5" offset="0%"></stop>
            <stop stop-color="#00C8FF" stop-opacity="0" offset="100%"></stop>
        </linearGradient>
        <linearGradient x1="50%" y1="0%" x2="50%" y2="100%" id="linearGradient-3">
            <stop stop-color="#4FC4EE" offset="0%"></stop>
            <stop stop-color="#2791D9" stop-opacity="0" offset="100%"></stop>
        </linearGradient>
        <linearGradient x1="50%" y1="0%" x2="50%" y2="100%" id="linearGradient-4">
            <stop stop-color="#4FC4EE" offset="0%"></stop>
            <stop stop-color="#2791D9" stop-opacity="0" offset="100%"></stop>
        </linearGradient>
        <linearGradient x1="50%" y1="0%" x2="50%" y2="100%" id="linearGradient-5">
            <stop stop-color="#4FC4EE" offset="0%"></stop>
            <stop stop-color="#2791D9" stop-opacity="0" offset="100%"></stop>
        </linearGradient>
        <linearGradient x1="61.4400989%" y1="-7.70574774%" x2="61.4400989%" y2="96.7354304%" id="linearGradient-6">
            <stop stop-color="#17CCD5" offset="0%"></stop>
            <stop stop-color="#00C8FF" stop-opacity="0" offset="100%"></stop>
        </linearGradient>
        <linearGradient x1="50%" y1="0%" x2="50%" y2="100%" id="linearGradient-7">
            <stop stop-color="#4FC4EE" offset="0%"></stop>
            <stop stop-color="#2791D9" stop-opacity="0" offset="100%"></stop>
        </linearGradient>
        <linearGradient x1="61.4400989%" y1="-7.70574774%" x2="61.4400989%" y2="96.7354304%" id="linearGradient-8">
            <stop stop-color="#17CCD5" offset="0%"></stop>
            <stop stop-color="#00C8FF" stop-opacity="0" offset="100%"></stop>
        </linearGradient>
        <linearGradient x1="61.4400989%" y1="-7.70574774%" x2="61.4400989%" y2="96.7354304%" id="linearGradient-9">
            <stop stop-color="#17CCD5" offset="0%"></stop>
            <stop stop-color="#00C8FF" stop-opacity="0" offset="100%"></stop>
        </linearGradient>
        <linearGradient x1="61.4400989%" y1="-7.70574774%" x2="61.4400989%" y2="96.7354304%" id="linearGradient-10">
            <stop stop-color="#17CCD5" offset="0%"></stop>
            <stop stop-color="#00C8FF" stop-opacity="0" offset="100%"></stop>
        </linearGradient>
        <linearGradient x1="50%" y1="22.960986%" x2="50%" y2="100%" id="linearGradient-11">
            <stop stop-color="#4FC4EE" offset="0%"></stop>
            <stop stop-color="#2791D9" stop-opacity="0" offset="100%"></stop>
        </linearGradient>
        <linearGradient x1="61.4400989%" y1="-7.70574774%" x2="61.4400989%" y2="96.7354304%" id="linearGradient-12">
            <stop stop-color="#17CCD5" offset="0%"></stop>
            <stop stop-color="#00C8FF" stop-opacity="0" offset="100%"></stop>
        </linearGradient>
        <linearGradient x1="50%" y1="0%" x2="50%" y2="100%" id="linearGradient-13">
            <stop stop-color="#4FC4EE" offset="0%"></stop>
            <stop stop-color="#2791D9" stop-opacity="0" offset="100%"></stop>
        </linearGradient>
        <linearGradient x1="61.4400989%" y1="-7.70574774%" x2="61.4400989%" y2="96.7354304%" id="linearGradient-14">
            <stop stop-color="#17CCD5" offset="0%"></stop>
            <stop stop-color="#00C8FF" stop-opacity="0" offset="100%"></stop>
        </linearGradient>
        <linearGradient x1="50%" y1="0%" x2="50%" y2="100%" id="linearGradient-15">
            <stop stop-color="#4FC4EE" offset="0%"></stop>
            <stop stop-color="#2791D9" stop-opacity="0" offset="100%"></stop>
        </linearGradient>
        <linearGradient x1="50%" y1="0%" x2="50%" y2="100%" id="linearGradient-16">
            <stop stop-color="#4FC4EE" offset="0%"></stop>
            <stop stop-color="#2791D9" stop-opacity="0" offset="100%"></stop>
        </linearGradient>
        <filter x="-48.5%" y="-48.5%" width="197.1%" height="197.1%" filterUnits="objectBoundingBox" id="filter-17">
            <feGaussianBlur stdDeviation="2.7510917" in="SourceGraphic"></feGaussianBlur>
        </filter>
        <filter x="-48.5%" y="-48.5%" width="197.1%" height="197.1%" filterUnits="objectBoundingBox" id="filter-18">
            <feGaussianBlur stdDeviation="2.7510917" in="SourceGraphic"></feGaussianBlur>
        </filter>
        <linearGradient x1="50%" y1="0%" x2="50%" y2="100%" id="linearGradient-19">
            <stop stop-color="#4FC4EE" offset="0%"></stop>
            <stop stop-color="#2791D9" offset="100%"></stop>
        </linearGradient>
        <filter x="-45.9%" y="-45.9%" width="191.7%" height="191.7%" filterUnits="objectBoundingBox" id="filter-20">
            <feGaussianBlur stdDeviation="2.29257642" in="SourceGraphic"></feGaussianBlur>
        </filter>
        <linearGradient x1="50%" y1="0%" x2="50%" y2="100%" id="linearGradient-21">
            <stop stop-color="#4FC4EE" offset="0%"></stop>
            <stop stop-color="#2791D9" offset="100%"></stop>
        </linearGradient>
        <polygon id="path-22" points="0 77.8873239 75.5320571 77.8873239 75.5320571 0.47956338 0 0.47956338"></polygon>
        <polygon id="path-24" points="0 77.6402211 75.94869 77.6402211 75.94869 0.478041933 0 0.478041933"></polygon>
        <polygon id="path-26" points="0 54.2727759 53.164083 54.2727759 53.164083 0.334165234 0 0.334165234"></polygon>
    </defs>
    <g id="Page-1" stroke="none" stroke-width="1" fill="none" fill-rule="evenodd">
        <g id="Website-Branding---Visual-Language-Copy-2" transform="translate(-145.000000, -203.000000)">
            <g id="Group" transform="translate(145.000000, 210.000000)">
                <g id="Group-13" transform="translate(559.000000, 70.000000)" fill-rule="nonzero">
                    <polygon id="Rectangle-Copy-27" fill="url(#linearGradient-1)" points="11.3394949 10.4367057 11.3394949 0 54.9120719 0 54.9120719 10.7336502 65.2957265 10.7336502 65.2957265 113.597698 2.75897436 113.597698 2.75897436 10.4367057"></polygon>
                    <path d="M0,21.9866512 L68.974359,21.9866512 L68.974359,145.661564 L0,145.661564 L0,21.9866512 Z M12.96719,25.5328853 C10.5361724,25.5328853 8.56544327,27.5036144 8.56544327,29.934632 L8.56544327,47.2846148 C8.56544327,49.7156324 10.5361724,51.6863615 12.96719,51.6863615 L13.1799526,51.6863615 C15.6109702,51.6863615 17.5816993,49.7156324 17.5816993,47.2846148 L17.5816993,29.934632 C17.5816993,27.5036144 15.6109702,25.5328853 13.1799526,25.5328853 L12.96719,25.5328853 Z M23.7866973,25.5328853 C21.3556797,25.5328853 19.3849506,27.5036144 19.3849506,29.934632 L19.3849506,47.2846148 C19.3849506,49.7156324 21.3556797,51.6863615 23.7866973,51.6863615 L23.9994599,51.6863615 C26.4304775,51.6863615 28.4012066,49.7156324 28.4012066,47.2846148 L28.4012066,29.934632 C28.4012066,27.5036144 26.4304775,25.5328853 23.9994599,25.5328853 L23.7866973,25.5328853 Z M34.6062046,25.5328853 C32.175187,25.5328853 30.2044579,27.5036144 30.2044579,29.934632 L30.2044579,47.2846148 C30.2044579,49.7156324 32.175187,51.6863615 34.6062046,51.6863615 L34.8189672,51.6863615 C37.2499848,51.6863615 39.2207139,49.7156324 39.2207139,47.2846148 L39.2207139,29.934632 C39.2207139,27.5036144 37.2499848,25.5328853 34.8189672,25.5328853 L34.6062046,25.5328853 Z M45.4257119,25.5328853 C42.9946943,25.5328853 41.0239651,27.5036144 41.0239651,29.934632 L41.0239651,47.2846148 C41.0239651,49.7156324 42.9946943,51.6863615 45.4257119,51.6863615 L45.6384745,51.6863615 C48.0694921,51.6863615 50.0402212,49.7156324 50.0402212,47.2846148 L50.0402212,29.934632 C50.0402212,27.5036144 48.0694921,25.5328853 45.6384745,25.5328853 L45.4257119,25.5328853 Z M56.2452192,25.5328853 C53.8142016,25.5328853 51.8434724,27.5036144 51.8434724,29.934632 L51.8434724,47.2846148 C51.8434724,49.7156324 53.8142016,51.6863615 56.2452192,51.6863615 L56.4579818,51.6863615 C58.8889994,51.6863615 60.8597285,49.7156324 60.8597285,47.2846148 L60.8597285,29.934632 C60.8597285,27.5036144 58.8889994,25.5328853 56.4579818,25.5328853 L56.2452192,25.5328853 Z M12.96719,54.7893163 C10.5361724,54.7893163 8.56544327,56.7600455 8.56544327,59.1910631 L8.56544327,76.5410458 C8.56544327,78.9720634 10.5361724,80.9427926 12.96719,80.9427926 L13.1799526,80.9427926 C15.6109702,80.9427926 17.5816993,78.9720634 17.5816993,76.5410458 L17.5816993,59.1910631 C17.5816993,56.7600455 15.6109702,54.7893163 13.1799526,54.7893163 L12.96719,54.7893163 Z M23.7866973,54.7893163 C21.3556797,54.7893163 19.3849506,56.7600455 19.3849506,59.1910631 L19.3849506,76.5410458 C19.3849506,78.9720634 21.3556797,80.9427926 23.7866973,80.9427926 L23.9994599,80.9427926 C26.4304775,80.9427926 28.4012066,78.9720634 28.4012066,76.5410458 L28.4012066,59.1910631 C28.4012066,56.7600455 26.4304775,54.7893163 23.9994599,54.7893163 L23.7866973,54.7893163 Z M34.6062046,54.7893163 C32.175187,54.7893163 30.2044579,56.7600455 30.2044579,59.1910631 L30.2044579,76.5410458 C30.2044579,78.9720634 32.175187,80.9427926 34.6062046,80.9427926 L34.8189672,80.9427926 C37.2499848,80.9427926 39.2207139,78.9720634 39.2207139,76.5410458 L39.2207139,59.1910631 C39.2207139,56.7600455 37.2499848,54.7893163 34.8189672,54.7893163 L34.6062046,54.7893163 Z M45.4257119,54.7893163 C42.9946943,54.7893163 41.0239651,56.7600455 41.0239651,59.1910631 L41.0239651,76.5410458 C41.0239651,78.9720634 42.9946943,80.9427926 45.4257119,80.9427926 L45.6384745,80.9427926 C48.0694921,80.9427926 50.0402212,78.9720634 50.0402212,76.5410458 L50.0402212,59.1910631 C50.0402212,56.7600455 48.0694921,54.7893163 45.6384745,54.7893163 L45.4257119,54.7893163 Z M56.2452192,54.7893163 C53.8142016,54.7893163 51.8434724,56.7600455 51.8434724,59.1910631 L51.8434724,76.5410458 C51.8434724,78.9720634 53.8142016,80.9427926 56.2452192,80.9427926 L56.4579818,80.9427926 C58.8889994,80.9427926 60.8597285,78.9720634 60.8597285,76.5410458 L60.8597285,59.1910631 C60.8597285,56.7600455 58.8889994,54.7893163 56.4579818,54.7893163 L56.2452192,54.7893163 Z M12.96719,84.0457474 C10.5361724,84.0457474 8.56544327,86.0164765 8.56544327,88.4474941 L8.56544327,105.797477 C8.56544327,108.228494 10.5361724,110.199224 12.96719,110.199224 L13.1799526,110.199224 C15.6109702,110.199224 17.5816993,108.228494 17.5816993,105.797477 L17.5816993,88.4474941 C17.5816993,86.0164765 15.6109702,84.0457474 13.1799526,84.0457474 L12.96719,84.0457474 Z M23.7866973,84.0457474 C21.3556797,84.0457474 19.3849506,86.0164765 19.3849506,88.4474941 L19.3849506,105.797477 C19.3849506,108.228494 21.3556797,110.199224 23.7866973,110.199224 L23.9994599,110.199224 C26.4304775,110.199224 28.4012066,108.228494 28.4012066,105.797477 L28.4012066,88.4474941 C28.4012066,86.0164765 26.4304775,84.0457474 23.9994599,84.0457474 L23.7866973,84.0457474 Z M34.6062046,84.0457474 C32.175187,84.0457474 30.2044579,86.0164765 30.2044579,88.4474941 L30.2044579,105.797477 C30.2044579,108.228494 32.175187,110.199224 34.6062046,110.199224 L34.8189672,110.199224 C37.2499848,110.199224 39.2207139,108.228494 39.2207139,105.797477 L39.2207139,88.4474941 C39.2207139,86.0164765 37.2499848,84.0457474 34.8189672,84.0457474 L34.6062046,84.0457474 Z M45.4257119,84.0457474 C42.9946943,84.0457474 41.0239651,86.0164765 41.0239651,88.4474941 L41.0239651,105.797477 C41.0239651,108.228494 42.9946943,110.199224 45.4257119,110.199224 L45.6384745,110.199224 C48.0694921,110.199224 50.0402212,108.228494 50.0402212,105.797477 L50.0402212,88.4474941 C50.0402212,86.0164765 48.0694921,84.0457474 45.6384745,84.0457474 L45.4257119,84.0457474 Z M56.2452192,84.0457474 C53.8142016,84.0457474 51.8434724,86.0164765 51.8434724,88.4474941 L51.8434724,105.797477 C51.8434724,108.228494 53.8142016,110.199224 56.2452192,110.199224 L56.4579818,110.199224 C58.8889994,110.199224 60.8597285,108.228494 60.8597285,105.797477 L60.8597285,88.4474941 C60.8597285,86.0164765 58.8889994,84.0457474 56.4579818,84.0457474 L56.2452192,84.0457474 Z" id="Combined-Shape" fill="url(#linearGradient-2)"></path>
                    <rect id="Rectangle" fill="#4FB9FF" x="6.43760684" y="12.8255465" width="56.0991453" height="1"></rect>
                </g>
                <path d="M215.516516,43.5029586 L217.598253,43.5029586 C220.029271,43.5029586 222,45.4736877 222,47.9047053 L222,188.598253 C222,191.029271 220.029271,193 217.598253,193 L213.72,193 L213.72,52.6312808 C213.72,51.8691279 213.102153,51.2512808 212.34,51.2512808 C211.577847,51.2512808 210.96,51.8691279 210.96,52.6312808 L210.96,193 L205.44,193 L205.44,52.6312808 C205.44,51.8691279 204.822153,51.2512808 204.06,51.2512808 C203.297847,51.2512808 202.68,51.8691279 202.68,52.6312808 L202.68,193 L197.16,193 L197.16,52.6312808 C197.16,51.8691279 196.542153,51.2512808 195.78,51.2512808 C195.017847,51.2512808 194.4,51.8691279 194.4,52.6312808 L194.4,193 L189.34,193 L189.34,52.6312808 C189.34,51.8691279 188.722153,51.2512808 187.96,51.2512808 C187.197847,51.2512808 186.58,51.8691279 186.58,52.6312808 L186.58,193 L181.06,193 L181.06,52.6312808 C181.06,51.8691279 180.442153,51.2512808 179.68,51.2512808 C178.917847,51.2512808 178.3,51.8691279 178.3,52.6312808 L178.3,193 L172.78,193 L172.78,52.6312808 C172.78,51.8691279 172.162153,51.2512808 171.4,51.2512808 C170.637847,51.2512808 170.02,51.8691279 170.02,52.6312808 L170.02,193 L164.5,193 L164.5,52.6312808 C164.5,51.8691279 163.882153,51.2512808 163.12,51.2512808 C162.357847,51.2512808 161.74,51.8691279 161.74,52.6312808 L161.74,193 L157.401747,193 C154.970729,193 153,191.029271 153,188.598253 L153,47.9047053 C153,45.4736877 154.970729,43.5029586 157.401747,43.5029586 L160.403484,43.5029586 C159.808912,42.920325 159.44,42.1082742 159.44,41.2100592 C159.44,39.4371924 160.877192,38 162.650059,38 L162.669941,38 C164.442808,38 165.88,39.4371924 165.88,41.2100592 C165.88,42.1082742 165.511088,42.920325 164.916516,43.5029586 L211.003484,43.5029586 C210.408912,42.920325 210.04,42.1082742 210.04,41.2100592 C210.04,39.4371924 211.477192,38 213.250059,38 L213.269941,38 C215.042808,38 216.48,39.4371924 216.48,41.2100592 C216.48,42.1082742 216.111088,42.920325 215.516516,43.5029586 Z" id="Combined-Shape-Copy-5" fill="url(#linearGradient-3)" fill-rule="nonzero" opacity="0.771633185"></path>
                <path d="M546.360993,47.591195 L547.598253,47.591195 C550.029271,47.591195 552,49.5619241 552,51.9929417 L552,184.598253 C552,187.029271 550.029271,189 547.598253,189 L544.32,189 L544.32,56.2003099 C544.32,55.4933854 543.746924,54.9203099 543.04,54.9203099 C542.333076,54.9203099 541.76,55.4933854 541.76,56.2003099 L541.76,189 L536.64,189 L536.64,56.2003099 C536.64,55.4933854 536.066924,54.9203099 535.36,54.9203099 C534.653076,54.9203099 534.08,55.4933854 534.08,56.2003099 L534.08,189 L528.96,189 L528.96,56.2003099 C528.96,55.4933854 528.386924,54.9203099 527.68,54.9203099 C526.973076,54.9203099 526.4,55.4933854 526.4,56.2003099 L526.4,189 L521.706667,189 L521.706667,56.2003099 C521.706667,55.4933854 521.133591,54.9203099 520.426667,54.9203099 C519.719742,54.9203099 519.146667,55.4933854 519.146667,56.2003099 L519.146667,189 L514.026667,189 L514.026667,56.2003099 C514.026667,55.4933854 513.453591,54.9203099 512.746667,54.9203099 C512.039742,54.9203099 511.466667,55.4933854 511.466667,56.2003099 L511.466667,189 L506.346667,189 L506.346667,56.2003099 C506.346667,55.4933854 505.773591,54.9203099 505.066667,54.9203099 C504.359742,54.9203099 503.786667,55.4933854 503.786667,56.2003099 L503.786667,189 L498.666667,189 L498.666667,56.2003099 C498.666667,55.4933854 498.093591,54.9203099 497.386667,54.9203099 C496.679742,54.9203099 496.106667,55.4933854 496.106667,56.2003099 L496.106667,189 L492.401747,189 C489.970729,189 488,187.029271 488,184.598253 L488,51.9929417 C488,49.5619241 489.970729,47.591195 492.401747,47.591195 L494.553293,47.591195 C494.45399,47.3074629 494.4,47.0024443 494.4,46.6848158 L494.4,45.7428571 C494.4,44.228019 495.628019,43 497.142857,43 C498.657695,43 499.885714,44.228019 499.885714,45.7428571 L499.885714,46.6848158 C499.885714,47.0024443 499.831725,47.3074629 499.732421,47.591195 L541.181864,47.591195 C541.082561,47.3074629 541.028571,47.0024443 541.028571,46.6848158 L541.028571,45.7428571 C541.028571,44.228019 542.25659,43 543.771429,43 C545.286267,43 546.514286,44.228019 546.514286,45.7428571 L546.514286,46.6848158 C546.514286,47.0024443 546.460296,47.3074629 546.360993,47.591195 Z" id="Combined-Shape-Copy-6" fill="url(#linearGradient-4)" fill-rule="nonzero" opacity="0.867420015"></path>
                <g id="Group-9" transform="translate(86.000000, 108.000000)" fill-rule="nonzero">
                    <polygon id="Rectangle-Copy-12" fill="url(#linearGradient-5)" points="0 14.744128 61.4953211 9.53935647e-14 61.4953211 107.403606 0 107.403606"></polygon>
                    <path d="M61.4953211,70.7791527 L86.4629292,70.7791527 C87.4792795,70.7791527 88.3031941,69.9552381 88.3031941,68.9388878 C88.3031941,67.9225376 87.4792795,67.0986229 86.4629292,67.0986229 L61.4953211,67.0986229 L61.4953211,58.2653513 L86.4629292,58.2653513 C87.4792795,58.2653513 88.3031941,57.4414367 88.3031941,56.4250864 C88.3031941,55.4087362 87.4792795,54.5848215 86.4629292,54.5848215 L61.4953211,54.5848215 L61.4953211,30.2933247 L100.962467,42.8426011 L100.962467,93.6339126 L61.4953211,93.6339126 L61.4953211,70.7791527 Z" id="Combined-Shape" fill="url(#linearGradient-6)"></path>
                    <path d="M21.1301434,22.0315089 L63.311193,22.0315089 C64.3359521,22.0315089 65.1666836,22.8622403 65.1666836,23.8869994 C65.1666836,24.9117585 64.3359521,25.74249 63.311193,25.74249 L21.1301434,25.74249 C20.1053843,25.74249 19.2746529,24.9117585 19.2746529,23.8869994 C19.2746529,22.8622403 20.1053843,22.0315089 21.1301434,22.0315089 Z M21.1301434,32.4222559 L63.311193,32.4222559 C64.3359521,32.4222559 65.1666836,33.2529874 65.1666836,34.2777465 C65.1666836,35.3025056 64.3359521,36.133237 63.311193,36.133237 L21.1301434,36.133237 C20.1053843,36.133237 19.2746529,35.3025056 19.2746529,34.2777465 C19.2746529,33.2529874 20.1053843,32.4222559 21.1301434,32.4222559 Z M21.1301434,42.813003 L63.311193,42.813003 C64.3359521,42.813003 65.1666836,43.6437344 65.1666836,44.6684936 C65.1666836,45.6932527 64.3359521,46.5239841 63.311193,46.5239841 L21.1301434,46.5239841 C20.1053843,46.5239841 19.2746529,45.6932527 19.2746529,44.6684936 C19.2746529,43.6437344 20.1053843,42.813003 21.1301434,42.813003 Z M21.1301434,53.2037501 L63.311193,53.2037501 C64.3359521,53.2037501 65.1666836,54.0344815 65.1666836,55.0592406 C65.1666836,56.0839998 64.3359521,56.9147312 63.311193,56.9147312 L21.1301434,56.9147312 C20.1053843,56.9147312 19.2746529,56.0839998 19.2746529,55.0592406 C19.2746529,54.0344815 20.1053843,53.2037501 21.1301434,53.2037501 Z" id="Combined-Shape" fill="#0069B1"></path>
                </g>
                <g id="Group-10" transform="translate(195.000000, 73.000000)" fill-rule="nonzero">
                    <rect id="Rectangle-Copy-8" fill="url(#linearGradient-7)" x="10.1338328" y="0" width="75.5431171" height="108.351525" rx="4.40174672"></rect>
                    <path d="M9.92929188,11.9370324 L86.8027483,11.9370324 C89.2337658,11.9370324 91.204495,13.9077615 91.204495,16.3387791 L91.204495,115.88681 C91.204495,118.317828 89.2337658,120.288557 86.8027483,120.288557 L9.92929188,120.288557 C7.49827429,120.288557 5.52754515,118.317828 5.52754515,115.88681 L5.52754515,16.3387791 C5.52754515,13.9077615 7.49827429,11.9370324 9.92929188,11.9370324 Z M17.2334075,19.3246364 C14.8950143,19.3246364 12.9993722,21.2202785 12.9993722,23.5586717 L12.9993722,39.2234407 C12.9993722,41.5618338 14.8950143,43.457476 17.2334075,43.457476 C19.5718006,43.457476 21.4674428,41.5618338 21.4674428,39.2234407 L21.4674428,23.5586717 C21.4674428,21.2202785 19.5718006,19.3246364 17.2334075,19.3246364 Z M32.6751833,19.3246364 C30.3367902,19.3246364 28.441148,21.2202785 28.441148,23.5586717 L28.441148,39.2234407 C28.441148,41.5618338 30.3367902,43.457476 32.6751833,43.457476 C35.0135765,43.457476 36.9092186,41.5618338 36.9092186,39.2234407 L36.9092186,23.5586717 C36.9092186,21.2202785 35.0135765,19.3246364 32.6751833,19.3246364 Z M48.1169592,19.3246364 C45.778566,19.3246364 43.8829239,21.2202785 43.8829239,23.5586717 L43.8829239,39.2234407 C43.8829239,41.5618338 45.778566,43.457476 48.1169592,43.457476 C50.4553523,43.457476 52.3509945,41.5618338 52.3509945,39.2234407 L52.3509945,23.5586717 C52.3509945,21.2202785 50.4553523,19.3246364 48.1169592,19.3246364 Z M63.558735,19.3246364 C61.2203419,19.3246364 59.3246997,21.2202785 59.3246997,23.5586717 L59.3246997,39.2234407 C59.3246997,41.5618338 61.2203419,43.457476 63.558735,43.457476 C65.8971281,43.457476 67.7927703,41.5618338 67.7927703,39.2234407 L67.7927703,23.5586717 C67.7927703,21.2202785 65.8971281,19.3246364 63.558735,19.3246364 Z M79.0005109,19.3246364 C76.6621177,19.3246364 74.7664755,21.2202785 74.7664755,23.5586717 L74.7664755,39.2234407 C74.7664755,41.5618338 76.6621177,43.457476 79.0005109,43.457476 C81.338904,43.457476 83.2345462,41.5618338 83.2345462,39.2234407 L83.2345462,23.5586717 C83.2345462,21.2202785 81.338904,19.3246364 79.0005109,19.3246364 Z" id="Combined-Shape" fill="url(#linearGradient-8)"></path>
                    <path d="M4.40174672,44.9934298 L91.4090359,44.9934298 C93.8400535,44.9934298 95.8107826,46.9641589 95.8107826,49.3951765 L95.8107826,148.943208 C95.8107826,151.374225 93.8400535,153.344955 91.4090359,153.344955 L4.40174672,153.344955 C1.97072914,153.344955 -2.36682147e-15,151.374225 -2.66453526e-15,148.943208 L0,49.3951765 C-2.97713791e-16,46.9641589 1.97072914,44.9934298 4.40174672,44.9934298 Z M9.41801807,49.9184991 C6.98700048,49.9184991 5.01627134,51.8892282 5.01627134,54.3202458 L5.01627134,117.422764 C5.01627134,119.853782 6.98700048,121.824511 9.41801807,121.824511 L26.1975085,121.824511 C28.628526,121.824511 30.5992552,119.853782 30.5992552,117.422764 L30.5992552,54.3202458 C30.5992552,51.8892282 28.628526,49.9184991 26.1975085,49.9184991 L9.41801807,49.9184991 Z M39.5156461,49.9184991 C37.0846285,49.9184991 35.1138994,51.8892282 35.1138994,54.3202458 L35.1138994,117.422764 C35.1138994,119.853782 37.0846285,121.824511 39.5156461,121.824511 L56.2951365,121.824511 C58.7261541,121.824511 60.6968832,119.853782 60.6968832,117.422764 L60.6968832,54.3202458 C60.6968832,51.8892282 58.7261541,49.9184991 56.2951365,49.9184991 L39.5156461,49.9184991 Z M70.1149013,49.9184991 C67.6838837,49.9184991 65.7131546,51.8892282 65.7131546,54.3202458 L65.7131546,117.422764 C65.7131546,119.853782 67.6838837,121.824511 70.1149013,121.824511 L86.8943917,121.824511 C89.3254093,121.824511 91.2961384,119.853782 91.2961384,117.422764 L91.2961384,54.3202458 C91.2961384,51.8892282 89.3254093,49.9184991 86.8943917,49.9184991 L70.1149013,49.9184991 Z" id="Combined-Shape" fill="url(#linearGradient-9)"></path>
                </g>
                <g id="Group-10-Copy" transform="translate(620.000000, 130.000000)" fill-rule="nonzero">
                    <rect id="Rectangle-Copy-8" fill="url(#linearGradient-10)" x="8.4" y="0.152399128" width="66.4363636" height="59.8928571" rx="4.40174672"></rect>
                    <path d="M8.98356491,6.29525627 L75.0164351,6.29525627 C77.4474527,6.29525627 79.4181818,8.26598541 79.4181818,10.697003 L79.4181818,61.7863667 C79.4181818,64.2173843 77.4474527,66.1881134 75.0164351,66.1881134 L8.98356491,66.1881134 C6.55254732,66.1881134 4.58181818,64.2173843 4.58181818,61.7863667 L4.58181818,10.697003 C4.58181818,8.26598541 6.55254732,6.29525627 8.98356491,6.29525627 Z M14.8065539,10.3788602 C12.7640344,10.3788602 11.1082452,12.0346494 11.1082452,14.0771688 L11.1082452,20.0203242 C11.1082452,22.0628437 12.7640344,23.7186329 14.8065539,23.7186329 C16.8490734,23.7186329 18.5048626,22.0628437 18.5048626,20.0203242 L18.5048626,14.0771688 C18.5048626,12.0346494 16.8490734,10.3788602 14.8065539,10.3788602 Z M28.2945032,10.3788602 C26.2519837,10.3788602 24.5961945,12.0346494 24.5961945,14.0771688 L24.5961945,20.0203242 C24.5961945,22.0628437 26.2519837,23.7186329 28.2945032,23.7186329 C30.3370226,23.7186329 31.9928118,22.0628437 31.9928118,20.0203242 L31.9928118,14.0771688 C31.9928118,12.0346494 30.3370226,10.3788602 28.2945032,10.3788602 Z M41.7824524,10.3788602 C39.739933,10.3788602 38.0841438,12.0346494 38.0841438,14.0771688 L38.0841438,20.0203242 C38.0841438,22.0628437 39.739933,23.7186329 41.7824524,23.7186329 C43.8249719,23.7186329 45.4807611,22.0628437 45.4807611,20.0203242 L45.4807611,14.0771688 C45.4807611,12.0346494 43.8249719,10.3788602 41.7824524,10.3788602 Z M55.2704017,10.3788602 C53.2278822,10.3788602 51.572093,12.0346494 51.572093,14.0771688 L51.572093,20.0203242 C51.572093,22.0628437 53.2278822,23.7186329 55.2704017,23.7186329 C57.3129212,23.7186329 58.9687104,22.0628437 58.9687104,20.0203242 L58.9687104,14.0771688 C58.9687104,12.0346494 57.3129212,10.3788602 55.2704017,10.3788602 Z M68.758351,10.3788602 C66.7158315,10.3788602 65.0600423,12.0346494 65.0600423,14.0771688 L65.0600423,20.0203242 C65.0600423,22.0628437 66.7158315,23.7186329 68.758351,23.7186329 C70.8008704,23.7186329 72.4566596,22.0628437 72.4566596,20.0203242 L72.4566596,14.0771688 C72.4566596,12.0346494 70.8008704,10.3788602 68.758351,10.3788602 Z" id="Combined-Shape" fill="url(#linearGradient-11)"></path>
                    <path d="M4.40174672,25.4916848 L79.5982533,25.4916848 C82.0292709,25.4916848 84,27.462414 84,29.8934316 L84,80.9827953 C84,83.4138128 82.0292709,85.384542 79.5982533,85.384542 L4.40174672,85.384542 C1.97072914,85.384542 -2.36682147e-15,83.4138128 -2.66453526e-15,80.9827953 L0,29.8934316 C-2.97713791e-16,27.462414 1.97072914,25.4916848 4.40174672,25.4916848 Z M8.79965248,28.2140874 C6.3686349,28.2140874 4.39790576,30.1848166 4.39790576,32.6158342 L4.39790576,63.5594186 C4.39790576,65.9904362 6.3686349,67.9611654 8.79965248,67.9611654 L22.4254784,67.9611654 C24.856496,67.9611654 26.8272251,65.9904362 26.8272251,63.5594186 L26.8272251,32.6158342 C26.8272251,30.1848166 24.856496,28.2140874 22.4254784,28.2140874 L8.79965248,28.2140874 Z M35.187087,28.2140874 C32.7560695,28.2140874 30.7853403,30.1848166 30.7853403,32.6158342 L30.7853403,63.5594186 C30.7853403,65.9904362 32.7560695,67.9611654 35.187087,67.9611654 L48.812913,67.9611654 C51.2439305,67.9611654 53.2146597,65.9904362 53.2146597,63.5594186 L53.2146597,32.6158342 C53.2146597,30.1848166 51.2439305,28.2140874 48.812913,28.2140874 L35.187087,28.2140874 Z M62.0143122,28.2140874 C59.5832946,28.2140874 57.6125654,30.1848166 57.6125654,32.6158342 L57.6125654,63.5594186 C57.6125654,65.9904362 59.5832946,67.9611654 62.0143122,67.9611654 L75.6401381,67.9611654 C78.0711557,67.9611654 80.0418848,65.9904362 80.0418848,63.5594186 L80.0418848,32.6158342 C80.0418848,30.1848166 78.0711557,28.2140874 75.6401381,28.2140874 L62.0143122,28.2140874 Z" id="Combined-Shape" fill="url(#linearGradient-12)"></path>
                </g>
                <g id="Group-11" transform="translate(303.000000, 119.000000)" fill="url(#linearGradient-13)" fill-rule="nonzero">
                    <path d="M4.40174672,0 L118.399807,0 C120.830825,-4.46570686e-16 122.801554,1.97072914 122.801554,4.40174672 L122.801554,64.4467184 C122.801554,66.877736 120.830825,68.8484652 118.399807,68.8484652 L4.40174672,68.8484652 C1.97072914,68.8484652 -2.36682147e-15,66.877736 -2.66453526e-15,64.4467184 L0,4.40174672 C-2.97713791e-16,1.97072914 1.97072914,4.46570686e-16 4.40174672,0 Z M12.6037207,6.53306604 C10.5221172,6.53306604 8.83464416,8.22053909 8.83464416,10.3021426 C8.83464416,12.3837461 10.5221172,14.0712192 12.6037207,14.0712192 L110.197833,14.0712192 C112.279437,14.0712192 113.96691,12.3837461 113.96691,10.3021426 C113.96691,8.22053909 112.279437,6.53306604 110.197833,6.53306604 L12.6037207,6.53306604 Z" id="Combined-Shape"></path>
                    <path d="M4.40174672,20.1955498 L118.399807,20.1955498 C120.830825,20.1955498 122.801554,22.1662789 122.801554,24.5972965 L122.801554,84.6422682 C122.801554,87.0732858 120.830825,89.0440149 118.399807,89.0440149 L4.40174672,89.0440149 C1.97072914,89.0440149 -2.36682147e-15,87.0732858 -2.66453526e-15,84.6422682 L0,24.5972965 C-2.97713791e-16,22.1662789 1.97072914,20.1955498 4.40174672,20.1955498 Z M12.6037207,26.7286158 C10.5221172,26.7286158 8.83464416,28.4160889 8.83464416,30.4976924 C8.83464416,32.5792959 10.5221172,34.2667689 12.6037207,34.2667689 L110.197833,34.2667689 C112.279437,34.2667689 113.96691,32.5792959 113.96691,30.4976924 C113.96691,28.4160889 112.279437,26.7286158 110.197833,26.7286158 L12.6037207,26.7286158 Z" id="Combined-Shape-Copy-23"></path>
                    <path d="M4.40174672,38.5551405 L118.399807,38.5551405 C120.830825,38.5551405 122.801554,40.5258696 122.801554,42.9568872 L122.801554,103.001859 C122.801554,105.432877 120.830825,107.403606 118.399807,107.403606 L4.40174672,107.403606 C1.97072914,107.403606 -2.36682147e-15,105.432877 -2.66453526e-15,103.001859 L0,42.9568872 C-2.97713791e-16,40.5258696 1.97072914,38.5551405 4.40174672,38.5551405 Z M12.6037207,45.0882065 C10.5221172,45.0882065 8.83464416,46.7756796 8.83464416,48.8572831 C8.83464416,50.9388866 10.5221172,52.6263596 12.6037207,52.6263596 L110.197833,52.6263596 C112.279437,52.6263596 113.96691,50.9388866 113.96691,48.8572831 C113.96691,46.7756796 112.279437,45.0882065 110.197833,45.0882065 L12.6037207,45.0882065 Z" id="Combined-Shape-Copy-24"></path>
                </g>
                <g id="Group-12" transform="translate(436.000000, 114.000000)" fill-rule="nonzero">
                    <rect id="Rectangle-Copy-50" fill="url(#linearGradient-14)" x="13.7745947" y="-1.42108547e-14" width="86.821688" height="84.5295213" rx="2.20087336"></rect>
                    <path d="M30.5848868,11.1331565 L84.2034027,11.1331565 C85.4189115,11.1331565 86.4042761,12.118521 86.4042761,13.3340298 L86.4042761,93.4618044 C86.4042761,94.6773132 85.4189115,95.6626777 84.2034027,95.6626777 L30.5848868,95.6626777 C29.369378,95.6626777 28.3840134,94.6773132 28.3840134,93.4618044 L28.3840134,13.3340298 C28.3840134,12.118521 29.369378,11.1331565 30.5848868,11.1331565 Z M37.2634781,16.4935651 C36.0479693,16.4935651 35.0626048,17.4789297 35.0626048,18.6944385 L35.0626048,22.1271352 C35.0626048,23.342644 36.0479693,24.3280086 37.2634781,24.3280086 L40.7925587,24.3280086 C42.0080675,24.3280086 42.9934321,23.342644 42.9934321,22.1271352 L42.9934321,18.6944385 C42.9934321,17.4789297 42.0080675,16.4935651 40.7925587,16.4935651 L37.2634781,16.4935651 Z M49.368425,16.4935651 C48.1529162,16.4935651 47.1675517,17.4789297 47.1675517,18.6944385 L47.1675517,22.1271352 C47.1675517,23.342644 48.1529162,24.3280086 49.368425,24.3280086 L52.8975056,24.3280086 C54.1130144,24.3280086 55.0983789,23.342644 55.0983789,22.1271352 L55.0983789,18.6944385 C55.0983789,17.4789297 54.1130144,16.4935651 52.8975056,16.4935651 L49.368425,16.4935651 Z M61.4733719,16.4935651 C60.2578631,16.4935651 59.2724986,17.4789297 59.2724986,18.6944385 L59.2724986,22.1271352 C59.2724986,23.342644 60.2578631,24.3280086 61.4733719,24.3280086 L65.0024525,24.3280086 C66.2179613,24.3280086 67.2033258,23.342644 67.2033258,22.1271352 L67.2033258,18.6944385 C67.2033258,17.4789297 66.2179613,16.4935651 65.0024525,16.4935651 L61.4733719,16.4935651 Z M73.5783188,16.4935651 C72.36281,16.4935651 71.3774454,17.4789297 71.3774454,18.6944385 L71.3774454,22.1271352 C71.3774454,23.342644 72.36281,24.3280086 73.5783188,24.3280086 L77.1073994,24.3280086 C78.3229082,24.3280086 79.3082727,23.342644 79.3082727,22.1271352 L79.3082727,18.6944385 C79.3082727,17.4789297 78.3229082,16.4935651 77.1073994,16.4935651 L73.5783188,16.4935651 Z M37.2634781,39.1722172 C36.0479693,39.1722172 35.0626048,40.1575817 35.0626048,41.3730905 L35.0626048,44.8057872 C35.0626048,46.021296 36.0479693,47.0066606 37.2634781,47.0066606 L40.7925587,47.0066606 C42.0080675,47.0066606 42.9934321,46.021296 42.9934321,44.8057872 L42.9934321,41.3730905 C42.9934321,40.1575817 42.0080675,39.1722172 40.7925587,39.1722172 L37.2634781,39.1722172 Z M49.368425,39.1722172 C48.1529162,39.1722172 47.1675517,40.1575817 47.1675517,41.3730905 L47.1675517,44.8057872 C47.1675517,46.021296 48.1529162,47.0066606 49.368425,47.0066606 L52.8975056,47.0066606 C54.1130144,47.0066606 55.0983789,46.021296 55.0983789,44.8057872 L55.0983789,41.3730905 C55.0983789,40.1575817 54.1130144,39.1722172 52.8975056,39.1722172 L49.368425,39.1722172 Z M61.4733719,39.1722172 C60.2578631,39.1722172 59.2724986,40.1575817 59.2724986,41.3730905 L59.2724986,44.8057872 C59.2724986,46.021296 60.2578631,47.0066606 61.4733719,47.0066606 L65.0024525,47.0066606 C66.2179613,47.0066606 67.2033258,46.021296 67.2033258,44.8057872 L67.2033258,41.3730905 C67.2033258,40.1575817 66.2179613,39.1722172 65.0024525,39.1722172 L61.4733719,39.1722172 Z M73.5783188,39.1722172 C72.36281,39.1722172 71.3774454,40.1575817 71.3774454,41.3730905 L71.3774454,44.8057872 C71.3774454,46.021296 72.36281,47.0066606 73.5783188,47.0066606 L77.1073994,47.0066606 C78.3229082,47.0066606 79.3082727,46.021296 79.3082727,44.8057872 L79.3082727,41.3730905 C79.3082727,40.1575817 78.3229082,39.1722172 77.1073994,39.1722172 L73.5783188,39.1722172 Z M37.2634781,27.6267216 C36.0479693,27.6267216 35.0626048,28.6120862 35.0626048,29.8275949 L35.0626048,33.2602917 C35.0626048,34.4758005 36.0479693,35.461165 37.2634781,35.461165 L40.7925587,35.461165 C42.0080675,35.461165 42.9934321,34.4758005 42.9934321,33.2602917 L42.9934321,29.8275949 C42.9934321,28.6120862 42.0080675,27.6267216 40.7925587,27.6267216 L37.2634781,27.6267216 Z M49.368425,27.6267216 C48.1529162,27.6267216 47.1675517,28.6120862 47.1675517,29.8275949 L47.1675517,33.2602917 C47.1675517,34.4758005 48.1529162,35.461165 49.368425,35.461165 L52.8975056,35.461165 C54.1130144,35.461165 55.0983789,34.4758005 55.0983789,33.2602917 L55.0983789,29.8275949 C55.0983789,28.6120862 54.1130144,27.6267216 52.8975056,27.6267216 L49.368425,27.6267216 Z M61.4733719,27.6267216 C60.2578631,27.6267216 59.2724986,28.6120862 59.2724986,29.8275949 L59.2724986,33.2602917 C59.2724986,34.4758005 60.2578631,35.461165 61.4733719,35.461165 L65.0024525,35.461165 C66.2179613,35.461165 67.2033258,34.4758005 67.2033258,33.2602917 L67.2033258,29.8275949 C67.2033258,28.6120862 66.2179613,27.6267216 65.0024525,27.6267216 L61.4733719,27.6267216 Z M73.5783188,27.6267216 C72.36281,27.6267216 71.3774454,28.6120862 71.3774454,29.8275949 L71.3774454,33.2602917 C71.3774454,34.4758005 72.36281,35.461165 73.5783188,35.461165 L77.1073994,35.461165 C78.3229082,35.461165 79.3082727,34.4758005 79.3082727,33.2602917 L79.3082727,29.8275949 C79.3082727,28.6120862 78.3229082,27.6267216 77.1073994,27.6267216 L73.5783188,27.6267216 Z M37.2634781,50.3053736 C36.0479693,50.3053736 35.0626048,51.2907382 35.0626048,52.506247 L35.0626048,55.9389437 C35.0626048,57.1544525 36.0479693,58.1398171 37.2634781,58.1398171 L40.7925587,58.1398171 C42.0080675,58.1398171 42.9934321,57.1544525 42.9934321,55.9389437 L42.9934321,52.506247 C42.9934321,51.2907382 42.0080675,50.3053736 40.7925587,50.3053736 L37.2634781,50.3053736 Z M49.368425,50.3053736 C48.1529162,50.3053736 47.1675517,51.2907382 47.1675517,52.506247 L47.1675517,55.9389437 C47.1675517,57.1544525 48.1529162,58.1398171 49.368425,58.1398171 L52.8975056,58.1398171 C54.1130144,58.1398171 55.0983789,57.1544525 55.0983789,55.9389437 L55.0983789,52.506247 C55.0983789,51.2907382 54.1130144,50.3053736 52.8975056,50.3053736 L49.368425,50.3053736 Z M61.4733719,50.3053736 C60.2578631,50.3053736 59.2724986,51.2907382 59.2724986,52.506247 L59.2724986,55.9389437 C59.2724986,57.1544525 60.2578631,58.1398171 61.4733719,58.1398171 L65.0024525,58.1398171 C66.2179613,58.1398171 67.2033258,57.1544525 67.2033258,55.9389437 L67.2033258,52.506247 C67.2033258,51.2907382 66.2179613,50.3053736 65.0024525,50.3053736 L61.4733719,50.3053736 Z M73.5783188,50.3053736 C72.36281,50.3053736 71.3774454,51.2907382 71.3774454,52.506247 L71.3774454,55.9389437 C71.3774454,57.1544525 72.36281,58.1398171 73.5783188,58.1398171 L77.1073994,58.1398171 C78.3229082,58.1398171 79.3082727,57.1544525 79.3082727,55.9389437 L79.3082727,52.506247 C79.3082727,51.2907382 78.3229082,50.3053736 77.1073994,50.3053736 L73.5783188,50.3053736 Z" id="Combined-Shape" fill="url(#linearGradient-15)"></path>
                    <rect id="Rectangle-Copy-52" fill="url(#linearGradient-16)" x="2.84217094e-14" y="16.4935651" width="20.0357742" height="59.3768345" rx="2.20087336"></rect>
                    <rect id="Rectangle-Copy-53" fill="url(#linearGradient-16)" x="94.7525153" y="17.3182434" width="20.0357742" height="59.3768345" rx="2.20087336"></rect>
                </g>
                <circle id="Oval-Copy-3" fill="#47D2FF" filter="url(#filter-17)" cx="487.5" cy="8.5" r="8.5"></circle>
                <circle id="Oval-Copy-4" fill="#33BEEF" filter="url(#filter-18)" cx="128.5" cy="83.5" r="8.5"></circle>
                <g id="Group-16-Copy" transform="translate(655.667348, 52.667051) rotate(134.000000) translate(-655.667348, -52.667051) translate(630.449007, 27.436671)" fill="url(#linearGradient-19)" fill-opacity="0.2">
                    <ellipse id="Oval" transform="translate(25.208969, 25.198280) rotate(109.000000) translate(-25.208969, -25.198280) " cx="25.2089692" cy="25.19828" rx="19.7344801" ry="19.7410766"></ellipse>
                </g>
                <circle id="Oval-Copy-5" fill="#33BEEF" filter="url(#filter-20)" cx="674.5" cy="232.5" r="7.5"></circle>
                <g id="Group-16" transform="translate(32.000000, 227.000000)">
                    <circle id="Oval" fill-opacity="0.2" fill="url(#linearGradient-21)" transform="translate(31.500000, 31.500000) rotate(109.000000) translate(-31.500000, -31.500000) " cx="31.5" cy="31.5" r="24.6686747"></circle>
                    <circle id="Oval" fill="#5BE6FF" fill-rule="nonzero" transform="translate(16.319277, 39.849398) rotate(109.000000) translate(-16.319277, -39.849398) " cx="16.3192771" cy="39.8493976" r="8.72891566"></circle>
                </g>
                <g id="Group-28" transform="translate(0.000000, 154.000000)">
                    <polygon id="Fill-1" fill="#242B64" points="29.2404571 50.0138986 46.2916 50.0138986 46.2916 32.5393211 29.2404571 32.5393211"></polygon>
                    <polygon id="Stroke-2" stroke="#60C6F0" stroke-width="1.09170306" points="49.8227771 41.2770549 37.7670057 53.6333225 25.7090629 41.2770549 37.7670057 28.9219"></polygon>
                    <polygon id="Fill-3" fill="#242B64" points="27.4988629 28.3302901 26.5586343 29.2938676 19.7892057 22.3574451 20.73052 21.3949803"></polygon>
                    <g id="Group-27" transform="translate(0.000000, 0.633335)">
                        <path d="M18.8703657,18.8541845 L17.9301371,19.817762 L15.8955086,17.732607 C15.6360229,17.4677901 15.6360229,17.0360718 15.8955086,16.7701423 C16.1549943,16.5042127 16.5762514,16.5042127 16.8357371,16.7701423 L18.8703657,18.8541845 Z" id="Fill-4" fill="#60C6F0"></path>
                        <polygon id="Fill-6" fill="#242B64" points="48.0341714 50.6697099 48.9733143 49.7061324 55.7427429 56.6425549 54.8014286 57.6050197"></polygon>
                        <path d="M56.66256,59.5124803 L57.6017029,58.5489028 L59.6363314,60.6340577 C59.8969029,60.8988746 59.8969029,61.330593 59.6363314,61.5965225 C59.3768457,61.8624521 58.9555886,61.8624521 58.6961029,61.5965225 L56.66256,59.5124803 Z" id="Fill-8" fill="#60C6F0"></path>
                        <polygon id="Fill-10" fill="#242B64" points="48.0341714 27.6969549 48.9733143 28.6605324 55.7427429 21.7241099 54.8014286 20.7616451"></polygon>
                        <path d="M56.66256,18.8541845 L57.6017029,19.817762 L59.6363314,17.732607 C59.8969029,17.4677901 59.8969029,17.0360718 59.6363314,16.7701423 C59.3768457,16.5042127 58.9555886,16.5042127 58.6961029,16.7701423 L56.66256,18.8541845 Z" id="Fill-12" fill="#60C6F0"></path>
                        <polygon id="Fill-14" fill="#242B64" points="27.4988629 50.6697099 26.5586343 49.7061324 19.7892057 56.6425549 20.73052 57.6050197"></polygon>
                        <path d="M18.8703657,59.5124803 L17.9301371,58.5489028 L15.8955086,60.6340577 C15.6360229,60.8988746 15.6360229,61.330593 15.8955086,61.5965225 C16.1549943,61.8624521 16.5762514,61.8624521 16.8357371,61.5965225 L18.8703657,59.5124803 Z" id="Fill-16" fill="#60C6F0"></path>
                        <mask id="mask-23" fill="white">
                            <use xlink:href="#path-22"></use>
                        </mask>
                        <g id="Clip-19"></g>
                        <polygon id="Fill-18" fill="#242B64" mask="url(#mask-23)" points="36.9544571 20.1806056 38.5776 20.1806056 38.5776 8.20153521 36.9544571 8.20153521"></polygon>
                        <path d="M38.5776,4.91090704 L36.9544571,4.91090704 L36.9544571,1.3114 C36.9544571,0.851864789 37.3181714,0.480230986 37.7665714,0.480230986 C38.2138857,0.480230986 38.5776,0.851864789 38.5776,1.3114 L38.5776,4.91090704 Z" id="Fill-20" fill="#60C6F0" mask="url(#mask-23)"></path>
                        <polygon id="Fill-21" fill="#242B64" mask="url(#mask-23)" points="36.9544571 70.1653521 38.5776 70.1653521 38.5776 58.1862817 36.9544571 58.1862817"></polygon>
                        <path d="M36.9543486,73.4557577 L38.5774914,73.4557577 L38.5774914,77.0552648 C38.5774914,77.5148 38.2137771,77.8864338 37.7664629,77.8864338 C37.3180629,77.8864338 36.9543486,77.5148 36.9543486,77.0552648 L36.9543486,73.4557577 Z" id="Fill-22" fill="#60C6F0" mask="url(#mask-23)"></path>
                        <polygon id="Fill-23" fill="#242B64" mask="url(#mask-23)" points="7.53594286 40.015169 19.2247429 40.015169 19.2247429 38.3506056 7.53594286 38.3506056"></polygon>
                        <path d="M4.32461714,38.3509394 L4.32461714,40.0155028 L0.812331429,40.0155028 C0.363931429,40.0155028 0.000217142857,39.6427563 0.000217142857,39.1832211 C0.000217142857,38.7236859 0.363931429,38.3509394 0.812331429,38.3509394 L4.32461714,38.3509394 Z" id="Fill-24" fill="#60C6F0" mask="url(#mask-23)"></path>
                        <polygon id="Fill-25" fill="#242B64" mask="url(#mask-23)" points="56.3084 40.015169 67.9961143 40.015169 67.9961143 38.3506056 56.3084 38.3506056"></polygon>
                        <path d="M71.2084171,40.0156141 L71.2084171,38.3510507 L74.7207029,38.3510507 C75.1680171,38.3510507 75.5317314,38.7237972 75.5317314,39.1833324 C75.5317314,39.6428676 75.1680171,40.0156141 74.7207029,40.0156141 L71.2084171,40.0156141 Z" id="Fill-26" fill="#60C6F0" mask="url(#mask-23)"></path>
                    </g>
                </g>
                <g id="Group-28-Copy" transform="translate(704.441136, 96.277026) rotate(-90.000000) translate(-704.441136, -96.277026) translate(666.231529, 56.902342)">
                    <polygon id="Fill-1" fill="#242B64" points="29.4017467 49.8552261 46.5469432 49.8552261 46.5469432 32.4360879 29.4017467 32.4360879"></polygon>
                    <polygon id="Stroke-2" stroke="#60C6F0" stroke-width="1.09170306" points="50.0975983 41.1461006 37.9753275 53.4631671 25.8508734 41.1461006 37.9753275 28.8301433"></polygon>
                    <polygon id="Fill-3" fill="#242B64" points="27.6505459 28.2404104 26.705131 29.2009308 19.8983624 22.2865145 20.844869 21.3271032"></polygon>
                    <g id="Group-27" transform="translate(0.000000, 0.631326)">
                        <path d="M18.9744541,18.7943683 L18.0290393,19.7548888 L15.9831878,17.6763491 C15.7222707,17.4123724 15.7222707,16.9820237 15.9831878,16.7169378 C16.2441048,16.4518519 16.6676856,16.4518519 16.9286026,16.7169378 L18.9744541,18.7943683 Z" id="Fill-4" fill="#60C6F0"></path>
                        <polygon id="Fill-6" fill="#242B64" points="48.2991266 50.5089567 49.2434498 49.5484363 56.0502183 56.4628525 55.1037118 57.4222638"></polygon>
                        <path d="M56.9751092,59.3236729 L57.9194323,58.3631524 L59.9652838,60.441692 C60.2272926,60.7056688 60.2272926,61.1360175 59.9652838,61.4011033 C59.7043668,61.6661892 59.280786,61.6661892 59.019869,61.4011033 L56.9751092,59.3236729 Z" id="Fill-8" fill="#60C6F0"></path>
                        <polygon id="Fill-10" fill="#242B64" points="48.2991266 27.6090844 49.2434498 28.5696049 56.0502183 21.6551886 55.1037118 20.6957773"></polygon>
                        <path d="M56.9751092,18.7943683 L57.9194323,19.7548888 L59.9652838,17.6763491 C60.2272926,17.4123724 60.2272926,16.9820237 59.9652838,16.7169378 C59.7043668,16.4518519 59.280786,16.4518519 59.019869,16.7169378 L56.9751092,18.7943683 Z" id="Fill-12" fill="#60C6F0"></path>
                        <polygon id="Fill-14" fill="#242B64" points="27.6505459 50.5089567 26.705131 49.5484363 19.8983624 56.4628525 20.844869 57.4222638"></polygon>
                        <path d="M18.9744541,59.3236729 L18.0290393,58.3631524 L15.9831878,60.441692 C15.7222707,60.7056688 15.7222707,61.1360175 15.9831878,61.4011033 C16.2441048,61.6661892 16.6676856,61.6661892 16.9286026,61.4011033 L18.9744541,59.3236729 Z" id="Fill-16" fill="#60C6F0"></path>
                        <mask id="mask-25" fill="white">
                            <use xlink:href="#path-24"></use>
                        </mask>
                        <g id="Clip-19"></g>
                        <polygon id="Fill-18" fill="#242B64" mask="url(#mask-25)" points="37.1582969 20.1165813 38.790393 20.1165813 38.790393 8.17551528 37.1582969 8.17551528"></polygon>
                        <path d="M38.790393,4.89532685 L37.1582969,4.89532685 L37.1582969,1.30723949 C37.1582969,0.849162189 37.5240175,0.47870742 37.9748908,0.47870742 C38.4246725,0.47870742 38.790393,0.849162189 38.790393,1.30723949 L38.790393,4.89532685 Z" id="Fill-20" fill="#60C6F0" mask="url(#mask-25)"></path>
                        <polygon id="Fill-21" fill="#242B64" mask="url(#mask-25)" points="37.1582969 69.9427477 38.790393 69.9427477 38.790393 58.0016817 37.1582969 58.0016817"></polygon>
                        <path d="M37.1581878,73.2227143 L38.7902838,73.2227143 L38.7902838,76.8108017 C38.7902838,77.268879 38.4245633,77.6393338 37.9747817,77.6393338 C37.5239083,77.6393338 37.1581878,77.268879 37.1581878,76.8108017 L37.1581878,73.2227143 Z" id="Fill-22" fill="#60C6F0" mask="url(#mask-25)"></path>
                        <polygon id="Fill-23" fill="#242B64" mask="url(#mask-25)" points="7.57751092 39.8882181 19.330786 39.8882181 19.330786 38.2289357 7.57751092 38.2289357"></polygon>
                        <path d="M4.34847162,38.2292685 L4.34847162,39.8885509 L0.816812227,39.8885509 C0.365938865,39.8885509 0.000218340611,39.516987 0.000218340611,39.0589097 C0.000218340611,38.6008324 0.365938865,38.2292685 0.816812227,38.2292685 L4.34847162,38.2292685 Z" id="Fill-24" fill="#60C6F0" mask="url(#mask-25)"></path>
                        <polygon id="Fill-25" fill="#242B64" mask="url(#mask-25)" points="56.6189956 39.8882181 68.371179 39.8882181 68.371179 38.2289357 56.6189956 38.2289357"></polygon>
                        <path d="M71.6012009,39.8886618 L71.6012009,38.2293794 L75.1328603,38.2293794 C75.5826419,38.2293794 75.9483624,38.6009433 75.9483624,39.0590206 C75.9483624,39.5170979 75.5826419,39.8886618 75.1328603,39.8886618 L71.6012009,39.8886618 Z" id="Fill-26" fill="#60C6F0" mask="url(#mask-25)"></path>
                    </g>
                </g>
                <g id="Group-28-Copy-2" transform="translate(292.873362, 29.817722) rotate(-2.000000) translate(-292.873362, -29.817722) translate(266.126638, 2.293671)">
                    <polygon id="Fill-1" fill="#242B64" points="20.5812227 34.8502551 32.5828603 34.8502551 32.5828603 22.6737702 20.5812227 22.6737702"></polygon>
                    <polygon id="Stroke-2" stroke="#60C6F0" stroke-width="0.76419214" points="35.0683188 28.7623228 26.5827293 37.372311 18.0956114 28.7623228 26.5827293 20.1531099"></polygon>
                    <polygon id="Fill-3" fill="#242B64" points="19.3553821 19.7408694 18.6935917 20.4123011 13.9288537 15.5789228 14.5914083 14.9082663"></polygon>
                    <g id="Group-27" transform="translate(0.000000, 0.441315)">
                        <path d="M13.2821179,13.1378109 L12.6203275,13.8092426 L11.1882314,12.3562829 C11.0055895,12.1717555 11.0055895,11.8709292 11.1882314,11.6856264 C11.3708734,11.5003237 11.6673799,11.5003237 11.8500218,11.6856264 L13.2821179,13.1378109 Z" id="Fill-4" fill="#60C6F0"></path>
                        <polygon id="Fill-6" fill="#242B64" points="33.8093886 35.3072319 34.4704148 34.6358001 39.2351528 39.4691785 38.5725983 40.1398349"></polygon>
                        <path d="M39.8825764,41.4689752 L40.5436026,40.7975434 L41.9756987,42.2505032 C42.1591048,42.4350306 42.1591048,42.7358569 41.9756987,42.9211596 C41.7930568,43.1064624 41.4965502,43.1064624 41.3139083,42.9211596 L39.8825764,41.4689752 Z" id="Fill-8" fill="#60C6F0"></path>
                        <polygon id="Fill-10" fill="#242B64" points="33.8093886 19.2995542 34.4704148 19.9709859 39.2351528 15.1376076 38.5725983 14.4669511"></polygon>
                        <path d="M39.8825764,13.1378109 L40.5436026,13.8092426 L41.9756987,12.3562829 C42.1591048,12.1717555 42.1591048,11.8709292 41.9756987,11.6856264 C41.7930568,11.5003237 41.4965502,11.5003237 41.3139083,11.6856264 L39.8825764,13.1378109 Z" id="Fill-12" fill="#60C6F0"></path>
                        <polygon id="Fill-14" fill="#242B64" points="19.3553821 35.3072319 18.6935917 34.6358001 13.9288537 39.4691785 14.5914083 40.1398349"></polygon>
                        <path d="M13.2821179,41.4689752 L12.6203275,40.7975434 L11.1882314,42.2505032 C11.0055895,42.4350306 11.0055895,42.7358569 11.1882314,42.9211596 C11.3708734,43.1064624 11.6673799,43.1064624 11.8500218,42.9211596 L13.2821179,41.4689752 Z" id="Fill-16" fill="#60C6F0"></path>
                        <mask id="mask-27" fill="white">
                            <use xlink:href="#path-26"></use>
                        </mask>
                        <g id="Clip-19"></g>
                        <polygon id="Fill-18" fill="#242B64" mask="url(#mask-27)" points="26.0108079 14.0620762 27.1532751 14.0620762 27.1532751 5.7149233 26.0108079 5.7149233"></polygon>
                        <path d="M27.1532751,3.42197605 L26.0108079,3.42197605 L26.0108079,0.913798481 C26.0108079,0.593589103 26.2668122,0.33463043 26.5824236,0.33463043 C26.8972707,0.33463043 27.1532751,0.593589103 27.1532751,0.913798481 L27.1532751,3.42197605 Z" id="Fill-20" fill="#60C6F0" mask="url(#mask-27)"></path>
                        <polygon id="Fill-21" fill="#242B64" mask="url(#mask-27)" points="26.0108079 48.8920178 27.1532751 48.8920178 27.1532751 40.5448649 26.0108079 40.5448649"></polygon>
                        <path d="M26.0107314,51.18481 L27.1531987,51.18481 L27.1531987,53.6929876 C27.1531987,54.013197 26.8971943,54.2721556 26.5823472,54.2721556 C26.2667358,54.2721556 26.0107314,54.013197 26.0107314,53.6929876 L26.0107314,51.18481 Z" id="Fill-22" fill="#60C6F0" mask="url(#mask-27)"></path>
                        <polygon id="Fill-23" fill="#242B64" mask="url(#mask-27)" points="5.30425764 27.8830263 13.5315502 27.8830263 13.5315502 26.7231395 5.30425764 26.7231395"></polygon>
                        <path d="M3.04393013,26.7233721 L3.04393013,27.8832589 L0.571768559,27.8832589 C0.256157205,27.8832589 0.000152838428,27.6235249 0.000152838428,27.3033155 C0.000152838428,26.9831061 0.256157205,26.7233721 0.571768559,26.7233721 L3.04393013,26.7233721 Z" id="Fill-24" fill="#60C6F0" mask="url(#mask-27)"></path>
                        <polygon id="Fill-25" fill="#242B64" mask="url(#mask-27)" points="39.6332969 27.8830263 47.8598253 27.8830263 47.8598253 26.7231395 39.6332969 26.7231395"></polygon>
                        <path d="M50.1208406,27.8833364 L50.1208406,26.7234497 L52.5930022,26.7234497 C52.9078493,26.7234497 53.1638537,26.9831837 53.1638537,27.303393 C53.1638537,27.6236024 52.9078493,27.8833364 52.5930022,27.8833364 L50.1208406,27.8833364 Z" id="Fill-26" fill="#60C6F0" mask="url(#mask-27)"></path>
                    </g>
                </g>
            </g>
        </g>
    </g>
</svg>