<?xml version="1.0" encoding="UTF-8"?>
<svg width="200px" height="200px" viewBox="0 0 200 200" version="1.1" xmlns="http://www.w3.org/2000/svg" xmlns:xlink="http://www.w3.org/1999/xlink">
    <!-- Generator: Sketch 55 (78076) - https://sketchapp.com -->
    <title>Dynamic</title>
    <desc>Created with Sketch.</desc>
    <defs>
        <ellipse id="path-1" cx="78.9757085" cy="77.8125" rx="78.1578947" ry="77.8125"></ellipse>
        <linearGradient x1="10.9836498%" y1="15.9924197%" x2="77.3297402%" y2="53.768463%" id="linearGradient-3">
            <stop stop-color="#3390CE" offset="0%"></stop>
            <stop stop-color="#33BEEF" offset="100%"></stop>
        </linearGradient>
    </defs>
    <g id="Dynamic" stroke="none" stroke-width="1" fill="none" fill-rule="evenodd">
        <g id="Group-13" transform="translate(17.000000, 22.000000)">
            <g id="Group-11" transform="translate(-0.000000, 0.000000)">
                <g id="Group-10" transform="translate(8.000000, 0.000000)">
                    <g id="Group-9">
                        <mask id="mask-2" fill="white">
                            <use xlink:href="#path-1"></use>
                        </mask>
                        <use id="Mask" fill-opacity="0.2" fill="#33BEEF" xlink:href="#path-1"></use>
                        <g mask="url(#mask-2)">
                            <g transform="translate(-50.000000, 23.000000)">
                                <path d="M227,62 C208.333333,50.6666667 196.666667,43.6666667 192,41 C185,37 164,27 157,27 C150,27 132,37 127,39 C123.666667,40.3333333 119.333333,41.6666667 114,43 L114,61 L126,71 L143,75 C154.333333,77.6666667 163,78.6666667 169,78 C178,77 184,71 188,71 C190.666667,71 199.333333,76.6666667 214,88 L227,62 Z" id="Path-72" fill="#3390CE"></path>
                                <g id="Group-8" stroke-width="1" fill="none">
                                    <path d="M29,0 C41.6666667,6 50.6666667,11.3333333 56,16 C64,23 96,43 117,43 C131,43 144.666667,48.6666667 158,60 C144,72.6666667 133.333333,86 126,100 C118.666667,114 108,123 94,127 C68,117.666667 50.6666667,110 42,104 C33.3333333,98 19.3333333,85.6666667 0,67 C1.33333333,53 3.33333333,42.6666667 6,36 C8.66666667,29.3333333 16.3333333,17.3333333 29,0 Z" id="Path-70" fill="url(#linearGradient-3)"></path>
                                    <g id="Group-7" transform="translate(34.000000, 33.000000)" stroke="#FFFFFF" stroke-linecap="round" stroke-linejoin="round" stroke-width="2">
                                        <path d="M0,43 L26,0" id="Path-73"></path>
                                        <path d="M19,55 L45,12" id="Path-73-Copy"></path>
                                        <path d="M37,65 L63,22" id="Path-73-Copy-2"></path>
                                        <path d="M57,76 L83,33" id="Path-73-Copy-3"></path>
                                    </g>
                                </g>
                            </g>
                        </g>
                    </g>
                    <path d="M141,64 C129,60 115,50 106,50 C97,50 82,68 78,71 C74,74 67,78 67,80 C67,82 68,87 76,85 C84,83 94,74 97,73 C100,72 104,77 110,78 C116,79 118,80 125,77 C132,74 153,68 141,64 Z" id="Path-71" fill="#3390CE"></path>
                </g>
                <ellipse id="Oval" stroke="#3390CE" stroke-width="1.6" opacity="0.5" cx="78.1578947" cy="77.8125" rx="78.1578947" ry="77.8125"></ellipse>
            </g>
        </g>
    </g>
</svg>