<?xml version="1.0" encoding="UTF-8"?>
<svg width="100px" height="100px" viewBox="0 0 100 100" version="1.1" xmlns="http://www.w3.org/2000/svg" xmlns:xlink="http://www.w3.org/1999/xlink">
    <!-- Generator: Sketch 55 (78076) - https://sketchapp.com -->
    <title>img-transparency</title>
    <desc>Created with Sketch.</desc>
    <g id="img-transparency" stroke="none" stroke-width="1" fill="none" fill-rule="evenodd">
        <g id="Group" transform="translate(14.000000, 20.000000)" fill="#3390CE">
            <path d="M16,11.9804836 L20,11.9804836 L20,50.9804836 L16,50.9804836 L16,11.9804836 Z M23,11.9804836 L27,11.9804836 L27,50.9804836 L23,50.9804836 L23,11.9804836 Z M30,11.9804836 L34,11.9804836 L34,50.9804836 L30,50.9804836 L30,11.9804836 Z M37,11.9804836 L41,11.9804836 L41,50.9804836 L37,50.9804836 L37,11.9804836 Z M44,11.9804836 C46.209139,11.9804836 48,13.7713446 48,15.9804836 L48,46.9804836 C48,49.1896226 46.209139,50.9804836 44,50.9804836 L44,11.9804836 Z M13,50.9804836 C10.790861,50.9804836 9,49.1896226 9,46.9804836 L9,15.9804836 C9,13.7713446 10.790861,11.9804836 13,11.9804836 L13,50.9804836 Z" id="Combined-Shape" fill-opacity="0.5" transform="translate(28.500000, 31.480484) rotate(-315.000000) translate(-28.500000, -31.480484) "></path>
            <rect id="Rectangle-Copy-4" fill-opacity="0.2" transform="translate(43.500000, 28.500000) rotate(-315.000000) translate(-43.500000, -28.500000) " x="24" y="9" width="39" height="39" rx="4"></rect>
        </g>
    </g>
</svg>