<?xml version="1.0" encoding="UTF-8"?>
<svg width="263px" height="302px" viewBox="0 0 263 302" version="1.1" xmlns="http://www.w3.org/2000/svg" xmlns:xlink="http://www.w3.org/1999/xlink">
    <!-- Generator: Sketch 52.5 (67469) - http://www.bohemiancoding.com/sketch -->
    <title>Group 2 Copy 7</title>
    <desc>Created with Sketch.</desc>
    <defs>
        <rect id="path-1" x="0" y="0" width="276" height="308"></rect>
    </defs>
    <g id="Page-1" stroke="none" stroke-width="1" fill="none" fill-rule="evenodd">
        <g id="LANDING-1-ALT" transform="translate(-62.000000, -783.000000)">
            <g id="Group-2-Copy-7" transform="translate(54.000000, 783.000000)">
                <mask id="mask-2" fill="white">
                    <use xlink:href="#path-1"></use>
                </mask>
                <g id="Mask"></g>
                <g id="Group-2" mask="url(#mask-2)">
                    <g transform="translate(-118.000000, -25.000000)">
                        <g id="Group-3" transform="translate(210.731706, 201.699328) rotate(-330.000000) translate(-210.731706, -201.699328) translate(48.231706, 62.699328)">
                            <polyline id="Fill-175" fill="#DDDDDD" opacity="0.5" points="156.672547 89.5476026 164.29809 93.860788 164.536768 111.875679 148.054267 125.973024 136.160037 118.127411 156.672547 89.5476026"></polyline>
                            <path d="M153.787381,136.857526 C153.787381,136.857526 141.935223,123.344335 148.818034,107.120738 C155.704082,90.8963326 188.771837,85.3169429 190.884335,86.7668076 C192.996833,88.2158631 214.858073,102.008186 214.858073,102.008186 C214.858073,102.008186 211.824037,111.065794 203.624049,107.619129 C195.420825,104.173274 185.944116,100.236309 185.944116,100.236309 C185.944116,100.236309 174.174484,115.239818 153.787381,136.857526" id="Fill-177" fill="#DDDDDD" opacity="0.8"></path>
                            <g id="Group-182" transform="translate(-0.000000, -0.000000)">
                                <polyline id="Fill-178" fill="#DDDDDD" opacity="0.8" points="154.221855 83.9018686 158.259145 87.599347 135.414069 119.265782 128.743235 115.259236 154.221855 83.9018686"></polyline>
                                <polygon id="Fill-180" fill="#DDDDDD" points="0.38795773 27.6122524 47.271275 0.544156483 154.896624 83.6284008 126.576529 118.256055"></polygon>
                                <polygon id="Fill-181" fill="#F5F5F5" points="0.405382937 27.6021919 16.9896115 18.0272831 136.453731 106.178974 126.576529 118.256055"></polygon>
                            </g>
                            <g id="briefcase" transform="translate(214.858073, 174.930789) rotate(-30.000000) translate(-214.858073, -174.930789) translate(127.858073, 106.930789)" fill="#DDDDDD">
                                <path d="M114.99544,9.91640909 C114.28784,11.3343636 112.924453,12.0877727 111.925307,11.6411364 C96.24752,4.60004545 78.2984533,4.60004545 62.62376,11.6411364 C61.62616,12.0877727 60.2581333,11.3343636 59.5551733,9.91640909 C59.50336,9.80745455 59.45,9.70236364 59.3974133,9.59495455 C58.6874933,8.17622727 59.0076533,6.58518182 60.1258933,6.08368182 C77.3913333,-1.66831818 97.15696,-1.66831818 114.42472,6.08368182 C115.541413,6.58440909 115.85848,8.17622727 115.1532,9.59495455 C115.09984,9.70236364 115.047253,9.80745455 114.99544,9.91640909" id="Fill-19" opacity="0.3"></path>
                                <path d="M114.42472,6.08368182 C97.1616,-1.66831818 77.3913333,-1.66831818 60.1258933,6.08368182 C59.0076533,6.58440909 58.6874933,8.17622727 59.3974133,9.59495455 C76.9806933,0.986 97.56528,0.986 115.1532,9.59495455 C115.85848,8.17622727 115.539093,6.58518182 114.42472,6.08368182" id="Fill-20" opacity="0.5"></path>
                                <path d="M61.1374133,23.2618331 C59.6341092,22.5095682 58.6001067,20.9558549 58.6001067,19.1605455 C58.6001067,17.3663318 59.6341092,15.8121605 61.1374133,15.0595362 L61.1374133,10.1520909 C61.1374133,9.10118182 61.98576,8.25504545 63.0351733,8.25504545 L63.3491467,8.25504545 C64.39856,8.25504545 65.2461333,9.10118182 65.2461333,10.1520909 L65.2461333,15.0619649 C66.7485746,15.8155004 67.7772533,17.3682595 67.7772533,19.1605455 C67.7772533,20.9539259 66.7485746,22.5062292 65.2461333,23.2594056 L65.2461333,26.2735 C65.2461333,27.3244091 64.39856,28.1736364 63.3491467,28.1736364 L63.0351733,28.1736364 C61.98576,28.1736364 61.1374133,27.3244091 61.1374133,26.2735 L61.1374133,23.2618331 Z" id="Combined-Shape" opacity="0.7"></path>
                                <path d="M109.306027,23.2605938 C107.803122,22.5078627 106.77336,20.9548696 106.77336,19.1605455 C106.77336,17.3673164 107.803122,15.8138664 109.306027,15.0607761 L109.306027,10.1520909 C109.306027,9.10118182 110.156693,8.25504545 111.201467,8.25504545 L111.52008,8.25504545 C112.564853,8.25504545 113.41784,9.10118182 113.41784,10.1520909 L113.41784,15.0614244 C114.920172,15.8147578 115.950507,17.3678309 115.950507,19.1605455 C115.950507,20.9543548 114.920172,22.5069716 113.41784,23.2599458 L113.41784,26.2735 C113.41784,27.3244091 112.564853,28.1736364 111.52008,28.1736364 L111.201467,28.1736364 C110.156693,28.1736364 109.306027,27.3244091 109.306027,26.2735 L109.306027,23.2605938 Z" id="Combined-Shape" opacity="0.7"></path>
                                <path d="M173.961333,129.653591 C173.961333,132.796273 171.410107,135.343955 168.26496,135.343955 L6.28256,135.343955 C3.13586667,135.343955 0.58928,132.796273 0.58928,129.653591 L0.58928,24.6971364 C0.58928,21.5536818 3.13586667,19.0067727 6.28256,19.0067727 L168.26496,19.0067727 C171.410107,19.0067727 173.961333,21.5536818 173.961333,24.6971364 L173.961333,129.653591" id="Fill-25" opacity="0.5"></path>
                                <path d="M173.961333,63.2662727 C173.961333,66.3935 171.456507,69.5902727 168.346933,70.3475455 C115.050347,83.0844091 59.4979467,83.0844091 6.20058667,70.3475455 C3.09565333,69.5902727 0.58232,66.3935 0.58928,63.2662727 L0.58928,24.6971364 C0.58232,21.5745455 3.12736,19.0245455 6.28256,19.0067727 L168.26496,19.0067727 C171.414747,19.0245455 173.961333,21.5745455 173.961333,24.6971364 L173.961333,63.2662727" id="Fill-26" opacity="0.5"></path>
                                <path d="M87.27376,76.1059091 C60.2960267,76.1059091 33.3159733,72.9253636 7.08296,66.6593182 C5.70642667,66.3224091 4.38248,64.6741818 4.38248,63.2693636 L4.38248,24.6971364 C4.38248,23.6547273 5.2432,22.8070455 6.29725333,22.8031818 L168.26496,22.8031818 C169.307413,22.8070455 170.168133,23.6593636 170.168133,24.701 L170.168133,63.2662727 C170.168133,64.6741818 168.844187,66.3239545 167.44832,66.6639545 C141.23,72.9253636 114.25304,76.1059091 87.27376,76.1059091" id="Fill-27" opacity="0.2"></path>
                                <path d="M76.2011733,18.6876364 L76.2011733,69.1482727 C76.2011733,71.6619545 77.0510667,73.7042727 78.0966133,73.7042727 L96.454,73.7042727 C97.4972267,73.7042727 98.34712,71.6619545 98.34712,69.1482727 L98.34712,18.6876364 L76.2011733,18.6876364" id="Fill-29" opacity="0.3"></path>
                                <path d="M78.89392,18.6876364 L78.89392,69.1482727 C78.89392,71.6619545 78.9905867,73.7042727 79.10504,73.7042727 L81.2061867,73.7042727 C81.32296,73.7042727 81.4234933,71.6619545 81.4234933,69.1482727 L81.4234933,18.6876364 L78.89392,18.6876364" id="Fill-30" opacity="0.9"></path>
                                <path d="M93.12944,18.6876364 L93.12944,69.1482727 C93.12944,71.6619545 93.2276533,73.7042727 93.3421067,73.7042727 L95.4432533,73.7042727 C95.5623467,73.7042727 95.6613333,71.6619545 95.6613333,69.1482727 L95.6613333,18.6876364 L93.12944,18.6876364" id="Fill-31" opacity="0.9"></path>
                                <path d="M97.08272,91.7211818 C97.07808,92.6384091 96.3526933,93.6754091 95.4478933,93.9628636 C90.1211733,95.6018182 84.42944,95.6018182 79.10272,93.9628636 C78.18864,93.6754091 77.4632533,92.6384091 77.4648,91.7211818 L77.4648,72.1225 C77.4648,71.2060455 78.19328,70.1713636 79.10272,69.8815909 C84.42944,68.2426364 90.1211733,68.2426364 95.4478933,69.8815909 C96.3573333,70.1713636 97.07808,71.2060455 97.08272,72.1225 L97.08272,91.7211818" id="Fill-32" opacity="0.5"></path>
                                <path d="M95.4478933,70.5469091 C90.1211733,69.003 84.42944,69.003 79.10272,70.5469091 C78.19328,70.8158182 77.4648,71.7917727 77.4648,72.6525909 L77.4648,81.1912273 L77.6449867,81.2213636 L97.08272,81.2213636 L97.08272,72.6525909 C97.07808,71.7917727 96.3573333,70.8158182 95.4478933,70.5469091" id="Fill-33" opacity="0.5"></path>
                                <path d="M77.4648,83.0365 L77.4648,91.7211818 C77.4632533,92.6384091 78.18864,93.6754091 79.10272,93.9628636 C84.42944,95.6018182 90.1211733,95.6018182 95.4478933,93.9628636 C96.3526933,93.6754091 97.07808,92.6384091 97.08272,91.7211818 L97.08272,83.0365 L77.4648,83.0365" id="Fill-34" opacity="0.5"></path>
                                <path d="M87.27376,93.5146818 C84.67304,93.5146818 82.0916533,93.1221364 79.5976533,92.3579091 C79.39968,92.2945455 79.1460267,91.9143636 79.1460267,91.7273636 L79.1460267,84.7195 L95.3999467,84.7195 L95.3999467,91.7211818 C95.3999467,91.9267273 95.1300533,92.2991818 94.9328533,92.3617727 C92.46128,93.1221364 89.87912,93.5146818 87.27376,93.5146818" id="Fill-35" opacity="0.5"></path>
                            </g>
                            <g id="fingers" transform="translate(162.000000, 99.000000)" fill="#DDDDDD" opacity="0.5">
                                <path d="M14.3986342,4.22908166 C15.6308573,1.67887337 16.6939835,-0.355953352 18.5847946,0.555875562 L44.4897974,13.063385 C46.3773723,13.9776412 46.9113626,16.7851357 45.6791395,19.335344 C44.4501527,21.8855523 41.9177441,23.2132464 40.0293602,22.3014175 L14.1243573,9.79228983 C12.231928,8.88046092 13.1672202,6.78009902 14.3986342,4.22908166" id="Fill-192"></path>
                                <path d="M9.32977158,13.3239076 C10.5603765,10.7745084 11.6259299,8.73887258 13.5143139,9.65070149 L39.4193167,22.1606382 C41.3093188,23.0748943 41.8433091,25.8783435 40.611086,28.4317881 C39.380481,30.9828054 36.8496906,32.3088814 34.9588794,31.3962434 L9.05387659,18.8879248 C7.16306543,17.9744778 8.09835756,15.875734 9.32977158,13.3239076" id="Fill-195"></path>
                                <path d="M3.7155916,22.1290842 C4.94700563,19.5772578 6.01174995,17.541622 7.90013388,18.45426 L33.8059458,30.9625785 C35.6959479,31.8752165 36.2315563,34.6835201 34.9985241,37.2321103 C33.7671101,39.7847458 31.2355106,41.1108217 29.3455085,40.1998019 L3.44293291,27.688247 C1.55131268,26.7764181 2.48417758,24.6784834 3.7155916,22.1290842" id="Fill-198"></path>
                                <path d="M2.33773478,32.8946526 C3.56914881,30.3460624 4.63308405,28.3096176 6.52227705,29.2222556 L26.7152017,39.3583626 C28.6027765,40.2718097 29.1351487,43.076877 27.9037347,45.6287034 C26.6715116,48.1789117 24.1431483,49.5066058 22.2515281,48.5947769 L2.06345794,38.4570517 C0.173455857,37.5444137 1.10712983,35.446479 2.33773478,32.8946526" id="Fill-201"></path>
                            </g>
                        </g>
                        <g id="Group-3-Copy" transform="translate(329.968220, 148.084591) scale(-1, 1) rotate(-330.000000) translate(-329.968220, -148.084591) translate(210.468220, 46.084591)">
                            <polyline id="Fill-175" fill="#DDDDDD" opacity="0.5" points="115.026904 65.744661 120.625477 68.9113445 120.80071 82.1376386 108.699477 92.4877216 99.9668915 86.7275773 115.026904 65.744661"></polyline>
                            <path d="M112.908653,100.478979 C112.908653,100.478979 104.206956,90.5577733 109.260225,78.646624 C114.31587,66.7348808 138.593777,62.6385669 140.144745,63.7030383 C141.695713,64.7669156 157.745945,74.8930557 157.745945,74.8930557 C157.745945,74.8930557 155.518396,81.5430316 149.498074,79.0125361 C143.475376,76.4826346 136.517701,73.5921672 136.517701,73.5921672 C136.517701,73.5921672 127.876594,84.6075448 112.908653,100.478979" id="Fill-177" fill="#DDDDDD" opacity="0.8"></path>
                            <g id="Group-182" transform="translate(-0.000000, -0.000000)">
                                <polyline id="Fill-178" fill="#DDDDDD" opacity="0.8" points="113.227638 61.5996381 116.191763 64.3142777 99.4192115 87.5633536 94.521574 84.6218011 113.227638 61.5996381"></polyline>
                                <polygon id="Fill-180" fill="#DDDDDD" points="0.284833415 20.2725491 34.7059426 0.399512466 113.723045 61.3988617 92.9308071 86.8220254"></polygon>
                                <polygon id="Fill-181" fill="#F5F5F5" points="0.297626771 20.2651629 12.4735472 13.2353919 100.182518 77.9551929 92.9308071 86.8220254"></polygon>
                            </g>
                            <g id="briefcase" transform="translate(157.892503, 128.434199) rotate(-30.000000) translate(-157.892503, -128.434199) translate(93.892503, 78.434199)" fill="#DDDDDD">
                                <path d="M84.4281255,7.28049591 C83.9086149,8.32153932 82.9076345,8.87468227 82.1740743,8.54676778 C70.6636515,3.37729231 57.485685,3.37729231 45.9775332,8.54676778 C45.2451086,8.87468227 44.2407216,8.32153932 43.7246177,7.28049591 C43.686577,7.20050293 43.6474008,7.12334658 43.6087924,7.04448825 C43.0875785,6.00287752 43.3226357,4.83475307 44.1436327,4.46655843 C56.8196895,-1.22485706 71.3313502,-1.22485706 84.0091104,4.46655843 C84.8289718,4.83418574 85.061758,6.00287752 84.5439508,7.04448825 C84.5047745,7.12334658 84.4661661,7.20050293 84.4281255,7.28049591" id="Fill-19" opacity="0.3"></path>
                                <path d="M84.0091104,4.46655843 C71.3347569,-1.22485706 56.8196895,-1.22485706 44.1436327,4.46655843 C43.3226357,4.83418574 43.0875785,6.00287752 43.6087924,7.04448825 C56.5182031,0.723908111 71.6311334,0.723908111 84.5439508,7.04448825 C85.061758,6.00287752 84.8272685,4.83475307 84.0091104,4.46655843" id="Fill-20" opacity="0.5"></path>
                                <path d="M44.8862773,17.0785291 C43.7825713,16.5262261 43.0234204,15.3855104 43.0234204,14.0674181 C43.0234204,12.7501302 43.7825713,11.6090783 44.8862773,11.0565115 L44.8862773,7.45353037 C44.8862773,6.68196687 45.5091221,6.06074478 46.2795875,6.06074478 L46.5101025,6.06074478 C47.2805678,6.06074478 47.9028449,6.68196687 47.9028449,7.45353037 L47.9028449,11.0582947 C49.0059174,11.6115305 49.7611596,12.7515456 49.7611596,14.0674181 C49.7611596,15.3840942 49.0059174,16.5237747 47.9028449,17.0767468 L47.9028449,19.2896549 C47.9028449,20.0612184 47.2805678,20.6847098 46.5101025,20.6847098 L46.2795875,20.6847098 C45.5091221,20.6847098 44.8862773,20.0612184 44.8862773,19.2896549 L44.8862773,17.0785291 Z" id="Combined-Shape" opacity="0.7"></path>
                                <path d="M80.2510337,17.0776192 C79.1476207,16.524974 78.3915835,15.3847871 78.3915835,14.0674181 C78.3915835,12.7508532 79.1476207,11.6103308 80.2510337,11.0574218 L80.2510337,7.45353037 C80.2510337,6.68196687 80.8755819,6.06074478 81.6426406,6.06074478 L81.8765623,6.06074478 C82.643621,6.06074478 83.2698725,6.68196687 83.2698725,7.45353037 L83.2698725,11.0578979 C84.3728644,11.6109852 85.1293227,12.7512309 85.1293227,14.0674181 C85.1293227,15.3844091 84.3728644,16.5243198 83.2698725,17.0771434 L83.2698725,19.2896549 C83.2698725,20.0612184 82.643621,20.6847098 81.8765623,20.6847098 L81.6426406,20.6847098 C80.8755819,20.6847098 80.2510337,20.0612184 80.2510337,19.2896549 L80.2510337,17.0776192 Z" id="Combined-Shape" opacity="0.7"></path>
                                <path d="M127.720102,95.1899453 C127.720102,97.4972605 125.847025,99.3677347 123.5379,99.3677347 L4.61257215,99.3677347 C2.30231168,99.3677347 0.432641553,97.4972605 0.432641553,95.1899453 L0.432641553,18.1323097 C0.432641553,15.8244271 2.30231168,13.9545202 4.61257215,13.9545202 L123.5379,13.9545202 C125.847025,13.9545202 127.720102,15.8244271 127.720102,18.1323097 L127.720102,95.1899453" id="Fill-25" opacity="0.5"></path>
                                <path d="M127.720102,46.4492576 C127.720102,48.7452263 125.881091,51.0922544 123.598084,51.648234 C84.4684372,60.9994702 43.6826026,60.9994702 4.55238842,51.648234 C2.27278758,51.0922544 0.427531614,48.7452263 0.432641553,46.4492576 L0.432641553,18.1323097 C0.427531614,15.8397449 2.2960662,13.9675687 4.61257215,13.9545202 L123.5379,13.9545202 C125.850431,13.9675687 127.720102,15.8397449 127.720102,18.1323097 L127.720102,46.4492576" id="Fill-26" opacity="0.5"></path>
                                <path d="M64.075236,55.8759481 C44.2685423,55.8759481 24.4601453,53.5408339 5.2002152,48.9403865 C4.1895827,48.6930323 3.21755864,47.4829257 3.21755864,46.4515269 L3.21755864,18.1323097 C3.21755864,17.3669867 3.84948784,16.74463 4.6233598,16.7417934 L123.5379,16.7417934 C124.303255,16.74463 124.935184,17.3703907 124.935184,18.1351463 L124.935184,46.4492576 C124.935184,47.4829257 123.96316,48.694167 122.938334,48.9437904 C103.689191,53.5408339 83.8830652,55.8759481 64.075236,55.8759481" id="Fill-27" opacity="0.2"></path>
                                <path d="M55.9458899,13.7202145 L55.9458899,50.7677439 C55.9458899,52.6132557 56.5698703,54.1126986 57.3374968,54.1126986 L70.8152463,54.1126986 C71.5811695,54.1126986 72.2051499,52.6132557 72.2051499,50.7677439 L72.2051499,13.7202145 L55.9458899,13.7202145" id="Fill-29" opacity="0.3"></path>
                                <path d="M57.9228687,13.7202145 L57.9228687,50.7677439 C57.9228687,52.6132557 57.9938401,54.1126986 58.0778702,54.1126986 L59.6205042,54.1126986 C59.7062376,54.1126986 59.7800479,52.6132557 59.7800479,50.7677439 L59.7800479,13.7202145 L57.9228687,13.7202145" id="Fill-30" opacity="0.9"></path>
                                <path d="M68.3743985,13.7202145 L68.3743985,50.7677439 C68.3743985,52.6132557 68.4465055,54.1126986 68.5305356,54.1126986 L70.0731696,54.1126986 C70.1606063,54.1126986 70.233281,52.6132557 70.233281,50.7677439 L70.233281,13.7202145 L68.3743985,13.7202145" id="Fill-31" opacity="0.9"></path>
                                <path d="M71.2768442,67.3404741 C71.2734376,68.0138902 70.7408683,68.7752418 70.0765762,68.9862871 C66.1657691,70.1895858 61.986974,70.1895858 58.0761669,68.9862871 C57.4050615,68.7752418 56.8724923,68.0138902 56.8736278,67.3404741 L56.8736278,52.9513821 C56.8736278,52.2785333 57.4084681,51.5188836 58.0761669,51.3061363 C61.986974,50.1028377 66.1657691,50.1028377 70.0765762,51.3061363 C70.744275,51.5188836 71.2734376,52.2785333 71.2768442,52.9513821 L71.2768442,67.3404741" id="Fill-32" opacity="0.5"></path>
                                <path d="M70.0765762,51.7946041 C66.1657691,50.6610866 61.986974,50.6610866 58.0761669,51.7946041 C57.4084681,51.9920336 56.8736278,52.7085665 56.8736278,53.3405678 L56.8736278,59.6095212 L57.0059185,59.6316469 L71.2768442,59.6316469 L71.2768442,53.3405678 C71.2734376,52.7085665 70.744275,51.9920336 70.0765762,51.7946041" id="Fill-33" opacity="0.5"></path>
                                <path d="M56.8736278,60.964296 L56.8736278,67.3404741 C56.8724923,68.0138902 57.4050615,68.7752418 58.0761669,68.9862871 C61.986974,70.1895858 66.1657691,70.1895858 70.0765762,68.9862871 C70.7408683,68.7752418 71.2734376,68.0138902 71.2768442,67.3404741 L71.2768442,60.964296 L56.8736278,60.964296" id="Fill-34" opacity="0.5"></path>
                                <path d="M64.075236,68.657238 C62.1658219,68.657238 60.2706021,68.3690363 58.4395404,67.8079508 C58.294191,67.76143 58.1079621,67.4823056 58.1079621,67.3450127 L58.1079621,62.1999322 L70.0413744,62.1999322 L70.0413744,67.3404741 C70.0413744,67.4913828 69.8432223,67.764834 69.6984407,67.8107874 C67.8838443,68.3690363 65.9880567,68.657238 64.075236,68.657238" id="Fill-35" opacity="0.5"></path>
                            </g>
                            <g id="fingers" transform="translate(118.938249, 72.684486)" fill="#DDDDDD" opacity="0.5">
                                <path d="M10.5712861,3.10493561 C11.4759679,1.23260654 12.256501,-0.261336226 13.6447095,0.408116458 L32.6638187,9.59096388 C34.0496511,10.2621986 34.4416997,12.3234238 33.5370178,14.1957529 C32.634712,16.0680819 30.7754512,17.0428573 29.3890248,16.3734046 L10.3699157,7.1893692 C8.98051918,6.51991652 9.66719824,4.97785869 10.5712861,3.10493561" id="Fill-192"></path>
                                <path d="M6.84979444,9.78223607 C7.75328826,7.91050102 8.53560342,6.41596424 9.92202983,7.08541692 L28.941139,16.2700464 C30.3287534,16.9412811 30.720802,18.9995362 29.8161202,20.8742414 C28.9126264,22.7471645 27.0545536,23.7207518 25.6663452,23.0507051 L6.647236,13.8672637 C5.25902755,13.196623 5.94570661,11.6557532 6.84979444,9.78223607" id="Fill-195"></path>
                                <path d="M2.72793803,16.2468799 C3.63202586,14.3733628 4.41374701,12.878826 5.80017342,13.5488727 L24.8198766,22.7323141 C26.207491,23.4023608 26.6007277,25.46418 25.6954518,27.3353211 C24.791364,29.2094322 22.9326972,30.1830196 21.5450828,29.5141609 L2.52775564,20.3283434 C1.13895318,19.6588907 1.8238502,18.1186149 2.72793803,16.2468799" id="Fill-198"></path>
                                <path d="M1.71633384,24.1508172 C2.62042167,22.2796762 3.40154881,20.7845454 4.78856923,21.4545921 L19.6139464,28.8963873 C20.9997788,29.567028 21.3906394,31.6264712 20.4865516,33.4999883 C19.5818697,35.3723174 17.725579,36.3470928 16.3367765,35.6776401 L1.51496342,28.2346568 C0.127348988,27.5646101 0.812840023,26.0243343 1.71633384,24.1508172" id="Fill-201"></path>
                            </g>
                        </g>
                    </g>
                </g>
            </g>
        </g>
    </g>
</svg>