<?xml version="1.0" encoding="UTF-8"?>
<svg width="131px" height="81px" viewBox="0 0 131 81" version="1.1" xmlns="http://www.w3.org/2000/svg" xmlns:xlink="http://www.w3.org/1999/xlink">
    <!-- Generator: Sketch 52.5 (67469) - http://www.bohemiancoding.com/sketch -->
    <title>Growth</title>
    <desc>Created with Sketch.</desc>
    <defs>
        <linearGradient x1="0%" y1="-26.5903574%" x2="90.3499107%" y2="100%" id="linearGradient-1">
            <stop stop-color="#4FC4EE" offset="0%"></stop>
            <stop stop-color="#2791D9" offset="100%"></stop>
        </linearGradient>
    </defs>
    <g id="Page-1" stroke="none" stroke-width="1" fill="none" fill-rule="evenodd">
        <g id="Pricing-Page" transform="translate(-773.000000, -687.000000)" fill-rule="nonzero">
            <g id="Growth" transform="translate(774.000000, 688.000000)">
                <path d="M16.7326733,42.0578004 L16.7326733,35.5873695 L87.8302687,35.5873695 C88.9348382,35.5873695 89.8302687,34.691939 89.8302687,33.5873695 L89.8302687,28.9601284 C89.8302687,27.8555589 88.9348382,26.9601284 87.8302687,26.9601284 L16.7326733,26.9601284 L16.7326733,17.2544822 L114.554455,-1.42108547e-14 L114.554455,79.8019802 L87.6803395,79.8019802 L87.6803395,69.7827134 C87.6803395,67.5735744 85.8894785,65.7827134 83.6803395,65.7827134 L67.2560113,65.7827134 L67.2560113,79.8019802 L65.106082,79.8019802 L65.106082,65.7827134 L48.6817539,65.7827134 C46.4726149,65.7827134 44.6817539,67.5735744 44.6817539,69.7827134 L44.6817539,79.8019802 L16.7326733,79.8019802 L16.7326733,50.6850415 L87.8302687,50.6850415 C88.9348382,50.6850415 89.8302687,49.789611 89.8302687,48.6850415 L89.8302687,44.0578004 C89.8302687,42.9532309 88.9348382,42.0578004 87.8302687,42.0578004 L16.7326733,42.0578004 Z M93.480198,69.0179288 C92.6517709,69.0179288 91.980198,69.6895017 91.980198,70.5179288 L91.980198,70.7531442 C91.980198,71.5815714 92.6517709,72.2531442 93.480198,72.2531442 L93.7050919,72.2531442 C94.5335191,72.2531442 95.2050919,71.5815714 95.2050919,70.7531442 L95.2050919,70.5179288 C95.2050919,69.6895017 94.5335191,69.0179288 93.7050919,69.0179288 L93.480198,69.0179288 Z" id="Combined-Shape" fill="url(#linearGradient-1)"></path>
                <g id="Group-23">
                    <path d="M12.3553719,25.0102424 C19.1790554,25.0102424 24.7107438,19.4115089 24.7107438,12.5051212 C24.7107438,5.59873347 19.1790554,0 12.3553719,0 C5.53168842,0 0,5.59873347 0,12.5051212 C0,19.4115089 5.53168842,25.0102424 12.3553719,25.0102424 Z" id="Oval" stroke="#17CCD5" stroke-dasharray="3,6"></path>
                    <ellipse id="Oval" fill="#17CCD5" cx="6.98347107" cy="40.7775691" rx="2.68595041" ry="2.71850461"></ellipse>
                    <ellipse id="Oval" fill="#17CCD5" cx="124.090909" cy="57.0885968" rx="5.90909091" ry="5.98071014"></ellipse>
                </g>
            </g>
        </g>
    </g>
</svg>