<?xml version="1.0" encoding="UTF-8"?>
<svg width="1279px" height="383px" viewBox="0 0 1279 383" version="1.1" xmlns="http://www.w3.org/2000/svg" xmlns:xlink="http://www.w3.org/1999/xlink">
    <!-- Generator: Sketch 52.5 (67469) - http://www.bohemiancoding.com/sketch -->
    <title>building</title>
    <desc>Created with Sketch.</desc>
    <defs>
        <linearGradient x1="50%" y1="24.8537576%" x2="50%" y2="107.161167%" id="linearGradient-1">
            <stop stop-color="#17CCD5" offset="0%"></stop>
            <stop stop-color="#FFFFFF" stop-opacity="0" offset="100%"></stop>
        </linearGradient>
        <linearGradient x1="50%" y1="24.8537576%" x2="50%" y2="107.161167%" id="linearGradient-2">
            <stop stop-color="#2791D9" stop-opacity="0.305395154" offset="0%"></stop>
            <stop stop-color="#FFFFFF" stop-opacity="0" offset="100%"></stop>
        </linearGradient>
        <linearGradient x1="50%" y1="-17.8318838%" x2="50%" y2="96.0666546%" id="linearGradient-3">
            <stop stop-color="#2791D9" offset="0%"></stop>
            <stop stop-color="#FFFFFF" stop-opacity="0" offset="100%"></stop>
        </linearGradient>
        <linearGradient x1="50%" y1="24.8537576%" x2="50%" y2="107.161167%" id="linearGradient-4">
            <stop stop-color="#2791D9" stop-opacity="0.751217165" offset="0%"></stop>
            <stop stop-color="#FFFFFF" stop-opacity="0" offset="100%"></stop>
        </linearGradient>
        <linearGradient x1="50%" y1="-22.6889781%" x2="50%" y2="107.161167%" id="linearGradient-5">
            <stop stop-color="#17CCD5" offset="0%"></stop>
            <stop stop-color="#FFFFFF" stop-opacity="0" offset="100%"></stop>
        </linearGradient>
        <linearGradient x1="50%" y1="24.8537576%" x2="50%" y2="107.161167%" id="linearGradient-6">
            <stop stop-color="#2791D9" stop-opacity="0.638586957" offset="0%"></stop>
            <stop stop-color="#FFFFFF" stop-opacity="0" offset="100%"></stop>
        </linearGradient>
    </defs>
    <g id="Page-1" stroke="none" stroke-width="1" fill="none" fill-rule="evenodd">
        <g id="Pricing-Page" transform="translate(-54.000000, -453.000000)" fill-rule="nonzero">
            <g id="building" transform="translate(54.000000, 453.000000)">
                <path d="M273.663184,72 L277,72 C279.209139,72 281,73.790861 281,76 L281,243 C281,245.209139 279.209139,247 277,247 L271.4,247 L271.4,82.670122 C271.4,81.7864664 270.683656,81.070122 269.8,81.070122 C268.916344,81.070122 268.2,81.7864664 268.2,82.670122 L268.2,247 L261.8,247 L261.8,82.670122 C261.8,81.7864664 261.083656,81.070122 260.2,81.070122 C259.316344,81.070122 258.6,81.7864664 258.6,82.670122 L258.6,247 L252.2,247 L252.2,82.670122 C252.2,81.7864664 251.483656,81.070122 250.6,81.070122 C249.716344,81.070122 249,81.7864664 249,82.670122 L249,247 L243.133333,247 L243.133333,82.670122 C243.133333,81.7864664 242.416989,81.070122 241.533333,81.070122 C240.649678,81.070122 239.933333,81.7864664 239.933333,82.670122 L239.933333,247 L233.533333,247 L233.533333,82.670122 C233.533333,81.7864664 232.816989,81.070122 231.933333,81.070122 C231.049678,81.070122 230.333333,81.7864664 230.333333,82.670122 L230.333333,247 L223.933333,247 L223.933333,82.670122 C223.933333,81.7864664 223.216989,81.070122 222.333333,81.070122 C221.449678,81.070122 220.733333,81.7864664 220.733333,82.670122 L220.733333,247 L214.333333,247 L214.333333,82.670122 C214.333333,81.7864664 213.616989,81.070122 212.733333,81.070122 C211.849678,81.070122 211.133333,81.7864664 211.133333,82.670122 L211.133333,247 L205,247 C202.790861,247 201,245.209139 201,243 L201,76 C201,73.790861 202.790861,72 205,72 L209.336816,72 C209.120846,71.5453723 209,71.0367986 209,70.5 L209,69.5 C209,67.5670034 210.567003,66 212.5,66 C214.432997,66 216,67.5670034 216,69.5 L216,70.5 C216,71.0367986 215.879154,71.5453723 215.663184,72 L267.336816,72 C267.120846,71.5453723 267,71.0367986 267,70.5 L267,69.5 C267,67.5670034 268.567003,66 270.5,66 C272.432997,66 274,67.5670034 274,69.5 L274,70.5 C274,71.0367986 273.879154,71.5453723 273.663184,72 Z" id="Combined-Shape-Copy-5" fill="url(#linearGradient-1)" opacity="0.3"></path>
                <g id="Group-6" transform="translate(91.000000, 126.000000)">
                    <rect id="Rectangle-Copy-50" fill="url(#linearGradient-2)" x="24.96" y="0" width="157.323636" height="153.75" rx="4"></rect>
                    <path d="M55.4327273,20.25 L152.567273,20.25 C154.776412,20.25 156.567273,22.040861 156.567273,24.25 L156.567273,170 C156.567273,172.209139 154.776412,174 152.567273,174 L55.4327273,174 C53.2235883,174 51.4327273,172.209139 51.4327273,170 L51.4327273,24.25 C51.4327273,22.040861 53.2235883,20.25 55.4327273,20.25 Z M67.5345455,30 C65.3254065,30 63.5345455,31.790861 63.5345455,34 L63.5345455,40.25 C63.5345455,42.459139 65.3254065,44.25 67.5345455,44.25 L73.9054545,44.25 C76.1145935,44.25 77.9054545,42.459139 77.9054545,40.25 L77.9054545,34 C77.9054545,31.790861 76.1145935,30 73.9054545,30 L67.5345455,30 Z M89.4690909,30 C87.2599519,30 85.4690909,31.790861 85.4690909,34 L85.4690909,40.25 C85.4690909,42.459139 87.2599519,44.25 89.4690909,44.25 L95.84,44.25 C98.049139,44.25 99.84,42.459139 99.84,40.25 L99.84,34 C99.84,31.790861 98.049139,30 95.84,30 L89.4690909,30 Z M111.403636,30 C109.194497,30 107.403636,31.790861 107.403636,34 L107.403636,40.25 C107.403636,42.459139 109.194497,44.25 111.403636,44.25 L117.774545,44.25 C119.983684,44.25 121.774545,42.459139 121.774545,40.25 L121.774545,34 C121.774545,31.790861 119.983684,30 117.774545,30 L111.403636,30 Z M133.338182,30 C131.129043,30 129.338182,31.790861 129.338182,34 L129.338182,40.25 C129.338182,42.459139 131.129043,44.25 133.338182,44.25 L139.709091,44.25 C141.91823,44.25 143.709091,42.459139 143.709091,40.25 L143.709091,34 C143.709091,31.790861 141.91823,30 139.709091,30 L133.338182,30 Z M67.5345455,71.25 C65.3254065,71.25 63.5345455,73.040861 63.5345455,75.25 L63.5345455,81.5 C63.5345455,83.709139 65.3254065,85.5 67.5345455,85.5 L73.9054545,85.5 C76.1145935,85.5 77.9054545,83.709139 77.9054545,81.5 L77.9054545,75.25 C77.9054545,73.040861 76.1145935,71.25 73.9054545,71.25 L67.5345455,71.25 Z M89.4690909,71.25 C87.2599519,71.25 85.4690909,73.040861 85.4690909,75.25 L85.4690909,81.5 C85.4690909,83.709139 87.2599519,85.5 89.4690909,85.5 L95.84,85.5 C98.049139,85.5 99.84,83.709139 99.84,81.5 L99.84,75.25 C99.84,73.040861 98.049139,71.25 95.84,71.25 L89.4690909,71.25 Z M111.403636,71.25 C109.194497,71.25 107.403636,73.040861 107.403636,75.25 L107.403636,81.5 C107.403636,83.709139 109.194497,85.5 111.403636,85.5 L117.774545,85.5 C119.983684,85.5 121.774545,83.709139 121.774545,81.5 L121.774545,75.25 C121.774545,73.040861 119.983684,71.25 117.774545,71.25 L111.403636,71.25 Z M133.338182,71.25 C131.129043,71.25 129.338182,73.040861 129.338182,75.25 L129.338182,81.5 C129.338182,83.709139 131.129043,85.5 133.338182,85.5 L139.709091,85.5 C141.91823,85.5 143.709091,83.709139 143.709091,81.5 L143.709091,75.25 C143.709091,73.040861 141.91823,71.25 139.709091,71.25 L133.338182,71.25 Z M67.5345455,50.25 C65.3254065,50.25 63.5345455,52.040861 63.5345455,54.25 L63.5345455,60.5 C63.5345455,62.709139 65.3254065,64.5 67.5345455,64.5 L73.9054545,64.5 C76.1145935,64.5 77.9054545,62.709139 77.9054545,60.5 L77.9054545,54.25 C77.9054545,52.040861 76.1145935,50.25 73.9054545,50.25 L67.5345455,50.25 Z M89.4690909,50.25 C87.2599519,50.25 85.4690909,52.040861 85.4690909,54.25 L85.4690909,60.5 C85.4690909,62.709139 87.2599519,64.5 89.4690909,64.5 L95.84,64.5 C98.049139,64.5 99.84,62.709139 99.84,60.5 L99.84,54.25 C99.84,52.040861 98.049139,50.25 95.84,50.25 L89.4690909,50.25 Z M111.403636,50.25 C109.194497,50.25 107.403636,52.040861 107.403636,54.25 L107.403636,60.5 C107.403636,62.709139 109.194497,64.5 111.403636,64.5 L117.774545,64.5 C119.983684,64.5 121.774545,62.709139 121.774545,60.5 L121.774545,54.25 C121.774545,52.040861 119.983684,50.25 117.774545,50.25 L111.403636,50.25 Z M133.338182,50.25 C131.129043,50.25 129.338182,52.040861 129.338182,54.25 L129.338182,60.5 C129.338182,62.709139 131.129043,64.5 133.338182,64.5 L139.709091,64.5 C141.91823,64.5 143.709091,62.709139 143.709091,60.5 L143.709091,54.25 C143.709091,52.040861 141.91823,50.25 139.709091,50.25 L133.338182,50.25 Z M67.5345455,91.5 C65.3254065,91.5 63.5345455,93.290861 63.5345455,95.5 L63.5345455,101.75 C63.5345455,103.959139 65.3254065,105.75 67.5345455,105.75 L73.9054545,105.75 C76.1145935,105.75 77.9054545,103.959139 77.9054545,101.75 L77.9054545,95.5 C77.9054545,93.290861 76.1145935,91.5 73.9054545,91.5 L67.5345455,91.5 Z M89.4690909,91.5 C87.2599519,91.5 85.4690909,93.290861 85.4690909,95.5 L85.4690909,101.75 C85.4690909,103.959139 87.2599519,105.75 89.4690909,105.75 L95.84,105.75 C98.049139,105.75 99.84,103.959139 99.84,101.75 L99.84,95.5 C99.84,93.290861 98.049139,91.5 95.84,91.5 L89.4690909,91.5 Z M111.403636,91.5 C109.194497,91.5 107.403636,93.290861 107.403636,95.5 L107.403636,101.75 C107.403636,103.959139 109.194497,105.75 111.403636,105.75 L117.774545,105.75 C119.983684,105.75 121.774545,103.959139 121.774545,101.75 L121.774545,95.5 C121.774545,93.290861 119.983684,91.5 117.774545,91.5 L111.403636,91.5 Z M133.338182,91.5 C131.129043,91.5 129.338182,93.290861 129.338182,95.5 L129.338182,101.75 C129.338182,103.959139 131.129043,105.75 133.338182,105.75 L139.709091,105.75 C141.91823,105.75 143.709091,103.959139 143.709091,101.75 L143.709091,95.5 C143.709091,93.290861 141.91823,91.5 139.709091,91.5 L133.338182,91.5 Z" id="Combined-Shape" fill="url(#linearGradient-1)"></path>
                    <rect id="Rectangle-Copy-52" fill="url(#linearGradient-1)" x="0" y="30" width="36.3054545" height="108" rx="4"></rect>
                    <rect id="Rectangle-Copy-53" fill="url(#linearGradient-1)" x="171.694545" y="31.5" width="36.3054545" height="108" rx="4"></rect>
                </g>
                <g id="Group-20-Copy-2" transform="translate(0.000000, 204.000000)">
                    <polygon id="Rectangle-Copy-12" fill="url(#linearGradient-1)" points="0 21.0034996 87.1578947 1.35891298e-13 87.1578947 153 0 153"></polygon>
                    <path d="M87.1578947,101.251617 L123.267627,101.251617 C124.648338,101.251617 125.767627,100.132329 125.767627,98.7516171 L125.767627,98.4524329 C125.767627,97.071721 124.648338,95.9524329 123.267627,95.9524329 L87.1578947,95.9524329 L87.1578947,83.2343909 L123.267627,83.2343909 C124.648338,83.2343909 125.767627,82.1151028 125.767627,80.7343909 L125.767627,80.4352067 C125.767627,79.0544948 124.648338,77.9352067 123.267627,77.9352067 L87.1578947,77.9352067 L87.1578947,42.9605911 L144,61.0288938 L144,134.157635 L87.1578947,134.157635 L87.1578947,101.251617 Z" id="Combined-Shape" fill="url(#linearGradient-3)"></path>
                    <path d="M30.5421053,31.6551724 L90.7210526,31.6551724 C92.1017645,31.6551724 93.2210526,32.7744605 93.2210526,34.1551724 L93.2210526,34.4470705 C93.2210526,35.8277824 92.1017645,36.9470705 90.7210526,36.9470705 L30.5421053,36.9470705 C29.1613934,36.9470705 28.0421053,35.8277824 28.0421053,34.4470705 L28.0421053,34.1551724 C28.0421053,32.7744605 29.1613934,31.6551724 30.5421053,31.6551724 Z M30.5421053,46.4724872 L90.7210526,46.4724872 C92.1017645,46.4724872 93.2210526,47.5917753 93.2210526,48.9724872 L93.2210526,49.2643853 C93.2210526,50.6450972 92.1017645,51.7643853 90.7210526,51.7643853 L30.5421053,51.7643853 C29.1613934,51.7643853 28.0421053,50.6450972 28.0421053,49.2643853 L28.0421053,48.9724872 C28.0421053,47.5917753 29.1613934,46.4724872 30.5421053,46.4724872 Z M30.5421053,61.2898019 L90.7210526,61.2898019 C92.1017645,61.2898019 93.2210526,62.40909 93.2210526,63.7898019 L93.2210526,64.0817 C93.2210526,65.4624119 92.1017645,66.5817 90.7210526,66.5817 L30.5421053,66.5817 C29.1613934,66.5817 28.0421053,65.4624119 28.0421053,64.0817 L28.0421053,63.7898019 C28.0421053,62.40909 29.1613934,61.2898019 30.5421053,61.2898019 Z M30.5421053,76.1071167 L90.7210526,76.1071167 C92.1017645,76.1071167 93.2210526,77.2264048 93.2210526,78.6071167 L93.2210526,78.8990148 C93.2210526,80.2797267 92.1017645,81.3990148 90.7210526,81.3990148 L30.5421053,81.3990148 C29.1613934,81.3990148 28.0421053,80.2797267 28.0421053,78.8990148 L28.0421053,78.6071167 C28.0421053,77.2264048 29.1613934,76.1071167 30.5421053,76.1071167 Z" id="Combined-Shape" fill="#2791D9"></path>
                </g>
                <g id="Group-15" transform="translate(308.000000, 30.000000)" fill="url(#linearGradient-3)">
                    <rect id="Rectangle-Copy-8" x="12" y="0" width="85" height="123" rx="4"></rect>
                    <path d="M10,13 L99,13 C101.209139,13 103,14.790861 103,17 L103,132 C103,134.209139 101.209139,136 99,136 L10,136 C7.790861,136 6,134.209139 6,132 L6,17 C6,14.790861 7.790861,13 10,13 Z M18.4593023,21.3863636 C16.2501633,21.3863636 14.4593023,23.1772246 14.4593023,25.3863636 L14.4593023,44.7818182 C14.4593023,46.9909572 16.2501633,48.7818182 18.4593023,48.7818182 L20.0465116,48.7818182 C22.2556506,48.7818182 24.0465116,46.9909572 24.0465116,44.7818182 L24.0465116,25.3863636 C24.0465116,23.1772246 22.2556506,21.3863636 20.0465116,21.3863636 L18.4593023,21.3863636 Z M35.9418605,21.3863636 C33.7327215,21.3863636 31.9418605,23.1772246 31.9418605,25.3863636 L31.9418605,44.7818182 C31.9418605,46.9909572 33.7327215,48.7818182 35.9418605,48.7818182 L37.5290698,48.7818182 C39.7382088,48.7818182 41.5290698,46.9909572 41.5290698,44.7818182 L41.5290698,25.3863636 C41.5290698,23.1772246 39.7382088,21.3863636 37.5290698,21.3863636 L35.9418605,21.3863636 Z M53.4244186,21.3863636 C51.2152796,21.3863636 49.4244186,23.1772246 49.4244186,25.3863636 L49.4244186,44.7818182 C49.4244186,46.9909572 51.2152796,48.7818182 53.4244186,48.7818182 L55.0116279,48.7818182 C57.2207669,48.7818182 59.0116279,46.9909572 59.0116279,44.7818182 L59.0116279,25.3863636 C59.0116279,23.1772246 57.2207669,21.3863636 55.0116279,21.3863636 L53.4244186,21.3863636 Z M70.9069767,21.3863636 C68.6978377,21.3863636 66.9069767,23.1772246 66.9069767,25.3863636 L66.9069767,44.7818182 C66.9069767,46.9909572 68.6978377,48.7818182 70.9069767,48.7818182 L72.494186,48.7818182 C74.703325,48.7818182 76.494186,46.9909572 76.494186,44.7818182 L76.494186,25.3863636 C76.494186,23.1772246 74.703325,21.3863636 72.494186,21.3863636 L70.9069767,21.3863636 Z M88.3895349,21.3863636 C86.1803959,21.3863636 84.3895349,23.1772246 84.3895349,25.3863636 L84.3895349,44.7818182 C84.3895349,46.9909572 86.1803959,48.7818182 88.3895349,48.7818182 L89.9767442,48.7818182 C92.1858832,48.7818182 93.9767442,46.9909572 93.9767442,44.7818182 L93.9767442,25.3863636 C93.9767442,23.1772246 92.1858832,21.3863636 89.9767442,21.3863636 L88.3895349,21.3863636 Z" id="Combined-Shape"></path>
                    <path d="M4,51 L104,51 C106.209139,51 108,52.790861 108,55 L108,170 C108,172.209139 106.209139,174 104,174 L4,174 C1.790861,174 2.705415e-16,172.209139 0,170 L0,55 C-2.705415e-16,52.790861 1.790861,51 4,51 Z M9.65445026,56.5909091 C7.44531126,56.5909091 5.65445026,58.3817701 5.65445026,60.5909091 L5.65445026,134.218182 C5.65445026,136.427321 7.44531126,138.218182 9.65445026,138.218182 L30.4921466,138.218182 C32.7012856,138.218182 34.4921466,136.427321 34.4921466,134.218182 L34.4921466,60.5909091 C34.4921466,58.3817701 32.7012856,56.5909091 30.4921466,56.5909091 L9.65445026,56.5909091 Z M43.5811518,56.5909091 C41.3720128,56.5909091 39.5811518,58.3817701 39.5811518,60.5909091 L39.5811518,134.218182 C39.5811518,136.427321 41.3720128,138.218182 43.5811518,138.218182 L64.4188482,138.218182 C66.6279872,138.218182 68.4188482,136.427321 68.4188482,134.218182 L68.4188482,60.5909091 C68.4188482,58.3817701 66.6279872,56.5909091 64.4188482,56.5909091 L43.5811518,56.5909091 Z M78.0732984,56.5909091 C75.8641594,56.5909091 74.0732984,58.3817701 74.0732984,60.5909091 L74.0732984,134.218182 C74.0732984,136.427321 75.8641594,138.218182 78.0732984,138.218182 L98.9109948,138.218182 C101.120134,138.218182 102.910995,136.427321 102.910995,134.218182 L102.910995,60.5909091 C102.910995,58.3817701 101.120134,56.5909091 98.9109948,56.5909091 L78.0732984,56.5909091 Z" id="Combined-Shape"></path>
                </g>
                <g id="Group-16" transform="translate(362.000000, 135.000000)">
                    <rect id="Rectangle" fill="url(#linearGradient-3)" opacity="0.6" x="13" y="0" width="73" height="213" rx="4"></rect>
                    <g id="Building-1" transform="translate(0.000000, 9.000000)" fill="url(#linearGradient-1)">
                        <path d="M85.36,180 L85.36,11.2692683 C85.36,10.1978359 84.4914324,9.32926829 83.42,9.32926829 C82.3485676,9.32926829 81.48,10.1978359 81.48,11.2692683 L81.48,180 L73.72,180 L73.72,11.2692683 C73.72,10.1978359 72.8514324,9.32926829 71.78,9.32926829 C70.7085676,9.32926829 69.84,10.1978359 69.84,11.2692683 L69.84,180 L62.08,180 L62.08,11.2692683 C62.08,10.1978359 61.2114324,9.32926829 60.14,9.32926829 C59.0685676,9.32926829 58.2,10.1978359 58.2,11.2692683 L58.2,180 L51.0866667,180 L51.0866667,11.2692683 C51.0866667,10.1978359 50.2180991,9.32926829 49.1466667,9.32926829 C48.0752343,9.32926829 47.2066667,10.1978359 47.2066667,11.2692683 L47.2066667,180 L39.4466667,180 L39.4466667,11.2692683 C39.4466667,10.1978359 38.5780991,9.32926829 37.5066667,9.32926829 C36.4352343,9.32926829 35.5666667,10.1978359 35.5666667,11.2692683 L35.5666667,180 L27.8066667,180 L27.8066667,11.2692683 C27.8066667,10.1978359 26.9380991,9.32926829 25.8666667,9.32926829 C24.7952343,9.32926829 23.9266667,10.1978359 23.9266667,11.2692683 L23.9266667,180 L16.1666667,180 L16.1666667,11.2692683 C16.1666667,10.1978359 15.2980991,9.32926829 14.2266667,9.32926829 C13.1552343,9.32926829 12.2866667,10.1978359 12.2866667,11.2692683 L12.2866667,180 L4,180 C1.790861,180 2.705415e-16,178.209139 0,176 L0,4 C-2.705415e-16,1.790861 1.790861,4.05812251e-16 4,0 L93,0 C95.209139,-4.05812251e-16 97,1.790861 97,4 L97,176 C97,178.209139 95.209139,180 93,180 L85.36,180 Z" id="Combined-Shape"></path>
                    </g>
                </g>
                <g id="Group-16-Copy" opacity="0.3" transform="translate(679.000000, 117.000000)">
                    <rect id="Rectangle" fill="url(#linearGradient-3)" opacity="0.6" x="7" y="0" width="38" height="109" rx="4"></rect>
                    <g id="Building-1" transform="translate(0.000000, 5.000000)" fill="url(#linearGradient-1)">
                        <path d="M44,92 L44,5.76829268 C44,5.21600793 43.5522847,4.76829268 43,4.76829268 C42.4477153,4.76829268 42,5.21600793 42,5.76829268 L42,92 L38,92 L38,5.76829268 C38,5.21600793 37.5522847,4.76829268 37,4.76829268 C36.4477153,4.76829268 36,5.21600793 36,5.76829268 L36,92 L32,92 L32,5.76829268 C32,5.21600793 31.5522847,4.76829268 31,4.76829268 C30.4477153,4.76829268 30,5.21600793 30,5.76829268 L30,92 L26.3333333,92 L26.3333333,5.76829268 C26.3333333,5.21600793 25.8856181,4.76829268 25.3333333,4.76829268 C24.7810486,4.76829268 24.3333333,5.21600793 24.3333333,5.76829268 L24.3333333,92 L20.3333333,92 L20.3333333,5.76829268 C20.3333333,5.21600793 19.8856181,4.76829268 19.3333333,4.76829268 C18.7810486,4.76829268 18.3333333,5.21600793 18.3333333,5.76829268 L18.3333333,92 L14.3333333,92 L14.3333333,5.76829268 C14.3333333,5.21600793 13.8856181,4.76829268 13.3333333,4.76829268 C12.7810486,4.76829268 12.3333333,5.21600793 12.3333333,5.76829268 L12.3333333,92 L8.33333333,92 L8.33333333,5.76829268 C8.33333333,5.21600793 7.88561808,4.76829268 7.33333333,4.76829268 C6.78104858,4.76829268 6.33333333,5.21600793 6.33333333,5.76829268 L6.33333333,92 L4,92 C1.790861,92 2.705415e-16,90.209139 0,88 L0,4 C-2.705415e-16,1.790861 1.790861,4.05812251e-16 4,0 L46,0 C48.209139,-4.33003142e-15 50,1.790861 50,4 L50,88 C50,90.209139 48.209139,92 46,92 L44,92 Z" id="Combined-Shape"></path>
                    </g>
                </g>
                <g id="Group-18-Copy-3" opacity="0.7" transform="translate(468.000000, 82.000000)">
                    <path d="M10,26 L82,26 C84.209139,26 86,27.790861 86,30 L86,141 C86,143.209139 84.209139,145 82,145 L10,145 C7.790861,145 6,143.209139 6,141 L6,30 C6,27.790861 7.790861,26 10,26 Z M22.0930233,32.5078125 C19.8838843,32.5078125 18.0930233,34.2986735 18.0930233,36.5078125 L18.0930233,48.03125 C18.0930233,50.240389 19.8838843,52.03125 22.0930233,52.03125 L24.845881,52.03125 C27.05502,52.03125 28.845881,50.240389 28.845881,48.03125 L28.845881,36.5078125 C28.845881,34.2986735 27.05502,32.5078125 24.845881,32.5078125 L22.0930233,32.5078125 Z M37.7335436,32.5078125 C35.5244046,32.5078125 33.7335436,34.2986735 33.7335436,36.5078125 L33.7335436,48.03125 C33.7335436,50.240389 35.5244046,52.03125 37.7335436,52.03125 L40.4864013,52.03125 C42.6955403,52.03125 44.4864013,50.240389 44.4864013,48.03125 L44.4864013,36.5078125 C44.4864013,34.2986735 42.6955403,32.5078125 40.4864013,32.5078125 L37.7335436,32.5078125 Z M53.3740639,32.5078125 C51.1649249,32.5078125 49.3740639,34.2986735 49.3740639,36.5078125 L49.3740639,48.03125 C49.3740639,50.240389 51.1649249,52.03125 53.3740639,52.03125 L56.1269216,52.03125 C58.3360606,52.03125 60.1269216,50.240389 60.1269216,48.03125 L60.1269216,36.5078125 C60.1269216,34.2986735 58.3360606,32.5078125 56.1269216,32.5078125 L53.3740639,32.5078125 Z M69.0145842,32.5078125 C66.8054452,32.5078125 65.0145842,34.2986735 65.0145842,36.5078125 L65.0145842,48.03125 C65.0145842,50.240389 66.8054452,52.03125 69.0145842,52.03125 L71.7674419,52.03125 C73.9765809,52.03125 75.7674419,50.240389 75.7674419,48.03125 L75.7674419,36.5078125 C75.7674419,34.2986735 73.9765809,32.5078125 71.7674419,32.5078125 L69.0145842,32.5078125 Z" id="Combined-Shape" fill="url(#linearGradient-3)"></path>
                    <path d="M4,44 L11.957807,44 C14.166946,44 15.957807,45.790861 15.957807,48 L15.957807,54.4589694 C15.957807,56.6681084 17.748668,58.4589694 19.957807,58.4589694 L72.0062979,58.4589694 C74.2154369,58.4589694 76.0062979,56.6681084 76.0062979,54.4589694 L76.0062979,48 C76.0062979,45.790861 77.7971589,44 80.0062979,44 L87,44 C89.209139,44 91,45.790861 91,48 L91,156 C91,158.209139 89.209139,160 87,160 L4,160 C1.790861,160 2.705415e-16,158.209139 0,156 L0,48 C-2.705415e-16,45.790861 1.790861,44 4,44 Z M9.57142857,66.272 C7.36228957,66.272 5.57142857,68.062861 5.57142857,70.272 L5.57142857,86.4 C5.57142857,88.609139 7.36228957,90.4 9.57142857,90.4 L25.7142857,90.4 C27.9234247,90.4 29.7142857,88.609139 29.7142857,86.4 L29.7142857,70.272 C29.7142857,68.062861 27.9234247,66.272 25.7142857,66.272 L9.57142857,66.272 Z M9.57142857,93.184 C7.36228957,93.184 5.57142857,94.974861 5.57142857,97.184 L5.57142857,113.312 C5.57142857,115.521139 7.36228957,117.312 9.57142857,117.312 L25.7142857,117.312 C27.9234247,117.312 29.7142857,115.521139 29.7142857,113.312 L29.7142857,97.184 C29.7142857,94.974861 27.9234247,93.184 25.7142857,93.184 L9.57142857,93.184 Z M37.4285714,66.272 C35.2194324,66.272 33.4285714,68.062861 33.4285714,70.272 L33.4285714,86.4 C33.4285714,88.609139 35.2194324,90.4 37.4285714,90.4 L53.5714286,90.4 C55.7805676,90.4 57.5714286,88.609139 57.5714286,86.4 L57.5714286,70.272 C57.5714286,68.062861 55.7805676,66.272 53.5714286,66.272 L37.4285714,66.272 Z M37.4285714,93.184 C35.2194324,93.184 33.4285714,94.974861 33.4285714,97.184 L33.4285714,113.312 C33.4285714,115.521139 35.2194324,117.312 37.4285714,117.312 L53.5714286,117.312 C55.7805676,117.312 57.5714286,115.521139 57.5714286,113.312 L57.5714286,97.184 C57.5714286,94.974861 55.7805676,93.184 53.5714286,93.184 L37.4285714,93.184 Z M65.2857143,66.272 C63.0765753,66.272 61.2857143,68.062861 61.2857143,70.272 L61.2857143,86.4 C61.2857143,88.609139 63.0765753,90.4 65.2857143,90.4 L81.4285714,90.4 C83.6377104,90.4 85.4285714,88.609139 85.4285714,86.4 L85.4285714,70.272 C85.4285714,68.062861 83.6377104,66.272 81.4285714,66.272 L65.2857143,66.272 Z M65.2857143,93.184 C63.0765753,93.184 61.2857143,94.974861 61.2857143,97.184 L61.2857143,113.312 C61.2857143,115.521139 63.0765753,117.312 65.2857143,117.312 L81.4285714,117.312 C83.6377104,117.312 85.4285714,115.521139 85.4285714,113.312 L85.4285714,97.184 C85.4285714,94.974861 83.6377104,93.184 81.4285714,93.184 L65.2857143,93.184 Z M9.57142857,120.096 C7.36228957,120.096 5.57142857,121.886861 5.57142857,124.096 L5.57142857,140.224 C5.57142857,142.433139 7.36228957,144.224 9.57142857,144.224 L25.7142857,144.224 C27.9234247,144.224 29.7142857,142.433139 29.7142857,140.224 L29.7142857,124.096 C29.7142857,121.886861 27.9234247,120.096 25.7142857,120.096 L9.57142857,120.096 Z M37.4285714,120.096 C35.2194324,120.096 33.4285714,121.886861 33.4285714,124.096 L33.4285714,140.224 C33.4285714,142.433139 35.2194324,144.224 37.4285714,144.224 L53.5714286,144.224 C55.7805676,144.224 57.5714286,142.433139 57.5714286,140.224 L57.5714286,124.096 C57.5714286,121.886861 55.7805676,120.096 53.5714286,120.096 L37.4285714,120.096 Z M65.2857143,120.096 C63.0765753,120.096 61.2857143,121.886861 61.2857143,124.096 L61.2857143,140.224 C61.2857143,142.433139 63.0765753,144.224 65.2857143,144.224 L81.4285714,144.224 C83.6377104,144.224 85.4285714,142.433139 85.4285714,140.224 L85.4285714,124.096 C85.4285714,121.886861 83.6377104,120.096 81.4285714,120.096 L65.2857143,120.096 Z" id="Combined-Shape" fill="url(#linearGradient-4)"></path>
                    <rect id="Rectangle" fill="#2791D9" x="11" y="17" width="69" height="7" rx="3.5"></rect>
                    <rect id="Rectangle" fill="#17CCD5" opacity="0.55359468" x="25" y="0" width="42" height="14" rx="4"></rect>
                </g>
                <path d="M870.925987,166.033333 L873,166.033333 C875.209139,166.033333 877,167.824194 877,170.033333 L877,337 C877,339.209139 875.209139,341 873,341 L869.2,341 L869.2,176.401728 C869.2,175.683757 868.61797,175.101728 867.9,175.101728 C867.18203,175.101728 866.6,175.683757 866.6,176.401728 L866.6,341 L861.4,341 L861.4,176.401728 C861.4,175.683757 860.81797,175.101728 860.1,175.101728 C859.38203,175.101728 858.8,175.683757 858.8,176.401728 L858.8,341 L853.6,341 L853.6,176.401728 C853.6,175.683757 853.01797,175.101728 852.3,175.101728 C851.58203,175.101728 851,175.683757 851,176.401728 L851,341 L846.233333,341 L846.233333,176.401728 C846.233333,175.683757 845.651304,175.101728 844.933333,175.101728 C844.215363,175.101728 843.633333,175.683757 843.633333,176.401728 L843.633333,341 L838.433333,341 L838.433333,176.401728 C838.433333,175.683757 837.851304,175.101728 837.133333,175.101728 C836.415363,175.101728 835.833333,175.683757 835.833333,176.401728 L835.833333,341 L830.633333,341 L830.633333,176.401728 C830.633333,175.683757 830.051304,175.101728 829.333333,175.101728 C828.615363,175.101728 828.033333,175.683757 828.033333,176.401728 L828.033333,341 L822.833333,341 L822.833333,176.401728 C822.833333,175.683757 822.251304,175.101728 821.533333,175.101728 C820.815363,175.101728 820.233333,175.683757 820.233333,176.401728 L820.233333,341 L816,341 C813.790861,341 812,339.209139 812,337 L812,170.033333 C812,167.824194 813.790861,166.033333 816,166.033333 L818.829827,166.033333 C818.811706,165.908334 818.802326,165.780505 818.802326,165.650484 L818.802326,162.645349 C818.802326,161.184363 819.986689,160 821.447674,160 C822.90866,160 824.093023,161.184363 824.093023,162.645349 L824.093023,165.650484 C824.093023,165.780505 824.083643,165.908334 824.065522,166.033333 L865.690292,166.033333 C865.672171,165.908334 865.662791,165.780505 865.662791,165.650484 L865.662791,162.645349 C865.662791,161.184363 866.847154,160 868.30814,160 C869.769125,160 870.953488,161.184363 870.953488,162.645349 L870.953488,165.650484 C870.953488,165.780505 870.944108,165.908334 870.925987,166.033333 Z" id="Combined-Shape" fill="url(#linearGradient-1)"></path>
                <g id="Group-19" transform="translate(1023.000000, 127.000000)" fill="url(#linearGradient-5)">
                    <path d="M4,0 L193,-4.4408921e-16 C195.209139,-8.49901461e-16 197,1.790861 197,4 L197,107 C197,109.209139 195.209139,111 193,111 L4,111 C1.790861,111 2.705415e-16,109.209139 0,107 L-4.4408921e-16,4 C-7.1463071e-16,1.790861 1.790861,4.05812251e-16 4,0 Z M18.1726619,10.5328467 C15.9635229,10.5328467 14.1726619,12.3237077 14.1726619,14.5328467 L14.1726619,18.6861314 C14.1726619,20.8952704 15.9635229,22.6861314 18.1726619,22.6861314 L178.827338,22.6861314 C181.036477,22.6861314 182.827338,20.8952704 182.827338,18.6861314 L182.827338,14.5328467 C182.827338,12.3237077 181.036477,10.5328467 178.827338,10.5328467 L18.1726619,10.5328467 Z" id="Combined-Shape"></path>
                    <path d="M4,32 L193,32 C195.209139,32 197,33.790861 197,36 L197,139 C197,141.209139 195.209139,143 193,143 L4,143 C1.790861,143 2.705415e-16,141.209139 0,139 L-4.4408921e-16,36 C-7.1463071e-16,33.790861 1.790861,32 4,32 Z M18.1726619,42.5328467 C15.9635229,42.5328467 14.1726619,44.3237077 14.1726619,46.5328467 L14.1726619,50.6861314 C14.1726619,52.8952704 15.9635229,54.6861314 18.1726619,54.6861314 L178.827338,54.6861314 C181.036477,54.6861314 182.827338,52.8952704 182.827338,50.6861314 L182.827338,46.5328467 C182.827338,44.3237077 181.036477,42.5328467 178.827338,42.5328467 L18.1726619,42.5328467 Z" id="Combined-Shape-Copy-23"></path>
                    <path d="M4,62 L193,62 C195.209139,62 197,63.790861 197,66 L197,169 C197,171.209139 195.209139,173 193,173 L4,173 C1.790861,173 2.705415e-16,171.209139 0,169 L-4.4408921e-16,66 C-7.1463071e-16,63.790861 1.790861,62 4,62 Z M18.1726619,72.5328467 C15.9635229,72.5328467 14.1726619,74.3237077 14.1726619,76.5328467 L14.1726619,80.6861314 C14.1726619,82.8952704 15.9635229,84.6861314 18.1726619,84.6861314 L178.827338,84.6861314 C181.036477,84.6861314 182.827338,82.8952704 182.827338,80.6861314 L182.827338,76.5328467 C182.827338,74.3237077 181.036477,72.5328467 178.827338,72.5328467 L18.1726619,72.5328467 Z" id="Combined-Shape-Copy-24"></path>
                </g>
                <g id="Group-17-Copy" transform="translate(892.000000, 36.000000)">
                    <polygon id="Rectangle-Copy-27" fill="url(#linearGradient-2)" points="19.7669026 17.7115668 19.7669026 0 93.1944939 0 93.1944939 18.2154952 110.69281 18.2154952 110.69281 192.780488 5.30718954 192.780488 5.30718954 17.7115668"></polygon>
                    <path d="M0,36.8993902 L116,36.8993902 L116,247 L0,247 L0,36.8993902 Z M18.4052288,42.9237805 C16.1960898,42.9237805 14.4052288,44.7146415 14.4052288,46.9237805 L14.4052288,83.3536585 C14.4052288,85.5627975 16.1960898,87.3536585 18.4052288,87.3536585 L25.5686275,87.3536585 C27.7777665,87.3536585 29.5686275,85.5627975 29.5686275,83.3536585 L29.5686275,46.9237805 C29.5686275,44.7146415 27.7777665,42.9237805 25.5686275,42.9237805 L18.4052288,42.9237805 Z M36.6013072,42.9237805 C34.3921682,42.9237805 32.6013072,44.7146415 32.6013072,46.9237805 L32.6013072,83.3536585 C32.6013072,85.5627975 34.3921682,87.3536585 36.6013072,87.3536585 L43.7647059,87.3536585 C45.9738449,87.3536585 47.7647059,85.5627975 47.7647059,83.3536585 L47.7647059,46.9237805 C47.7647059,44.7146415 45.9738449,42.9237805 43.7647059,42.9237805 L36.6013072,42.9237805 Z M54.7973856,42.9237805 C52.5882466,42.9237805 50.7973856,44.7146415 50.7973856,46.9237805 L50.7973856,83.3536585 C50.7973856,85.5627975 52.5882466,87.3536585 54.7973856,87.3536585 L61.9607843,87.3536585 C64.1699233,87.3536585 65.9607843,85.5627975 65.9607843,83.3536585 L65.9607843,46.9237805 C65.9607843,44.7146415 64.1699233,42.9237805 61.9607843,42.9237805 L54.7973856,42.9237805 Z M72.9934641,42.9237805 C70.7843251,42.9237805 68.9934641,44.7146415 68.9934641,46.9237805 L68.9934641,83.3536585 C68.9934641,85.5627975 70.7843251,87.3536585 72.9934641,87.3536585 L80.1568627,87.3536585 C82.3660017,87.3536585 84.1568627,85.5627975 84.1568627,83.3536585 L84.1568627,46.9237805 C84.1568627,44.7146415 82.3660017,42.9237805 80.1568627,42.9237805 L72.9934641,42.9237805 Z M91.1895425,42.9237805 C88.9804035,42.9237805 87.1895425,44.7146415 87.1895425,46.9237805 L87.1895425,83.3536585 C87.1895425,85.5627975 88.9804035,87.3536585 91.1895425,87.3536585 L98.3529412,87.3536585 C100.56208,87.3536585 102.352941,85.5627975 102.352941,83.3536585 L102.352941,46.9237805 C102.352941,44.7146415 100.56208,42.9237805 98.3529412,42.9237805 L91.1895425,42.9237805 Z M18.4052288,92.625 C16.1960898,92.625 14.4052288,94.415861 14.4052288,96.625 L14.4052288,133.054878 C14.4052288,135.264017 16.1960898,137.054878 18.4052288,137.054878 L25.5686275,137.054878 C27.7777665,137.054878 29.5686275,135.264017 29.5686275,133.054878 L29.5686275,96.625 C29.5686275,94.415861 27.7777665,92.625 25.5686275,92.625 L18.4052288,92.625 Z M36.6013072,92.625 C34.3921682,92.625 32.6013072,94.415861 32.6013072,96.625 L32.6013072,133.054878 C32.6013072,135.264017 34.3921682,137.054878 36.6013072,137.054878 L43.7647059,137.054878 C45.9738449,137.054878 47.7647059,135.264017 47.7647059,133.054878 L47.7647059,96.625 C47.7647059,94.415861 45.9738449,92.625 43.7647059,92.625 L36.6013072,92.625 Z M54.7973856,92.625 C52.5882466,92.625 50.7973856,94.415861 50.7973856,96.625 L50.7973856,133.054878 C50.7973856,135.264017 52.5882466,137.054878 54.7973856,137.054878 L61.9607843,137.054878 C64.1699233,137.054878 65.9607843,135.264017 65.9607843,133.054878 L65.9607843,96.625 C65.9607843,94.415861 64.1699233,92.625 61.9607843,92.625 L54.7973856,92.625 Z M72.9934641,92.625 C70.7843251,92.625 68.9934641,94.415861 68.9934641,96.625 L68.9934641,133.054878 C68.9934641,135.264017 70.7843251,137.054878 72.9934641,137.054878 L80.1568627,137.054878 C82.3660017,137.054878 84.1568627,135.264017 84.1568627,133.054878 L84.1568627,96.625 C84.1568627,94.415861 82.3660017,92.625 80.1568627,92.625 L72.9934641,92.625 Z M91.1895425,92.625 C88.9804035,92.625 87.1895425,94.415861 87.1895425,96.625 L87.1895425,133.054878 C87.1895425,135.264017 88.9804035,137.054878 91.1895425,137.054878 L98.3529412,137.054878 C100.56208,137.054878 102.352941,135.264017 102.352941,133.054878 L102.352941,96.625 C102.352941,94.415861 100.56208,92.625 98.3529412,92.625 L91.1895425,92.625 Z M18.4052288,142.32622 C16.1960898,142.32622 14.4052288,144.117081 14.4052288,146.32622 L14.4052288,182.756098 C14.4052288,184.965237 16.1960898,186.756098 18.4052288,186.756098 L25.5686275,186.756098 C27.7777665,186.756098 29.5686275,184.965237 29.5686275,182.756098 L29.5686275,146.32622 C29.5686275,144.117081 27.7777665,142.32622 25.5686275,142.32622 L18.4052288,142.32622 Z M36.6013072,142.32622 C34.3921682,142.32622 32.6013072,144.117081 32.6013072,146.32622 L32.6013072,182.756098 C32.6013072,184.965237 34.3921682,186.756098 36.6013072,186.756098 L43.7647059,186.756098 C45.9738449,186.756098 47.7647059,184.965237 47.7647059,182.756098 L47.7647059,146.32622 C47.7647059,144.117081 45.9738449,142.32622 43.7647059,142.32622 L36.6013072,142.32622 Z M54.7973856,142.32622 C52.5882466,142.32622 50.7973856,144.117081 50.7973856,146.32622 L50.7973856,182.756098 C50.7973856,184.965237 52.5882466,186.756098 54.7973856,186.756098 L61.9607843,186.756098 C64.1699233,186.756098 65.9607843,184.965237 65.9607843,182.756098 L65.9607843,146.32622 C65.9607843,144.117081 64.1699233,142.32622 61.9607843,142.32622 L54.7973856,142.32622 Z M72.9934641,142.32622 C70.7843251,142.32622 68.9934641,144.117081 68.9934641,146.32622 L68.9934641,182.756098 C68.9934641,184.965237 70.7843251,186.756098 72.9934641,186.756098 L80.1568627,186.756098 C82.3660017,186.756098 84.1568627,184.965237 84.1568627,182.756098 L84.1568627,146.32622 C84.1568627,144.117081 82.3660017,142.32622 80.1568627,142.32622 L72.9934641,142.32622 Z M91.1895425,142.32622 C88.9804035,142.32622 87.1895425,144.117081 87.1895425,146.32622 L87.1895425,182.756098 C87.1895425,184.965237 88.9804035,186.756098 91.1895425,186.756098 L98.3529412,186.756098 C100.56208,186.756098 102.352941,184.965237 102.352941,182.756098 L102.352941,146.32622 C102.352941,144.117081 100.56208,142.32622 98.3529412,142.32622 L91.1895425,142.32622 Z" id="Combined-Shape" fill="url(#linearGradient-6)"></path>
                    <rect id="Rectangle" fill="#17CCD5" x="10.6143791" y="21.8384146" width="95.5294118" height="1.50609756"></rect>
                </g>
                <g id="Group-15-Copy" transform="translate(1171.000000, 214.000000)" fill="url(#linearGradient-3)">
                    <rect id="Rectangle-Copy-8" x="12" y="0" width="85" height="123" rx="4"></rect>
                    <path d="M10,13 L99,13 C101.209139,13 103,14.790861 103,17 L103,132 C103,134.209139 101.209139,136 99,136 L10,136 C7.790861,136 6,134.209139 6,132 L6,17 C6,14.790861 7.790861,13 10,13 Z M18.4593023,21.3863636 C16.2501633,21.3863636 14.4593023,23.1772246 14.4593023,25.3863636 L14.4593023,44.7818182 C14.4593023,46.9909572 16.2501633,48.7818182 18.4593023,48.7818182 L20.0465116,48.7818182 C22.2556506,48.7818182 24.0465116,46.9909572 24.0465116,44.7818182 L24.0465116,25.3863636 C24.0465116,23.1772246 22.2556506,21.3863636 20.0465116,21.3863636 L18.4593023,21.3863636 Z M35.9418605,21.3863636 C33.7327215,21.3863636 31.9418605,23.1772246 31.9418605,25.3863636 L31.9418605,44.7818182 C31.9418605,46.9909572 33.7327215,48.7818182 35.9418605,48.7818182 L37.5290698,48.7818182 C39.7382088,48.7818182 41.5290698,46.9909572 41.5290698,44.7818182 L41.5290698,25.3863636 C41.5290698,23.1772246 39.7382088,21.3863636 37.5290698,21.3863636 L35.9418605,21.3863636 Z M53.4244186,21.3863636 C51.2152796,21.3863636 49.4244186,23.1772246 49.4244186,25.3863636 L49.4244186,44.7818182 C49.4244186,46.9909572 51.2152796,48.7818182 53.4244186,48.7818182 L55.0116279,48.7818182 C57.2207669,48.7818182 59.0116279,46.9909572 59.0116279,44.7818182 L59.0116279,25.3863636 C59.0116279,23.1772246 57.2207669,21.3863636 55.0116279,21.3863636 L53.4244186,21.3863636 Z M70.9069767,21.3863636 C68.6978377,21.3863636 66.9069767,23.1772246 66.9069767,25.3863636 L66.9069767,44.7818182 C66.9069767,46.9909572 68.6978377,48.7818182 70.9069767,48.7818182 L72.494186,48.7818182 C74.703325,48.7818182 76.494186,46.9909572 76.494186,44.7818182 L76.494186,25.3863636 C76.494186,23.1772246 74.703325,21.3863636 72.494186,21.3863636 L70.9069767,21.3863636 Z M88.3895349,21.3863636 C86.1803959,21.3863636 84.3895349,23.1772246 84.3895349,25.3863636 L84.3895349,44.7818182 C84.3895349,46.9909572 86.1803959,48.7818182 88.3895349,48.7818182 L89.9767442,48.7818182 C92.1858832,48.7818182 93.9767442,46.9909572 93.9767442,44.7818182 L93.9767442,25.3863636 C93.9767442,23.1772246 92.1858832,21.3863636 89.9767442,21.3863636 L88.3895349,21.3863636 Z" id="Combined-Shape"></path>
                    <path d="M4,51 L104,51 C106.209139,51 108,52.790861 108,55 L108,170 C108,172.209139 106.209139,174 104,174 L4,174 C1.790861,174 2.705415e-16,172.209139 0,170 L0,55 C-2.705415e-16,52.790861 1.790861,51 4,51 Z M9.65445026,56.5909091 C7.44531126,56.5909091 5.65445026,58.3817701 5.65445026,60.5909091 L5.65445026,134.218182 C5.65445026,136.427321 7.44531126,138.218182 9.65445026,138.218182 L30.4921466,138.218182 C32.7012856,138.218182 34.4921466,136.427321 34.4921466,134.218182 L34.4921466,60.5909091 C34.4921466,58.3817701 32.7012856,56.5909091 30.4921466,56.5909091 L9.65445026,56.5909091 Z M43.5811518,56.5909091 C41.3720128,56.5909091 39.5811518,58.3817701 39.5811518,60.5909091 L39.5811518,134.218182 C39.5811518,136.427321 41.3720128,138.218182 43.5811518,138.218182 L64.4188482,138.218182 C66.6279872,138.218182 68.4188482,136.427321 68.4188482,134.218182 L68.4188482,60.5909091 C68.4188482,58.3817701 66.6279872,56.5909091 64.4188482,56.5909091 L43.5811518,56.5909091 Z M78.0732984,56.5909091 C75.8641594,56.5909091 74.0732984,58.3817701 74.0732984,60.5909091 L74.0732984,134.218182 C74.0732984,136.427321 75.8641594,138.218182 78.0732984,138.218182 L98.9109948,138.218182 C101.120134,138.218182 102.910995,136.427321 102.910995,134.218182 L102.910995,60.5909091 C102.910995,58.3817701 101.120134,56.5909091 98.9109948,56.5909091 L78.0732984,56.5909091 Z" id="Combined-Shape"></path>
                </g>
                <path d="M1099,0 C1101.20914,4.05812251e-16 1103,1.790861 1103,4 L1103,201 C1103,203.209139 1101.20914,205 1099,205 L1027,205 C1024.79086,205 1023,203.209139 1023,201 L1023,4 C1023,1.790861 1024.79086,-4.05812251e-16 1027,0 L1099,0 Z M1037.66667,8 C1035.64162,8 1034,9.64162258 1034,11.6666667 C1034,13.6917107 1035.64162,15.3333333 1037.66667,15.3333333 L1045.09524,15.3333333 C1047.12028,15.3333333 1048.7619,13.6917107 1048.7619,11.6666667 C1048.7619,9.64162258 1047.12028,8 1045.09524,8 L1037.66667,8 Z M1061.28571,8 C1059.26067,8 1057.61905,9.64162258 1057.61905,11.6666667 C1057.61905,13.6917107 1059.26067,15.3333333 1061.28571,15.3333333 L1068.71429,15.3333333 C1070.73933,15.3333333 1072.38095,13.6917107 1072.38095,11.6666667 C1072.38095,9.64162258 1070.73933,8 1068.71429,8 L1061.28571,8 Z M1084.90476,8 C1082.87972,8 1081.2381,9.64162258 1081.2381,11.6666667 C1081.2381,13.6917107 1082.87972,15.3333333 1084.90476,15.3333333 L1092.33333,15.3333333 C1094.35838,15.3333333 1096,13.6917107 1096,11.6666667 C1096,9.64162258 1094.35838,8 1092.33333,8 L1084.90476,8 Z M1037.66667,21.8518519 C1035.64162,21.8518519 1034,23.4934744 1034,25.5185185 C1034,27.5435626 1035.64162,29.1851852 1037.66667,29.1851852 L1045.09524,29.1851852 C1047.12028,29.1851852 1048.7619,27.5435626 1048.7619,25.5185185 C1048.7619,23.4934744 1047.12028,21.8518519 1045.09524,21.8518519 L1037.66667,21.8518519 Z M1061.28571,21.8518519 C1059.26067,21.8518519 1057.61905,23.4934744 1057.61905,25.5185185 C1057.61905,27.5435626 1059.26067,29.1851852 1061.28571,29.1851852 L1068.71429,29.1851852 C1070.73933,29.1851852 1072.38095,27.5435626 1072.38095,25.5185185 C1072.38095,23.4934744 1070.73933,21.8518519 1068.71429,21.8518519 L1061.28571,21.8518519 Z M1084.90476,21.8518519 C1082.87972,21.8518519 1081.2381,23.4934744 1081.2381,25.5185185 C1081.2381,27.5435626 1082.87972,29.1851852 1084.90476,29.1851852 L1092.33333,29.1851852 C1094.35838,29.1851852 1096,27.5435626 1096,25.5185185 C1096,23.4934744 1094.35838,21.8518519 1092.33333,21.8518519 L1084.90476,21.8518519 Z M1037.66667,35.7037037 C1035.64162,35.7037037 1034,37.3453263 1034,39.3703704 C1034,41.3954145 1035.64162,43.037037 1037.66667,43.037037 L1045.09524,43.037037 C1047.12028,43.037037 1048.7619,41.3954145 1048.7619,39.3703704 C1048.7619,37.3453263 1047.12028,35.7037037 1045.09524,35.7037037 L1037.66667,35.7037037 Z M1061.28571,35.7037037 C1059.26067,35.7037037 1057.61905,37.3453263 1057.61905,39.3703704 C1057.61905,41.3954145 1059.26067,43.037037 1061.28571,43.037037 L1068.71429,43.037037 C1070.73933,43.037037 1072.38095,41.3954145 1072.38095,39.3703704 C1072.38095,37.3453263 1070.73933,35.7037037 1068.71429,35.7037037 L1061.28571,35.7037037 Z M1084.90476,35.7037037 C1082.87972,35.7037037 1081.2381,37.3453263 1081.2381,39.3703704 C1081.2381,41.3954145 1082.87972,43.037037 1084.90476,43.037037 L1092.33333,43.037037 C1094.35838,43.037037 1096,41.3954145 1096,39.3703704 C1096,37.3453263 1094.35838,35.7037037 1092.33333,35.7037037 L1084.90476,35.7037037 Z M1037.66667,49.5555556 C1035.64162,49.5555556 1034,51.1971781 1034,53.2222222 C1034,55.2472663 1035.64162,56.8888889 1037.66667,56.8888889 L1045.09524,56.8888889 C1047.12028,56.8888889 1048.7619,55.2472663 1048.7619,53.2222222 C1048.7619,51.1971781 1047.12028,49.5555556 1045.09524,49.5555556 L1037.66667,49.5555556 Z M1061.28571,49.5555556 C1059.26067,49.5555556 1057.61905,51.1971781 1057.61905,53.2222222 C1057.61905,55.2472663 1059.26067,56.8888889 1061.28571,56.8888889 L1068.71429,56.8888889 C1070.73933,56.8888889 1072.38095,55.2472663 1072.38095,53.2222222 C1072.38095,51.1971781 1070.73933,49.5555556 1068.71429,49.5555556 L1061.28571,49.5555556 Z M1084.90476,49.5555556 C1082.87972,49.5555556 1081.2381,51.1971781 1081.2381,53.2222222 C1081.2381,55.2472663 1082.87972,56.8888889 1084.90476,56.8888889 L1092.33333,56.8888889 C1094.35838,56.8888889 1096,55.2472663 1096,53.2222222 C1096,51.1971781 1094.35838,49.5555556 1092.33333,49.5555556 L1084.90476,49.5555556 Z M1037.66667,63.4074074 C1035.64162,63.4074074 1034,65.04903 1034,67.0740741 C1034,69.0991182 1035.64162,70.7407407 1037.66667,70.7407407 L1045.09524,70.7407407 C1047.12028,70.7407407 1048.7619,69.0991182 1048.7619,67.0740741 C1048.7619,65.04903 1047.12028,63.4074074 1045.09524,63.4074074 L1037.66667,63.4074074 Z M1061.28571,63.4074074 C1059.26067,63.4074074 1057.61905,65.04903 1057.61905,67.0740741 C1057.61905,69.0991182 1059.26067,70.7407407 1061.28571,70.7407407 L1068.71429,70.7407407 C1070.73933,70.7407407 1072.38095,69.0991182 1072.38095,67.0740741 C1072.38095,65.04903 1070.73933,63.4074074 1068.71429,63.4074074 L1061.28571,63.4074074 Z M1084.90476,63.4074074 C1082.87972,63.4074074 1081.2381,65.04903 1081.2381,67.0740741 C1081.2381,69.0991182 1082.87972,70.7407407 1084.90476,70.7407407 L1092.33333,70.7407407 C1094.35838,70.7407407 1096,69.0991182 1096,67.0740741 C1096,65.04903 1094.35838,63.4074074 1092.33333,63.4074074 L1084.90476,63.4074074 Z M1037.66667,77.2592593 C1035.64162,77.2592593 1034,78.9008818 1034,80.9259259 C1034,82.95097 1035.64162,84.5925926 1037.66667,84.5925926 L1045.09524,84.5925926 C1047.12028,84.5925926 1048.7619,82.95097 1048.7619,80.9259259 C1048.7619,78.9008818 1047.12028,77.2592593 1045.09524,77.2592593 L1037.66667,77.2592593 Z M1061.28571,77.2592593 C1059.26067,77.2592593 1057.61905,78.9008818 1057.61905,80.9259259 C1057.61905,82.95097 1059.26067,84.5925926 1061.28571,84.5925926 L1068.71429,84.5925926 C1070.73933,84.5925926 1072.38095,82.95097 1072.38095,80.9259259 C1072.38095,78.9008818 1070.73933,77.2592593 1068.71429,77.2592593 L1061.28571,77.2592593 Z M1084.90476,77.2592593 C1082.87972,77.2592593 1081.2381,78.9008818 1081.2381,80.9259259 C1081.2381,82.95097 1082.87972,84.5925926 1084.90476,84.5925926 L1092.33333,84.5925926 C1094.35838,84.5925926 1096,82.95097 1096,80.9259259 C1096,78.9008818 1094.35838,77.2592593 1092.33333,77.2592593 L1084.90476,77.2592593 Z M1037.66667,91.1111111 C1035.64162,91.1111111 1034,92.7527337 1034,94.7777778 C1034,96.8028219 1035.64162,98.4444444 1037.66667,98.4444444 L1045.09524,98.4444444 C1047.12028,98.4444444 1048.7619,96.8028219 1048.7619,94.7777778 C1048.7619,92.7527337 1047.12028,91.1111111 1045.09524,91.1111111 L1037.66667,91.1111111 Z M1061.28571,91.1111111 C1059.26067,91.1111111 1057.61905,92.7527337 1057.61905,94.7777778 C1057.61905,96.8028219 1059.26067,98.4444444 1061.28571,98.4444444 L1068.71429,98.4444444 C1070.73933,98.4444444 1072.38095,96.8028219 1072.38095,94.7777778 C1072.38095,92.7527337 1070.73933,91.1111111 1068.71429,91.1111111 L1061.28571,91.1111111 Z M1084.90476,91.1111111 C1082.87972,91.1111111 1081.2381,92.7527337 1081.2381,94.7777778 C1081.2381,96.8028219 1082.87972,98.4444444 1084.90476,98.4444444 L1092.33333,98.4444444 C1094.35838,98.4444444 1096,96.8028219 1096,94.7777778 C1096,92.7527337 1094.35838,91.1111111 1092.33333,91.1111111 L1084.90476,91.1111111 Z M1037.66667,104.962963 C1035.64162,104.962963 1034,106.604586 1034,108.62963 C1034,110.654674 1035.64162,112.296296 1037.66667,112.296296 L1045.09524,112.296296 C1047.12028,112.296296 1048.7619,110.654674 1048.7619,108.62963 C1048.7619,106.604586 1047.12028,104.962963 1045.09524,104.962963 L1037.66667,104.962963 Z M1061.28571,104.962963 C1059.26067,104.962963 1057.61905,106.604586 1057.61905,108.62963 C1057.61905,110.654674 1059.26067,112.296296 1061.28571,112.296296 L1068.71429,112.296296 C1070.73933,112.296296 1072.38095,110.654674 1072.38095,108.62963 C1072.38095,106.604586 1070.73933,104.962963 1068.71429,104.962963 L1061.28571,104.962963 Z M1084.90476,104.962963 C1082.87972,104.962963 1081.2381,106.604586 1081.2381,108.62963 C1081.2381,110.654674 1082.87972,112.296296 1084.90476,112.296296 L1092.33333,112.296296 C1094.35838,112.296296 1096,110.654674 1096,108.62963 C1096,106.604586 1094.35838,104.962963 1092.33333,104.962963 L1084.90476,104.962963 Z M1037.66667,118.814815 C1035.64162,118.814815 1034,120.456437 1034,122.481481 C1034,124.506526 1035.64162,126.148148 1037.66667,126.148148 L1045.09524,126.148148 C1047.12028,126.148148 1048.7619,124.506526 1048.7619,122.481481 C1048.7619,120.456437 1047.12028,118.814815 1045.09524,118.814815 L1037.66667,118.814815 Z M1061.28571,118.814815 C1059.26067,118.814815 1057.61905,120.456437 1057.61905,122.481481 C1057.61905,124.506526 1059.26067,126.148148 1061.28571,126.148148 L1068.71429,126.148148 C1070.73933,126.148148 1072.38095,124.506526 1072.38095,122.481481 C1072.38095,120.456437 1070.73933,118.814815 1068.71429,118.814815 L1061.28571,118.814815 Z M1084.90476,118.814815 C1082.87972,118.814815 1081.2381,120.456437 1081.2381,122.481481 C1081.2381,124.506526 1082.87972,126.148148 1084.90476,126.148148 L1092.33333,126.148148 C1094.35838,126.148148 1096,124.506526 1096,122.481481 C1096,120.456437 1094.35838,118.814815 1092.33333,118.814815 L1084.90476,118.814815 Z M1037.66667,132.666667 C1035.64162,132.666667 1034,134.308289 1034,136.333333 C1034,138.358377 1035.64162,140 1037.66667,140 L1045.09524,140 C1047.12028,140 1048.7619,138.358377 1048.7619,136.333333 C1048.7619,134.308289 1047.12028,132.666667 1045.09524,132.666667 L1037.66667,132.666667 Z M1061.28571,132.666667 C1059.26067,132.666667 1057.61905,134.308289 1057.61905,136.333333 C1057.61905,138.358377 1059.26067,140 1061.28571,140 L1068.71429,140 C1070.73933,140 1072.38095,138.358377 1072.38095,136.333333 C1072.38095,134.308289 1070.73933,132.666667 1068.71429,132.666667 L1061.28571,132.666667 Z M1084.90476,132.666667 C1082.87972,132.666667 1081.2381,134.308289 1081.2381,136.333333 C1081.2381,138.358377 1082.87972,140 1084.90476,140 L1092.33333,140 C1094.35838,140 1096,138.358377 1096,136.333333 C1096,134.308289 1094.35838,132.666667 1092.33333,132.666667 L1084.90476,132.666667 Z" id="Combined-Shape-Copy-27" fill="url(#linearGradient-3)" opacity="0.5"></path>
                <g id="Group-6-Copy-3" opacity="0.7" transform="translate(754.000000, 66.000000)">
                    <rect id="Rectangle-Copy-50" fill="url(#linearGradient-2)" x="15" y="0" width="93" height="90" rx="4"></rect>
                    <path d="M35,12 L89,12 C91.209139,12 93,13.790861 93,16 L93,98 C93,100.209139 91.209139,102 89,102 L35,102 C32.790861,102 31,100.209139 31,98 L31,16 C31,13.790861 32.790861,12 35,12 Z M42.1366906,17.7073171 C39.9275516,17.7073171 38.1366906,19.4981781 38.1366906,21.7073171 L38.1366906,22.0487805 C38.1366906,24.2579195 39.9275516,26.0487805 42.1366906,26.0487805 L42.6115108,26.0487805 C44.8206498,26.0487805 46.6115108,24.2579195 46.6115108,22.0487805 L46.6115108,21.7073171 C46.6115108,19.4981781 44.8206498,17.7073171 42.6115108,17.7073171 L42.1366906,17.7073171 Z M55.0719424,17.7073171 C52.8628034,17.7073171 51.0719424,19.4981781 51.0719424,21.7073171 L51.0719424,22.0487805 C51.0719424,24.2579195 52.8628034,26.0487805 55.0719424,26.0487805 L55.5467626,26.0487805 C57.7559016,26.0487805 59.5467626,24.2579195 59.5467626,22.0487805 L59.5467626,21.7073171 C59.5467626,19.4981781 57.7559016,17.7073171 55.5467626,17.7073171 L55.0719424,17.7073171 Z M68.0071942,17.7073171 C65.7980552,17.7073171 64.0071942,19.4981781 64.0071942,21.7073171 L64.0071942,22.0487805 C64.0071942,24.2579195 65.7980552,26.0487805 68.0071942,26.0487805 L68.4820144,26.0487805 C70.6911534,26.0487805 72.4820144,24.2579195 72.4820144,22.0487805 L72.4820144,21.7073171 C72.4820144,19.4981781 70.6911534,17.7073171 68.4820144,17.7073171 L68.0071942,17.7073171 Z M80.942446,17.7073171 C78.733307,17.7073171 76.942446,19.4981781 76.942446,21.7073171 L76.942446,22.0487805 C76.942446,24.2579195 78.733307,26.0487805 80.942446,26.0487805 L81.4172662,26.0487805 C83.6264052,26.0487805 85.4172662,24.2579195 85.4172662,22.0487805 L85.4172662,21.7073171 C85.4172662,19.4981781 83.6264052,17.7073171 81.4172662,17.7073171 L80.942446,17.7073171 Z M42.1366906,41.8536585 C39.9275516,41.8536585 38.1366906,43.6445195 38.1366906,45.8536585 L38.1366906,46.195122 C38.1366906,48.404261 39.9275516,50.195122 42.1366906,50.195122 L42.6115108,50.195122 C44.8206498,50.195122 46.6115108,48.404261 46.6115108,46.195122 L46.6115108,45.8536585 C46.6115108,43.6445195 44.8206498,41.8536585 42.6115108,41.8536585 L42.1366906,41.8536585 Z M55.0719424,41.8536585 C52.8628034,41.8536585 51.0719424,43.6445195 51.0719424,45.8536585 L51.0719424,46.195122 C51.0719424,48.404261 52.8628034,50.195122 55.0719424,50.195122 L55.5467626,50.195122 C57.7559016,50.195122 59.5467626,48.404261 59.5467626,46.195122 L59.5467626,45.8536585 C59.5467626,43.6445195 57.7559016,41.8536585 55.5467626,41.8536585 L55.0719424,41.8536585 Z M68.0071942,41.8536585 C65.7980552,41.8536585 64.0071942,43.6445195 64.0071942,45.8536585 L64.0071942,46.195122 C64.0071942,48.404261 65.7980552,50.195122 68.0071942,50.195122 L68.4820144,50.195122 C70.6911534,50.195122 72.4820144,48.404261 72.4820144,46.195122 L72.4820144,45.8536585 C72.4820144,43.6445195 70.6911534,41.8536585 68.4820144,41.8536585 L68.0071942,41.8536585 Z M80.942446,41.8536585 C78.733307,41.8536585 76.942446,43.6445195 76.942446,45.8536585 L76.942446,46.195122 C76.942446,48.404261 78.733307,50.195122 80.942446,50.195122 L81.4172662,50.195122 C83.6264052,50.195122 85.4172662,48.404261 85.4172662,46.195122 L85.4172662,45.8536585 C85.4172662,43.6445195 83.6264052,41.8536585 81.4172662,41.8536585 L80.942446,41.8536585 Z M42.1366906,29.5609756 C39.9275516,29.5609756 38.1366906,31.3518366 38.1366906,33.5609756 L38.1366906,33.902439 C38.1366906,36.111578 39.9275516,37.902439 42.1366906,37.902439 L42.6115108,37.902439 C44.8206498,37.902439 46.6115108,36.111578 46.6115108,33.902439 L46.6115108,33.5609756 C46.6115108,31.3518366 44.8206498,29.5609756 42.6115108,29.5609756 L42.1366906,29.5609756 Z M55.0719424,29.5609756 C52.8628034,29.5609756 51.0719424,31.3518366 51.0719424,33.5609756 L51.0719424,33.902439 C51.0719424,36.111578 52.8628034,37.902439 55.0719424,37.902439 L55.5467626,37.902439 C57.7559016,37.902439 59.5467626,36.111578 59.5467626,33.902439 L59.5467626,33.5609756 C59.5467626,31.3518366 57.7559016,29.5609756 55.5467626,29.5609756 L55.0719424,29.5609756 Z M68.0071942,29.5609756 C65.7980552,29.5609756 64.0071942,31.3518366 64.0071942,33.5609756 L64.0071942,33.902439 C64.0071942,36.111578 65.7980552,37.902439 68.0071942,37.902439 L68.4820144,37.902439 C70.6911534,37.902439 72.4820144,36.111578 72.4820144,33.902439 L72.4820144,33.5609756 C72.4820144,31.3518366 70.6911534,29.5609756 68.4820144,29.5609756 L68.0071942,29.5609756 Z M80.942446,29.5609756 C78.733307,29.5609756 76.942446,31.3518366 76.942446,33.5609756 L76.942446,33.902439 C76.942446,36.111578 78.733307,37.902439 80.942446,37.902439 L81.4172662,37.902439 C83.6264052,37.902439 85.4172662,36.111578 85.4172662,33.902439 L85.4172662,33.5609756 C85.4172662,31.3518366 83.6264052,29.5609756 81.4172662,29.5609756 L80.942446,29.5609756 Z M42.1366906,53.7073171 C39.9275516,53.7073171 38.1366906,55.4981781 38.1366906,57.7073171 L38.1366906,58.0487805 C38.1366906,60.2579195 39.9275516,62.0487805 42.1366906,62.0487805 L42.6115108,62.0487805 C44.8206498,62.0487805 46.6115108,60.2579195 46.6115108,58.0487805 L46.6115108,57.7073171 C46.6115108,55.4981781 44.8206498,53.7073171 42.6115108,53.7073171 L42.1366906,53.7073171 Z M55.0719424,53.7073171 C52.8628034,53.7073171 51.0719424,55.4981781 51.0719424,57.7073171 L51.0719424,58.0487805 C51.0719424,60.2579195 52.8628034,62.0487805 55.0719424,62.0487805 L55.5467626,62.0487805 C57.7559016,62.0487805 59.5467626,60.2579195 59.5467626,58.0487805 L59.5467626,57.7073171 C59.5467626,55.4981781 57.7559016,53.7073171 55.5467626,53.7073171 L55.0719424,53.7073171 Z M68.0071942,53.7073171 C65.7980552,53.7073171 64.0071942,55.4981781 64.0071942,57.7073171 L64.0071942,58.0487805 C64.0071942,60.2579195 65.7980552,62.0487805 68.0071942,62.0487805 L68.4820144,62.0487805 C70.6911534,62.0487805 72.4820144,60.2579195 72.4820144,58.0487805 L72.4820144,57.7073171 C72.4820144,55.4981781 70.6911534,53.7073171 68.4820144,53.7073171 L68.0071942,53.7073171 Z M80.942446,53.7073171 C78.733307,53.7073171 76.942446,55.4981781 76.942446,57.7073171 L76.942446,58.0487805 C76.942446,60.2579195 78.733307,62.0487805 80.942446,62.0487805 L81.4172662,62.0487805 C83.6264052,62.0487805 85.4172662,60.2579195 85.4172662,58.0487805 L85.4172662,57.7073171 C85.4172662,55.4981781 83.6264052,53.7073171 81.4172662,53.7073171 L80.942446,53.7073171 Z" id="Combined-Shape" fill="url(#linearGradient-1)"></path>
                    <rect id="Rectangle-Copy-52" fill="url(#linearGradient-1)" x="0" y="18" width="22" height="63" rx="4"></rect>
                    <rect id="Rectangle-Copy-53" fill="url(#linearGradient-1)" x="101" y="19" width="22" height="63" rx="4"></rect>
                </g>
                <g id="Group-20-Copy-4" opacity="0.6" transform="translate(586.000000, 107.000000)">
                    <polygon id="Rectangle-Copy-12" fill="url(#linearGradient-1)" points="0 14.9315068 62.562963 0.0819702447 62.562963 108.253425 0 108.253425"></polygon>
                    <path d="M62.562963,71.6712329 L88.1631913,71.6712329 C89.1939967,71.6712329 90.0296296,70.8356 90.0296296,69.8047945 C90.0296296,68.7739891 89.1939967,67.9383562 88.1631913,67.9383562 L62.562963,67.9383562 L62.562963,58.9794521 L88.1631913,58.9794521 C89.1939967,58.9794521 90.0296296,58.1438191 90.0296296,57.1130137 C90.0296296,56.0822083 89.1939967,55.2465753 88.1631913,55.2465753 L62.562963,55.2465753 L62.562963,30.609589 L103,43.3373494 L103,94.851048 L62.562963,94.851048 L62.562963,71.6712329 Z" id="Combined-Shape" fill="url(#linearGradient-3)"></path>
                    <path d="M21.7034754,22.3972603 L64.5113394,22.3972603 C65.5421449,22.3972603 66.3777778,23.2328932 66.3777778,24.2636986 C66.3777778,25.2945041 65.5421449,26.130137 64.5113394,26.130137 L21.7034754,26.130137 C20.67267,26.130137 19.837037,25.2945041 19.837037,24.2636986 C19.837037,23.2328932 20.67267,22.3972603 21.7034754,22.3972603 Z M21.7034754,32.8493151 L64.5113394,32.8493151 C65.5421449,32.8493151 66.3777778,33.684948 66.3777778,34.7157534 C66.3777778,35.7465589 65.5421449,36.5821918 64.5113394,36.5821918 L21.7034754,36.5821918 C20.67267,36.5821918 19.837037,35.7465589 19.837037,34.7157534 C19.837037,33.684948 20.67267,32.8493151 21.7034754,32.8493151 Z M21.7034754,43.3013699 L64.5113394,43.3013699 C65.5421449,43.3013699 66.3777778,44.1370028 66.3777778,45.1678082 C66.3777778,46.1986137 65.5421449,47.0342466 64.5113394,47.0342466 L21.7034754,47.0342466 C20.67267,47.0342466 19.837037,46.1986137 19.837037,45.1678082 C19.837037,44.1370028 20.67267,43.3013699 21.7034754,43.3013699 Z M21.7034754,53.7534247 L64.5113394,53.7534247 C65.5421449,53.7534247 66.3777778,54.5890576 66.3777778,55.619863 C66.3777778,56.6506685 65.5421449,57.4863014 64.5113394,57.4863014 L21.7034754,57.4863014 C20.67267,57.4863014 19.837037,56.6506685 19.837037,55.619863 C19.837037,54.5890576 20.67267,53.7534247 21.7034754,53.7534247 Z" id="Combined-Shape" fill="#2791D9"></path>
                </g>
            </g>
        </g>
    </g>
</svg>