<?xml version="1.0" encoding="UTF-8"?>
<svg width="354px" height="398px" viewBox="0 0 354 398" version="1.1" xmlns="http://www.w3.org/2000/svg" xmlns:xlink="http://www.w3.org/1999/xlink">
    <!-- Generator: Sketch 52.5 (67469) - http://www.bohemiancoding.com/sketch -->
    <title>Group 3</title>
    <desc>Created with Sketch.</desc>
    <defs>
        <linearGradient x1="72.4240191%" y1="0%" x2="30.0427157%" y2="70.8968715%" id="linearGradient-1">
            <stop stop-color="#AFFAFD" offset="0%"></stop>
            <stop stop-color="#86D2E7" offset="100%"></stop>
        </linearGradient>
        <linearGradient x1="30.0427157%" y1="8.79811768%" x2="89.0432182%" y2="106.999483%" id="linearGradient-2">
            <stop stop-color="#17CCD5" offset="0%"></stop>
            <stop stop-color="#00C8FF" offset="100%"></stop>
        </linearGradient>
        <path d="M13.3031545,31.3562458 C14.1210564,33.5037017 15.1813373,35.7136185 16.2199084,37.0653376 C18.6695978,40.2536523 22.5615398,38.657739 21.34583,38.657739 C20.1301201,38.657739 17.7780424,41.8514685 17.0691828,42.3129746 C16.3603232,42.7744807 14.2525359,44.9367931 11.9740586,44.9367931 C9.69558125,44.9367931 3.09660978,45.5927478 5.08225189,42.3129746 C6.22364582,40.4276836 6.0931989,35.3233233 4.69091113,26.9998936 C4.1983195,26.4772508 3.84103112,26.0732427 3.62145084,25.9194909 C2.88800673,25.4059278 1.68560026,20.3802089 0.0142314358,10.8423343 C2.23541623,5.91020467 4.27613405,2.99575758 6.13638491,2.09899297 C8.9267612,0.753846059 17.8728937,-0.914042833 18.2584312,2.13044869 C18.6439687,5.17494022 20.0308107,9.91027475 20.7080617,13.7062635 C21.3853126,17.5022523 24.7017783,27.3026401 16.990241,30.5225335 C15.667959,31.0746422 14.4384218,31.3247268 13.3031545,31.3562458 Z" id="path-3"></path>
        <path d="M1.11353988,11.883598 C5.48144611,7.59314049 8.33032198,5.77624436 9.6601675,6.43290961 C11.6549358,7.41790748 15.0423265,8.56728819 18.0120586,6.63596097 C20.9817907,4.70463375 19.2278808,2.97705407 23.0060257,2.14327103 C26.7841706,1.30948799 27.3991281,0.637399017 29.6936882,2.98072536 C31.9882482,5.32405171 39.0666649,39.0199072 42.949865,43.3694203 C46.8330652,47.7189335 32.2124514,55.6275725 22.233156,55.1766037 C12.2538606,54.7256349 4.90705875,54.2131703 4.90705875,49.7752273 C4.90705875,45.3372842 8.70057762,30.7359473 4.90705875,25.6586453 C2.37804617,22.2737773 1.11353988,17.6820948 1.11353988,11.883598 Z" id="path-5"></path>
        <path d="M1.76488697,62.4073633 C1.76488697,61.1933053 4.61290874,55.3888644 9.21740277,54.3553571 C13.8218968,53.3218497 24.1083416,41.5146663 24.1083416,41.5146663 C24.1083416,41.5146663 26.0275214,34.2991654 28.2464929,30.3634376 C30.4654644,26.4277098 37.7680843,15.5119962 37.7680843,13.0456068 C37.7680843,10.5792173 34.7197514,6.66135477 35.2907355,4.48165987 C35.8617196,2.30196498 37.8663496,-0.0475506756 38.2284487,3.20098655 C38.4698481,5.36667803 39.4156991,8.37535632 41.0660017,12.2270214 C34.0391199,34.8132396 30.525679,46.1063488 30.525679,46.1063488 C30.525679,46.1063488 18.6941536,58.5694868 12.7713445,62.5052145 C6.84853536,66.4409423 1.76488697,63.6214214 1.76488697,62.4073633 Z" id="path-7"></path>
        <path d="M0.189738956,7.4788183 C0.963365768,4.19904514 8.53054208,0.955808656 10.569179,0.955808656 C11.9282704,0.955808656 13.2401092,4.22340292 14.5046956,10.7585915 C11.7373534,13.3360229 8.78862958,14.6479322 5.65852405,14.6943192 C0.963365768,14.7638999 -0.583887856,10.7585915 0.189738956,7.4788183 Z" id="path-9"></path>
        <linearGradient x1="50%" y1="0%" x2="50%" y2="100%" id="linearGradient-11">
            <stop stop-color="#335F8E" offset="0%"></stop>
            <stop stop-color="#000000" offset="100%"></stop>
        </linearGradient>
        <linearGradient x1="30.0427157%" y1="8.79811768%" x2="89.0432182%" y2="106.999483%" id="linearGradient-12">
            <stop stop-color="#AFFAFD" offset="0%"></stop>
            <stop stop-color="#86D2E7" offset="100%"></stop>
        </linearGradient>
        <filter x="-4.2%" y="-7.1%" width="108.4%" height="114.2%" filterUnits="objectBoundingBox" id="filter-13">
            <feGaussianBlur stdDeviation="1" in="SourceGraphic"></feGaussianBlur>
        </filter>
    </defs>
    <g id="Page-1" stroke="none" stroke-width="1" fill="none" fill-rule="evenodd">
        <g id="Develop-Data-Driven-Copy-2" transform="translate(-540.000000, -309.000000)">
            <g id="Group-3" transform="translate(542.000000, 311.000000)">
                <path d="M167.419157,149.063248 L324.044445,170.110402 C326.781268,170.478173 329.29804,168.557677 329.665812,165.820853 C329.695474,165.600123 329.710354,165.377658 329.710354,165.154943 L329.710354,47.3530675 C329.710354,44.6194744 327.515036,42.3925947 324.781722,42.3535768 L168.156434,40.117762 C165.395291,40.0783469 163.124991,42.2847429 163.085576,45.0458853 C163.085236,45.0696729 163.085066,45.0934626 163.085066,45.1172527 L163.085066,144.10779 C163.085066,146.61185 164.937404,148.729753 167.419157,149.063248 Z" id="Path-100-Copy" fill="#2791D9" fill-rule="nonzero" opacity="0.306291853"></path>
                <path d="M189.323251,67.5954631 L322.494853,69.8913043" id="Path-106" stroke="#FFFFFF" fill-rule="nonzero"></path>
                <path d="M224.860106,106.233343 L322.253995,113.985985" id="Path-107" stroke="#FFFFFF" fill-rule="nonzero"></path>
                <path d="M271.918445,147.293951 L323.137996,152.869565" id="Path-108" stroke="#FFFFFF" fill-rule="nonzero"></path>
                <path d="M167.020794,155.84746 L167.020794,93.633241 C167.020794,90.8718172 169.25937,88.633241 172.020794,88.633241 C172.065931,88.633241 172.111067,88.6338522 172.156187,88.6350745 L173.392002,88.668551 C176.099699,88.7418988 178.256609,90.9580276 178.256609,93.6667175 L178.256609,157.019608 L167.020794,155.84746 Z M188.011342,158.718456 L188.011342,110.677797 C188.011342,107.916373 190.249918,105.677797 193.011342,105.677797 C193.046964,105.677797 193.082585,105.678177 193.118199,105.678939 L194.354014,105.705356 C197.073175,105.763481 199.247157,107.984432 199.247157,110.704214 L199.247157,159.643427 L188.011342,158.718456 Z M279.844991,170.047785 L279.844991,123.140935 C279.844991,120.379511 282.083567,118.140935 284.844991,118.140935 C284.880613,118.140935 284.916234,118.141315 284.951848,118.142077 L286.187662,118.168494 C288.906823,118.226619 291.080805,120.44757 291.080805,123.167352 L291.080805,172.106565 L279.844991,170.047785 Z M212.281664,162.113553 L212.281664,79.2160539 C212.281664,76.4546301 214.52024,74.2160539 217.281664,74.2160539 C217.339772,74.2160539 217.397876,74.2170668 217.455949,74.2190923 L218.691763,74.2621953 C221.383717,74.3560858 223.517478,76.5655663 223.517478,79.2591569 L223.517478,163.622762 L212.281664,162.113553 Z M257.542533,166.98366 L257.542533,86.4315548 C257.542533,83.6701311 259.781109,81.4315548 262.542533,81.4315548 C262.600641,81.4315548 262.658745,81.4325678 262.716818,81.4345933 L263.952633,81.4776963 C266.644586,81.5715868 268.778348,83.7810672 268.778348,86.4746578 L268.778348,168.49287 L257.542533,166.98366 Z M235.89603,163.911023 L235.89603,135.591253 C235.89603,132.829829 238.134606,130.591253 240.89603,130.591253 C240.919972,130.591253 240.943912,130.591425 240.967851,130.591769 L242.203666,130.609522 C244.9368,130.648785 247.131845,132.87559 247.131845,135.609006 L247.131845,165.519338 L235.89603,163.911023 Z" id="Combined-Shape" fill="#17CCD5" fill-rule="nonzero"></path>
                <path d="M129.015595,385.438566 C130.161478,379.080828 153.909426,372.976141 166.111695,372.976141 C178.313964,372.976141 211.655484,364.050414 219.983925,368.717319 C228.312366,373.384224 212.770889,371.110785 193.33623,383.795989 C173.90157,396.481193 161.743858,396.481193 156.66153,394.402296 C151.579202,392.323399 127.869712,391.796305 129.015595,385.438566 Z" id="Path-118" fill="url(#linearGradient-1)" fill-rule="nonzero" opacity="0.377139137"></path>
                <path d="M184.731569,158.117202 L184.731569,111.333751 C184.731569,108.572328 186.970145,106.333751 189.731569,106.333751 C189.767191,106.333751 189.802812,106.334132 189.838426,106.334893 L191.074241,106.36131 C193.793402,106.419436 195.967384,108.640386 195.967384,111.360168 L195.967384,159.643427 L184.731569,158.117202 Z M254.26276,167.639615 L254.26276,87.0875094 C254.26276,84.3260857 256.501336,82.0875094 259.26276,82.0875094 C259.320868,82.0875094 259.378972,82.0885224 259.437045,82.0905479 L260.67286,82.1336509 C263.364813,82.2275414 265.498575,84.4370218 265.498575,87.1306124 L265.498575,169.148825 L254.26276,167.639615 Z M232.616257,164.566978 L232.616257,136.247207 C232.616257,133.485784 234.854833,131.247207 237.616257,131.247207 C237.640198,131.247207 237.664139,131.247379 237.688078,131.247723 L238.923893,131.265476 C241.657027,131.30474 243.852072,133.531544 243.852072,136.264961 L243.852072,166.175292 L232.616257,164.566978 Z" id="Combined-Shape-Copy-3" fill="#173155" fill-rule="nonzero"></path>
                <path d="M59.248522,164.809701 C85.7809223,164.809701 107.289683,143.370995 107.289683,116.925012 C107.289683,103.802932 101.994251,91.913638 93.417211,83.2643922 C84.7082524,74.4821176 72.6159633,69.0403244 59.248522,69.0403244 C53.6729883,69.0403244 48.3192937,69.9870374 43.3404139,71.7279863 C39.1369263,73.1978063 35.2005996,75.2337426 31.6234907,77.7440383" id="Oval-Copy-4" stroke="#FF0000" stroke-width="2" opacity="0.600000024" stroke-dasharray="6,6" fill-rule="nonzero" transform="translate(69.456587, 116.925012) rotate(-145.000000) translate(-69.456587, -116.925012) "></path>
                <path d="M160.236495,155.408542 L316.861783,175.400405 C319.600983,175.75004 322.104978,173.812915 322.454613,171.073715 C322.481413,170.863756 322.494853,170.652307 322.494853,170.440645 L322.494853,59.0445202 C322.494853,56.3095337 320.297378,54.0820605 317.562643,54.0449797 L160.937355,51.9212671 C158.176185,51.8838279 155.907464,54.0918479 155.870025,56.8530178 C155.869718,56.8756131 155.869565,56.8982102 155.869565,56.9208076 L155.869565,150.448782 C155.869565,152.965446 157.740084,155.089897 160.236495,155.408542 Z" id="Path-100" stroke="#588B8B" fill-rule="nonzero"></path>
                <path d="M157.344068,385.006574 C163.012488,380.631839 167.722526,380.566998 161.144684,386.919145 C158.078843,389.879793 155.827512,393.875432 154.4891,394.694855 C152.955914,395.633525 151.92947,392.979732 150.630682,391.814759 C147.827582,389.300464 143.662168,386.660121 146.159995,384.247997 C148.657823,381.835872 151.675648,389.381308 157.344068,385.006574 Z" id="Path-105-Copy" fill="#FCB9A5" fill-rule="nonzero" transform="translate(154.869745, 388.401173) rotate(53.000000) translate(-154.869745, -388.401173) "></path>
                <path d="M135.660404,383.325936 C137.055711,381.602875 139.967782,387.00769 134.061538,390.420737 C132.502623,391.321589 131.782784,388.53071 130.203121,387.540641 C127.244472,385.68628 123.234606,382.386003 125.732434,379.973879 C128.230262,377.561755 134.34589,384.949225 135.660404,383.325936 Z" id="Path-105-Copy-2" fill="#FCB9A5" fill-rule="nonzero" transform="translate(131.284316, 385.041250) rotate(53.000000) translate(-131.284316, -385.041250) "></path>
                <path d="M222.776938,190.093383 L222.776938,270.837455 C222.776938,273.177426 224.399815,275.204434 226.683106,275.716341 L316.160163,295.776829 C318.854698,296.380935 321.528775,294.686309 322.132881,291.991774 C322.213378,291.632731 322.253995,291.265899 322.253995,290.897942 L322.253995,202.45082 C322.253995,199.95372 320.41166,197.839458 317.938039,197.497833 L228.460981,185.140396 C225.725522,184.762609 223.201737,186.67388 222.82395,189.409339 C222.792645,189.636009 222.776938,189.864561 222.776938,190.093383 Z" id="Path-101" stroke="#2791D9" fill-rule="nonzero"></path>
                <g id="Group" transform="translate(75.676549, 123.351607)" fill-rule="nonzero">
                    <path d="M5.48496127,0.534518946 L60.8651893,5.93141778 C63.4266442,6.18103598 65.380228,8.33425445 65.380228,10.9078435 L65.380228,102.782166 C65.380228,105.54359 63.1416518,107.782166 60.380228,107.782166 C60.0490131,107.782166 59.7186176,107.749255 59.3939109,107.683919 L4.01368285,96.5404617 C1.67926651,96.0707369 -6.05319322e-15,94.0199149 0,91.6387091 L1.77635684e-15,5.51094463 C1.43817996e-15,2.74952088 2.23857625,0.510944627 5,0.510944627 C5.16194014,0.510944627 5.32378466,0.518812007 5.48496127,0.534518946 Z" id="Path-102" stroke="#2791D9"></path>
                    <ellipse id="Oval" fill="#86D2E7" cx="13.4470699" cy="20.3345936" rx="2.95179584" ry="3.27977316"></ellipse>
                    <ellipse id="Oval-Copy" fill="#86D2E7" cx="13.4470699" cy="38.7013233" rx="2.95179584" ry="3.27977316"></ellipse>
                    <ellipse id="Oval-Copy-2" fill="#86D2E7" cx="13.4470699" cy="57.0680529" rx="2.95179584" ry="3.27977316"></ellipse>
                    <ellipse id="Oval-Copy-3" fill="#86D2E7" cx="13.4470699" cy="77.4026465" rx="2.95179584" ry="3.27977316"></ellipse>
                    <path d="M20.9905482,21.6465028 L50.5085066,24.926276" id="Path-109" stroke-opacity="0.544270833" stroke="#86D2E7" stroke-width="5" stroke-linecap="round" stroke-linejoin="round"></path>
                    <path d="M20.3345936,40.6691871 L50.5085066,44.9328922" id="Path-109-Copy" stroke-opacity="0.544270833" stroke="#86D2E7" stroke-width="5" stroke-linecap="round" stroke-linejoin="round"></path>
                    <path d="M20.9905482,58.3799622 L50.5085066,63.2996219" id="Path-109-Copy-2" stroke-opacity="0.544270833" stroke="#86D2E7" stroke-width="5" stroke-linecap="round" stroke-linejoin="round"></path>
                    <path d="M20.9905482,78.7145558 L50.1805293,84.2901701" id="Path-109-Copy-3" stroke-opacity="0.544270833" stroke="#86D2E7" stroke-width="5" stroke-linecap="round" stroke-linejoin="round"></path>
                </g>
                <ellipse id="Oval-Copy-4" fill="url(#linearGradient-2)" fill-rule="nonzero" cx="90.9300567" cy="65.6275992" rx="37.389414" ry="40.6691871"></ellipse>
                <path d="M90.9300567,102.361059 C109.768291,102.361059 125.039698,86.2086095 125.039698,66.2835539" id="Oval" stroke="#588B8B" fill-rule="nonzero"></path>
                <g id="Group-2" transform="translate(106.830354, 47.864581) rotate(2.000000) translate(-106.830354, -47.864581) translate(89.119579, 24.250215)" fill="#FFFFFF" fill-opacity="0.500311368" fill-rule="nonzero">
                    <path d="M-6.65134614e-13,0.743308424 C0.818031887,0.68516553 1.64324187,0.655638419 2.47479212,0.655638419 C2.66385399,0.655638419 1.30442262,0.652596445 1.49281916,0.655638419 C15.5167594,0.882078111 28.4025295,9.50891087 35.0809193,22.1152999 L-1.13686838e-13,46.9369766 L-1.13686838e-13,0.743308424 Z" id="Combined-Shape-Copy"></path>
                </g>
                <g id="Path-185-+-Path-186-Mask" transform="translate(118.149338, 156.000000)">
                    <g id="Mask">
                        <path d="M18.5569286,83.1476794 C18.5265006,82.5370137 18.4965174,81.9208939 18.466979,81.29932 C26.9461715,73.908317 32.9461638,73.4253995 36.4669559,79.8505675 C41.748144,89.4883195 40.3981493,157.933257 40.2983871,164.678816 C40.2339055,169.038829 39.3324538,188.352439 37.5940318,222.619646 C37.5895249,222.708485 37.581069,222.797079 37.5686891,222.885167 C37.3380999,224.525895 35.8210975,225.669038 34.1803695,225.438449 L33.1396967,225.292195 C31.612133,225.07751 30.4963566,223.739372 30.5597502,222.198099 C31.9412505,188.612354 32.361218,169.855935 31.8196527,165.928843 C30.9856641,159.881281 26.466889,139.231267 23.2477066,126.695055 C23.0782221,126.035045 22.9121837,125.332785 22.7495912,124.588275 C21.6838521,142.76216 19.7504072,163.163769 18.9280238,169.015331 C18.0032297,175.595582 17.3350581,194.134233 16.9235088,224.631282 C16.9019295,226.230381 15.6297548,227.531419 14.0315426,227.588861 L12.488611,227.644322 C10.8467126,227.703335 9.46279126,226.430684 9.38429729,224.789601 L9.38428119,224.789602 C8.00149677,195.879573 7.8352625,177.687865 8.88557837,170.21448 C10.5141775,158.626395 1.27364181,102.053213 2.01151883,96.8029452 C2.50343685,93.3027666 3.47281701,88.0028473 4.91965931,80.9031871 L18.5569286,83.1476794 Z" id="Combined-Shape" fill="#173155" fill-rule="nonzero"></path>
                        <mask id="mask-4" fill="white">
                            <use xlink:href="#path-3"></use>
                        </mask>
                        <use fill="#FFD5C2" fill-rule="nonzero" xlink:href="#path-3"></use>
                    </g>
                </g>
                <g id="Path-181" transform="translate(116.000000, 191.000000)">
                    <mask id="mask-6" fill="white">
                        <use xlink:href="#path-5"></use>
                    </mask>
                    <use id="Mask" fill="#FF5252" fill-rule="nonzero" transform="translate(22.352190, 28.282430) rotate(2.000000) translate(-22.352190, -28.282430) " xlink:href="#path-5"></use>
                    <path d="M14.0025554,5.55291577 C20.550852,4.21526278 23.8250003,4.62203024 23.8250003,6.77321814 C23.8250003,10 27.4154901,19.9464865 29.2404905,23 C31.0654908,26.0535135 31.3450676,35.7461953 30.5511925,39.9126835 C29.7573175,44.0791717 34.854587,48.5185825 34.854587,51.7689378 C34.854587,53.9358413 32.2210944,56.0966425 26.9541092,58.2513413 C17.9363686,57.332375 11.9454822,56.4121643 8.9814499,55.4907095 C4.53540149,54.1085271 2.35843942,53.9155881 2.35843942,50.362972 C2.35843942,46.8103558 4.41362371,40.5984991 4.41362371,38.2958712 C4.41362371,35.9932432 6.468808,29.7844643 4.41362371,28 C2.35843942,26.2155357 -1.22548993,19.2903987 -1.22548993,17.0506048 C-1.22548993,14.8108108 0.303255135,7.99352052 2.35843942,6.77321814 C4.41362371,5.55291577 9.78795982,3.77229739 11,4.66260658 C11.8080268,5.25614604 12.8088786,5.55291577 14.0025554,5.55291577 Z" fill-opacity="0.687726449" fill="#E03C3C" fill-rule="nonzero" mask="url(#mask-6)"></path>
                </g>
                <path d="" id="Path-95" stroke="#979797" fill-rule="nonzero"></path>
                <g id="Path-183" transform="translate(138.000000, 139.000000)">
                    <mask id="mask-8" fill="white">
                        <use xlink:href="#path-7"></use>
                    </mask>
                    <use id="Mask" fill="#FFD5C2" fill-rule="nonzero" transform="translate(21.415444, 33.062043) rotate(2.000000) translate(-21.415444, -33.062043) " xlink:href="#path-7"></use>
                    <path d="M12.3404948,59.1081081 C16.5974392,55.1323918 19.1551649,52.7787882 20.0136719,52.0472973 C21.3014323,50.9500609 27.3522135,47.6739991 27.3522135,45.7209302 C27.3522135,43.7678614 29.1647135,38.1396396 30.2395833,36.106982 C31.3144531,34.0743243 35.1855469,25.867278 35.1855469,25.4775579 C35.1855469,25.2177445 36.7903646,22.3918919 40,17 L41.1822917,18.9431684 L31.5429688,46.7050378 L12.3404948,62.3175676 L12.3404948,59.1081081 Z" fill-opacity="0.440245697" fill="#FCB9A5" fill-rule="nonzero" mask="url(#mask-8)"></path>
                </g>
                <g id="Path-182" transform="translate(137.000000, 190.000000)">
                    <mask id="mask-10" fill="white">
                        <use xlink:href="#path-9"></use>
                    </mask>
                    <use id="Mask" fill="#FF5252" fill-rule="nonzero" xlink:href="#path-9"></use>
                    <path d="M-0.474543233,8.38336933 C1.02045114,8.58251114 2.78618016,9.16633315 4.82264382,10.1348353 C7.87733931,11.5875887 9.06265756,9.91783951 11.035005,8.83867681 C13.0073524,7.75951411 14.8403978,7.71796382 14.8403978,8.73629597 C14.8403978,9.75462811 15.4381163,10.3199338 14.4834831,11.3604744 C13.52885,12.4010149 8.90934395,15.3511195 6.46532832,14.5630496 C4.02131269,13.7749798 1.39598495,14.8150809 0.465328318,11.9457554 C-0.155109439,10.0328718 -0.468399956,8.84540974 -0.474543233,8.38336933 Z" fill-opacity="0.687726449" fill="#E03C3C" fill-rule="nonzero" mask="url(#mask-10)"></path>
                </g>
                <path d="M125.089358,163.927364 C128.309358,164.70248 137.095581,162.237036 135.424011,155.739962 C133.752441,149.242887 127.83448,152.248357 123.686995,148.857826 C119.53951,145.467294 109.781633,150.455788 106.077796,159.019735 C102.373958,167.583682 106.077796,172.831319 97.0661066,180.702774 C88.0544174,188.57423 103.75715,198.503092 95.1091326,200.079939 C86.4611153,201.656786 88.0477986,214.775878 96.1737777,214.775878 C104.299757,214.775878 102.966495,222.856826 112.338191,221.737645 C121.709887,220.618464 120.105872,226.869401 129.252724,221.737645 C138.399576,216.605888 134.504785,207.869663 133.622095,200.079939 C132.739405,192.290215 126.404062,185.433627 126.404062,179.390865 C126.404062,173.348103 121.869359,163.152248 125.089358,163.927364 Z" id="Path-103" fill="url(#linearGradient-11)" fill-rule="nonzero" transform="translate(112.472790, 185.787191) rotate(5.000000) translate(-112.472790, -185.787191) "></path>
                <path d="M72.7657505,64.9716446 L32.2169926,64.9716446" id="Path-111" stroke="#588B8B" fill-rule="nonzero"></path>
                <path d="M227.36862,195.959399 L227.36862,266.310158 C227.36862,268.637395 228.974258,270.65692 231.241605,271.181486 L312.42657,289.964187 C315.11693,290.586621 317.80248,288.910235 318.424913,286.219875 C318.510417,285.8503 318.553585,285.472196 318.553585,285.092859 L318.553585,206.633421 C318.553585,204.123938 316.693434,202.00321 314.205365,201.676085 L233.0204,191.002063 C230.282539,190.642095 227.771252,192.569758 227.411284,195.307619 C227.382872,195.523717 227.36862,195.741442 227.36862,195.959399 Z" id="Path-114" fill="url(#linearGradient-12)" fill-rule="nonzero" opacity="0.69577753"></path>
                <polyline id="Path-112" stroke="#588B8B" fill-rule="nonzero" points="106.893328 36.7655955 106.893328 11.1833648 177.610874 11.1833648"></polyline>
                <polyline id="Path-113-Copy" stroke-opacity="0.193755661" stroke="#004DB7" stroke-width="2" stroke-linecap="round" stroke-linejoin="round" fill-rule="nonzero" filter="url(#filter-13)" points="224.966442 240.767486 240.426217 256.802657 266.697712 200.572175 295.370104 250.262977 316.850056 229.945054 319.765979 235.868395"></polyline>
                <path d="M225.735816,200.134835 L291.046333,209.27904" id="Path-115" stroke="#86D2E7" fill-rule="nonzero"></path>
                <path d="M225.511773,226.545976 L242.220228,229.130637" id="Path-116" stroke="#86D2E7" fill-rule="nonzero"></path>
                <path d="M225.455283,259.79017 L273.821813,268.31758" id="Path-117" stroke="#86D2E7" fill-rule="nonzero"></path>
                <path d="M0.664540423,63.4997698 L20.8922844,63.4997698" id="Path-119" stroke="#2791D9" stroke-width="4" stroke-linecap="round" stroke-linejoin="round" fill-rule="nonzero"></path>
                <polyline id="Path-113" stroke="#2791D9" stroke-width="2" stroke-linecap="round" stroke-linejoin="round" fill-rule="nonzero" points="207.034026 227.342933 232.554761 258.296644 258.826257 202.066163 287.498649 251.756965 308.978601 231.439041 336.802864 264.200236"></polyline>
                <path d="M185,0.529205604 L232.150038,0.529205604" id="Path-119-Copy-3" stroke="#2791D9" stroke-width="4" stroke-linecap="round" stroke-linejoin="round" fill-rule="nonzero"></path>
                <path d="M0.664540423,73.4195507 L20.8922844,73.4195507" id="Path-119-Copy" stroke="#2791D9" stroke-width="4" stroke-linecap="round" stroke-linejoin="round" fill-rule="nonzero"></path>
                <path d="M185,10.5292056 L232.150038,10.5292056" id="Path-119-Copy-4" stroke="#2791D9" stroke-width="4" stroke-linecap="round" stroke-linejoin="round" fill-rule="nonzero"></path>
                <path d="M0.664540423,83.3393317 L20.8922844,83.3393317" id="Path-119-Copy-2" stroke="#2791D9" stroke-width="4" stroke-linecap="round" stroke-linejoin="round" fill-rule="nonzero"></path>
                <path d="M185,21.5292056 L232.150038,21.5292056" id="Path-119-Copy-5" stroke="#2791D9" stroke-width="4" stroke-linecap="round" stroke-linejoin="round" fill-rule="nonzero"></path>
                <circle id="Oval-Copy-4" fill="#FF5252" fill-rule="nonzero" cx="29.1512287" cy="315.151229" r="11.1512287"></circle>
                <path d="M60.4470699,296.89414 C67.8736816,296.89414 73.8941399,290.873682 73.8941399,283.44707 C73.8941399,279.762102 72.4119102,276.423328 70.0111343,273.99443 C67.5734335,271.528175 64.1887139,270 60.4470699,270 C53.0204583,270 47,276.020458 47,283.44707 C47,290.873682 53.0204583,296.89414 60.4470699,296.89414 Z" id="Oval-Copy-4" stroke="#004DB7" stroke-width="2" opacity="0.600000024" stroke-dasharray="6,6" fill-rule="nonzero"></path>
                <circle id="Oval-Copy-4" fill="#2791D9" fill-rule="nonzero" cx="62.5274102" cy="358.52741" r="8.52741021"></circle>
                <circle id="Oval-Copy-6" fill="#FF5252" fill-rule="nonzero" cx="188.667297" cy="272.909263" r="3.27977316"></circle>
                <circle id="Oval-Copy-7" fill="#FF5252" fill-rule="nonzero" cx="348.720227" cy="52.5085066" r="3.27977316"></circle>
                <path d="M335.929112,34.7977316 C342.993449,34.7977316 348.720227,29.0709542 348.720227,22.0066163 C348.720227,18.5014031 347.310301,15.3254957 345.026636,13.0150807 C342.707848,10.6691306 339.488236,9.21550095 335.929112,9.21550095 C328.864774,9.21550095 323.137996,14.9422783 323.137996,22.0066163 C323.137996,29.0709542 328.864774,34.7977316 335.929112,34.7977316 Z" id="Oval-Copy-4" stroke="#FF5252" stroke-width="2" opacity="0.600000024" stroke-dasharray="6,6" fill-rule="nonzero"></path>
                <circle id="Oval-Copy-4" fill="#173155" fill-rule="nonzero" cx="204.082231" cy="306.690926" r="8.19943289"></circle>
                <path d="M147.902802,389.502171 C147.747407,391.983723 149.154151,393.224499 152.123034,393.224499 C156.576358,393.224499 165.779536,394.106465 166.798842,393.224499 C167.818147,392.342533 168.069732,391.758242 166.798842,390.630207 C165.951581,389.878183 164.739164,389.502171 163.161591,389.502171 C163.13959,390.893552 162.133903,391.429402 160.144531,391.109724 C157.160473,390.630207 152.450378,390.393456 151.051467,389.502171 C149.652556,388.610887 148.856071,388.221963 149.254313,387.72892 C149.519808,387.400226 149.069304,387.991309 147.902802,389.502171 Z" id="Path-158" fill="#173155" fill-rule="nonzero"></path>
                <path d="M128,388.640774 C130.535029,389.446981 132.368509,389.446981 133.50044,388.640774 C135.198337,387.431463 135.031004,386.608085 135.772,387.240714 C136.512996,387.873343 137.32243,389.385401 135.772,390.580127 C134.22157,391.774854 134.470132,392.258578 132.273607,392.258578 C130.077082,392.258578 127.483211,392.413397 127.483211,390.80893 C127.483211,389.739285 127.655474,389.016566 128,388.640774 Z" id="Path-185" fill="#173155" fill-rule="nonzero"></path>
                <path d="M145.549379,246.009147 C146.74763,245.180364 148.148258,244.510648 149.751263,244 C151.354268,243.489352 153.409284,242.382958 155.916312,240.680819 C156.522015,245.378841 156.936736,248.951047 157.160473,251.397437 C158.196006,262.720156 158.639579,274.164151 158.639579,284.987938 C158.639579,299.31961 157.951839,330.685736 156.576358,379.086318 C153.948495,381.695439 152.634564,382 152.634564,380 C152.634564,378 153.377829,359.306306 154.86436,323.918919 C154.86436,310.192555 154.121094,299.708321 152.634564,292.466216 C150.404769,281.603059 148.569677,271.324406 148.569677,264.627887 C148.569677,260.163542 147.562911,253.957295 145.549379,246.009147 Z" id="Path-186" fill-opacity="0.573426178" fill="#2476AD" fill-rule="nonzero"></path>
                <path d="M140.26053,278.211242 C137.096598,287.424571 135.514631,294.992246 135.514631,300.914266 C135.514631,306.836287 134.4102,316.845484 132.201336,330.941858 C132.201336,361.876841 132.201336,377.924994 132.201336,379.086318 C132.201336,380.247641 132.201336,381.634924 132.201336,383.248167 L135.514631,381.176044 C135.514631,370.150333 135.514631,361.895828 135.514631,356.412527 C135.514631,348.187576 136.230933,333.925165 136.787528,326.515119 C136.955133,324.283757 138,317.362851 138.930306,304.662162 C139.313894,299.425368 139.757302,290.608395 140.26053,278.211242 Z" id="Path-187" fill-opacity="0.573426178" fill="#2476AD" fill-rule="nonzero"></path>
            </g>
        </g>
    </g>
</svg>