<?xml version="1.0" encoding="UTF-8"?>
<svg width="121px" height="92px" viewBox="0 0 121 92" version="1.1" xmlns="http://www.w3.org/2000/svg" xmlns:xlink="http://www.w3.org/1999/xlink">
    <!-- Generator: Sketch 52.5 (67469) - http://www.bohemiancoding.com/sketch -->
    <title>Enterprise</title>
    <desc>Created with Sketch.</desc>
    <defs>
        <linearGradient x1="-8.67236652%" y1="-5.19164241%" x2="50%" y2="100%" id="linearGradient-1">
            <stop stop-color="#4FC4EE" offset="0%"></stop>
            <stop stop-color="#2791D9" offset="100%"></stop>
        </linearGradient>
        <linearGradient x1="0%" y1="60.5140463%" x2="88.294262%" y2="91.4188922%" id="linearGradient-2">
            <stop stop-color="#4FC4EE" offset="0%"></stop>
            <stop stop-color="#2791D9" offset="100%"></stop>
        </linearGradient>
    </defs>
    <g id="Page-1" stroke="none" stroke-width="1" fill="none" fill-rule="evenodd">
        <g id="Pricing-Page" transform="translate(-1038.000000, -676.000000)" fill-rule="nonzero">
            <g id="Enterprise" transform="translate(1038.000000, 676.000000)">
                <path d="M102.599174,37.4310345 C110.10979,37.4310345 116.198347,31.2903882 116.198347,23.7155172 C116.198347,16.1406462 110.10979,10 102.599174,10 C95.0885574,10 89,16.1406462 89,23.7155172 C89,31.2903882 95.0885574,37.4310345 102.599174,37.4310345 Z" id="Oval" stroke="#17CCD5" stroke-dasharray="3,6"></path>
                <ellipse id="Oval" fill="#17CCD5" cx="31.0867769" cy="9.11206897" rx="2.08677686" ry="2.11206897"></ellipse>
                <ellipse id="Oval" fill="#17CCD5" cx="4.59090909" cy="43.6465517" rx="4.59090909" ry="4.64655172"></ellipse>
                <g id="Group-24" transform="translate(17.000000, 0.000000)">
                    <path d="M76,48.2439024 L100,48.2439024 C102.209139,48.2439024 104,50.0347634 104,52.2439024 L104,92 L76,92 L76,48.2439024 Z M87.6205962,52.7317073 C86.7255656,52.7317073 86,53.457273 86,54.3523035 C86,55.2473341 86.7255656,55.9728997 87.6205962,55.9728997 L99.3794038,55.9728997 C100.274434,55.9728997 101,55.2473341 101,54.3523035 C101,53.457273 100.274434,52.7317073 99.3794038,52.7317073 L87.6205962,52.7317073 Z M87.6205962,58.403794 C86.7255656,58.403794 86,59.1293597 86,60.0243902 C86,60.9194208 86.7255656,61.6449864 87.6205962,61.6449864 L99.3794038,61.6449864 C100.274434,61.6449864 101,60.9194208 101,60.0243902 C101,59.1293597 100.274434,58.403794 99.3794038,58.403794 L87.6205962,58.403794 Z M87.6205962,64.0758808 C86.7255656,64.0758808 86,64.8014464 86,65.696477 C86,66.5915075 86.7255656,67.3170732 87.6205962,67.3170732 L99.3794038,67.3170732 C100.274434,67.3170732 101,66.5915075 101,65.696477 C101,64.8014464 100.274434,64.0758808 99.3794038,64.0758808 L87.6205962,64.0758808 Z M28,20.195122 L28,92 L0,92 L0,24.195122 C0,21.985983 1.790861,20.195122 4,20.195122 L28,20.195122 Z M15.5,28.0487805 L5.5,28.0487805 C4.11928813,28.0487805 3,29.1680686 3,30.5487805 L3,30.8525499 C3,32.2332618 4.11928813,33.3525499 5.5,33.3525499 L15.5,33.3525499 C16.8807119,33.3525499 18,32.2332618 18,30.8525499 L18,30.5487805 C18,29.1680686 16.8807119,28.0487805 15.5,28.0487805 Z M15.5,37.3303769 L5.5,37.3303769 C4.11928813,37.3303769 3,38.4496651 3,39.8303769 L3,40.1341463 C3,41.5148582 4.11928813,42.6341463 5.5,42.6341463 L15.5,42.6341463 C16.8807119,42.6341463 18,41.5148582 18,40.1341463 L18,39.8303769 C18,38.4496651 16.8807119,37.3303769 15.5,37.3303769 Z" id="Combined-Shape" fill="url(#linearGradient-1)"></path>
                    <path d="M69,92 L69,11.597561 C69,10.7691339 68.3284271,10.097561 67.5,10.097561 L64.5,10.097561 C63.6715729,10.097561 63,10.7691339 63,11.597561 L63,92 L59,92 L59,11.597561 C59,10.7691339 58.3284271,10.097561 57.5,10.097561 L54.5,10.097561 C53.6715729,10.097561 53,10.7691339 53,11.597561 L53,92 L49,92 L49,11.597561 C49,10.7691339 48.3284271,10.097561 47.5,10.097561 L44.5,10.097561 C43.6715729,10.097561 43,10.7691339 43,11.597561 L43,92 L39,92 L39,11.597561 C39,10.7691339 38.3284271,10.097561 37.5,10.097561 L34.5,10.097561 C33.6715729,10.097561 33,10.7691339 33,11.597561 L33,92 L25,92 L25,4 C25,1.790861 26.790861,4.05812251e-16 29,0 L72,0 C74.209139,-4.05812251e-16 76,1.790861 76,4 L76,92 L69,92 Z" id="Combined-Shape" fill="url(#linearGradient-2)"></path>
                </g>
            </g>
        </g>
    </g>
</svg>