<?xml version="1.0" encoding="UTF-8"?>
<svg width="473px" height="471px" viewBox="0 0 473 471" version="1.1" xmlns="http://www.w3.org/2000/svg" xmlns:xlink="http://www.w3.org/1999/xlink">
    <!-- Generator: Sketch 52.5 (67469) - http://www.bohemiancoding.com/sketch -->
    <title>Group 4</title>
    <desc>Created with Sketch.</desc>
    <defs>
        <path d="M25.0202497,0.372093023 C26.5400161,14.0177862 26.5400161,23.2617526 25.0202497,28.1039922 C22.7406001,35.3673517 10.1054981,39.4441202 2.26427118,43.8217054 C-5.57695579,48.1992907 18.2068909,56.3664748 34.2987861,56.3664748 C50.3906814,56.3664748 76.1769518,43.7836318 76.1769518,41.5713837 C76.1769518,39.3591357 72.0100338,40.9462653 66.1115204,35.3673517 C60.213007,29.788438 63.268889,9.90471705 63.268889,8.43184884 C63.268889,7.44993669 50.5193426,4.76335142 25.0202497,0.372093023 Z" id="path-1"></path>
        <path d="M76.0391776,10.3958516 C74.7805605,17.4588929 74.151252,23.5136823 74.151252,28.5602198 C74.151252,36.130026 79.6227452,43.583655 79.6227452,53.8527132 C79.6227452,64.1217713 74.4006225,77.3703361 65.8661039,81.0525066 C57.3315853,84.7346772 45.2303119,86.2075454 38.943151,84.7346772 C32.6559901,83.2618089 16.9501786,77.3293167 10.8368215,72.9517314 C4.7234643,68.5741462 -1.35513211,34.8626229 1.68416609,28.0292508 C4.7234643,21.1958787 8.72850669,9.71576253 23.8358288,6.37363651 C38.943151,3.03151049 68.3286035,4.72356504 76.0391776,1.50522575 C81.1795603,-0.640333775 81.1795603,2.32320817 76.0391776,10.3958516 Z" id="path-3"></path>
        <path d="M0.715531538,194.223986 L172.065922,194.223986 C191.931334,174.972209 193.898735,160.305703 177.968126,150.22447 C149.157943,149.217054 110.290382,152.418549 99.571138,148.015168 C93.8101655,139.221408 138.785863,21.9241449 138.785863,16.5030092 C138.785863,11.0818736 137.12121,7.70637077 120.590101,3.71458677 C104.058993,-0.277197234 101.839053,-1.70360313 93.8101655,5.92683483 C85.781278,13.5572728 65.0213257,16.5030092 49.8698659,16.5030092 C39.7688927,16.5030092 34.1362318,12.9776178 32.9718832,5.92683483 C27.7121076,74.6405472 26.3693392,113.194982 28.9435781,121.590139 C9.45531063,130.398582 0.04596177,154.609865 0.715531538,194.223986 Z" id="path-5"></path>
        <path d="M46.3929402,4.84586009 C44.4296124,-1.55670662 29.2831284,-0.319247554 0.953488372,8.55823728 C1.23782259,21.7561184 5.40900561,34.7519711 13.4670374,47.5457954 C25.5540851,66.7365319 40.2854411,89.5659892 59.0472347,81.465214 C77.8090282,73.3644388 112.959135,53.296713 124.905438,46.0729272 C136.85174,38.8491414 161.793538,24.0426609 154.4108,17.438596 C147.028062,10.8345311 118.217897,31.344245 98.6457507,35.0698652 C79.0736047,38.7954853 61.1690788,51.271642 55.2535053,45.3799427 C49.3379319,39.4882434 49.3379319,14.4497101 46.3929402,4.84586009 Z" id="path-7"></path>
        <path d="M67.9405911,0.139534884 C41.6742613,6.02010728 25.7795729,14.1017591 20.2565257,24.3844904 C11.971955,39.8085873 0.333333333,109.856126 0.333333333,117.177318 C0.333333333,124.49851 24.6550683,116.136713 33.0239769,113.354983 C41.3928855,110.573253 67.2737892,106.824091 70.5954025,107.560525 C73.9170158,108.296959 58.4274123,84.5165675 70.5954025,65.5837811 C78.707396,52.9619234 77.8224589,31.1471747 67.9405911,0.139534884 Z" id="path-9"></path>
        <linearGradient x1="30.0427157%" y1="8.79811768%" x2="89.0432182%" y2="106.999483%" id="linearGradient-11">
            <stop stop-color="#17CCD5" offset="0%"></stop>
            <stop stop-color="#00C8FF" offset="100%"></stop>
        </linearGradient>
        <linearGradient x1="80.2161899%" y1="80.4009934%" x2="24.6658291%" y2="29.1150424%" id="linearGradient-12">
            <stop stop-color="#BBEBF5" offset="0%"></stop>
            <stop stop-color="#86D2E7" offset="100%"></stop>
        </linearGradient>
        <path d="M1.51447674,3.63209302 C-0.455116279,5.71656977 -0.455116279,7.73587209 2.03587209,10.9625581 C2.05686047,15.7269186 2.03587209,20.855814 2.03587209,21.8776163 C2.03587209,22.2377326 3.88947674,22.7458721 7.59668605,23.4020349 C11.3038953,22.6387209 13.1563953,22.1305814 13.1563953,21.8776163 L13.1563953,18.0544186 L16.7188953,18.0544186 C19.4981977,18.0544186 18.7834884,14.4665116 18.7172093,13.3629651 C18.6078488,11.5336628 18.2024419,7.24761628 17.5009884,0.50372093 C8.15563953,1.19854651 2.82680233,2.24244186 1.51447674,3.63209302" id="path-13"></path>
        <path d="M0.282299742,22.1581977 C0.282299742,35.3002326 8.19338736,46.9388372 18.0091614,48.1594767 C27.8896523,49.3900581 35.946911,39.6105814 35.946911,26.3105814 C35.946911,13.011686 27.8896523,1.35540698 18.0091614,0.283895349 C17.5193211,0.230872093 17.0339441,0.204360465 16.5541461,0.204360465 C7.42347898,0.204360465 0.282299742,9.67011628 0.282299742,22.1581977" id="path-15"></path>
        <path d="M3.22374031,0.0171388302 C2.14670543,0.45739253 1.14478682,0.881578576 0.220193798,1.28862579 C3.43472868,6.8169697 8.30844961,10.6849894 13.7786822,11.3512615 C19.0909496,11.9993235 23.8696705,9.49919662 27.1283915,5.014179 C25.3885659,3.70091614 22.053624,2.03523608 17.1246705,0.0160676533 L3.22374031,0.0171388302 Z" id="path-17"></path>
        <linearGradient x1="36.9909011%" y1="0.00315642825%" x2="36.9909011%" y2="149.719593%" id="linearGradient-19">
            <stop stop-color="#120126" offset="0%"></stop>
            <stop stop-color="#120117" offset="100%"></stop>
        </linearGradient>
        <path d="M0.857209302,1.0797463 L0.376686047,9.63844961 C1.48796512,10.2350951 2.65005814,10.6967724 3.8452907,11.0042001 L3.28965116,1.0797463 C2.74947674,0.517378436 2.34296512,0.236730092 2.07343023,0.236730092 C1.8027907,0.236730092 1.39738372,0.517378436 0.857209302,1.0797463" id="path-20"></path>
        <path d="M0.282299742,22.1581977 C0.282299742,35.3002326 8.19338736,46.9388372 18.0091614,48.1594767 C27.8896523,49.3900581 35.946911,39.6105814 35.946911,26.3105814 C35.946911,13.011686 27.8896523,1.35540698 18.0091614,0.283895349 C17.5193211,0.230872093 17.0339441,0.204360465 16.5541461,0.204360465 C7.42347898,0.204360465 0.282299742,9.67011628 0.282299742,22.1581977 Z" id="path-22"></path>
        <path d="M0.282299742,22.1581977 C0.282299742,35.3002326 8.19338736,46.9388372 18.0091614,48.1594767 C27.8896523,49.3900581 35.946911,39.6105814 35.946911,26.3105814 C35.946911,13.011686 27.8896523,1.35540698 18.0091614,0.283895349 C17.5193211,0.230872093 17.0339441,0.204360465 16.5541461,0.204360465 C7.42347898,0.204360465 0.282299742,9.67011628 0.282299742,22.1581977 Z" id="path-24"></path>
        <path d="M10.3251744,1.58183101 C7.95680233,-0.581665116 1.83703488,1.36602636 2.14412791,5.13497829 C0.223139535,5.13497829 -0.471686047,9.24834574 2.3275,10.2761426 C2.5694186,14.333924 5.34982558,18.7927969 5.34982558,20.5933488 C7.66959302,19.4641891 8.06837209,17.7562806 7.20011628,17.7857085 C4.68261628,17.8729023 3.18912791,13.4260186 5.43930233,12.2739705 C6.38819767,11.7856853 7.05982558,12.1017628 7.61215116,12.5693395 C8.99738372,14.5083116 8.96645349,18.5824419 9.51988372,21.1067023 C10.2147093,24.2783767 14.6465698,25.5655752 19.0773256,25.5655752 C21.6831977,25.5655752 23.3346512,23.5078016 22.0311628,20.0778155 C21.945,20.4211411 21.1971512,20.9911705 19.7710465,21.1928062 C17.9483721,21.4500279 12.1268605,21.1067023 11.0829651,18.6205891 C10.2677326,16.6739876 8.76651163,10.6445364 11.3768023,10.6445364 C16.818314,10.6445364 20.5873837,10.2597938 22.1990698,9.24834574 C26.1150581,6.79057054 23.366686,0.45812093 19.1833721,2.66085426 C18.9591279,1.15022171 16.5984884,0.0177922481 14.2455814,0.0177922481 C12.752093,0.0177922481 11.2619186,0.474469767 10.3251744,1.58183101" id="path-26"></path>
    </defs>
    <g id="Page-1" stroke="none" stroke-width="1" fill="none" fill-rule="evenodd">
        <g id="Track-and-Manage-Copy-2" transform="translate(-484.000000, -277.000000)">
            <g id="Group-4" transform="translate(484.000000, 277.000000)">
                <path d="M74.748062,202.51938 C107.489129,202.51938 134.031008,175.977501 134.031008,143.236434 C134.031008,126.990833 127.496429,112.271464 116.912334,101.56339 C106.165451,90.6906218 91.2435273,83.9534884 74.748062,83.9534884 C42.0069952,83.9534884 15.4651163,110.495367 15.4651163,143.236434 C15.4651163,175.977501 42.0069952,202.51938 74.748062,202.51938 Z" id="Oval" stroke="#FF5252" stroke-width="2" opacity="0.600000024" stroke-dasharray="6,6" fill-rule="nonzero"></path>
                <path d="M298.624031,72.1705426 C311.435753,72.1705426 321.821705,61.78459 321.821705,48.9728682 C321.821705,42.6158937 319.264696,36.8561406 315.123094,32.6660248 C310.917792,28.4114634 305.078778,25.7751938 298.624031,25.7751938 C285.812309,25.7751938 275.426357,36.1611464 275.426357,48.9728682 C275.426357,61.78459 285.812309,72.1705426 298.624031,72.1705426 Z" id="Oval-Copy" stroke="#86D2E7" stroke-width="2" opacity="0.600000024" stroke-dasharray="6,6" fill-rule="nonzero"></path>
                <g id="Path-169" transform="translate(123.000000, 183.000000)">
                    <mask id="mask-2" fill="white">
                        <use xlink:href="#path-1"></use>
                    </mask>
                    <use id="Mask" fill="#FFD5C2" fill-rule="nonzero" xlink:href="#path-1"></use>
                    <path d="M49.400292,8.01960824 C59.1696064,6.90106447 64.0542636,9.3870477 64.0542636,15.4775579 C64.0542636,24.6133232 25.714652,42.2319905 18.857326,44.8924531 C12,47.5529158 5,55.0405405 5,54 C5,53.3063063 2.66666667,46.8727839 -2,34.6994329 C15.1334307,33.9170686 23.700146,30.3753657 23.700146,24.0743243 C23.700146,14.6227623 28.0885451,8.84569972 28.0885451,4.38976857 C28.0885451,1.41914781 36.8462929,2.18015368 54.3617884,6.67278618 L49.400292,8.01960824 Z" fill-opacity="0.440245697" fill="#FCB9A5" fill-rule="nonzero" mask="url(#mask-2)"></path>
                </g>
                <g id="Path-168" transform="translate(128.000000, 117.000000)">
                    <mask id="mask-4" fill="white">
                        <use xlink:href="#path-3"></use>
                    </mask>
                    <use id="Mask" fill="#FFD5C2" fill-rule="nonzero" xlink:href="#path-3"></use>
                    <path d="M68,2.9494425 C48.4741388,10.1700363 37.0093402,17.328277 33.6056041,24.4241646 C28.5,35.067996 27.6414034,44.6960201 34,59.8892233 C40.3585966,75.0824264 59.0542636,83.1752924 50.9534884,86.7062635 C42.8527132,90.2372346 24.2118073,88.2259388 19.0345666,82.356238 C13.857326,76.4865373 -1.38219747e-14,28.1044601 -1.42108547e-14,20.218246 C-1.42108547e-14,12.3320319 27.4559755,2.09856262 33.6056041,2.9494425 C37.7053565,3.51669576 49.1701551,3.51669576 68,2.9494425 Z" fill-opacity="0.440245697" fill="#FCB9A5" fill-rule="nonzero" mask="url(#mask-4)"></path>
                </g>
                <path d="M150.043276,193.009603 C160.03759,187.895584 144.641648,176.0306 140.773739,164.247654 C136.90583,152.464708 137.874649,132.409747 155.523961,131.287983 C173.173273,130.16622 201.134379,131.531503 214.211579,123.444753 C227.28878,115.358003 225.563928,107.642904 225.563928,104.293448 C225.563928,100.943993 219.92327,86.9220725 207.418366,86.9220725 C194.913463,86.9220725 137.433242,73.867305 119.882098,102.51091 C102.330953,131.154514 118.287046,130.58596 110.843005,133.056342 C103.398963,135.526724 98.0164453,154.534972 107.242127,166.456956 C116.467809,178.378941 140.048961,198.123623 150.043276,193.009603 Z" id="Path-4" fill="#000000" fill-rule="nonzero"></path>
                <path d="" id="Path-5" stroke="#979797" fill-rule="nonzero"></path>
                <path d="" id="Path-7" stroke="#979797" fill-rule="nonzero"></path>
                <g id="Path-166" transform="translate(98.000000, 219.000000)">
                    <mask id="mask-6" fill="white">
                        <use xlink:href="#path-5"></use>
                    </mask>
                    <use id="Mask" fill="#2791D9" fill-rule="nonzero" xlink:href="#path-5"></use>
                    <path d="M30,52.8103558 C11.288792,103.545489 1.93318804,133.711895 1.93318804,143.309573 C1.93318804,152.907252 0.61768497,171.738348 -2.01332118,199.802862 L153,196.176044 C143,188.029334 131.333333,183.639119 118,183.0054 C98,182.05482 67.6237595,174.001269 67.6237595,166.52027 C67.6237595,159.039271 76.747519,141.515119 67.6237595,132.973002 C58.5,124.430886 76.747519,104.463618 67.6237595,94.5465536 C58.5,84.6294896 43.857326,83.8038157 43.857326,72.4064816 C43.857326,64.8082588 39.2382173,58.2762169 30,52.8103558 Z" fill-opacity="0.573426178" fill="#2476AD" fill-rule="nonzero" mask="url(#mask-6)"></path>
                </g>
                <g id="Path-167" transform="translate(83.000000, 321.000000)">
                    <mask id="mask-8" fill="white">
                        <use xlink:href="#path-7"></use>
                    </mask>
                    <use id="Mask" fill="#FFD5C2" fill-rule="nonzero" xlink:href="#path-7"></use>
                    <path d="M26.1247931,8.63215591 C34.0415977,25.7957084 38,37.5656091 38,43.9418581 C38,53.5062316 53.3994712,66.3396766 58.857326,64.5202703 C64.3151808,62.7008639 92.6870595,46.2924394 97.2634578,46.2924394 C101.839856,46.2924394 122.670941,38.8689687 127.835471,38.8689687 C131.27849,38.8689687 128.122079,44.9824802 118.366237,57.2095032 L58.857326,92.1216216 L38,88.8768581 C22.1861966,75.0944673 14.2792949,67.5894383 14.2792949,66.3617711 C14.2792949,65.1341039 8.70084543,53.5292317 -2.45605356,31.5471544 L-2.45605356,11 L26.1247931,8.63215591 Z" fill-opacity="0.440245697" fill="#FCB9A5" fill-rule="nonzero" mask="url(#mask-8)"></path>
                </g>
                <g id="Path-165" transform="translate(63.000000, 223.000000)">
                    <mask id="mask-10" fill="white">
                        <use xlink:href="#path-9"></use>
                    </mask>
                    <use id="Mask" fill="#2791D9" fill-rule="nonzero" xlink:href="#path-9"></use>
                    <path d="M65,-3.780375 C44.776262,7.72275534 34.664393,16.5851122 34.664393,22.8066955 C34.664393,32.1390704 35,54.0047032 29,62.3974367 C23,70.7901701 29.1088305,79.4670788 34.664393,89.1665349 C40.2199556,98.865991 40.3287861,110.893439 34.664393,115.662162 C30.888131,118.841311 20.6666667,121.400294 4,123.339111 C-2.33333333,116.887657 -5.5,111.739333 -5.5,107.89414 C-5.5,102.12635 -4.97400683,47.6987674 -0.487003414,39.9189189 C2.5043322,34.7323532 12.3333333,22.1084794 29,2.0472973 L65,-3.780375 Z" fill-opacity="0.573426178" fill="#2476AD" fill-rule="nonzero" mask="url(#mask-10)"></path>
                </g>
                <path d="M240.751077,225.388396 L196.278331,360.339112 C195.241172,363.486328 196.951711,366.878433 200.098927,367.915592 C200.704897,368.115289 201.338841,368.217054 201.976869,368.217054 L376.518318,368.217054 C387.002392,368.217054 396.460697,361.920286 400.505457,352.247865 L459.568241,211.008318 C460.420527,208.970206 459.459226,206.627074 457.421113,205.774787 C456.932299,205.570377 456.407745,205.465116 455.877912,205.465116 L268.29401,205.465116 C255.775113,205.465116 244.669371,213.498495 240.751077,225.388396 Z" id="Path-11" stroke="#173155" stroke-width="4" fill-rule="nonzero"></path>
                <path d="M275.266427,368.953488 L261.434109,413.365302 C294.034524,413.365302 315.087859,413.365302 324.594112,413.365302 C323.385022,405.747408 320.460319,390.974454 315.820004,369.046442 L275.266427,368.953488 Z" id="Path-12" fill="#173155" fill-rule="nonzero"></path>
                <g id="Group-2" transform="translate(451.552949, 208.179306) rotate(4.000000) translate(-451.552949, -208.179306) translate(435.552949, 192.179306)">
                    <ellipse id="Oval" fill="#FF5252" fill-rule="nonzero" cx="15.751938" cy="16.4040404" rx="15.251938" ry="15.5959596"></ellipse>
                    <polygon id="1" fill="#FFFFFF" transform="translate(13.760858, 16.547181) rotate(-4.000000) translate(-13.760858, -16.547181) " points="18.3512217 8.35571207 18.3868585 24.7460828 14.5124299 24.7379117 14.4849116 12.0814419 10.8651379 14.2317018 9.13485695 11.6822227 14.8267415 8.34827896"></polygon>
                </g>
                <path d="M265.035063,218.796707 L427.98145,222.22568 C430.742262,222.283777 432.933246,224.568955 432.875149,227.329767 C432.857509,228.167992 432.629372,228.988323 432.211722,229.715302 L426.742943,239.234485 C425.838363,240.809034 424.15122,241.769373 422.335514,241.743238 L261.058981,239.421833 C258.297843,239.382089 256.091717,237.111526 256.131461,234.350388 C256.139369,233.800979 256.237784,233.25663 256.422747,232.739231 L260.221673,222.112481 C260.945805,220.086863 262.884378,218.751449 265.035063,218.796707 Z" id="Path-13" fill="#173155" fill-rule="nonzero"></path>
                <path d="M318.882089,251.864455 L415.052983,252.160039 C417.262112,252.166828 419.04746,253.963185 419.04067,256.172314 C419.039132,256.672827 418.943671,257.168605 418.759246,257.633904 L397.420825,311.469975 C396.816174,312.995487 395.341134,313.996955 393.700162,313.996091 L296.820225,313.945088 C294.611087,313.943925 292.821169,312.152122 292.822332,309.942983 C292.82258,309.471313 292.906248,309.003405 293.069471,308.560877 L312.293069,256.442052 C313.310346,253.684023 315.942447,251.85542 318.882089,251.864455 Z" id="Path-14" stroke="#86D2E7" stroke-width="2" fill-rule="nonzero"></path>
                <path d="M290.671324,324.034955 L386.630394,324.329888 C388.839523,324.336678 390.624871,326.133034 390.618081,328.342163 C390.616375,328.897371 390.499104,329.446144 390.273731,329.953556 L381.964374,348.661566 C381.322261,350.107243 379.888499,351.038711 378.306636,351.037879 L281.371426,350.986847 C279.162287,350.985684 277.372369,349.19388 277.373532,346.984742 C277.373788,346.499557 277.462312,346.018466 277.63478,345.564969 L284.106994,328.546635 C285.142792,325.823062 287.757452,324.026 290.671324,324.034955 Z" id="Path-14-Copy" fill="#17CCD5" fill-rule="nonzero" opacity="0.483514695"></path>
                <path d="M261.343476,250.651163 C258.382826,250.651163 255.742345,252.513773 254.749127,255.302853 L224.651179,339.821667 C224.411761,340.493983 224.276565,341.198959 224.250278,341.912149 C224.107884,345.775519 227.12433,349.022833 230.9877,349.165227 L255.392181,350.064719 C258.433529,350.176815 261.19882,348.310943 262.233256,345.448723 L293.104322,260.030417 C293.380058,259.267473 293.521075,258.462405 293.521075,257.651163 C293.521075,253.78517 290.387068,250.651163 286.521075,250.651163 L261.343476,250.651163 Z" id="Rectangle" stroke="#86D2E7" stroke-width="2" fill-rule="nonzero"></path>
                <rect id="Rectangle" fill="url(#linearGradient-11)" fill-rule="nonzero" x="259.224806" y="257.015504" width="27.9844961" height="4.41860465" rx="2.20930233"></rect>
                <rect id="Rectangle-Copy" fill="url(#linearGradient-11)" fill-rule="nonzero" x="256.27907" y="268.062016" width="27.9844961" height="4.41860465" rx="2.20930233"></rect>
                <rect id="Rectangle-Copy-2" fill="url(#linearGradient-11)" fill-rule="nonzero" x="251.860465" y="279.108527" width="27.9844961" height="4.41860465" rx="2.20930233"></rect>
                <rect id="Rectangle-Copy-14" fill="url(#linearGradient-11)" fill-rule="nonzero" x="248.178295" y="290.155039" width="27.9844961" height="4.41860465" rx="2.20930233"></rect>
                <g id="Group" transform="translate(378.704559, 138.922846) rotate(-17.000000) translate(-378.704559, -138.922846) translate(339.305334, 115.725171)" fill-rule="nonzero" stroke="#86D2E7" stroke-width="3">
                    <rect id="Rectangle-Copy-4" x="1.5" y="1.51973685" width="75.7984496" height="42.6589147" rx="8"></rect>
                    <polyline id="Path-15" points="2.17722352 3.28411819 38.0938999 27.9844961 76.6131786 2.63628522"></polyline>
                </g>
                <path d="M186.953488,7.81597009e-14 L243.860465,7.37188088e-14 C248.278743,8.07556227e-14 251.860465,3.581722 251.860465,8 L251.860465,54.0669068 C251.860465,58.4851848 248.278743,62.0669068 243.860465,62.0669068 L241.422656,62.0669068 L234.715655,71.6509517 L227.996482,62.0669068 L186.953488,62.0669068 C182.53521,62.0669068 178.953488,58.4851848 178.953488,54.0669068 L178.953488,8 C178.953488,3.581722 182.53521,7.89713254e-14 186.953488,7.81597009e-14 Z" id="Rectangle-Copy-3" fill="#FF5252" fill-rule="nonzero"></path>
                <path d="M8,166.434109 L77.4263566,166.434109 C81.8446346,166.434109 85.4263566,170.015831 85.4263566,174.434109 L85.4263566,220.501015 C85.4263566,224.919293 81.8446346,228.501015 77.4263566,228.501015 L73.1961967,228.501015 L65.3374876,238.08506 L57.4645177,228.501015 L8,228.501015 C3.581722,228.501015 -2.0018724e-13,224.919293 -2.00728323e-13,220.501015 L-2.06057393e-13,174.434109 C-2.08560586e-13,170.015831 3.581722,166.434109 8,166.434109 Z" id="Rectangle-Copy-5" fill="url(#linearGradient-11)" fill-rule="nonzero" transform="translate(42.713178, 202.259584) scale(-1, 1) translate(-42.713178, -202.259584) "></path>
                <path d="M293.100775,182.25015 C301.127778,167.92314 311.807896,157.987043 325.141128,152.44186" id="Path-16" stroke="#2791D9" stroke-width="5" stroke-linecap="round" stroke-linejoin="round" fill-rule="nonzero"></path>
                <path d="M312.248062,183.225998 C318.722754,172.842108 324.473578,166.017421 329.500536,162.751938" id="Path-17" stroke="#2791D9" stroke-width="5" stroke-linecap="round" stroke-linejoin="round" fill-rule="nonzero"></path>
                <rect id="Rectangle" fill="#FFFFFF" fill-rule="nonzero" x="8.8372093" y="176.007752" width="54.496124" height="5.89147287" rx="2.94573643"></rect>
                <rect id="Rectangle-Copy-8" fill="#FFFFFF" fill-rule="nonzero" x="187.054264" y="8.10077519" width="32.4031008" height="5.89147287" rx="2.94573643"></rect>
                <rect id="Rectangle-Copy-9" fill="#FFFFFF" fill-rule="nonzero" x="187.054264" y="21.3565891" width="32.4031008" height="5.89147287" rx="2.94573643"></rect>
                <rect id="Rectangle-Copy-10" fill="#FFFFFF" fill-rule="nonzero" x="187.054264" y="34.6124031" width="32.4031008" height="5.89147287" rx="2.94573643"></rect>
                <path d="M97.9457364,411.666667 C122.961116,437.512913 173.694698,452.231622 250.146481,455.822795 C364.824156,461.209555 349.691555,470.160429 405.023488,470.160429 C460.355421,470.160429 498.962613,441.770713 449.685454,441.770713 C400.408295,441.770713 365.675851,433.103091 385.167905,423.773084 C398.162608,417.55308 386.037267,413.353075 348.791882,411.173069 L97.9457364,411.666667 Z" id="Path-120" fill="url(#linearGradient-12)" fill-rule="nonzero" opacity="0.278738839"></path>
                <rect id="Rectangle-Copy-6" fill="#FFFFFF" fill-rule="nonzero" x="8.8372093" y="190" width="54.496124" height="5.89147287" rx="2.94573643"></rect>
                <rect id="Rectangle-Copy-7" fill="#FFFFFF" fill-rule="nonzero" x="8.8372093" y="203.992248" width="54.496124" height="5.89147287" rx="2.94573643"></rect>
                <path d="M324.300758,142.513992 L307.093023,137.713178" id="Path-18" stroke="#2791D9" stroke-width="5" stroke-linecap="round" stroke-linejoin="round" fill-rule="nonzero"></path>
                <circle id="Oval" fill="#FF5252" fill-rule="nonzero" cx="324.767442" cy="92.0542636" r="12.5193798"></circle>
                <circle id="Oval" fill="#86D2E7" fill-rule="nonzero" cx="280.949612" cy="84.3217054" r="5.52325581"></circle>
                <rect id="Rectangle" fill="url(#linearGradient-11)" fill-rule="nonzero" x="319.612403" y="261.434109" width="35.3488372" height="4.41860465" rx="2.20930233"></rect>
                <rect id="Rectangle-Copy-11" fill="url(#linearGradient-11)" fill-rule="nonzero" x="316.666667" y="273.217054" width="35.3488372" height="4.41860465" rx="2.20930233"></rect>
                <rect id="Rectangle-Copy-12" fill="url(#linearGradient-11)" fill-rule="nonzero" x="312.248062" y="285" width="35.3488372" height="4.41860465" rx="2.20930233"></rect>
                <rect id="Rectangle-Copy-13" fill="url(#linearGradient-11)" fill-rule="nonzero" x="307.829457" y="296.782946" width="35.3488372" height="4.41860465" rx="2.20930233"></rect>
                <ellipse id="Oval-Copy-2" fill-opacity="0.3028476" fill="#FF5252" fill-rule="nonzero" opacity="0.486793155" cx="235.290698" cy="339.127907" rx="12.8875969" ry="15.0968992"></ellipse>
                <ellipse id="Oval" stroke="#FF5252" fill-rule="nonzero" cx="234.922481" cy="339.127907" rx="6.62790698" ry="7.73255814"></ellipse>
                <ellipse id="Oval" fill="#17CCD5" fill-rule="nonzero" transform="translate(377.790698, 282.054264) rotate(10.000000) translate(-377.790698, -282.054264) " cx="377.790698" cy="282.054264" rx="17.6744186" ry="24.3023256"></ellipse>
                <g id="Group-2" transform="translate(378.158915, 282.790698) scale(-1, 1) rotate(-10.000000) translate(-378.158915, -282.790698) translate(360.116279, 258.488372)">
                    <g id="Group-3" transform="translate(6.627907, 13.255814)">
                        <mask id="mask-14" fill="white">
                            <use xlink:href="#path-13"></use>
                        </mask>
                        <g id="Clip-2"></g>
                        <path d="M1.51447674,3.63209302 C-0.455116279,5.71656977 -0.455116279,7.73587209 2.03587209,10.9625581 C2.05686047,15.7269186 2.03587209,20.855814 2.03587209,21.8776163 C2.03587209,22.2377326 3.88947674,22.7458721 7.59668605,23.4020349 C11.3038953,22.6387209 13.1563953,22.1305814 13.1563953,21.8776163 L13.1563953,18.0544186 L16.7188953,18.0544186 C19.4981977,18.0544186 18.7834884,14.4665116 18.7172093,13.3629651 C18.6078488,11.5336628 18.2024419,7.24761628 17.5009884,0.50372093 C8.15563953,1.19854651 2.82680233,2.24244186 1.51447674,3.63209302" id="Fill-1" fill="#FFD5C2" mask="url(#mask-14)"></path>
                    </g>
                    <g id="Group-6">
                        <mask id="mask-16" fill="white">
                            <use xlink:href="#path-15"></use>
                        </mask>
                        <g id="Clip-5"></g>
                        <path d="M19.9845901,30.9850233 L19.9845901,33.0772326 C16.2231971,32.4133372 14.0574113,31.0137442 13.4905802,28.8784535 C15.1274724,29.978686 17.2341203,30.6746163 19.809408,30.9629302 C19.8685459,30.9695581 19.926568,30.9772907 19.9845901,30.9850233" id="Fill-4" fill="#828F99" mask="url(#mask-16)"></path>
                    </g>
                    <g id="Group-9" transform="translate(3.682171, 36.085271)">
                        <mask id="mask-18" fill="white">
                            <use xlink:href="#path-17"></use>
                        </mask>
                        <g id="Clip-8"></g>
                        <path d="M3.22374031,0.0171388302 C2.14670543,0.45739253 1.14478682,0.881578576 0.220193798,1.28862579 C3.43472868,6.8169697 8.30844961,10.6849894 13.7786822,11.3512615 C19.0909496,11.9993235 23.8696705,9.49919662 27.1283915,5.014179 C25.3885659,3.70091614 22.053624,2.03523608 17.1246705,0.0160676533 L3.22374031,0.0171388302 Z" id="Fill-7" fill="url(#linearGradient-19)" mask="url(#mask-18)"></path>
                    </g>
                    <g id="Group-12" transform="translate(11.782946, 36.085271)">
                        <mask id="mask-21" fill="white">
                            <use xlink:href="#path-20"></use>
                        </mask>
                        <g id="Clip-11"></g>
                        <path d="M0.857209302,1.0797463 L0.376686047,9.63844961 C1.48796512,10.2350951 2.65005814,10.6967724 3.8452907,11.0042001 L3.28965116,1.0797463 C2.74947674,0.517378436 2.34296512,0.236730092 2.07343023,0.236730092 C1.8027907,0.236730092 1.39738372,0.517378436 0.857209302,1.0797463" id="Fill-10" fill="#17CCD5" mask="url(#mask-21)"></path>
                    </g>
                    <g id="Group-15">
                        <mask id="mask-23" fill="white">
                            <use xlink:href="#path-22"></use>
                        </mask>
                        <g id="Clip-14"></g>
                        <path d="M15.7741954,40.8017267 L13.0471576,39.2419593 L13.1397698,37.5662035 C13.6854005,36.9873663 14.0949025,36.6979477 14.36716,36.6979477 C14.6405332,36.6979477 15.051151,36.9873663 15.5967818,37.5662035 L15.7741954,40.8017267 Z" id="Fill-13" fill="#2791D9" mask="url(#mask-23)"></path>
                    </g>
                    <g id="Group-18">
                        <mask id="mask-25" fill="white">
                            <use xlink:href="#path-24"></use>
                        </mask>
                        <g id="Clip-17"></g>
                        <polygon id="Fill-16" fill="#FFFFFF" mask="url(#mask-25)" points="14.3674947 36.6959593 12.6134426 39.825436 7.17164083 36.5247384 8.75162673 34.2646221 14.3674947 36.3192733 19.9844785 34.2646221 21.5644644 36.5247384 16.1226627 39.825436"></polygon>
                    </g>
                    <g id="Group-22" transform="translate(2.945736, 5.891473)">
                        <mask id="mask-27" fill="white">
                            <use xlink:href="#path-26"></use>
                        </mask>
                        <g id="Clip-21"></g>
                        <path d="M10.3251744,1.58183101 C7.95680233,-0.581665116 1.83703488,1.36602636 2.14412791,5.13497829 C0.223139535,5.13497829 -0.471686047,9.24834574 2.3275,10.2761426 C2.5694186,14.333924 5.34982558,18.7927969 5.34982558,20.5933488 C7.66959302,19.4641891 8.06837209,17.7562806 7.20011628,17.7857085 C4.68261628,17.8729023 3.18912791,13.4260186 5.43930233,12.2739705 C6.38819767,11.7856853 7.05982558,12.1017628 7.61215116,12.5693395 C8.99738372,14.5083116 8.96645349,18.5824419 9.51988372,21.1067023 C10.2147093,24.2783767 14.6465698,25.5655752 19.0773256,25.5655752 C21.6831977,25.5655752 23.3346512,23.5078016 22.0311628,20.0778155 C21.945,20.4211411 21.1971512,20.9911705 19.7710465,21.1928062 C17.9483721,21.4500279 12.1268605,21.1067023 11.0829651,18.6205891 C10.2677326,16.6739876 8.76651163,10.6445364 11.3768023,10.6445364 C16.818314,10.6445364 20.5873837,10.2597938 22.1990698,9.24834574 C26.1150581,6.79057054 23.366686,0.45812093 19.1833721,2.66085426 C18.9591279,1.15022171 16.5984884,0.0177922481 14.2455814,0.0177922481 C12.752093,0.0177922481 11.2619186,0.474469767 10.3251744,1.58183101" id="Fill-20" fill="#173155" mask="url(#mask-27)"></path>
                    </g>
                </g>
            </g>
        </g>
    </g>
</svg>